%TF.GenerationSoftware,KiCad,Pcbnew,7.0.2*%
%TF.CreationDate,2023-06-01T14:22:50-04:00*%
%TF.ProjectId,arisu,61726973-752e-46b6-9963-61645f706362,1.1*%
%TF.SameCoordinates,Original*%
%TF.FileFunction,Soldermask,Bot*%
%TF.FilePolarity,Negative*%
%FSLAX46Y46*%
G04 Gerber Fmt 4.6, Leading zero omitted, Abs format (unit mm)*
G04 Created by KiCad (PCBNEW 7.0.2) date 2023-06-01 14:22:50*
%MOMM*%
%LPD*%
G01*
G04 APERTURE LIST*
G04 Aperture macros list*
%AMRoundRect*
0 Rectangle with rounded corners*
0 $1 Rounding radius*
0 $2 $3 $4 $5 $6 $7 $8 $9 X,Y pos of 4 corners*
0 Add a 4 corners polygon primitive as box body*
4,1,4,$2,$3,$4,$5,$6,$7,$8,$9,$2,$3,0*
0 Add four circle primitives for the rounded corners*
1,1,$1+$1,$2,$3*
1,1,$1+$1,$4,$5*
1,1,$1+$1,$6,$7*
1,1,$1+$1,$8,$9*
0 Add four rect primitives between the rounded corners*
20,1,$1+$1,$2,$3,$4,$5,0*
20,1,$1+$1,$4,$5,$6,$7,0*
20,1,$1+$1,$6,$7,$8,$9,0*
20,1,$1+$1,$8,$9,$2,$3,0*%
G04 Aperture macros list end*
%ADD10C,1.750000*%
%ADD11C,3.050000*%
%ADD12C,4.000000*%
%ADD13RoundRect,0.301000X-1.025000X-1.000000X1.025000X-1.000000X1.025000X1.000000X-1.025000X1.000000X0*%
%ADD14RoundRect,0.301000X1.378525X-0.387676X0.353525X1.387676X-1.378525X0.387676X-0.353525X-1.387676X0*%
%ADD15C,3.048000*%
%ADD16C,3.987800*%
%ADD17RoundRect,0.301000X-1.387676X-0.353525X0.387676X-1.378525X1.387676X0.353525X-0.387676X1.378525X0*%
%ADD18RoundRect,0.301000X-0.387676X-1.378525X1.387676X-0.353525X0.387676X1.378525X-1.387676X0.353525X0*%
%ADD19C,2.102000*%
%ADD20RoundRect,0.301000X-0.353525X1.387676X-1.378525X-0.387676X0.353525X-1.387676X1.378525X0.387676X0*%
%ADD21C,4.502000*%
%ADD22C,2.476910*%
%ADD23C,1.092610*%
%ADD24RoundRect,0.276000X0.375000X-0.225000X0.375000X0.225000X-0.375000X0.225000X-0.375000X-0.225000X0*%
%ADD25RoundRect,0.051000X0.750000X0.450000X-0.750000X0.450000X-0.750000X-0.450000X0.750000X-0.450000X0*%
%ADD26RoundRect,0.191000X0.021213X-0.219203X0.219203X-0.021213X-0.021213X0.219203X-0.219203X0.021213X0*%
%ADD27RoundRect,0.301000X-0.262500X-0.450000X0.262500X-0.450000X0.262500X0.450000X-0.262500X0.450000X0*%
%ADD28RoundRect,0.201000X0.150000X-0.650000X0.150000X0.650000X-0.150000X0.650000X-0.150000X-0.650000X0*%
%ADD29RoundRect,0.191000X0.140000X0.170000X-0.140000X0.170000X-0.140000X-0.170000X0.140000X-0.170000X0*%
%ADD30RoundRect,0.276000X0.437260X-0.007356X0.212260X0.382356X-0.437260X0.007356X-0.212260X-0.382356X0*%
%ADD31RoundRect,0.051000X-0.150000X-0.350000X0.150000X-0.350000X0.150000X0.350000X-0.150000X0.350000X0*%
%ADD32RoundRect,0.051000X-0.500000X-0.350000X0.500000X-0.350000X0.500000X0.350000X-0.500000X0.350000X0*%
%ADD33O,1.202000X2.702000*%
%ADD34O,1.202000X2.202000*%
%ADD35RoundRect,0.191000X-0.170000X0.140000X-0.170000X-0.140000X0.170000X-0.140000X0.170000X0.140000X0*%
%ADD36RoundRect,0.191000X-0.140000X-0.170000X0.140000X-0.170000X0.140000X0.170000X-0.140000X0.170000X0*%
%ADD37RoundRect,0.276000X0.007356X0.437260X-0.382356X0.212260X-0.007356X-0.437260X0.382356X-0.212260X0*%
%ADD38RoundRect,0.151000X-0.130000X-0.100000X0.130000X-0.100000X0.130000X0.100000X-0.130000X0.100000X0*%
%ADD39RoundRect,0.101000X0.387500X0.050000X-0.387500X0.050000X-0.387500X-0.050000X0.387500X-0.050000X0*%
%ADD40RoundRect,0.101000X0.050000X0.387500X-0.050000X0.387500X-0.050000X-0.387500X0.050000X-0.387500X0*%
%ADD41RoundRect,0.195000X1.456000X1.456000X-1.456000X1.456000X-1.456000X-1.456000X1.456000X-1.456000X0*%
%ADD42RoundRect,0.191000X-0.021213X0.219203X-0.219203X0.021213X0.021213X-0.219203X0.219203X-0.021213X0*%
%ADD43RoundRect,0.191000X0.170000X-0.140000X0.170000X0.140000X-0.170000X0.140000X-0.170000X-0.140000X0*%
%ADD44RoundRect,0.276000X-0.382356X-0.212260X0.007356X-0.437260X0.382356X0.212260X-0.007356X0.437260X0*%
%ADD45RoundRect,0.276000X0.212260X-0.382356X0.437260X0.007356X-0.212260X0.382356X-0.437260X-0.007356X0*%
%ADD46RoundRect,0.126000X0.075000X-0.125000X0.075000X0.125000X-0.075000X0.125000X-0.075000X-0.125000X0*%
%ADD47RoundRect,0.251000X-0.800000X2.050000X-0.800000X-2.050000X0.800000X-2.050000X0.800000X2.050000X0*%
%ADD48RoundRect,0.301000X-0.750000X2.000000X-0.750000X-2.000000X0.750000X-2.000000X0.750000X2.000000X0*%
%ADD49RoundRect,0.301000X0.250000X0.475000X-0.250000X0.475000X-0.250000X-0.475000X0.250000X-0.475000X0*%
%ADD50RoundRect,0.191000X0.219203X0.021213X0.021213X0.219203X-0.219203X-0.021213X-0.021213X-0.219203X0*%
%ADD51RoundRect,0.301000X-0.250000X-0.475000X0.250000X-0.475000X0.250000X0.475000X-0.250000X0.475000X0*%
%ADD52RoundRect,0.051000X1.000000X0.750000X-1.000000X0.750000X-1.000000X-0.750000X1.000000X-0.750000X0*%
%ADD53RoundRect,0.051000X1.000000X1.900000X-1.000000X1.900000X-1.000000X-1.900000X1.000000X-1.900000X0*%
G04 APERTURE END LIST*
D10*
%TO.C,SW18*%
X80010000Y-53575000D03*
D11*
X81280000Y-51035000D03*
D12*
X85090000Y-53575000D03*
D11*
X87630000Y-48495000D03*
D10*
X90170000Y-53575000D03*
D13*
X78005000Y-51035000D03*
X90932000Y-48495000D03*
%TD*%
D10*
%TO.C,SW35*%
X137160000Y-77387500D03*
D11*
X138430000Y-74847500D03*
D12*
X142240000Y-77387500D03*
D11*
X144780000Y-72307500D03*
D10*
X147320000Y-77387500D03*
D13*
X135155000Y-74847500D03*
X148082000Y-72307500D03*
%TD*%
D10*
%TO.C,SW54*%
X243858300Y-141147209D03*
D11*
X241023595Y-141317357D03*
D12*
X241318300Y-136747800D03*
D11*
X235648891Y-137088095D03*
D10*
X238778300Y-132348391D03*
D14*
X242661095Y-144153590D03*
X233997891Y-134228480D03*
%TD*%
D10*
%TO.C,SW29*%
X18097500Y-79768700D03*
D11*
X19367500Y-77228700D03*
D12*
X23177500Y-79768700D03*
D11*
X25717500Y-74688700D03*
D10*
X28257500Y-79768700D03*
D13*
X16092500Y-77228700D03*
X29019500Y-74688700D03*
%TD*%
D10*
%TO.C,SW11*%
X299085000Y-34525000D03*
D11*
X300355000Y-31985000D03*
D12*
X304165000Y-34525000D03*
D11*
X306705000Y-29445000D03*
D10*
X309245000Y-34525000D03*
D13*
X297080000Y-31985000D03*
X310007000Y-29445000D03*
%TD*%
D15*
%TO.C,REF\u002A\u002A*%
X241398487Y-122916689D03*
D16*
X228226241Y-130521689D03*
D15*
X253336487Y-143593911D03*
D16*
X240164241Y-151198911D03*
%TD*%
D10*
%TO.C,SW76*%
X356235000Y-117868700D03*
D11*
X357505000Y-115328700D03*
D12*
X361315000Y-117868700D03*
D11*
X363855000Y-112788700D03*
D10*
X366395000Y-117868700D03*
D13*
X354230000Y-115328700D03*
X367157000Y-112788700D03*
%TD*%
D10*
%TO.C,SW57*%
X299085000Y-91675000D03*
D11*
X300355000Y-89135000D03*
D12*
X304165000Y-91675000D03*
D11*
X306705000Y-86595000D03*
D10*
X309245000Y-91675000D03*
D13*
X297080000Y-89135000D03*
X310007000Y-86595000D03*
%TD*%
D10*
%TO.C,SW48*%
X80010000Y-91675000D03*
D11*
X81280000Y-89135000D03*
D12*
X85090000Y-91675000D03*
D11*
X87630000Y-86595000D03*
D10*
X90170000Y-91675000D03*
D13*
X78005000Y-89135000D03*
X90932000Y-86595000D03*
%TD*%
D10*
%TO.C,SW46*%
X41910000Y-98818700D03*
D11*
X43180000Y-96278700D03*
D12*
X46990000Y-98818700D03*
D11*
X49530000Y-93738700D03*
D10*
X52070000Y-98818700D03*
D13*
X39905000Y-96278700D03*
X52832000Y-93738700D03*
%TD*%
D10*
%TO.C,SW66*%
X155272591Y-151981700D03*
D11*
X157642443Y-150416995D03*
D12*
X159672000Y-154521700D03*
D11*
X164411705Y-151392291D03*
D10*
X164071409Y-157061700D03*
D17*
X154806210Y-148779495D03*
X167271320Y-153043291D03*
%TD*%
D10*
%TO.C,SW25*%
X299085000Y-53575000D03*
D11*
X300355000Y-51035000D03*
D12*
X304165000Y-53575000D03*
D11*
X306705000Y-48495000D03*
D10*
X309245000Y-53575000D03*
D13*
X297080000Y-51035000D03*
X310007000Y-48495000D03*
%TD*%
D10*
%TO.C,SW58*%
X318135000Y-94056200D03*
D11*
X319405000Y-91516200D03*
D12*
X323215000Y-94056200D03*
D11*
X325755000Y-88976200D03*
D10*
X328295000Y-94056200D03*
D13*
X316130000Y-91516200D03*
X329057000Y-88976200D03*
%TD*%
D10*
%TO.C,SW68*%
X174322591Y-118986100D03*
D11*
X176692443Y-117421395D03*
D12*
X178722000Y-121526100D03*
D11*
X183461705Y-118396691D03*
D10*
X183121409Y-124066100D03*
D17*
X173856210Y-115783895D03*
X186321320Y-120047691D03*
%TD*%
D15*
%TO.C,REF\u002A\u002A*%
X143457087Y-120376689D03*
D16*
X130284841Y-112771689D03*
D15*
X131519087Y-141053911D03*
D16*
X118346841Y-133448911D03*
%TD*%
D10*
%TO.C,SW70*%
X215658591Y-140563900D03*
D11*
X215488443Y-137729195D03*
D12*
X220058000Y-138023900D03*
D11*
X219717705Y-132354491D03*
D10*
X224457409Y-135483900D03*
D18*
X212652210Y-139366695D03*
X222577320Y-130703491D03*
%TD*%
D10*
%TO.C,SW27*%
X337185000Y-60718700D03*
D11*
X338455000Y-58178700D03*
D12*
X342265000Y-60718700D03*
D11*
X344805000Y-55638700D03*
D10*
X347345000Y-60718700D03*
D13*
X335180000Y-58178700D03*
X348107000Y-55638700D03*
%TD*%
D10*
%TO.C,SW19*%
X99060000Y-55956200D03*
D11*
X100330000Y-53416200D03*
D12*
X104140000Y-55956200D03*
D11*
X106680000Y-50876200D03*
D10*
X109220000Y-55956200D03*
D13*
X97055000Y-53416200D03*
X109982000Y-50876200D03*
%TD*%
D10*
%TO.C,SW37*%
X260356100Y-131622209D03*
D11*
X257521395Y-131792357D03*
D12*
X257816100Y-127222800D03*
D11*
X252146691Y-127563095D03*
D10*
X255276100Y-122823391D03*
D14*
X259158895Y-134628590D03*
X250495691Y-124703480D03*
%TD*%
D10*
%TO.C,SW49*%
X99060000Y-94056200D03*
D11*
X100330000Y-91516200D03*
D12*
X104140000Y-94056200D03*
D11*
X106680000Y-88976200D03*
D10*
X109220000Y-94056200D03*
D13*
X97055000Y-91516200D03*
X109982000Y-88976200D03*
%TD*%
D19*
%TO.C,RST1*%
X162450000Y-71250000D03*
X162450000Y-64750000D03*
X166950000Y-71250000D03*
X166950000Y-64750000D03*
%TD*%
D10*
%TO.C,SW51*%
X150476700Y-132348391D03*
D11*
X152041405Y-134718243D03*
D12*
X147936700Y-136747800D03*
D11*
X151066109Y-141487505D03*
D10*
X145396700Y-141147209D03*
D20*
X153678905Y-131882010D03*
X149415109Y-144347120D03*
%TD*%
D21*
%TO.C,H7*%
X206450000Y-23550000D03*
%TD*%
D10*
%TO.C,SW32*%
X80010000Y-72625000D03*
D11*
X81280000Y-70085000D03*
D12*
X85090000Y-72625000D03*
D11*
X87630000Y-67545000D03*
D10*
X90170000Y-72625000D03*
D13*
X78005000Y-70085000D03*
X90932000Y-67545000D03*
%TD*%
D10*
%TO.C,SW33*%
X99060000Y-75006200D03*
D11*
X100330000Y-72466200D03*
D12*
X104140000Y-75006200D03*
D11*
X106680000Y-69926200D03*
D10*
X109220000Y-75006200D03*
D13*
X97055000Y-72466200D03*
X109982000Y-69926200D03*
%TD*%
D10*
%TO.C,SW2*%
X41910000Y-41668700D03*
D11*
X43180000Y-39128700D03*
D12*
X46990000Y-41668700D03*
D11*
X49530000Y-36588700D03*
D10*
X52070000Y-41668700D03*
D13*
X39905000Y-39128700D03*
X52832000Y-36588700D03*
%TD*%
D10*
%TO.C,SW45*%
X18097500Y-98818700D03*
D11*
X19367500Y-96278700D03*
D12*
X23177500Y-98818700D03*
D11*
X25717500Y-93738700D03*
D10*
X28257500Y-98818700D03*
D13*
X16092500Y-96278700D03*
X29019500Y-93738700D03*
%TD*%
D10*
%TO.C,SW21*%
X137160000Y-58337500D03*
D11*
X138430000Y-55797500D03*
D12*
X142240000Y-58337500D03*
D11*
X144780000Y-53257500D03*
D10*
X147320000Y-58337500D03*
D13*
X135155000Y-55797500D03*
X148082000Y-53257500D03*
%TD*%
D10*
%TO.C,SW26*%
X318135000Y-55956200D03*
D11*
X319405000Y-53416200D03*
D12*
X323215000Y-55956200D03*
D11*
X325755000Y-50876200D03*
D10*
X328295000Y-55956200D03*
D13*
X316130000Y-53416200D03*
X329057000Y-50876200D03*
%TD*%
D10*
%TO.C,SW40*%
X280035000Y-75006200D03*
D11*
X281305000Y-72466200D03*
D12*
X285115000Y-75006200D03*
D11*
X287655000Y-69926200D03*
D10*
X290195000Y-75006200D03*
D13*
X278030000Y-72466200D03*
X290957000Y-69926200D03*
%TD*%
D10*
%TO.C,SW14*%
X360997500Y-41668700D03*
D11*
X362267500Y-39128700D03*
D12*
X366077500Y-41668700D03*
D11*
X368617500Y-36588700D03*
D10*
X371157500Y-41668700D03*
D13*
X358992500Y-39128700D03*
X371919500Y-36588700D03*
%TD*%
D10*
%TO.C,SW20*%
X118110000Y-58337500D03*
D11*
X119380000Y-55797500D03*
D12*
X123190000Y-58337500D03*
D11*
X125730000Y-53257500D03*
D10*
X128270000Y-58337500D03*
D13*
X116105000Y-55797500D03*
X129032000Y-53257500D03*
%TD*%
D10*
%TO.C,SW75*%
X337185000Y-117868700D03*
D11*
X338455000Y-115328700D03*
D12*
X342265000Y-117868700D03*
D11*
X344805000Y-112788700D03*
D10*
X347345000Y-117868700D03*
D13*
X335180000Y-115328700D03*
X348107000Y-112788700D03*
%TD*%
D10*
%TO.C,SW13*%
X337185000Y-41668700D03*
D11*
X338455000Y-39128700D03*
D12*
X342265000Y-41668700D03*
D11*
X344805000Y-36588700D03*
D10*
X347345000Y-41668700D03*
D13*
X335180000Y-39128700D03*
X348107000Y-36588700D03*
%TD*%
D10*
%TO.C,SW60*%
X360997500Y-98818700D03*
D11*
X362267500Y-96278700D03*
D12*
X366077500Y-98818700D03*
D11*
X368617500Y-93738700D03*
D10*
X371157500Y-98818700D03*
D13*
X358992500Y-96278700D03*
X371919500Y-93738700D03*
%TD*%
D10*
%TO.C,SW43*%
X337185000Y-79768700D03*
D11*
X338455000Y-77228700D03*
D12*
X342265000Y-79768700D03*
D11*
X344805000Y-74688700D03*
D10*
X347345000Y-79768700D03*
D13*
X335180000Y-77228700D03*
X348107000Y-74688700D03*
%TD*%
D10*
%TO.C,SW6*%
X118110000Y-39287500D03*
D11*
X119380000Y-36747500D03*
D12*
X123190000Y-39287500D03*
D11*
X125730000Y-34207500D03*
D10*
X128270000Y-39287500D03*
D13*
X116105000Y-36747500D03*
X129032000Y-34207500D03*
%TD*%
D10*
%TO.C,SW53*%
X222631391Y-114541100D03*
D11*
X222461243Y-111706395D03*
D12*
X227030800Y-112001100D03*
D11*
X226690505Y-106331691D03*
D10*
X231430209Y-109461100D03*
D18*
X219625010Y-113343895D03*
X229550120Y-104680691D03*
%TD*%
D10*
%TO.C,SW42*%
X318135000Y-75006200D03*
D11*
X319405000Y-72466200D03*
D12*
X323215000Y-75006200D03*
D11*
X325755000Y-69926200D03*
D10*
X328295000Y-75006200D03*
D13*
X316130000Y-72466200D03*
X329057000Y-69926200D03*
%TD*%
D10*
%TO.C,SW4*%
X80010000Y-34525000D03*
D11*
X81280000Y-31985000D03*
D12*
X85090000Y-34525000D03*
D11*
X87630000Y-29445000D03*
D10*
X90170000Y-34525000D03*
D13*
X78005000Y-31985000D03*
X90932000Y-29445000D03*
%TD*%
D10*
%TO.C,SW41*%
X299085000Y-72625000D03*
D11*
X300355000Y-70085000D03*
D12*
X304165000Y-72625000D03*
D11*
X306705000Y-67545000D03*
D10*
X309245000Y-72625000D03*
D13*
X297080000Y-70085000D03*
X310007000Y-67545000D03*
%TD*%
D10*
%TO.C,SW39*%
X260985000Y-77387500D03*
D11*
X262255000Y-74847500D03*
D12*
X266065000Y-77387500D03*
D11*
X268605000Y-72307500D03*
D10*
X271145000Y-77387500D03*
D13*
X258980000Y-74847500D03*
X271907000Y-72307500D03*
%TD*%
D10*
%TO.C,SW10*%
X280035000Y-36906200D03*
D11*
X281305000Y-34366200D03*
D12*
X285115000Y-36906200D03*
D11*
X287655000Y-31826200D03*
D10*
X290195000Y-36906200D03*
D13*
X278030000Y-34366200D03*
X290957000Y-31826200D03*
%TD*%
D10*
%TO.C,SW61*%
X22860000Y-117868700D03*
D11*
X24130000Y-115328700D03*
D12*
X27940000Y-117868700D03*
D11*
X30480000Y-112788700D03*
D10*
X33020000Y-117868700D03*
D13*
X20855000Y-115328700D03*
X33782000Y-112788700D03*
%TD*%
D10*
%TO.C,SW74*%
X318135000Y-113106200D03*
D11*
X319405000Y-110566200D03*
D12*
X323215000Y-113106200D03*
D11*
X325755000Y-108026200D03*
D10*
X328295000Y-113106200D03*
D13*
X316130000Y-110566200D03*
X329057000Y-108026200D03*
%TD*%
D10*
%TO.C,SW64*%
X80010000Y-110725000D03*
D11*
X81280000Y-108185000D03*
D12*
X85090000Y-110725000D03*
D11*
X87630000Y-105645000D03*
D10*
X90170000Y-110725000D03*
D13*
X78005000Y-108185000D03*
X90932000Y-105645000D03*
%TD*%
D10*
%TO.C,SW28*%
X360997500Y-60718700D03*
D11*
X362267500Y-58178700D03*
D12*
X366077500Y-60718700D03*
D11*
X368617500Y-55638700D03*
D10*
X371157500Y-60718700D03*
D13*
X358992500Y-58178700D03*
X371919500Y-55638700D03*
%TD*%
D10*
%TO.C,SW31*%
X60960000Y-75006200D03*
D11*
X62230000Y-72466200D03*
D12*
X66040000Y-75006200D03*
D11*
X68580000Y-69926200D03*
D10*
X71120000Y-75006200D03*
D13*
X58955000Y-72466200D03*
X71882000Y-69926200D03*
%TD*%
D10*
%TO.C,SW36*%
X133978900Y-122823391D03*
D11*
X135543605Y-125193243D03*
D12*
X131438900Y-127222800D03*
D11*
X134568309Y-131962505D03*
D10*
X128898900Y-131622209D03*
D20*
X137181105Y-122357010D03*
X132917309Y-134822120D03*
%TD*%
D10*
%TO.C,SW23*%
X260985000Y-58337500D03*
D11*
X262255000Y-55797500D03*
D12*
X266065000Y-58337500D03*
D11*
X268605000Y-53257500D03*
D10*
X271145000Y-58337500D03*
D13*
X258980000Y-55797500D03*
X271907000Y-53257500D03*
%TD*%
D10*
%TO.C,SW12*%
X318135000Y-36906200D03*
D11*
X319405000Y-34366200D03*
D12*
X323215000Y-36906200D03*
D11*
X325755000Y-31826200D03*
D10*
X328295000Y-36906200D03*
D13*
X316130000Y-34366200D03*
X329057000Y-31826200D03*
%TD*%
D19*
%TO.C,BOOT1*%
X226850000Y-64400000D03*
X226850000Y-70900000D03*
X222350000Y-64400000D03*
X222350000Y-70900000D03*
%TD*%
D10*
%TO.C,SW9*%
X260985000Y-39287500D03*
D11*
X262255000Y-36747500D03*
D12*
X266065000Y-39287500D03*
D11*
X268605000Y-34207500D03*
D10*
X271145000Y-39287500D03*
D13*
X258980000Y-36747500D03*
X271907000Y-34207500D03*
%TD*%
D10*
%TO.C,SW30*%
X41910000Y-79768700D03*
D11*
X43180000Y-77228700D03*
D12*
X46990000Y-79768700D03*
D11*
X49530000Y-74688700D03*
D10*
X52070000Y-79768700D03*
D13*
X39905000Y-77228700D03*
X52832000Y-74688700D03*
%TD*%
D10*
%TO.C,SW52*%
X157824791Y-109461100D03*
D11*
X160194643Y-107896395D03*
D12*
X162224200Y-112001100D03*
D11*
X166963905Y-108871691D03*
D10*
X166623609Y-114541100D03*
D17*
X157358410Y-106258895D03*
X169823520Y-110522691D03*
%TD*%
D10*
%TO.C,SW8*%
X241935000Y-39287500D03*
D11*
X243205000Y-36747500D03*
D12*
X247015000Y-39287500D03*
D11*
X249555000Y-34207500D03*
D10*
X252095000Y-39287500D03*
D13*
X239930000Y-36747500D03*
X252857000Y-34207500D03*
%TD*%
D21*
%TO.C,H1*%
X182450000Y-23450000D03*
%TD*%
D10*
%TO.C,SW16*%
X41910000Y-60718700D03*
D11*
X43180000Y-58178700D03*
D12*
X46990000Y-60718700D03*
D11*
X49530000Y-55638700D03*
D10*
X52070000Y-60718700D03*
D13*
X39905000Y-58178700D03*
X52832000Y-55638700D03*
%TD*%
D10*
%TO.C,SW44*%
X360997500Y-79768700D03*
D11*
X362267500Y-77228700D03*
D12*
X366077500Y-79768700D03*
D11*
X368617500Y-74688700D03*
D10*
X371157500Y-79768700D03*
D13*
X358992500Y-77228700D03*
X371919500Y-74688700D03*
%TD*%
D10*
%TO.C,SW1*%
X18097500Y-41668700D03*
D11*
X19367500Y-39128700D03*
D12*
X23177500Y-41668700D03*
D11*
X25717500Y-36588700D03*
D10*
X28257500Y-41668700D03*
D13*
X16092500Y-39128700D03*
X29019500Y-36588700D03*
%TD*%
D21*
%TO.C,H3*%
X376450000Y-128050000D03*
%TD*%
D10*
%TO.C,SW47*%
X60960000Y-94056200D03*
D11*
X62230000Y-91516200D03*
D12*
X66040000Y-94056200D03*
D11*
X68580000Y-88976200D03*
D10*
X71120000Y-94056200D03*
D13*
X58955000Y-91516200D03*
X71882000Y-88976200D03*
%TD*%
D21*
%TO.C,H5*%
X376450000Y-23550000D03*
%TD*%
D10*
%TO.C,SW22*%
X241935000Y-58337500D03*
D11*
X243205000Y-55797500D03*
D12*
X247015000Y-58337500D03*
D11*
X249555000Y-53257500D03*
D10*
X252095000Y-58337500D03*
D13*
X239930000Y-55797500D03*
X252857000Y-53257500D03*
%TD*%
D22*
%TO.C,P1*%
X173070000Y-83050000D03*
D23*
X175610000Y-83050000D03*
D22*
X178150000Y-83050000D03*
X173070000Y-77335000D03*
X178150000Y-77335000D03*
D23*
X174594000Y-75430000D03*
X176626000Y-75430000D03*
%TD*%
D10*
%TO.C,SW59*%
X337185000Y-98818700D03*
D11*
X338455000Y-96278700D03*
D12*
X342265000Y-98818700D03*
D11*
X344805000Y-93738700D03*
D10*
X347345000Y-98818700D03*
D13*
X335180000Y-96278700D03*
X348107000Y-93738700D03*
%TD*%
D10*
%TO.C,SW5*%
X99060000Y-36906200D03*
D11*
X100330000Y-34366200D03*
D12*
X104140000Y-36906200D03*
D11*
X106680000Y-31826200D03*
D10*
X109220000Y-36906200D03*
D13*
X97055000Y-34366200D03*
X109982000Y-31826200D03*
%TD*%
D10*
%TO.C,SW69*%
X206133591Y-124066100D03*
D11*
X205963443Y-121231395D03*
D12*
X210533000Y-121526100D03*
D11*
X210192705Y-115856691D03*
D10*
X214932409Y-118986100D03*
D18*
X203127210Y-122868895D03*
X213052320Y-114205691D03*
%TD*%
D10*
%TO.C,SW3*%
X60960000Y-36906200D03*
D11*
X62230000Y-34366200D03*
D12*
X66040000Y-36906200D03*
D11*
X68580000Y-31826200D03*
D10*
X71120000Y-36906200D03*
D13*
X58955000Y-34366200D03*
X71882000Y-31826200D03*
%TD*%
D10*
%TO.C,SW17*%
X60960000Y-55956200D03*
D11*
X62230000Y-53416200D03*
D12*
X66040000Y-55956200D03*
D11*
X68580000Y-50876200D03*
D10*
X71120000Y-55956200D03*
D13*
X58955000Y-53416200D03*
X71882000Y-50876200D03*
%TD*%
D10*
%TO.C,SW71*%
X225183591Y-157061700D03*
D11*
X225013443Y-154226995D03*
D12*
X229583000Y-154521700D03*
D11*
X229242705Y-148852291D03*
D10*
X233982409Y-151981700D03*
D18*
X222177210Y-155864495D03*
X232102320Y-147201291D03*
%TD*%
D10*
%TO.C,SW24*%
X280035000Y-55956200D03*
D11*
X281305000Y-53416200D03*
D12*
X285115000Y-55956200D03*
D11*
X287655000Y-50876200D03*
D10*
X290195000Y-55956200D03*
D13*
X278030000Y-53416200D03*
X290957000Y-50876200D03*
%TD*%
D10*
%TO.C,SW63*%
X60960000Y-113106200D03*
D11*
X62230000Y-110566200D03*
D12*
X66040000Y-113106200D03*
D11*
X68580000Y-108026200D03*
D10*
X71120000Y-113106200D03*
D13*
X58955000Y-110566200D03*
X71882000Y-108026200D03*
%TD*%
D21*
%TO.C,H6*%
X13950000Y-23050000D03*
%TD*%
D10*
%TO.C,SW67*%
X164797591Y-135483900D03*
D11*
X167167443Y-133919195D03*
D12*
X169197000Y-138023900D03*
D11*
X173936705Y-134894491D03*
D10*
X173596409Y-140563900D03*
D17*
X164331210Y-132281695D03*
X176796320Y-136545491D03*
%TD*%
D10*
%TO.C,SW65*%
X99060000Y-113106200D03*
D11*
X100330000Y-110566200D03*
D12*
X104140000Y-113106200D03*
D11*
X106680000Y-108026200D03*
D10*
X109220000Y-113106200D03*
D13*
X97055000Y-110566200D03*
X109982000Y-108026200D03*
%TD*%
D10*
%TO.C,SW72*%
X280035000Y-113106200D03*
D11*
X281305000Y-110566200D03*
D12*
X285115000Y-113106200D03*
D11*
X287655000Y-108026200D03*
D10*
X290195000Y-113106200D03*
D13*
X278030000Y-110566200D03*
X290957000Y-108026200D03*
%TD*%
D10*
%TO.C,SW62*%
X41910000Y-117868700D03*
D11*
X43180000Y-115328700D03*
D12*
X46990000Y-117868700D03*
D11*
X49530000Y-112788700D03*
D10*
X52070000Y-117868700D03*
D13*
X39905000Y-115328700D03*
X52832000Y-112788700D03*
%TD*%
D10*
%TO.C,SW73*%
X299085000Y-110725000D03*
D11*
X300355000Y-108185000D03*
D12*
X304165000Y-110725000D03*
D11*
X306705000Y-105645000D03*
D10*
X309245000Y-110725000D03*
D13*
X297080000Y-108185000D03*
X310007000Y-105645000D03*
%TD*%
D15*
%TO.C,REF\u002A\u002A*%
X256964027Y-141363911D03*
D16*
X270136273Y-133758911D03*
D15*
X245026027Y-120686689D03*
D16*
X258198273Y-113081689D03*
%TD*%
D10*
%TO.C,SW15*%
X18097500Y-60718700D03*
D11*
X19367500Y-58178700D03*
D12*
X23177500Y-60718700D03*
D11*
X25717500Y-55638700D03*
D10*
X28257500Y-60718700D03*
D13*
X16092500Y-58178700D03*
X29019500Y-55638700D03*
%TD*%
D10*
%TO.C,SW7*%
X137160000Y-39287500D03*
D11*
X138430000Y-36747500D03*
D12*
X142240000Y-39287500D03*
D11*
X144780000Y-34207500D03*
D10*
X147320000Y-39287500D03*
D13*
X135155000Y-36747500D03*
X148082000Y-34207500D03*
%TD*%
D21*
%TO.C,H2*%
X194450000Y-171550000D03*
%TD*%
D10*
%TO.C,SW34*%
X118110000Y-77387500D03*
D11*
X119380000Y-74847500D03*
D12*
X123190000Y-77387500D03*
D11*
X125730000Y-72307500D03*
D10*
X128270000Y-77387500D03*
D13*
X116105000Y-74847500D03*
X129032000Y-72307500D03*
%TD*%
D15*
%TO.C,REF\u002A\u002A*%
X135608513Y-142822025D03*
D16*
X148780759Y-150427025D03*
D15*
X147546513Y-122144803D03*
D16*
X160718759Y-129749803D03*
%TD*%
D10*
%TO.C,SW55*%
X260985000Y-96437500D03*
D11*
X262255000Y-93897500D03*
D12*
X266065000Y-96437500D03*
D11*
X268605000Y-91357500D03*
D10*
X271145000Y-96437500D03*
D13*
X258980000Y-93897500D03*
X271907000Y-91357500D03*
%TD*%
D10*
%TO.C,SW50*%
X118110000Y-96437500D03*
D11*
X119380000Y-93897500D03*
D12*
X123190000Y-96437500D03*
D11*
X125730000Y-91357500D03*
D10*
X128270000Y-96437500D03*
D13*
X116105000Y-93897500D03*
X129032000Y-91357500D03*
%TD*%
D10*
%TO.C,SW38*%
X241935000Y-77387500D03*
D11*
X243205000Y-74847500D03*
D12*
X247015000Y-77387500D03*
D11*
X249555000Y-72307500D03*
D10*
X252095000Y-77387500D03*
D13*
X239930000Y-74847500D03*
X252857000Y-72307500D03*
%TD*%
D21*
%TO.C,H4*%
X13950000Y-128050000D03*
%TD*%
D10*
%TO.C,SW56*%
X280035000Y-94056200D03*
D11*
X281305000Y-91516200D03*
D12*
X285115000Y-94056200D03*
D11*
X287655000Y-88976200D03*
D10*
X290195000Y-94056200D03*
D13*
X278030000Y-91516200D03*
X290957000Y-88976200D03*
%TD*%
D24*
%TO.C,D10*%
X288131250Y-42131250D03*
X288131250Y-38831250D03*
%TD*%
%TO.C,D21*%
X145256250Y-63562500D03*
X145256250Y-60262500D03*
%TD*%
D25*
%TO.C,LED1*%
X235018800Y-22956200D03*
X235018800Y-26256200D03*
X230118800Y-26256200D03*
X230118800Y-22956200D03*
%TD*%
D24*
%TO.C,D16*%
X50006250Y-65943750D03*
X50006250Y-62643750D03*
%TD*%
%TO.C,D60*%
X369093750Y-104043750D03*
X369093750Y-100743750D03*
%TD*%
D26*
%TO.C,C7*%
X190667696Y-54796518D03*
X191346518Y-54117696D03*
%TD*%
D24*
%TO.C,D11*%
X307181250Y-39750000D03*
X307181250Y-36450000D03*
%TD*%
D27*
%TO.C,R101*%
X217368750Y-24606250D03*
X219193750Y-24606250D03*
%TD*%
D28*
%TO.C,U2*%
X220980000Y-52018750D03*
X219710000Y-52018750D03*
X218440000Y-52018750D03*
X217170000Y-52018750D03*
X217170000Y-44818750D03*
X218440000Y-44818750D03*
X219710000Y-44818750D03*
X220980000Y-44818750D03*
%TD*%
D29*
%TO.C,C9*%
X203860000Y-62300000D03*
X202900000Y-62300000D03*
%TD*%
D30*
%TO.C,D69*%
X215931250Y-124460192D03*
X214281250Y-121602308D03*
%TD*%
D24*
%TO.C,D38*%
X250031250Y-82612500D03*
X250031250Y-79312500D03*
%TD*%
%TO.C,D59*%
X345281250Y-104043750D03*
X345281250Y-100743750D03*
%TD*%
%TO.C,D3*%
X69056250Y-42131250D03*
X69056250Y-38831250D03*
%TD*%
%TO.C,D18*%
X88106250Y-58800000D03*
X88106250Y-55500000D03*
%TD*%
D25*
%TO.C,LED8*%
X160400000Y-23000000D03*
X160400000Y-26300000D03*
X155500000Y-26300000D03*
X155500000Y-23000000D03*
%TD*%
D29*
%TO.C,C10*%
X203860000Y-63737550D03*
X202900000Y-63737550D03*
%TD*%
D24*
%TO.C,D29*%
X26193750Y-84993750D03*
X26193750Y-81693750D03*
%TD*%
%TO.C,D23*%
X269081250Y-63562500D03*
X269081250Y-60262500D03*
%TD*%
%TO.C,D65*%
X107156250Y-118331250D03*
X107156250Y-115031250D03*
%TD*%
D31*
%TO.C,USB1*%
X191470000Y-27335000D03*
X191970000Y-27335000D03*
X192470000Y-27335000D03*
X192970000Y-27335000D03*
X193470000Y-27335000D03*
X193970000Y-27335000D03*
X194970000Y-27335000D03*
X195470000Y-27335000D03*
X195970000Y-27335000D03*
X196470000Y-27335000D03*
X196970000Y-27335000D03*
X197470000Y-27335000D03*
D32*
X197570000Y-26035000D03*
D31*
X196720000Y-26035000D03*
X196220000Y-26035000D03*
X195720000Y-26035000D03*
X195220000Y-26035000D03*
X194720000Y-26035000D03*
X194220000Y-26035000D03*
X193720000Y-26035000D03*
X193220000Y-26035000D03*
X192720000Y-26035000D03*
X192220000Y-26035000D03*
D32*
X191370000Y-26035000D03*
D33*
X190150000Y-21565000D03*
D34*
X190150000Y-26925000D03*
D33*
X198790000Y-21565000D03*
D34*
X198790000Y-26925000D03*
%TD*%
D35*
%TO.C,R6*%
X193850000Y-54040000D03*
X193850000Y-55000000D03*
%TD*%
D24*
%TO.C,D27*%
X345281250Y-65943750D03*
X345281250Y-62643750D03*
%TD*%
%TO.C,D9*%
X269081250Y-44512500D03*
X269081250Y-41212500D03*
%TD*%
%TO.C,D76*%
X364331250Y-123093750D03*
X364331250Y-119793750D03*
%TD*%
D36*
%TO.C,C14*%
X204800000Y-65200000D03*
X205760000Y-65200000D03*
%TD*%
D29*
%TO.C,C12*%
X203860000Y-66649999D03*
X202900000Y-66649999D03*
%TD*%
D24*
%TO.C,D24*%
X288131250Y-61181250D03*
X288131250Y-57881250D03*
%TD*%
%TO.C,D1*%
X26193750Y-46893750D03*
X26193750Y-43593750D03*
%TD*%
D25*
%TO.C,LED2*%
X368368800Y-22956200D03*
X368368800Y-26256200D03*
X363468800Y-26256200D03*
X363468800Y-22956200D03*
%TD*%
D24*
%TO.C,D61*%
X30956250Y-123093750D03*
X30956250Y-119793750D03*
%TD*%
D37*
%TO.C,D37*%
X261403492Y-121482650D03*
X258545608Y-123132650D03*
%TD*%
D24*
%TO.C,D56*%
X288131250Y-99281250D03*
X288131250Y-95981250D03*
%TD*%
D30*
%TO.C,D71*%
X234981250Y-157003942D03*
X233331250Y-154146058D03*
%TD*%
D38*
%TO.C,C18*%
X187130000Y-28250000D03*
X187770000Y-28250000D03*
%TD*%
D24*
%TO.C,D32*%
X88106250Y-77850000D03*
X88106250Y-74550000D03*
%TD*%
D39*
%TO.C,U3*%
X199017500Y-58360000D03*
X199017500Y-58760000D03*
X199017500Y-59160000D03*
X199017500Y-59560000D03*
X199017500Y-59960000D03*
X199017500Y-60360000D03*
X199017500Y-60760000D03*
X199017500Y-61160000D03*
X199017500Y-61560000D03*
X199017500Y-61960000D03*
X199017500Y-62360000D03*
X199017500Y-62760000D03*
X199017500Y-63160000D03*
X199017500Y-63560000D03*
D40*
X198180000Y-64397500D03*
X197780000Y-64397500D03*
X197380000Y-64397500D03*
X196980000Y-64397500D03*
X196580000Y-64397500D03*
X196180000Y-64397500D03*
X195780000Y-64397500D03*
X195380000Y-64397500D03*
X194980000Y-64397500D03*
X194580000Y-64397500D03*
X194180000Y-64397500D03*
X193780000Y-64397500D03*
X193380000Y-64397500D03*
X192980000Y-64397500D03*
D39*
X192142500Y-63560000D03*
X192142500Y-63160000D03*
X192142500Y-62760000D03*
X192142500Y-62360000D03*
X192142500Y-61960000D03*
X192142500Y-61560000D03*
X192142500Y-61160000D03*
X192142500Y-60760000D03*
X192142500Y-60360000D03*
X192142500Y-59960000D03*
X192142500Y-59560000D03*
X192142500Y-59160000D03*
X192142500Y-58760000D03*
X192142500Y-58360000D03*
D40*
X192980000Y-57522500D03*
X193380000Y-57522500D03*
X193780000Y-57522500D03*
X194180000Y-57522500D03*
X194580000Y-57522500D03*
X194980000Y-57522500D03*
X195380000Y-57522500D03*
X195780000Y-57522500D03*
X196180000Y-57522500D03*
X196580000Y-57522500D03*
X196980000Y-57522500D03*
X197380000Y-57522500D03*
X197780000Y-57522500D03*
X198180000Y-57522500D03*
D41*
X195580000Y-60960000D03*
%TD*%
D25*
%TO.C,LED5*%
X173900000Y-167418700D03*
X173900000Y-170718700D03*
X169000000Y-170718700D03*
X169000000Y-167418700D03*
%TD*%
D27*
%TO.C,R9*%
X186537500Y-26950000D03*
X188362500Y-26950000D03*
%TD*%
D24*
%TO.C,D20*%
X126206250Y-63562500D03*
X126206250Y-60262500D03*
%TD*%
D42*
%TO.C,C2*%
X189939411Y-71410589D03*
X189260589Y-72089411D03*
%TD*%
D24*
%TO.C,D5*%
X107156250Y-42131250D03*
X107156250Y-38831250D03*
%TD*%
%TO.C,D47*%
X69056250Y-99281250D03*
X69056250Y-95981250D03*
%TD*%
%TO.C,D7*%
X145256250Y-44512500D03*
X145256250Y-41212500D03*
%TD*%
%TO.C,D43*%
X345281250Y-84993750D03*
X345281250Y-81693750D03*
%TD*%
%TO.C,D63*%
X69056250Y-118331250D03*
X69056250Y-115031250D03*
%TD*%
D43*
%TO.C,C4*%
X220950000Y-43310000D03*
X220950000Y-42350000D03*
%TD*%
D26*
%TO.C,C6*%
X189960589Y-54089411D03*
X190639411Y-53410589D03*
%TD*%
D27*
%TO.C,R4*%
X188787500Y-66550000D03*
X190612500Y-66550000D03*
%TD*%
D36*
%TO.C,C16*%
X204800000Y-62300000D03*
X205760000Y-62300000D03*
%TD*%
D44*
%TO.C,D36*%
X125470258Y-127515150D03*
X128328142Y-129165150D03*
%TD*%
D24*
%TO.C,D31*%
X69056250Y-80231250D03*
X69056250Y-76931250D03*
%TD*%
%TO.C,D50*%
X126206250Y-101662500D03*
X126206250Y-98362500D03*
%TD*%
%TO.C,D49*%
X107156250Y-99281250D03*
X107156250Y-95981250D03*
%TD*%
%TO.C,D75*%
X345281250Y-123093750D03*
X345281250Y-119793750D03*
%TD*%
D45*
%TO.C,D52*%
X161893750Y-118110192D03*
X163543750Y-115252308D03*
%TD*%
D46*
%TO.C,R2*%
X193250000Y-29500000D03*
X193250000Y-29000000D03*
%TD*%
D24*
%TO.C,D44*%
X369093750Y-84993750D03*
X369093750Y-81693750D03*
%TD*%
%TO.C,D17*%
X69056250Y-61181250D03*
X69056250Y-57881250D03*
%TD*%
%TO.C,D30*%
X50006250Y-84993750D03*
X50006250Y-81693750D03*
%TD*%
%TO.C,D55*%
X269081250Y-101662500D03*
X269081250Y-98362500D03*
%TD*%
%TO.C,D62*%
X50006250Y-123093750D03*
X50006250Y-119793750D03*
%TD*%
D47*
%TO.C,Y1*%
X194250000Y-76850000D03*
D48*
X194250000Y-85350000D03*
%TD*%
D24*
%TO.C,D35*%
X145256250Y-82612500D03*
X145256250Y-79312500D03*
%TD*%
D35*
%TO.C,C1*%
X194250000Y-89120000D03*
X194250000Y-90080000D03*
%TD*%
D49*
%TO.C,C17*%
X199850000Y-43550000D03*
X197950000Y-43550000D03*
%TD*%
D50*
%TO.C,C8*%
X192678822Y-55478822D03*
X192000000Y-54800000D03*
%TD*%
D42*
%TO.C,R3*%
X191239411Y-70110589D03*
X190560589Y-70789411D03*
%TD*%
D25*
%TO.C,LED4*%
X219937500Y-167418700D03*
X219937500Y-170718700D03*
X215037500Y-170718700D03*
X215037500Y-167418700D03*
%TD*%
D24*
%TO.C,D40*%
X288131250Y-80231250D03*
X288131250Y-76931250D03*
%TD*%
D51*
%TO.C,C3*%
X211593700Y-45931300D03*
X213493700Y-45931300D03*
%TD*%
D24*
%TO.C,D13*%
X345281250Y-46893750D03*
X345281250Y-43593750D03*
%TD*%
%TO.C,D12*%
X326231250Y-42131250D03*
X326231250Y-38831250D03*
%TD*%
%TO.C,D2*%
X50006250Y-46893750D03*
X50006250Y-43593750D03*
%TD*%
%TO.C,D58*%
X326231250Y-99281250D03*
X326231250Y-95981250D03*
%TD*%
%TO.C,D64*%
X88106250Y-115950000D03*
X88106250Y-112650000D03*
%TD*%
D30*
%TO.C,D53*%
X232600000Y-114935192D03*
X230950000Y-112077308D03*
%TD*%
D44*
%TO.C,D51*%
X141968058Y-136417350D03*
X144825942Y-138067350D03*
%TD*%
D51*
%TO.C,C5*%
X211600000Y-43550000D03*
X213500000Y-43550000D03*
%TD*%
D24*
%TO.C,D8*%
X250031250Y-44512500D03*
X250031250Y-41212500D03*
%TD*%
D36*
%TO.C,C15*%
X204800000Y-63750000D03*
X205760000Y-63750000D03*
%TD*%
D35*
%TO.C,R5*%
X194850000Y-54040000D03*
X194850000Y-55000000D03*
%TD*%
D45*
%TO.C,D68*%
X178562500Y-127635192D03*
X180212500Y-124777308D03*
%TD*%
D24*
%TO.C,D22*%
X250031250Y-63562500D03*
X250031250Y-60262500D03*
%TD*%
D46*
%TO.C,R7*%
X193950000Y-29500000D03*
X193950000Y-29000000D03*
%TD*%
D25*
%TO.C,LED7*%
X25468800Y-22956200D03*
X25468800Y-26256200D03*
X20568800Y-26256200D03*
X20568800Y-22956200D03*
%TD*%
D24*
%TO.C,D72*%
X288131250Y-118331250D03*
X288131250Y-115031250D03*
%TD*%
%TO.C,D25*%
X307181250Y-58800000D03*
X307181250Y-55500000D03*
%TD*%
%TO.C,D19*%
X107156250Y-61181250D03*
X107156250Y-57881250D03*
%TD*%
D37*
%TO.C,D54*%
X244905692Y-131178600D03*
X242047808Y-132828600D03*
%TD*%
D24*
%TO.C,D28*%
X369093750Y-65943750D03*
X369093750Y-62643750D03*
%TD*%
%TO.C,D34*%
X126206250Y-82612500D03*
X126206250Y-79312500D03*
%TD*%
%TO.C,D48*%
X88106250Y-96900000D03*
X88106250Y-93600000D03*
%TD*%
D25*
%TO.C,LED3*%
X310425000Y-123762500D03*
X310425000Y-127062500D03*
X305525000Y-127062500D03*
X305525000Y-123762500D03*
%TD*%
D45*
%TO.C,D67*%
X169037500Y-144303942D03*
X170687500Y-141446058D03*
%TD*%
D29*
%TO.C,C11*%
X203860000Y-65200000D03*
X202900000Y-65200000D03*
%TD*%
D24*
%TO.C,D14*%
X369093750Y-46893750D03*
X369093750Y-43593750D03*
%TD*%
%TO.C,D41*%
X307181250Y-77850000D03*
X307181250Y-74550000D03*
%TD*%
%TO.C,D39*%
X269081250Y-82612500D03*
X269081250Y-79312500D03*
%TD*%
D35*
%TO.C,R1*%
X222350000Y-57570000D03*
X222350000Y-58530000D03*
%TD*%
D24*
%TO.C,D46*%
X50006250Y-104043750D03*
X50006250Y-100743750D03*
%TD*%
%TO.C,D26*%
X326231250Y-61181250D03*
X326231250Y-57881250D03*
%TD*%
D25*
%TO.C,LED6*%
X83412500Y-123762500D03*
X83412500Y-127062500D03*
X78512500Y-127062500D03*
X78512500Y-123762500D03*
%TD*%
D24*
%TO.C,D74*%
X326231250Y-118331250D03*
X326231250Y-115031250D03*
%TD*%
D36*
%TO.C,C13*%
X204800000Y-66650000D03*
X205760000Y-66650000D03*
%TD*%
D24*
%TO.C,D45*%
X26193750Y-104043750D03*
X26193750Y-100743750D03*
%TD*%
%TO.C,D15*%
X26193750Y-65943750D03*
X26193750Y-62643750D03*
%TD*%
%TO.C,D57*%
X307181250Y-96900000D03*
X307181250Y-93600000D03*
%TD*%
%TO.C,D33*%
X107156250Y-80231250D03*
X107156250Y-76931250D03*
%TD*%
D52*
%TO.C,U1*%
X208550000Y-41250000D03*
X208550000Y-43550000D03*
D53*
X202250000Y-43550000D03*
D52*
X208550000Y-45850000D03*
%TD*%
D24*
%TO.C,D4*%
X88106250Y-39750000D03*
X88106250Y-36450000D03*
%TD*%
%TO.C,D73*%
X307181250Y-115950000D03*
X307181250Y-112650000D03*
%TD*%
%TO.C,D6*%
X126206250Y-44512500D03*
X126206250Y-41212500D03*
%TD*%
D45*
%TO.C,D66*%
X159512500Y-160972692D03*
X161162500Y-158114808D03*
%TD*%
D24*
%TO.C,D42*%
X326231250Y-80231250D03*
X326231250Y-76931250D03*
%TD*%
D30*
%TO.C,D70*%
X225456250Y-141128942D03*
X223806250Y-138271058D03*
%TD*%
M02*
