%TF.GenerationSoftware,KiCad,Pcbnew,7.0.2*%
%TF.CreationDate,2023-06-02T16:23:41-04:00*%
%TF.ProjectId,arisu,61726973-752e-46b6-9963-61645f706362,1.1*%
%TF.SameCoordinates,Original*%
%TF.FileFunction,Legend,Bot*%
%TF.FilePolarity,Positive*%
%FSLAX46Y46*%
G04 Gerber Fmt 4.6, Leading zero omitted, Abs format (unit mm)*
G04 Created by KiCad (PCBNEW 7.0.2) date 2023-06-02 16:23:41*
%MOMM*%
%LPD*%
G01*
G04 APERTURE LIST*
G04 Aperture macros list*
%AMRoundRect*
0 Rectangle with rounded corners*
0 $1 Rounding radius*
0 $2 $3 $4 $5 $6 $7 $8 $9 X,Y pos of 4 corners*
0 Add a 4 corners polygon primitive as box body*
4,1,4,$2,$3,$4,$5,$6,$7,$8,$9,$2,$3,0*
0 Add four circle primitives for the rounded corners*
1,1,$1+$1,$2,$3*
1,1,$1+$1,$4,$5*
1,1,$1+$1,$6,$7*
1,1,$1+$1,$8,$9*
0 Add four rect primitives between the rounded corners*
20,1,$1+$1,$2,$3,$4,$5,0*
20,1,$1+$1,$4,$5,$6,$7,0*
20,1,$1+$1,$6,$7,$8,$9,0*
20,1,$1+$1,$8,$9,$2,$3,0*%
G04 Aperture macros list end*
%ADD10C,0.150000*%
%ADD11C,0.120000*%
%ADD12C,1.750000*%
%ADD13C,3.050000*%
%ADD14C,4.000000*%
%ADD15RoundRect,0.301000X-1.025000X-1.000000X1.025000X-1.000000X1.025000X1.000000X-1.025000X1.000000X0*%
%ADD16RoundRect,0.301000X1.378525X-0.387676X0.353525X1.387676X-1.378525X0.387676X-0.353525X-1.387676X0*%
%ADD17C,3.048000*%
%ADD18C,3.987800*%
%ADD19RoundRect,0.301000X-1.387676X-0.353525X0.387676X-1.378525X1.387676X0.353525X-0.387676X1.378525X0*%
%ADD20RoundRect,0.301000X-0.387676X-1.378525X1.387676X-0.353525X0.387676X1.378525X-1.387676X0.353525X0*%
%ADD21C,2.102000*%
%ADD22RoundRect,0.301000X-0.353525X1.387676X-1.378525X-0.387676X0.353525X-1.387676X1.378525X0.387676X0*%
%ADD23C,4.502000*%
%ADD24C,2.476910*%
%ADD25C,1.092610*%
%ADD26RoundRect,0.276000X0.375000X-0.225000X0.375000X0.225000X-0.375000X0.225000X-0.375000X-0.225000X0*%
%ADD27RoundRect,0.051000X0.750000X0.450000X-0.750000X0.450000X-0.750000X-0.450000X0.750000X-0.450000X0*%
%ADD28RoundRect,0.191000X0.021213X-0.219203X0.219203X-0.021213X-0.021213X0.219203X-0.219203X0.021213X0*%
%ADD29RoundRect,0.186000X-0.135000X-0.185000X0.135000X-0.185000X0.135000X0.185000X-0.135000X0.185000X0*%
%ADD30RoundRect,0.201000X0.150000X-0.650000X0.150000X0.650000X-0.150000X0.650000X-0.150000X-0.650000X0*%
%ADD31RoundRect,0.191000X0.219203X0.021213X0.021213X0.219203X-0.219203X-0.021213X-0.021213X-0.219203X0*%
%ADD32RoundRect,0.276000X0.437260X-0.007356X0.212260X0.382356X-0.437260X0.007356X-0.212260X-0.382356X0*%
%ADD33RoundRect,0.191000X0.140000X0.170000X-0.140000X0.170000X-0.140000X-0.170000X0.140000X-0.170000X0*%
%ADD34RoundRect,0.251000X-0.275000X0.200000X-0.275000X-0.200000X0.275000X-0.200000X0.275000X0.200000X0*%
%ADD35RoundRect,0.191000X-0.219203X-0.021213X-0.021213X-0.219203X0.219203X0.021213X0.021213X0.219203X0*%
%ADD36RoundRect,0.276000X0.007356X0.437260X-0.382356X0.212260X-0.007356X-0.437260X0.382356X-0.212260X0*%
%ADD37RoundRect,0.191000X-0.140000X-0.170000X0.140000X-0.170000X0.140000X0.170000X-0.140000X0.170000X0*%
%ADD38RoundRect,0.101000X0.387500X0.050000X-0.387500X0.050000X-0.387500X-0.050000X0.387500X-0.050000X0*%
%ADD39RoundRect,0.101000X0.050000X0.387500X-0.050000X0.387500X-0.050000X-0.387500X0.050000X-0.387500X0*%
%ADD40RoundRect,0.195000X1.456000X1.456000X-1.456000X1.456000X-1.456000X-1.456000X1.456000X-1.456000X0*%
%ADD41RoundRect,0.191000X-0.021213X0.219203X-0.219203X0.021213X0.021213X-0.219203X0.219203X-0.021213X0*%
%ADD42RoundRect,0.191000X0.170000X-0.140000X0.170000X0.140000X-0.170000X0.140000X-0.170000X-0.140000X0*%
%ADD43RoundRect,0.276000X-0.382356X-0.212260X0.007356X-0.437260X0.382356X0.212260X-0.007356X0.437260X0*%
%ADD44RoundRect,0.276000X0.212260X-0.382356X0.437260X0.007356X-0.212260X0.382356X-0.437260X-0.007356X0*%
%ADD45RoundRect,0.186000X0.185000X-0.135000X0.185000X0.135000X-0.185000X0.135000X-0.185000X-0.135000X0*%
%ADD46RoundRect,0.051000X-0.070711X-0.919239X0.919239X0.070711X0.070711X0.919239X-0.919239X-0.070711X0*%
%ADD47RoundRect,0.276000X-0.335876X-0.017678X-0.017678X-0.335876X0.335876X0.017678X0.017678X0.335876X0*%
%ADD48RoundRect,0.186000X-0.035355X0.226274X-0.226274X0.035355X0.035355X-0.226274X0.226274X-0.035355X0*%
%ADD49RoundRect,0.191000X-0.170000X0.140000X-0.170000X-0.140000X0.170000X-0.140000X0.170000X0.140000X0*%
%ADD50RoundRect,0.186000X-0.185000X0.135000X-0.185000X-0.135000X0.185000X-0.135000X0.185000X0.135000X0*%
%ADD51RoundRect,0.201000X0.475000X0.150000X-0.475000X0.150000X-0.475000X-0.150000X0.475000X-0.150000X0*%
%ADD52C,0.650000*%
%ADD53RoundRect,0.051000X-0.300000X-0.725000X0.300000X-0.725000X0.300000X0.725000X-0.300000X0.725000X0*%
%ADD54RoundRect,0.051000X-0.150000X-0.725000X0.150000X-0.725000X0.150000X0.725000X-0.150000X0.725000X0*%
%ADD55O,1.102000X1.702000*%
%ADD56O,1.102000X2.202000*%
%ADD57RoundRect,0.201000X0.512500X0.150000X-0.512500X0.150000X-0.512500X-0.150000X0.512500X-0.150000X0*%
%ADD58RoundRect,0.301000X-0.625000X0.375000X-0.625000X-0.375000X0.625000X-0.375000X0.625000X0.375000X0*%
G04 APERTURE END LIST*
D10*
%TO.C,LED1*%
X236433085Y-23468819D02*
X237004513Y-23468819D01*
X236718799Y-23468819D02*
X236718799Y-22468819D01*
X236718799Y-22468819D02*
X236814037Y-22611676D01*
X236814037Y-22611676D02*
X236909275Y-22706914D01*
X236909275Y-22706914D02*
X237004513Y-22754533D01*
%TO.C,LED8*%
X161814285Y-23512619D02*
X162385713Y-23512619D01*
X162099999Y-23512619D02*
X162099999Y-22512619D01*
X162099999Y-22512619D02*
X162195237Y-22655476D01*
X162195237Y-22655476D02*
X162290475Y-22750714D01*
X162290475Y-22750714D02*
X162385713Y-22798333D01*
%TO.C,LED2*%
X369783085Y-23468819D02*
X370354513Y-23468819D01*
X370068799Y-23468819D02*
X370068799Y-22468819D01*
X370068799Y-22468819D02*
X370164037Y-22611676D01*
X370164037Y-22611676D02*
X370259275Y-22706914D01*
X370259275Y-22706914D02*
X370354513Y-22754533D01*
%TO.C,LED5*%
X175314285Y-167931319D02*
X175885713Y-167931319D01*
X175599999Y-167931319D02*
X175599999Y-166931319D01*
X175599999Y-166931319D02*
X175695237Y-167074176D01*
X175695237Y-167074176D02*
X175790475Y-167169414D01*
X175790475Y-167169414D02*
X175885713Y-167217033D01*
%TO.C,LED4*%
X221351785Y-167931319D02*
X221923213Y-167931319D01*
X221637499Y-167931319D02*
X221637499Y-166931319D01*
X221637499Y-166931319D02*
X221732737Y-167074176D01*
X221732737Y-167074176D02*
X221827975Y-167169414D01*
X221827975Y-167169414D02*
X221923213Y-167217033D01*
%TO.C,LED7*%
X26883085Y-23468819D02*
X27454513Y-23468819D01*
X27168799Y-23468819D02*
X27168799Y-22468819D01*
X27168799Y-22468819D02*
X27264037Y-22611676D01*
X27264037Y-22611676D02*
X27359275Y-22706914D01*
X27359275Y-22706914D02*
X27454513Y-22754533D01*
%TO.C,LED3*%
X311839285Y-124275119D02*
X312410713Y-124275119D01*
X312124999Y-124275119D02*
X312124999Y-123275119D01*
X312124999Y-123275119D02*
X312220237Y-123417976D01*
X312220237Y-123417976D02*
X312315475Y-123513214D01*
X312315475Y-123513214D02*
X312410713Y-123560833D01*
%TO.C,LED6*%
X84826785Y-124275119D02*
X85398213Y-124275119D01*
X85112499Y-124275119D02*
X85112499Y-123275119D01*
X85112499Y-123275119D02*
X85207737Y-123417976D01*
X85207737Y-123417976D02*
X85302975Y-123513214D01*
X85302975Y-123513214D02*
X85398213Y-123560833D01*
D11*
%TO.C,SW18*%
X80990000Y-46675000D02*
X86090000Y-46675000D01*
X84890000Y-50875000D02*
X89990000Y-50875000D01*
X80990000Y-46675000D02*
G75*
G03*
X78990000Y-48675000I-1J-1999999D01*
G01*
X84890000Y-50875000D02*
G75*
G03*
X82890000Y-52875000I-1J-1999999D01*
G01*
%TO.C,SW35*%
X138140000Y-70487500D02*
X143240000Y-70487500D01*
X142040000Y-74687500D02*
X147140000Y-74687500D01*
X138140000Y-70487500D02*
G75*
G03*
X136140000Y-72487500I-1J-1999999D01*
G01*
X142040000Y-74687500D02*
G75*
G03*
X140040000Y-76687500I-1J-1999999D01*
G01*
%TO.C,SW54*%
X237392725Y-143748504D02*
X234842725Y-139331775D01*
X239080031Y-138271005D02*
X236530031Y-133854276D01*
X237392725Y-143748504D02*
G75*
G03*
X240124776Y-144480554I1732050J999998D01*
G01*
X239080032Y-138271005D02*
G75*
G03*
X241812082Y-139003056I1732050J999999D01*
G01*
%TO.C,SW29*%
X19077500Y-72868700D02*
X24177500Y-72868700D01*
X22977500Y-77068700D02*
X28077500Y-77068700D01*
X19077500Y-72868700D02*
G75*
G03*
X17077500Y-74868700I-1J-1999999D01*
G01*
X22977500Y-77068700D02*
G75*
G03*
X20977500Y-79068700I-1J-1999999D01*
G01*
%TO.C,SW11*%
X300065000Y-27625000D02*
X305165000Y-27625000D01*
X303965000Y-31825000D02*
X309065000Y-31825000D01*
X300065000Y-27625000D02*
G75*
G03*
X298065000Y-29625000I-1J-1999999D01*
G01*
X303965000Y-31825000D02*
G75*
G03*
X301965000Y-33825000I-1J-1999999D01*
G01*
%TO.C,SW76*%
X357215000Y-110968700D02*
X362315000Y-110968700D01*
X361115000Y-115168700D02*
X366215000Y-115168700D01*
X357215000Y-110968700D02*
G75*
G03*
X355215000Y-112968700I-1J-1999999D01*
G01*
X361115000Y-115168700D02*
G75*
G03*
X359115000Y-117168700I-1J-1999999D01*
G01*
%TO.C,SW57*%
X300065000Y-84775000D02*
X305165000Y-84775000D01*
X303965000Y-88975000D02*
X309065000Y-88975000D01*
X300065000Y-84775000D02*
G75*
G03*
X298065000Y-86775000I-1J-1999999D01*
G01*
X303965000Y-88975000D02*
G75*
G03*
X301965000Y-90975000I-1J-1999999D01*
G01*
%TO.C,SW48*%
X80990000Y-84775000D02*
X86090000Y-84775000D01*
X84890000Y-88975000D02*
X89990000Y-88975000D01*
X80990000Y-84775000D02*
G75*
G03*
X78990000Y-86775000I-1J-1999999D01*
G01*
X84890000Y-88975000D02*
G75*
G03*
X82890000Y-90975000I-1J-1999999D01*
G01*
%TO.C,SW46*%
X42890000Y-91918700D02*
X47990000Y-91918700D01*
X46790000Y-96118700D02*
X51890000Y-96118700D01*
X42890000Y-91918700D02*
G75*
G03*
X40890000Y-93918700I-1J-1999999D01*
G01*
X46790000Y-96118700D02*
G75*
G03*
X44790000Y-98118700I-1J-1999999D01*
G01*
%TO.C,SW66*%
X159571296Y-146496125D02*
X163988025Y-149046125D01*
X160848795Y-152083431D02*
X165265524Y-154633431D01*
X159571296Y-146496126D02*
G75*
G03*
X156839245Y-147228176I-1000001J-1732048D01*
G01*
X160848795Y-152083431D02*
G75*
G03*
X158116745Y-152815482I-1000000J-1732050D01*
G01*
%TO.C,SW25*%
X300065000Y-46675000D02*
X305165000Y-46675000D01*
X303965000Y-50875000D02*
X309065000Y-50875000D01*
X300065000Y-46675000D02*
G75*
G03*
X298065000Y-48675000I-1J-1999999D01*
G01*
X303965000Y-50875000D02*
G75*
G03*
X301965000Y-52875000I-1J-1999999D01*
G01*
%TO.C,SW58*%
X319115000Y-87156200D02*
X324215000Y-87156200D01*
X323015000Y-91356200D02*
X328115000Y-91356200D01*
X319115000Y-87156200D02*
G75*
G03*
X317115000Y-89156200I-1J-1999999D01*
G01*
X323015000Y-91356200D02*
G75*
G03*
X321015000Y-93356200I-1J-1999999D01*
G01*
%TO.C,SW68*%
X178621296Y-113500525D02*
X183038025Y-116050525D01*
X179898795Y-119087831D02*
X184315524Y-121637831D01*
X178621296Y-113500526D02*
G75*
G03*
X175889245Y-114232576I-1000001J-1732048D01*
G01*
X179898795Y-119087831D02*
G75*
G03*
X177166745Y-119819882I-1000000J-1732050D01*
G01*
%TO.C,SW70*%
X213057296Y-134098325D02*
X217474025Y-131548325D01*
X218534795Y-135785631D02*
X222951524Y-133235631D01*
X213057296Y-134098325D02*
G75*
G03*
X212325246Y-136830376I999998J-1732050D01*
G01*
X218534795Y-135785632D02*
G75*
G03*
X217802744Y-138517682I999999J-1732050D01*
G01*
%TO.C,SW27*%
X338165000Y-53818700D02*
X343265000Y-53818700D01*
X342065000Y-58018700D02*
X347165000Y-58018700D01*
X338165000Y-53818700D02*
G75*
G03*
X336165000Y-55818700I-1J-1999999D01*
G01*
X342065000Y-58018700D02*
G75*
G03*
X340065000Y-60018700I-1J-1999999D01*
G01*
%TO.C,SW19*%
X100040000Y-49056200D02*
X105140000Y-49056200D01*
X103940000Y-53256200D02*
X109040000Y-53256200D01*
X100040000Y-49056200D02*
G75*
G03*
X98040000Y-51056200I-1J-1999999D01*
G01*
X103940000Y-53256200D02*
G75*
G03*
X101940000Y-55256200I-1J-1999999D01*
G01*
%TO.C,SW37*%
X253890525Y-134223504D02*
X251340525Y-129806775D01*
X255577831Y-128746005D02*
X253027831Y-124329276D01*
X253890525Y-134223504D02*
G75*
G03*
X256622576Y-134955554I1732050J999998D01*
G01*
X255577832Y-128746005D02*
G75*
G03*
X258309882Y-129478056I1732050J999999D01*
G01*
%TO.C,SW49*%
X100040000Y-87156200D02*
X105140000Y-87156200D01*
X103940000Y-91356200D02*
X109040000Y-91356200D01*
X100040000Y-87156200D02*
G75*
G03*
X98040000Y-89156200I-1J-1999999D01*
G01*
X103940000Y-91356200D02*
G75*
G03*
X101940000Y-93356200I-1J-1999999D01*
G01*
%TO.C,SW51*%
X155962275Y-136647096D02*
X153412275Y-141063825D01*
X150374969Y-137924595D02*
X147824969Y-142341324D01*
X155962274Y-136647096D02*
G75*
G03*
X155230224Y-133915045I-1732048J1000001D01*
G01*
X150374969Y-137924595D02*
G75*
G03*
X149642918Y-135192545I-1732050J1000000D01*
G01*
%TO.C,SW32*%
X80990000Y-65725000D02*
X86090000Y-65725000D01*
X84890000Y-69925000D02*
X89990000Y-69925000D01*
X80990000Y-65725000D02*
G75*
G03*
X78990000Y-67725000I-1J-1999999D01*
G01*
X84890000Y-69925000D02*
G75*
G03*
X82890000Y-71925000I-1J-1999999D01*
G01*
%TO.C,SW33*%
X100040000Y-68106200D02*
X105140000Y-68106200D01*
X103940000Y-72306200D02*
X109040000Y-72306200D01*
X100040000Y-68106200D02*
G75*
G03*
X98040000Y-70106200I-1J-1999999D01*
G01*
X103940000Y-72306200D02*
G75*
G03*
X101940000Y-74306200I-1J-1999999D01*
G01*
%TO.C,SW2*%
X42890000Y-34768700D02*
X47990000Y-34768700D01*
X46790000Y-38968700D02*
X51890000Y-38968700D01*
X42890000Y-34768700D02*
G75*
G03*
X40890000Y-36768700I-1J-1999999D01*
G01*
X46790000Y-38968700D02*
G75*
G03*
X44790000Y-40968700I-1J-1999999D01*
G01*
%TO.C,SW45*%
X19077500Y-91918700D02*
X24177500Y-91918700D01*
X22977500Y-96118700D02*
X28077500Y-96118700D01*
X19077500Y-91918700D02*
G75*
G03*
X17077500Y-93918700I-1J-1999999D01*
G01*
X22977500Y-96118700D02*
G75*
G03*
X20977500Y-98118700I-1J-1999999D01*
G01*
%TO.C,SW21*%
X138140000Y-51437500D02*
X143240000Y-51437500D01*
X142040000Y-55637500D02*
X147140000Y-55637500D01*
X138140000Y-51437500D02*
G75*
G03*
X136140000Y-53437500I-1J-1999999D01*
G01*
X142040000Y-55637500D02*
G75*
G03*
X140040000Y-57637500I-1J-1999999D01*
G01*
%TO.C,SW26*%
X319115000Y-49056200D02*
X324215000Y-49056200D01*
X323015000Y-53256200D02*
X328115000Y-53256200D01*
X319115000Y-49056200D02*
G75*
G03*
X317115000Y-51056200I-1J-1999999D01*
G01*
X323015000Y-53256200D02*
G75*
G03*
X321015000Y-55256200I-1J-1999999D01*
G01*
%TO.C,SW40*%
X281015000Y-68106200D02*
X286115000Y-68106200D01*
X284915000Y-72306200D02*
X290015000Y-72306200D01*
X281015000Y-68106200D02*
G75*
G03*
X279015000Y-70106200I-1J-1999999D01*
G01*
X284915000Y-72306200D02*
G75*
G03*
X282915000Y-74306200I-1J-1999999D01*
G01*
%TO.C,SW14*%
X361977500Y-34768700D02*
X367077500Y-34768700D01*
X365877500Y-38968700D02*
X370977500Y-38968700D01*
X361977500Y-34768700D02*
G75*
G03*
X359977500Y-36768700I-1J-1999999D01*
G01*
X365877500Y-38968700D02*
G75*
G03*
X363877500Y-40968700I-1J-1999999D01*
G01*
%TO.C,SW20*%
X119090000Y-51437500D02*
X124190000Y-51437500D01*
X122990000Y-55637500D02*
X128090000Y-55637500D01*
X119090000Y-51437500D02*
G75*
G03*
X117090000Y-53437500I-1J-1999999D01*
G01*
X122990000Y-55637500D02*
G75*
G03*
X120990000Y-57637500I-1J-1999999D01*
G01*
%TO.C,SW75*%
X338165000Y-110968700D02*
X343265000Y-110968700D01*
X342065000Y-115168700D02*
X347165000Y-115168700D01*
X338165000Y-110968700D02*
G75*
G03*
X336165000Y-112968700I-1J-1999999D01*
G01*
X342065000Y-115168700D02*
G75*
G03*
X340065000Y-117168700I-1J-1999999D01*
G01*
%TO.C,SW13*%
X338165000Y-34768700D02*
X343265000Y-34768700D01*
X342065000Y-38968700D02*
X347165000Y-38968700D01*
X338165000Y-34768700D02*
G75*
G03*
X336165000Y-36768700I-1J-1999999D01*
G01*
X342065000Y-38968700D02*
G75*
G03*
X340065000Y-40968700I-1J-1999999D01*
G01*
%TO.C,SW60*%
X361977500Y-91918700D02*
X367077500Y-91918700D01*
X365877500Y-96118700D02*
X370977500Y-96118700D01*
X361977500Y-91918700D02*
G75*
G03*
X359977500Y-93918700I-1J-1999999D01*
G01*
X365877500Y-96118700D02*
G75*
G03*
X363877500Y-98118700I-1J-1999999D01*
G01*
%TO.C,SW43*%
X338165000Y-72868700D02*
X343265000Y-72868700D01*
X342065000Y-77068700D02*
X347165000Y-77068700D01*
X338165000Y-72868700D02*
G75*
G03*
X336165000Y-74868700I-1J-1999999D01*
G01*
X342065000Y-77068700D02*
G75*
G03*
X340065000Y-79068700I-1J-1999999D01*
G01*
%TO.C,SW6*%
X119090000Y-32387500D02*
X124190000Y-32387500D01*
X122990000Y-36587500D02*
X128090000Y-36587500D01*
X119090000Y-32387500D02*
G75*
G03*
X117090000Y-34387500I-1J-1999999D01*
G01*
X122990000Y-36587500D02*
G75*
G03*
X120990000Y-38587500I-1J-1999999D01*
G01*
%TO.C,SW53*%
X220030096Y-108075525D02*
X224446825Y-105525525D01*
X225507595Y-109762831D02*
X229924324Y-107212831D01*
X220030096Y-108075525D02*
G75*
G03*
X219298046Y-110807576I999998J-1732050D01*
G01*
X225507595Y-109762832D02*
G75*
G03*
X224775544Y-112494882I999999J-1732050D01*
G01*
%TO.C,SW42*%
X319115000Y-68106200D02*
X324215000Y-68106200D01*
X323015000Y-72306200D02*
X328115000Y-72306200D01*
X319115000Y-68106200D02*
G75*
G03*
X317115000Y-70106200I-1J-1999999D01*
G01*
X323015000Y-72306200D02*
G75*
G03*
X321015000Y-74306200I-1J-1999999D01*
G01*
%TO.C,SW4*%
X80990000Y-27625000D02*
X86090000Y-27625000D01*
X84890000Y-31825000D02*
X89990000Y-31825000D01*
X80990000Y-27625000D02*
G75*
G03*
X78990000Y-29625000I-1J-1999999D01*
G01*
X84890000Y-31825000D02*
G75*
G03*
X82890000Y-33825000I-1J-1999999D01*
G01*
%TO.C,SW41*%
X300065000Y-65725000D02*
X305165000Y-65725000D01*
X303965000Y-69925000D02*
X309065000Y-69925000D01*
X300065000Y-65725000D02*
G75*
G03*
X298065000Y-67725000I-1J-1999999D01*
G01*
X303965000Y-69925000D02*
G75*
G03*
X301965000Y-71925000I-1J-1999999D01*
G01*
%TO.C,SW39*%
X261965000Y-70487500D02*
X267065000Y-70487500D01*
X265865000Y-74687500D02*
X270965000Y-74687500D01*
X261965000Y-70487500D02*
G75*
G03*
X259965000Y-72487500I-1J-1999999D01*
G01*
X265865000Y-74687500D02*
G75*
G03*
X263865000Y-76687500I-1J-1999999D01*
G01*
%TO.C,SW10*%
X281015000Y-30006200D02*
X286115000Y-30006200D01*
X284915000Y-34206200D02*
X290015000Y-34206200D01*
X281015000Y-30006200D02*
G75*
G03*
X279015000Y-32006200I-1J-1999999D01*
G01*
X284915000Y-34206200D02*
G75*
G03*
X282915000Y-36206200I-1J-1999999D01*
G01*
%TO.C,SW61*%
X23840000Y-110968700D02*
X28940000Y-110968700D01*
X27740000Y-115168700D02*
X32840000Y-115168700D01*
X23840000Y-110968700D02*
G75*
G03*
X21840000Y-112968700I-1J-1999999D01*
G01*
X27740000Y-115168700D02*
G75*
G03*
X25740000Y-117168700I-1J-1999999D01*
G01*
%TO.C,SW74*%
X319115000Y-106206200D02*
X324215000Y-106206200D01*
X323015000Y-110406200D02*
X328115000Y-110406200D01*
X319115000Y-106206200D02*
G75*
G03*
X317115000Y-108206200I-1J-1999999D01*
G01*
X323015000Y-110406200D02*
G75*
G03*
X321015000Y-112406200I-1J-1999999D01*
G01*
%TO.C,SW64*%
X80990000Y-103825000D02*
X86090000Y-103825000D01*
X84890000Y-108025000D02*
X89990000Y-108025000D01*
X80990000Y-103825000D02*
G75*
G03*
X78990000Y-105825000I-1J-1999999D01*
G01*
X84890000Y-108025000D02*
G75*
G03*
X82890000Y-110025000I-1J-1999999D01*
G01*
%TO.C,SW28*%
X361977500Y-53818700D02*
X367077500Y-53818700D01*
X365877500Y-58018700D02*
X370977500Y-58018700D01*
X361977500Y-53818700D02*
G75*
G03*
X359977500Y-55818700I-1J-1999999D01*
G01*
X365877500Y-58018700D02*
G75*
G03*
X363877500Y-60018700I-1J-1999999D01*
G01*
%TO.C,SW31*%
X61940000Y-68106200D02*
X67040000Y-68106200D01*
X65840000Y-72306200D02*
X70940000Y-72306200D01*
X61940000Y-68106200D02*
G75*
G03*
X59940000Y-70106200I-1J-1999999D01*
G01*
X65840000Y-72306200D02*
G75*
G03*
X63840000Y-74306200I-1J-1999999D01*
G01*
%TO.C,SW36*%
X139464475Y-127122096D02*
X136914475Y-131538825D01*
X133877169Y-128399595D02*
X131327169Y-132816324D01*
X139464474Y-127122096D02*
G75*
G03*
X138732424Y-124390045I-1732048J1000001D01*
G01*
X133877169Y-128399595D02*
G75*
G03*
X133145118Y-125667545I-1732050J1000000D01*
G01*
%TO.C,SW23*%
X261965000Y-51437500D02*
X267065000Y-51437500D01*
X265865000Y-55637500D02*
X270965000Y-55637500D01*
X261965000Y-51437500D02*
G75*
G03*
X259965000Y-53437500I-1J-1999999D01*
G01*
X265865000Y-55637500D02*
G75*
G03*
X263865000Y-57637500I-1J-1999999D01*
G01*
%TO.C,SW12*%
X319115000Y-30006200D02*
X324215000Y-30006200D01*
X323015000Y-34206200D02*
X328115000Y-34206200D01*
X319115000Y-30006200D02*
G75*
G03*
X317115000Y-32006200I-1J-1999999D01*
G01*
X323015000Y-34206200D02*
G75*
G03*
X321015000Y-36206200I-1J-1999999D01*
G01*
%TO.C,SW9*%
X261965000Y-32387500D02*
X267065000Y-32387500D01*
X265865000Y-36587500D02*
X270965000Y-36587500D01*
X261965000Y-32387500D02*
G75*
G03*
X259965000Y-34387500I-1J-1999999D01*
G01*
X265865000Y-36587500D02*
G75*
G03*
X263865000Y-38587500I-1J-1999999D01*
G01*
%TO.C,SW30*%
X42890000Y-72868700D02*
X47990000Y-72868700D01*
X46790000Y-77068700D02*
X51890000Y-77068700D01*
X42890000Y-72868700D02*
G75*
G03*
X40890000Y-74868700I-1J-1999999D01*
G01*
X46790000Y-77068700D02*
G75*
G03*
X44790000Y-79068700I-1J-1999999D01*
G01*
%TO.C,SW52*%
X162123496Y-103975525D02*
X166540225Y-106525525D01*
X163400995Y-109562831D02*
X167817724Y-112112831D01*
X162123496Y-103975526D02*
G75*
G03*
X159391445Y-104707576I-1000001J-1732048D01*
G01*
X163400995Y-109562831D02*
G75*
G03*
X160668945Y-110294882I-1000000J-1732050D01*
G01*
%TO.C,SW8*%
X242915000Y-32387500D02*
X248015000Y-32387500D01*
X246815000Y-36587500D02*
X251915000Y-36587500D01*
X242915000Y-32387500D02*
G75*
G03*
X240915000Y-34387500I-1J-1999999D01*
G01*
X246815000Y-36587500D02*
G75*
G03*
X244815000Y-38587500I-1J-1999999D01*
G01*
%TO.C,SW16*%
X42890000Y-53818700D02*
X47990000Y-53818700D01*
X46790000Y-58018700D02*
X51890000Y-58018700D01*
X42890000Y-53818700D02*
G75*
G03*
X40890000Y-55818700I-1J-1999999D01*
G01*
X46790000Y-58018700D02*
G75*
G03*
X44790000Y-60018700I-1J-1999999D01*
G01*
%TO.C,SW44*%
X361977500Y-72868700D02*
X367077500Y-72868700D01*
X365877500Y-77068700D02*
X370977500Y-77068700D01*
X361977500Y-72868700D02*
G75*
G03*
X359977500Y-74868700I-1J-1999999D01*
G01*
X365877500Y-77068700D02*
G75*
G03*
X363877500Y-79068700I-1J-1999999D01*
G01*
%TO.C,SW1*%
X19077500Y-34768700D02*
X24177500Y-34768700D01*
X22977500Y-38968700D02*
X28077500Y-38968700D01*
X19077500Y-34768700D02*
G75*
G03*
X17077500Y-36768700I-1J-1999999D01*
G01*
X22977500Y-38968700D02*
G75*
G03*
X20977500Y-40968700I-1J-1999999D01*
G01*
%TO.C,SW47*%
X61940000Y-87156200D02*
X67040000Y-87156200D01*
X65840000Y-91356200D02*
X70940000Y-91356200D01*
X61940000Y-87156200D02*
G75*
G03*
X59940000Y-89156200I-1J-1999999D01*
G01*
X65840000Y-91356200D02*
G75*
G03*
X63840000Y-93356200I-1J-1999999D01*
G01*
%TO.C,SW22*%
X242915000Y-51437500D02*
X248015000Y-51437500D01*
X246815000Y-55637500D02*
X251915000Y-55637500D01*
X242915000Y-51437500D02*
G75*
G03*
X240915000Y-53437500I-1J-1999999D01*
G01*
X246815000Y-55637500D02*
G75*
G03*
X244815000Y-57637500I-1J-1999999D01*
G01*
%TO.C,SW59*%
X338165000Y-91918700D02*
X343265000Y-91918700D01*
X342065000Y-96118700D02*
X347165000Y-96118700D01*
X338165000Y-91918700D02*
G75*
G03*
X336165000Y-93918700I-1J-1999999D01*
G01*
X342065000Y-96118700D02*
G75*
G03*
X340065000Y-98118700I-1J-1999999D01*
G01*
%TO.C,SW5*%
X100040000Y-30006200D02*
X105140000Y-30006200D01*
X103940000Y-34206200D02*
X109040000Y-34206200D01*
X100040000Y-30006200D02*
G75*
G03*
X98040000Y-32006200I-1J-1999999D01*
G01*
X103940000Y-34206200D02*
G75*
G03*
X101940000Y-36206200I-1J-1999999D01*
G01*
%TO.C,SW69*%
X203532296Y-117600525D02*
X207949025Y-115050525D01*
X209009795Y-119287831D02*
X213426524Y-116737831D01*
X203532296Y-117600525D02*
G75*
G03*
X202800246Y-120332576I999998J-1732050D01*
G01*
X209009795Y-119287832D02*
G75*
G03*
X208277744Y-122019882I999999J-1732050D01*
G01*
%TO.C,SW3*%
X61940000Y-30006200D02*
X67040000Y-30006200D01*
X65840000Y-34206200D02*
X70940000Y-34206200D01*
X61940000Y-30006200D02*
G75*
G03*
X59940000Y-32006200I-1J-1999999D01*
G01*
X65840000Y-34206200D02*
G75*
G03*
X63840000Y-36206200I-1J-1999999D01*
G01*
%TO.C,SW17*%
X61940000Y-49056200D02*
X67040000Y-49056200D01*
X65840000Y-53256200D02*
X70940000Y-53256200D01*
X61940000Y-49056200D02*
G75*
G03*
X59940000Y-51056200I-1J-1999999D01*
G01*
X65840000Y-53256200D02*
G75*
G03*
X63840000Y-55256200I-1J-1999999D01*
G01*
%TO.C,SW71*%
X222582296Y-150596125D02*
X226999025Y-148046125D01*
X228059795Y-152283431D02*
X232476524Y-149733431D01*
X222582296Y-150596125D02*
G75*
G03*
X221850246Y-153328176I999998J-1732050D01*
G01*
X228059795Y-152283432D02*
G75*
G03*
X227327744Y-155015482I999999J-1732050D01*
G01*
%TO.C,SW24*%
X281015000Y-49056200D02*
X286115000Y-49056200D01*
X284915000Y-53256200D02*
X290015000Y-53256200D01*
X281015000Y-49056200D02*
G75*
G03*
X279015000Y-51056200I-1J-1999999D01*
G01*
X284915000Y-53256200D02*
G75*
G03*
X282915000Y-55256200I-1J-1999999D01*
G01*
%TO.C,SW63*%
X61940000Y-106206200D02*
X67040000Y-106206200D01*
X65840000Y-110406200D02*
X70940000Y-110406200D01*
X61940000Y-106206200D02*
G75*
G03*
X59940000Y-108206200I-1J-1999999D01*
G01*
X65840000Y-110406200D02*
G75*
G03*
X63840000Y-112406200I-1J-1999999D01*
G01*
%TO.C,SW67*%
X169096296Y-129998325D02*
X173513025Y-132548325D01*
X170373795Y-135585631D02*
X174790524Y-138135631D01*
X169096296Y-129998326D02*
G75*
G03*
X166364245Y-130730376I-1000001J-1732048D01*
G01*
X170373795Y-135585631D02*
G75*
G03*
X167641745Y-136317682I-1000000J-1732050D01*
G01*
%TO.C,SW65*%
X100040000Y-106206200D02*
X105140000Y-106206200D01*
X103940000Y-110406200D02*
X109040000Y-110406200D01*
X100040000Y-106206200D02*
G75*
G03*
X98040000Y-108206200I-1J-1999999D01*
G01*
X103940000Y-110406200D02*
G75*
G03*
X101940000Y-112406200I-1J-1999999D01*
G01*
%TO.C,SW72*%
X281015000Y-106206200D02*
X286115000Y-106206200D01*
X284915000Y-110406200D02*
X290015000Y-110406200D01*
X281015000Y-106206200D02*
G75*
G03*
X279015000Y-108206200I-1J-1999999D01*
G01*
X284915000Y-110406200D02*
G75*
G03*
X282915000Y-112406200I-1J-1999999D01*
G01*
%TO.C,SW62*%
X42890000Y-110968700D02*
X47990000Y-110968700D01*
X46790000Y-115168700D02*
X51890000Y-115168700D01*
X42890000Y-110968700D02*
G75*
G03*
X40890000Y-112968700I-1J-1999999D01*
G01*
X46790000Y-115168700D02*
G75*
G03*
X44790000Y-117168700I-1J-1999999D01*
G01*
%TO.C,SW73*%
X300065000Y-103825000D02*
X305165000Y-103825000D01*
X303965000Y-108025000D02*
X309065000Y-108025000D01*
X300065000Y-103825000D02*
G75*
G03*
X298065000Y-105825000I-1J-1999999D01*
G01*
X303965000Y-108025000D02*
G75*
G03*
X301965000Y-110025000I-1J-1999999D01*
G01*
%TO.C,SW15*%
X19077500Y-53818700D02*
X24177500Y-53818700D01*
X22977500Y-58018700D02*
X28077500Y-58018700D01*
X19077500Y-53818700D02*
G75*
G03*
X17077500Y-55818700I-1J-1999999D01*
G01*
X22977500Y-58018700D02*
G75*
G03*
X20977500Y-60018700I-1J-1999999D01*
G01*
%TO.C,SW7*%
X138140000Y-32387500D02*
X143240000Y-32387500D01*
X142040000Y-36587500D02*
X147140000Y-36587500D01*
X138140000Y-32387500D02*
G75*
G03*
X136140000Y-34387500I-1J-1999999D01*
G01*
X142040000Y-36587500D02*
G75*
G03*
X140040000Y-38587500I-1J-1999999D01*
G01*
%TO.C,SW34*%
X119090000Y-70487500D02*
X124190000Y-70487500D01*
X122990000Y-74687500D02*
X128090000Y-74687500D01*
X119090000Y-70487500D02*
G75*
G03*
X117090000Y-72487500I-1J-1999999D01*
G01*
X122990000Y-74687500D02*
G75*
G03*
X120990000Y-76687500I-1J-1999999D01*
G01*
%TO.C,SW55*%
X261965000Y-89537500D02*
X267065000Y-89537500D01*
X265865000Y-93737500D02*
X270965000Y-93737500D01*
X261965000Y-89537500D02*
G75*
G03*
X259965000Y-91537500I-1J-1999999D01*
G01*
X265865000Y-93737500D02*
G75*
G03*
X263865000Y-95737500I-1J-1999999D01*
G01*
%TO.C,SW50*%
X119090000Y-89537500D02*
X124190000Y-89537500D01*
X122990000Y-93737500D02*
X128090000Y-93737500D01*
X119090000Y-89537500D02*
G75*
G03*
X117090000Y-91537500I-1J-1999999D01*
G01*
X122990000Y-93737500D02*
G75*
G03*
X120990000Y-95737500I-1J-1999999D01*
G01*
%TO.C,SW38*%
X242915000Y-70487500D02*
X248015000Y-70487500D01*
X246815000Y-74687500D02*
X251915000Y-74687500D01*
X242915000Y-70487500D02*
G75*
G03*
X240915000Y-72487500I-1J-1999999D01*
G01*
X246815000Y-74687500D02*
G75*
G03*
X244815000Y-76687500I-1J-1999999D01*
G01*
%TO.C,SW56*%
X281015000Y-87156200D02*
X286115000Y-87156200D01*
X284915000Y-91356200D02*
X290015000Y-91356200D01*
X281015000Y-87156200D02*
G75*
G03*
X279015000Y-89156200I-1J-1999999D01*
G01*
X284915000Y-91356200D02*
G75*
G03*
X282915000Y-93356200I-1J-1999999D01*
G01*
%TO.C,D10*%
X287375000Y-42678750D02*
X287375000Y-38668750D01*
X289375000Y-42678750D02*
X287375000Y-42678750D01*
X289375000Y-42678750D02*
X289375000Y-38668750D01*
%TO.C,D21*%
X144500000Y-64110000D02*
X144500000Y-60100000D01*
X146500000Y-64110000D02*
X144500000Y-64110000D01*
X146500000Y-64110000D02*
X146500000Y-60100000D01*
%TO.C,LED1*%
X236218800Y-27356200D02*
X228918800Y-27356200D01*
X236218800Y-21856200D02*
X228918800Y-21856200D01*
X228918800Y-27356200D02*
X228918800Y-26206200D01*
%TO.C,D16*%
X49250000Y-66491250D02*
X49250000Y-62481250D01*
X51250000Y-66491250D02*
X49250000Y-66491250D01*
X51250000Y-66491250D02*
X51250000Y-62481250D01*
%TO.C,D60*%
X368337500Y-104591250D02*
X368337500Y-100581250D01*
X370337500Y-104591250D02*
X368337500Y-104591250D01*
X370337500Y-104591250D02*
X370337500Y-100581250D01*
%TO.C,C7*%
X189726297Y-54678800D02*
X189878800Y-54526297D01*
X190235414Y-55187917D02*
X190387917Y-55035414D01*
%TO.C,D11*%
X306425000Y-40297500D02*
X306425000Y-36287500D01*
X308425000Y-40297500D02*
X306425000Y-40297500D01*
X308425000Y-40297500D02*
X308425000Y-36287500D01*
%TO.C,R101*%
X227946359Y-22570000D02*
X228253641Y-22570000D01*
X227946359Y-23330000D02*
X228253641Y-23330000D01*
%TO.C,U2*%
X216350000Y-51143750D02*
X216610000Y-51143750D01*
X221540000Y-51143750D02*
X221540000Y-52818750D01*
X221800000Y-51143750D02*
X221540000Y-51143750D01*
X216350000Y-48418750D02*
X216350000Y-51143750D01*
X216350000Y-48418750D02*
X216350000Y-45693750D01*
X221800000Y-48418750D02*
X221800000Y-51143750D01*
X221800000Y-48418750D02*
X221800000Y-45693750D01*
X216350000Y-45693750D02*
X216610000Y-45693750D01*
X221800000Y-45693750D02*
X221540000Y-45693750D01*
%TO.C,C9*%
X189771693Y-57330810D02*
X189619190Y-57178307D01*
X190280810Y-56821693D02*
X190128307Y-56669190D01*
%TO.C,D69*%
X215420225Y-125575070D02*
X213415225Y-122102308D01*
X217152275Y-124575070D02*
X215420225Y-125575070D01*
X217152275Y-124575070D02*
X215147275Y-121102308D01*
%TO.C,D38*%
X249275000Y-83160000D02*
X249275000Y-79150000D01*
X251275000Y-83160000D02*
X249275000Y-83160000D01*
X251275000Y-83160000D02*
X251275000Y-79150000D01*
%TO.C,D59*%
X344525000Y-104591250D02*
X344525000Y-100581250D01*
X346525000Y-104591250D02*
X344525000Y-104591250D01*
X346525000Y-104591250D02*
X346525000Y-100581250D01*
%TO.C,D3*%
X68300000Y-42678750D02*
X68300000Y-38668750D01*
X70300000Y-42678750D02*
X68300000Y-42678750D01*
X70300000Y-42678750D02*
X70300000Y-38668750D01*
%TO.C,D18*%
X87350000Y-59347500D02*
X87350000Y-55337500D01*
X89350000Y-59347500D02*
X87350000Y-59347500D01*
X89350000Y-59347500D02*
X89350000Y-55337500D01*
%TO.C,LED8*%
X161600000Y-27400000D02*
X154300000Y-27400000D01*
X161600000Y-21900000D02*
X154300000Y-21900000D01*
X154300000Y-27400000D02*
X154300000Y-26250000D01*
%TO.C,C10*%
X189477836Y-62260000D02*
X189262164Y-62260000D01*
X189477836Y-61540000D02*
X189262164Y-61540000D01*
%TO.C,D29*%
X25437500Y-85541250D02*
X25437500Y-81531250D01*
X27437500Y-85541250D02*
X25437500Y-85541250D01*
X27437500Y-85541250D02*
X27437500Y-81531250D01*
%TO.C,D23*%
X268325000Y-64110000D02*
X268325000Y-60100000D01*
X270325000Y-64110000D02*
X268325000Y-64110000D01*
X270325000Y-64110000D02*
X270325000Y-60100000D01*
%TO.C,D65*%
X106400000Y-118878750D02*
X106400000Y-114868750D01*
X108400000Y-118878750D02*
X106400000Y-118878750D01*
X108400000Y-118878750D02*
X108400000Y-114868750D01*
%TO.C,R6*%
X194047500Y-50962742D02*
X194047500Y-51437258D01*
X193002500Y-50962742D02*
X193002500Y-51437258D01*
%TO.C,D27*%
X344525000Y-66491250D02*
X344525000Y-62481250D01*
X346525000Y-66491250D02*
X344525000Y-66491250D01*
X346525000Y-66491250D02*
X346525000Y-62481250D01*
%TO.C,D9*%
X268325000Y-45060000D02*
X268325000Y-41050000D01*
X270325000Y-45060000D02*
X268325000Y-45060000D01*
X270325000Y-45060000D02*
X270325000Y-41050000D01*
%TO.C,D76*%
X363575000Y-123641250D02*
X363575000Y-119631250D01*
X365575000Y-123641250D02*
X363575000Y-123641250D01*
X365575000Y-123641250D02*
X365575000Y-119631250D01*
%TO.C,C14*%
X197788896Y-53424873D02*
X197941399Y-53577376D01*
X197279779Y-53933990D02*
X197432282Y-54086493D01*
%TO.C,C12*%
X190557282Y-56545221D02*
X190404779Y-56392718D01*
X191066399Y-56036104D02*
X190913896Y-55883601D01*
%TO.C,D24*%
X287375000Y-61728750D02*
X287375000Y-57718750D01*
X289375000Y-61728750D02*
X287375000Y-61728750D01*
X289375000Y-61728750D02*
X289375000Y-57718750D01*
%TO.C,D1*%
X25437500Y-47441250D02*
X25437500Y-43431250D01*
X27437500Y-47441250D02*
X25437500Y-47441250D01*
X27437500Y-47441250D02*
X27437500Y-43431250D01*
%TO.C,LED2*%
X369568800Y-27356200D02*
X362268800Y-27356200D01*
X369568800Y-21856200D02*
X362268800Y-21856200D01*
X362268800Y-27356200D02*
X362268800Y-26206200D01*
%TO.C,D61*%
X30200000Y-123641250D02*
X30200000Y-119631250D01*
X32200000Y-123641250D02*
X30200000Y-123641250D01*
X32200000Y-123641250D02*
X32200000Y-119631250D01*
%TO.C,D37*%
X262518370Y-121993675D02*
X259045608Y-123998675D01*
X261518370Y-120261625D02*
X262518370Y-121993675D01*
X261518370Y-120261625D02*
X258045608Y-122266625D01*
%TO.C,D56*%
X287375000Y-99828750D02*
X287375000Y-95818750D01*
X289375000Y-99828750D02*
X287375000Y-99828750D01*
X289375000Y-99828750D02*
X289375000Y-95818750D01*
%TO.C,D71*%
X234470225Y-158118820D02*
X232465225Y-154646058D01*
X236202275Y-157118820D02*
X234470225Y-158118820D01*
X236202275Y-157118820D02*
X234197275Y-153646058D01*
%TO.C,C18*%
X187367164Y-27280000D02*
X187582836Y-27280000D01*
X187367164Y-28000000D02*
X187582836Y-28000000D01*
%TO.C,D32*%
X87350000Y-78397500D02*
X87350000Y-74387500D01*
X89350000Y-78397500D02*
X87350000Y-78397500D01*
X89350000Y-78397500D02*
X89350000Y-74387500D01*
%TO.C,U3*%
X199190000Y-64570000D02*
X199190000Y-63920000D01*
X198540000Y-64570000D02*
X199190000Y-64570000D01*
X198540000Y-57350000D02*
X199190000Y-57350000D01*
X192620000Y-64570000D02*
X191970000Y-64570000D01*
X192620000Y-57350000D02*
X191970000Y-57350000D01*
X191970000Y-64570000D02*
X191970000Y-63920000D01*
X191970000Y-57350000D02*
X191970000Y-58000000D01*
%TO.C,LED5*%
X175100000Y-171818700D02*
X167800000Y-171818700D01*
X175100000Y-166318700D02*
X167800000Y-166318700D01*
X167800000Y-171818700D02*
X167800000Y-170668700D01*
%TO.C,R9*%
X187321359Y-25960000D02*
X187628641Y-25960000D01*
X187321359Y-26720000D02*
X187628641Y-26720000D01*
%TO.C,D20*%
X125450000Y-64110000D02*
X125450000Y-60100000D01*
X127450000Y-64110000D02*
X125450000Y-64110000D01*
X127450000Y-64110000D02*
X127450000Y-60100000D01*
%TO.C,C2*%
X192980810Y-68028307D02*
X192828307Y-68180810D01*
X192471693Y-67519190D02*
X192319190Y-67671693D01*
%TO.C,D5*%
X106400000Y-42678750D02*
X106400000Y-38668750D01*
X108400000Y-42678750D02*
X106400000Y-42678750D01*
X108400000Y-42678750D02*
X108400000Y-38668750D01*
%TO.C,D47*%
X68300000Y-99828750D02*
X68300000Y-95818750D01*
X70300000Y-99828750D02*
X68300000Y-99828750D01*
X70300000Y-99828750D02*
X70300000Y-95818750D01*
%TO.C,D7*%
X144500000Y-45060000D02*
X144500000Y-41050000D01*
X146500000Y-45060000D02*
X144500000Y-45060000D01*
X146500000Y-45060000D02*
X146500000Y-41050000D01*
%TO.C,D43*%
X344525000Y-85541250D02*
X344525000Y-81531250D01*
X346525000Y-85541250D02*
X344525000Y-85541250D01*
X346525000Y-85541250D02*
X346525000Y-81531250D01*
%TO.C,D63*%
X68300000Y-118878750D02*
X68300000Y-114868750D01*
X70300000Y-118878750D02*
X68300000Y-118878750D01*
X70300000Y-118878750D02*
X70300000Y-114868750D01*
%TO.C,C4*%
X220590000Y-42937836D02*
X220590000Y-42722164D01*
X221310000Y-42937836D02*
X221310000Y-42722164D01*
%TO.C,C6*%
X189019190Y-53971693D02*
X189171693Y-53819190D01*
X189528307Y-54480810D02*
X189680810Y-54328307D01*
%TO.C,R4*%
X188296359Y-62620000D02*
X188603641Y-62620000D01*
X188296359Y-63380000D02*
X188603641Y-63380000D01*
%TO.C,C16*%
X200780810Y-56078307D02*
X200628307Y-56230810D01*
X200271693Y-55569190D02*
X200119190Y-55721693D01*
%TO.C,D36*%
X125355380Y-126294125D02*
X128828142Y-128299125D01*
X124355380Y-128026175D02*
X125355380Y-126294125D01*
X124355380Y-128026175D02*
X127828142Y-130031175D01*
%TO.C,D31*%
X68300000Y-80778750D02*
X68300000Y-76768750D01*
X70300000Y-80778750D02*
X68300000Y-80778750D01*
X70300000Y-80778750D02*
X70300000Y-76768750D01*
%TO.C,D50*%
X125450000Y-102210000D02*
X125450000Y-98200000D01*
X127450000Y-102210000D02*
X125450000Y-102210000D01*
X127450000Y-102210000D02*
X127450000Y-98200000D01*
%TO.C,D49*%
X106400000Y-99828750D02*
X106400000Y-95818750D01*
X108400000Y-99828750D02*
X106400000Y-99828750D01*
X108400000Y-99828750D02*
X108400000Y-95818750D01*
%TO.C,D75*%
X344525000Y-123641250D02*
X344525000Y-119631250D01*
X346525000Y-123641250D02*
X344525000Y-123641250D01*
X346525000Y-123641250D02*
X346525000Y-119631250D01*
%TO.C,D52*%
X160672725Y-118225070D02*
X162677725Y-114752308D01*
X162404775Y-119225070D02*
X160672725Y-118225070D01*
X162404775Y-119225070D02*
X164409775Y-115752308D01*
%TO.C,R2*%
X192870000Y-29253641D02*
X192870000Y-28946359D01*
X193630000Y-29253641D02*
X193630000Y-28946359D01*
%TO.C,D44*%
X368337500Y-85541250D02*
X368337500Y-81531250D01*
X370337500Y-85541250D02*
X368337500Y-85541250D01*
X370337500Y-85541250D02*
X370337500Y-81531250D01*
%TO.C,D17*%
X68300000Y-61728750D02*
X68300000Y-57718750D01*
X70300000Y-61728750D02*
X68300000Y-61728750D01*
X70300000Y-61728750D02*
X70300000Y-57718750D01*
%TO.C,D30*%
X49250000Y-85541250D02*
X49250000Y-81531250D01*
X51250000Y-85541250D02*
X49250000Y-85541250D01*
X51250000Y-85541250D02*
X51250000Y-81531250D01*
%TO.C,D55*%
X268325000Y-102210000D02*
X268325000Y-98200000D01*
X270325000Y-102210000D02*
X268325000Y-102210000D01*
X270325000Y-102210000D02*
X270325000Y-98200000D01*
%TO.C,R11*%
X190196359Y-62620000D02*
X190503641Y-62620000D01*
X190196359Y-63380000D02*
X190503641Y-63380000D01*
%TO.C,D62*%
X49250000Y-123641250D02*
X49250000Y-119631250D01*
X51250000Y-123641250D02*
X49250000Y-123641250D01*
X51250000Y-123641250D02*
X51250000Y-119631250D01*
%TO.C,Y1*%
X192931694Y-68326345D02*
X195760121Y-65497918D01*
X195265147Y-70659798D02*
X192931694Y-68326345D01*
%TO.C,D35*%
X144500000Y-83160000D02*
X144500000Y-79150000D01*
X146500000Y-83160000D02*
X144500000Y-83160000D01*
X146500000Y-83160000D02*
X146500000Y-79150000D01*
%TO.C,C1*%
X197680810Y-69517718D02*
X197528307Y-69670221D01*
X197171693Y-69008601D02*
X197019190Y-69161104D01*
%TO.C,C17*%
X202111219Y-43639970D02*
X202310030Y-43838781D01*
X201389970Y-44361219D02*
X201588781Y-44560030D01*
%TO.C,C8*%
X191211104Y-55870221D02*
X191058601Y-55717718D01*
X191720221Y-55361104D02*
X191567718Y-55208601D01*
%TO.C,R3*%
X194366717Y-66670684D02*
X194149436Y-66887965D01*
X193829316Y-66133283D02*
X193612035Y-66350564D01*
%TO.C,LED4*%
X221137500Y-171818700D02*
X213837500Y-171818700D01*
X221137500Y-166318700D02*
X213837500Y-166318700D01*
X213837500Y-171818700D02*
X213837500Y-170668700D01*
%TO.C,D40*%
X287375000Y-80778750D02*
X287375000Y-76768750D01*
X289375000Y-80778750D02*
X287375000Y-80778750D01*
X289375000Y-80778750D02*
X289375000Y-76768750D01*
%TO.C,C3*%
X205209999Y-45273247D02*
X205209999Y-45488919D01*
X204489999Y-45273247D02*
X204489999Y-45488919D01*
%TO.C,D13*%
X344525000Y-47441250D02*
X344525000Y-43431250D01*
X346525000Y-47441250D02*
X344525000Y-47441250D01*
X346525000Y-47441250D02*
X346525000Y-43431250D01*
%TO.C,D12*%
X325475000Y-42678750D02*
X325475000Y-38668750D01*
X327475000Y-42678750D02*
X325475000Y-42678750D01*
X327475000Y-42678750D02*
X327475000Y-38668750D01*
%TO.C,D2*%
X49250000Y-47441250D02*
X49250000Y-43431250D01*
X51250000Y-47441250D02*
X49250000Y-47441250D01*
X51250000Y-47441250D02*
X51250000Y-43431250D01*
%TO.C,D58*%
X325475000Y-99828750D02*
X325475000Y-95818750D01*
X327475000Y-99828750D02*
X325475000Y-99828750D01*
X327475000Y-99828750D02*
X327475000Y-95818750D01*
%TO.C,D64*%
X87350000Y-116497500D02*
X87350000Y-112487500D01*
X89350000Y-116497500D02*
X87350000Y-116497500D01*
X89350000Y-116497500D02*
X89350000Y-112487500D01*
%TO.C,D53*%
X232088975Y-116050070D02*
X230083975Y-112577308D01*
X233821025Y-115050070D02*
X232088975Y-116050070D01*
X233821025Y-115050070D02*
X231816025Y-111577308D01*
%TO.C,D51*%
X141853180Y-135196325D02*
X145325942Y-137201325D01*
X140853180Y-136928375D02*
X141853180Y-135196325D01*
X140853180Y-136928375D02*
X144325942Y-138933375D01*
%TO.C,C5*%
X209684580Y-45477787D02*
X209684580Y-45262115D01*
X210404580Y-45477787D02*
X210404580Y-45262115D01*
%TO.C,D8*%
X249275000Y-45060000D02*
X249275000Y-41050000D01*
X251275000Y-45060000D02*
X249275000Y-45060000D01*
X251275000Y-45060000D02*
X251275000Y-41050000D01*
%TO.C,C15*%
X196540368Y-54916787D02*
X196692871Y-54764284D01*
X197049485Y-55425904D02*
X197201988Y-55273401D01*
%TO.C,R5*%
X195647500Y-50962742D02*
X195647500Y-51437258D01*
X194602500Y-50962742D02*
X194602500Y-51437258D01*
%TO.C,D68*%
X177341475Y-127750070D02*
X179346475Y-124277308D01*
X179073525Y-128750070D02*
X177341475Y-127750070D01*
X179073525Y-128750070D02*
X181078525Y-125277308D01*
%TO.C,D22*%
X249275000Y-64110000D02*
X249275000Y-60100000D01*
X251275000Y-64110000D02*
X249275000Y-64110000D01*
X251275000Y-64110000D02*
X251275000Y-60100000D01*
%TO.C,R7*%
X195870000Y-29253641D02*
X195870000Y-28946359D01*
X196630000Y-29253641D02*
X196630000Y-28946359D01*
%TO.C,LED7*%
X26668800Y-27356200D02*
X19368800Y-27356200D01*
X26668800Y-21856200D02*
X19368800Y-21856200D01*
X19368800Y-27356200D02*
X19368800Y-26206200D01*
%TO.C,R8*%
X222930000Y-51356358D02*
X222930000Y-51663640D01*
X222170000Y-51356358D02*
X222170000Y-51663640D01*
%TO.C,D72*%
X287375000Y-118878750D02*
X287375000Y-114868750D01*
X289375000Y-118878750D02*
X287375000Y-118878750D01*
X289375000Y-118878750D02*
X289375000Y-114868750D01*
%TO.C,D25*%
X306425000Y-59347500D02*
X306425000Y-55337500D01*
X308425000Y-59347500D02*
X306425000Y-59347500D01*
X308425000Y-59347500D02*
X308425000Y-55337500D01*
%TO.C,D19*%
X106400000Y-61728750D02*
X106400000Y-57718750D01*
X108400000Y-61728750D02*
X106400000Y-61728750D01*
X108400000Y-61728750D02*
X108400000Y-57718750D01*
%TO.C,D54*%
X246020570Y-131689625D02*
X242547808Y-133694625D01*
X245020570Y-129957575D02*
X246020570Y-131689625D01*
X245020570Y-129957575D02*
X241547808Y-131962575D01*
%TO.C,D28*%
X368337500Y-66491250D02*
X368337500Y-62481250D01*
X370337500Y-66491250D02*
X368337500Y-66491250D01*
X370337500Y-66491250D02*
X370337500Y-62481250D01*
%TO.C,D34*%
X125450000Y-83160000D02*
X125450000Y-79150000D01*
X127450000Y-83160000D02*
X125450000Y-83160000D01*
X127450000Y-83160000D02*
X127450000Y-79150000D01*
%TO.C,D48*%
X87350000Y-97447500D02*
X87350000Y-93437500D01*
X89350000Y-97447500D02*
X87350000Y-97447500D01*
X89350000Y-97447500D02*
X89350000Y-93437500D01*
%TO.C,R10*%
X222930000Y-49456360D02*
X222930000Y-49763642D01*
X222170000Y-49456360D02*
X222170000Y-49763642D01*
%TO.C,U4*%
X196350000Y-33166219D02*
X196350000Y-32556219D01*
X196350000Y-32556219D02*
X193450000Y-32556219D01*
X194250000Y-35676219D02*
X195050000Y-35676219D01*
X194250000Y-35676219D02*
X193450000Y-35676219D01*
%TO.C,LED3*%
X311625000Y-128162500D02*
X304325000Y-128162500D01*
X311625000Y-122662500D02*
X304325000Y-122662500D01*
X304325000Y-128162500D02*
X304325000Y-127012500D01*
%TO.C,D67*%
X167816475Y-144418820D02*
X169821475Y-140946058D01*
X169548525Y-145418820D02*
X167816475Y-144418820D01*
X169548525Y-145418820D02*
X171553525Y-141946058D01*
%TO.C,C11*%
X200722164Y-61840000D02*
X200937836Y-61840000D01*
X200722164Y-62560000D02*
X200937836Y-62560000D01*
%TO.C,D14*%
X368337500Y-47441250D02*
X368337500Y-43431250D01*
X370337500Y-47441250D02*
X368337500Y-47441250D01*
X370337500Y-47441250D02*
X370337500Y-43431250D01*
%TO.C,D41*%
X306425000Y-78397500D02*
X306425000Y-74387500D01*
X308425000Y-78397500D02*
X306425000Y-78397500D01*
X308425000Y-78397500D02*
X308425000Y-74387500D01*
%TO.C,D39*%
X268325000Y-83160000D02*
X268325000Y-79150000D01*
X270325000Y-83160000D02*
X268325000Y-83160000D01*
X270325000Y-83160000D02*
X270325000Y-79150000D01*
%TO.C,R1*%
X222730000Y-57946359D02*
X222730000Y-58253641D01*
X221970000Y-57946359D02*
X221970000Y-58253641D01*
%TO.C,D46*%
X49250000Y-104591250D02*
X49250000Y-100581250D01*
X51250000Y-104591250D02*
X49250000Y-104591250D01*
X51250000Y-104591250D02*
X51250000Y-100581250D01*
%TO.C,D26*%
X325475000Y-61728750D02*
X325475000Y-57718750D01*
X327475000Y-61728750D02*
X325475000Y-61728750D01*
X327475000Y-61728750D02*
X327475000Y-57718750D01*
%TO.C,LED6*%
X84612500Y-128162500D02*
X77312500Y-128162500D01*
X84612500Y-122662500D02*
X77312500Y-122662500D01*
X77312500Y-128162500D02*
X77312500Y-127012500D01*
%TO.C,D74*%
X325475000Y-118878750D02*
X325475000Y-114868750D01*
X327475000Y-118878750D02*
X325475000Y-118878750D01*
X327475000Y-118878750D02*
X327475000Y-114868750D01*
%TO.C,J1*%
X189775000Y-18940000D02*
X199175000Y-18940000D01*
X189775000Y-20840000D02*
X189775000Y-18940000D01*
X189775000Y-24740000D02*
X189775000Y-22740000D01*
X199175000Y-20840000D02*
X199175000Y-18940000D01*
X199175000Y-24740000D02*
X199175000Y-22740000D01*
%TO.C,C13*%
X189011104Y-58070221D02*
X188858601Y-57917718D01*
X189520221Y-57561104D02*
X189367718Y-57408601D01*
%TO.C,D45*%
X25437500Y-104591250D02*
X25437500Y-100581250D01*
X27437500Y-104591250D02*
X25437500Y-104591250D01*
X27437500Y-104591250D02*
X27437500Y-100581250D01*
%TO.C,D15*%
X25437500Y-66491250D02*
X25437500Y-62481250D01*
X27437500Y-66491250D02*
X25437500Y-66491250D01*
X27437500Y-66491250D02*
X27437500Y-62481250D01*
%TO.C,D57*%
X306425000Y-97447500D02*
X306425000Y-93437500D01*
X308425000Y-97447500D02*
X306425000Y-97447500D01*
X308425000Y-97447500D02*
X308425000Y-93437500D01*
%TO.C,D33*%
X106400000Y-80778750D02*
X106400000Y-76768750D01*
X108400000Y-80778750D02*
X106400000Y-80778750D01*
X108400000Y-80778750D02*
X108400000Y-76768750D01*
%TO.C,U1*%
X207450000Y-46460000D02*
X208250000Y-46460000D01*
X207450000Y-46460000D02*
X206650000Y-46460000D01*
X207450000Y-43340000D02*
X209250000Y-43340000D01*
X207450000Y-43340000D02*
X206650000Y-43340000D01*
%TO.C,F1*%
X199860000Y-30797936D02*
X199860000Y-32002064D01*
X198040000Y-30797936D02*
X198040000Y-32002064D01*
%TO.C,D4*%
X87350000Y-40297500D02*
X87350000Y-36287500D01*
X89350000Y-40297500D02*
X87350000Y-40297500D01*
X89350000Y-40297500D02*
X89350000Y-36287500D01*
%TO.C,D73*%
X306425000Y-116497500D02*
X306425000Y-112487500D01*
X308425000Y-116497500D02*
X306425000Y-116497500D01*
X308425000Y-116497500D02*
X308425000Y-112487500D01*
%TO.C,D6*%
X125450000Y-45060000D02*
X125450000Y-41050000D01*
X127450000Y-45060000D02*
X125450000Y-45060000D01*
X127450000Y-45060000D02*
X127450000Y-41050000D01*
%TO.C,D66*%
X158291475Y-161087570D02*
X160296475Y-157614808D01*
X160023525Y-162087570D02*
X158291475Y-161087570D01*
X160023525Y-162087570D02*
X162028525Y-158614808D01*
%TO.C,D42*%
X325475000Y-80778750D02*
X325475000Y-76768750D01*
X327475000Y-80778750D02*
X325475000Y-80778750D01*
X327475000Y-80778750D02*
X327475000Y-76768750D01*
%TO.C,D70*%
X224945225Y-142243820D02*
X222940225Y-138771058D01*
X226677275Y-141243820D02*
X224945225Y-142243820D01*
X226677275Y-141243820D02*
X224672275Y-137771058D01*
%TD*%
%LPC*%
D12*
%TO.C,SW18*%
X80010000Y-53575000D03*
D13*
X81280000Y-51035000D03*
D14*
X85090000Y-53575000D03*
D13*
X87630000Y-48495000D03*
D12*
X90170000Y-53575000D03*
D15*
X78005000Y-51035000D03*
X90932000Y-48495000D03*
%TD*%
D12*
%TO.C,SW35*%
X137160000Y-77387500D03*
D13*
X138430000Y-74847500D03*
D14*
X142240000Y-77387500D03*
D13*
X144780000Y-72307500D03*
D12*
X147320000Y-77387500D03*
D15*
X135155000Y-74847500D03*
X148082000Y-72307500D03*
%TD*%
D12*
%TO.C,SW54*%
X243858300Y-141147209D03*
D13*
X241023595Y-141317357D03*
D14*
X241318300Y-136747800D03*
D13*
X235648891Y-137088095D03*
D12*
X238778300Y-132348391D03*
D16*
X242661095Y-144153590D03*
X233997891Y-134228480D03*
%TD*%
D12*
%TO.C,SW29*%
X18097500Y-79768700D03*
D13*
X19367500Y-77228700D03*
D14*
X23177500Y-79768700D03*
D13*
X25717500Y-74688700D03*
D12*
X28257500Y-79768700D03*
D15*
X16092500Y-77228700D03*
X29019500Y-74688700D03*
%TD*%
D12*
%TO.C,SW11*%
X299085000Y-34525000D03*
D13*
X300355000Y-31985000D03*
D14*
X304165000Y-34525000D03*
D13*
X306705000Y-29445000D03*
D12*
X309245000Y-34525000D03*
D15*
X297080000Y-31985000D03*
X310007000Y-29445000D03*
%TD*%
D17*
%TO.C,REF\u002A\u002A*%
X241398487Y-122916689D03*
D18*
X228226241Y-130521689D03*
D17*
X253336487Y-143593911D03*
D18*
X240164241Y-151198911D03*
%TD*%
D12*
%TO.C,SW76*%
X356235000Y-117868700D03*
D13*
X357505000Y-115328700D03*
D14*
X361315000Y-117868700D03*
D13*
X363855000Y-112788700D03*
D12*
X366395000Y-117868700D03*
D15*
X354230000Y-115328700D03*
X367157000Y-112788700D03*
%TD*%
D12*
%TO.C,SW57*%
X299085000Y-91675000D03*
D13*
X300355000Y-89135000D03*
D14*
X304165000Y-91675000D03*
D13*
X306705000Y-86595000D03*
D12*
X309245000Y-91675000D03*
D15*
X297080000Y-89135000D03*
X310007000Y-86595000D03*
%TD*%
D12*
%TO.C,SW48*%
X80010000Y-91675000D03*
D13*
X81280000Y-89135000D03*
D14*
X85090000Y-91675000D03*
D13*
X87630000Y-86595000D03*
D12*
X90170000Y-91675000D03*
D15*
X78005000Y-89135000D03*
X90932000Y-86595000D03*
%TD*%
D12*
%TO.C,SW46*%
X41910000Y-98818700D03*
D13*
X43180000Y-96278700D03*
D14*
X46990000Y-98818700D03*
D13*
X49530000Y-93738700D03*
D12*
X52070000Y-98818700D03*
D15*
X39905000Y-96278700D03*
X52832000Y-93738700D03*
%TD*%
D12*
%TO.C,SW66*%
X155272591Y-151981700D03*
D13*
X157642443Y-150416995D03*
D14*
X159672000Y-154521700D03*
D13*
X164411705Y-151392291D03*
D12*
X164071409Y-157061700D03*
D19*
X154806210Y-148779495D03*
X167271320Y-153043291D03*
%TD*%
D12*
%TO.C,SW25*%
X299085000Y-53575000D03*
D13*
X300355000Y-51035000D03*
D14*
X304165000Y-53575000D03*
D13*
X306705000Y-48495000D03*
D12*
X309245000Y-53575000D03*
D15*
X297080000Y-51035000D03*
X310007000Y-48495000D03*
%TD*%
D12*
%TO.C,SW58*%
X318135000Y-94056200D03*
D13*
X319405000Y-91516200D03*
D14*
X323215000Y-94056200D03*
D13*
X325755000Y-88976200D03*
D12*
X328295000Y-94056200D03*
D15*
X316130000Y-91516200D03*
X329057000Y-88976200D03*
%TD*%
D12*
%TO.C,SW68*%
X174322591Y-118986100D03*
D13*
X176692443Y-117421395D03*
D14*
X178722000Y-121526100D03*
D13*
X183461705Y-118396691D03*
D12*
X183121409Y-124066100D03*
D19*
X173856210Y-115783895D03*
X186321320Y-120047691D03*
%TD*%
D17*
%TO.C,REF\u002A\u002A*%
X143457087Y-120376689D03*
D18*
X130284841Y-112771689D03*
D17*
X131519087Y-141053911D03*
D18*
X118346841Y-133448911D03*
%TD*%
D12*
%TO.C,SW70*%
X215658591Y-140563900D03*
D13*
X215488443Y-137729195D03*
D14*
X220058000Y-138023900D03*
D13*
X219717705Y-132354491D03*
D12*
X224457409Y-135483900D03*
D20*
X212652210Y-139366695D03*
X222577320Y-130703491D03*
%TD*%
D12*
%TO.C,SW27*%
X337185000Y-60718700D03*
D13*
X338455000Y-58178700D03*
D14*
X342265000Y-60718700D03*
D13*
X344805000Y-55638700D03*
D12*
X347345000Y-60718700D03*
D15*
X335180000Y-58178700D03*
X348107000Y-55638700D03*
%TD*%
D12*
%TO.C,SW19*%
X99060000Y-55956200D03*
D13*
X100330000Y-53416200D03*
D14*
X104140000Y-55956200D03*
D13*
X106680000Y-50876200D03*
D12*
X109220000Y-55956200D03*
D15*
X97055000Y-53416200D03*
X109982000Y-50876200D03*
%TD*%
D12*
%TO.C,SW37*%
X260356100Y-131622209D03*
D13*
X257521395Y-131792357D03*
D14*
X257816100Y-127222800D03*
D13*
X252146691Y-127563095D03*
D12*
X255276100Y-122823391D03*
D16*
X259158895Y-134628590D03*
X250495691Y-124703480D03*
%TD*%
D12*
%TO.C,SW49*%
X99060000Y-94056200D03*
D13*
X100330000Y-91516200D03*
D14*
X104140000Y-94056200D03*
D13*
X106680000Y-88976200D03*
D12*
X109220000Y-94056200D03*
D15*
X97055000Y-91516200D03*
X109982000Y-88976200D03*
%TD*%
D21*
%TO.C,RST1*%
X162450000Y-71250000D03*
X162450000Y-64750000D03*
X166950000Y-71250000D03*
X166950000Y-64750000D03*
%TD*%
D12*
%TO.C,SW51*%
X150476700Y-132348391D03*
D13*
X152041405Y-134718243D03*
D14*
X147936700Y-136747800D03*
D13*
X151066109Y-141487505D03*
D12*
X145396700Y-141147209D03*
D22*
X153678905Y-131882010D03*
X149415109Y-144347120D03*
%TD*%
D23*
%TO.C,H7*%
X206450000Y-23550000D03*
%TD*%
D12*
%TO.C,SW32*%
X80010000Y-72625000D03*
D13*
X81280000Y-70085000D03*
D14*
X85090000Y-72625000D03*
D13*
X87630000Y-67545000D03*
D12*
X90170000Y-72625000D03*
D15*
X78005000Y-70085000D03*
X90932000Y-67545000D03*
%TD*%
D12*
%TO.C,SW33*%
X99060000Y-75006200D03*
D13*
X100330000Y-72466200D03*
D14*
X104140000Y-75006200D03*
D13*
X106680000Y-69926200D03*
D12*
X109220000Y-75006200D03*
D15*
X97055000Y-72466200D03*
X109982000Y-69926200D03*
%TD*%
D12*
%TO.C,SW2*%
X41910000Y-41668700D03*
D13*
X43180000Y-39128700D03*
D14*
X46990000Y-41668700D03*
D13*
X49530000Y-36588700D03*
D12*
X52070000Y-41668700D03*
D15*
X39905000Y-39128700D03*
X52832000Y-36588700D03*
%TD*%
D12*
%TO.C,SW45*%
X18097500Y-98818700D03*
D13*
X19367500Y-96278700D03*
D14*
X23177500Y-98818700D03*
D13*
X25717500Y-93738700D03*
D12*
X28257500Y-98818700D03*
D15*
X16092500Y-96278700D03*
X29019500Y-93738700D03*
%TD*%
D12*
%TO.C,SW21*%
X137160000Y-58337500D03*
D13*
X138430000Y-55797500D03*
D14*
X142240000Y-58337500D03*
D13*
X144780000Y-53257500D03*
D12*
X147320000Y-58337500D03*
D15*
X135155000Y-55797500D03*
X148082000Y-53257500D03*
%TD*%
D12*
%TO.C,SW26*%
X318135000Y-55956200D03*
D13*
X319405000Y-53416200D03*
D14*
X323215000Y-55956200D03*
D13*
X325755000Y-50876200D03*
D12*
X328295000Y-55956200D03*
D15*
X316130000Y-53416200D03*
X329057000Y-50876200D03*
%TD*%
D12*
%TO.C,SW40*%
X280035000Y-75006200D03*
D13*
X281305000Y-72466200D03*
D14*
X285115000Y-75006200D03*
D13*
X287655000Y-69926200D03*
D12*
X290195000Y-75006200D03*
D15*
X278030000Y-72466200D03*
X290957000Y-69926200D03*
%TD*%
D12*
%TO.C,SW14*%
X360997500Y-41668700D03*
D13*
X362267500Y-39128700D03*
D14*
X366077500Y-41668700D03*
D13*
X368617500Y-36588700D03*
D12*
X371157500Y-41668700D03*
D15*
X358992500Y-39128700D03*
X371919500Y-36588700D03*
%TD*%
D12*
%TO.C,SW20*%
X118110000Y-58337500D03*
D13*
X119380000Y-55797500D03*
D14*
X123190000Y-58337500D03*
D13*
X125730000Y-53257500D03*
D12*
X128270000Y-58337500D03*
D15*
X116105000Y-55797500D03*
X129032000Y-53257500D03*
%TD*%
D12*
%TO.C,SW75*%
X337185000Y-117868700D03*
D13*
X338455000Y-115328700D03*
D14*
X342265000Y-117868700D03*
D13*
X344805000Y-112788700D03*
D12*
X347345000Y-117868700D03*
D15*
X335180000Y-115328700D03*
X348107000Y-112788700D03*
%TD*%
D12*
%TO.C,SW13*%
X337185000Y-41668700D03*
D13*
X338455000Y-39128700D03*
D14*
X342265000Y-41668700D03*
D13*
X344805000Y-36588700D03*
D12*
X347345000Y-41668700D03*
D15*
X335180000Y-39128700D03*
X348107000Y-36588700D03*
%TD*%
D12*
%TO.C,SW60*%
X360997500Y-98818700D03*
D13*
X362267500Y-96278700D03*
D14*
X366077500Y-98818700D03*
D13*
X368617500Y-93738700D03*
D12*
X371157500Y-98818700D03*
D15*
X358992500Y-96278700D03*
X371919500Y-93738700D03*
%TD*%
D12*
%TO.C,SW43*%
X337185000Y-79768700D03*
D13*
X338455000Y-77228700D03*
D14*
X342265000Y-79768700D03*
D13*
X344805000Y-74688700D03*
D12*
X347345000Y-79768700D03*
D15*
X335180000Y-77228700D03*
X348107000Y-74688700D03*
%TD*%
D12*
%TO.C,SW6*%
X118110000Y-39287500D03*
D13*
X119380000Y-36747500D03*
D14*
X123190000Y-39287500D03*
D13*
X125730000Y-34207500D03*
D12*
X128270000Y-39287500D03*
D15*
X116105000Y-36747500D03*
X129032000Y-34207500D03*
%TD*%
D12*
%TO.C,SW53*%
X222631391Y-114541100D03*
D13*
X222461243Y-111706395D03*
D14*
X227030800Y-112001100D03*
D13*
X226690505Y-106331691D03*
D12*
X231430209Y-109461100D03*
D20*
X219625010Y-113343895D03*
X229550120Y-104680691D03*
%TD*%
D12*
%TO.C,SW42*%
X318135000Y-75006200D03*
D13*
X319405000Y-72466200D03*
D14*
X323215000Y-75006200D03*
D13*
X325755000Y-69926200D03*
D12*
X328295000Y-75006200D03*
D15*
X316130000Y-72466200D03*
X329057000Y-69926200D03*
%TD*%
D12*
%TO.C,SW4*%
X80010000Y-34525000D03*
D13*
X81280000Y-31985000D03*
D14*
X85090000Y-34525000D03*
D13*
X87630000Y-29445000D03*
D12*
X90170000Y-34525000D03*
D15*
X78005000Y-31985000D03*
X90932000Y-29445000D03*
%TD*%
D12*
%TO.C,SW41*%
X299085000Y-72625000D03*
D13*
X300355000Y-70085000D03*
D14*
X304165000Y-72625000D03*
D13*
X306705000Y-67545000D03*
D12*
X309245000Y-72625000D03*
D15*
X297080000Y-70085000D03*
X310007000Y-67545000D03*
%TD*%
D12*
%TO.C,SW39*%
X260985000Y-77387500D03*
D13*
X262255000Y-74847500D03*
D14*
X266065000Y-77387500D03*
D13*
X268605000Y-72307500D03*
D12*
X271145000Y-77387500D03*
D15*
X258980000Y-74847500D03*
X271907000Y-72307500D03*
%TD*%
D12*
%TO.C,SW10*%
X280035000Y-36906200D03*
D13*
X281305000Y-34366200D03*
D14*
X285115000Y-36906200D03*
D13*
X287655000Y-31826200D03*
D12*
X290195000Y-36906200D03*
D15*
X278030000Y-34366200D03*
X290957000Y-31826200D03*
%TD*%
D12*
%TO.C,SW61*%
X22860000Y-117868700D03*
D13*
X24130000Y-115328700D03*
D14*
X27940000Y-117868700D03*
D13*
X30480000Y-112788700D03*
D12*
X33020000Y-117868700D03*
D15*
X20855000Y-115328700D03*
X33782000Y-112788700D03*
%TD*%
D12*
%TO.C,SW74*%
X318135000Y-113106200D03*
D13*
X319405000Y-110566200D03*
D14*
X323215000Y-113106200D03*
D13*
X325755000Y-108026200D03*
D12*
X328295000Y-113106200D03*
D15*
X316130000Y-110566200D03*
X329057000Y-108026200D03*
%TD*%
D12*
%TO.C,SW64*%
X80010000Y-110725000D03*
D13*
X81280000Y-108185000D03*
D14*
X85090000Y-110725000D03*
D13*
X87630000Y-105645000D03*
D12*
X90170000Y-110725000D03*
D15*
X78005000Y-108185000D03*
X90932000Y-105645000D03*
%TD*%
D12*
%TO.C,SW28*%
X360997500Y-60718700D03*
D13*
X362267500Y-58178700D03*
D14*
X366077500Y-60718700D03*
D13*
X368617500Y-55638700D03*
D12*
X371157500Y-60718700D03*
D15*
X358992500Y-58178700D03*
X371919500Y-55638700D03*
%TD*%
D12*
%TO.C,SW31*%
X60960000Y-75006200D03*
D13*
X62230000Y-72466200D03*
D14*
X66040000Y-75006200D03*
D13*
X68580000Y-69926200D03*
D12*
X71120000Y-75006200D03*
D15*
X58955000Y-72466200D03*
X71882000Y-69926200D03*
%TD*%
D12*
%TO.C,SW36*%
X133978900Y-122823391D03*
D13*
X135543605Y-125193243D03*
D14*
X131438900Y-127222800D03*
D13*
X134568309Y-131962505D03*
D12*
X128898900Y-131622209D03*
D22*
X137181105Y-122357010D03*
X132917309Y-134822120D03*
%TD*%
D12*
%TO.C,SW23*%
X260985000Y-58337500D03*
D13*
X262255000Y-55797500D03*
D14*
X266065000Y-58337500D03*
D13*
X268605000Y-53257500D03*
D12*
X271145000Y-58337500D03*
D15*
X258980000Y-55797500D03*
X271907000Y-53257500D03*
%TD*%
D12*
%TO.C,SW12*%
X318135000Y-36906200D03*
D13*
X319405000Y-34366200D03*
D14*
X323215000Y-36906200D03*
D13*
X325755000Y-31826200D03*
D12*
X328295000Y-36906200D03*
D15*
X316130000Y-34366200D03*
X329057000Y-31826200D03*
%TD*%
D21*
%TO.C,BOOT1*%
X226850000Y-64400000D03*
X226850000Y-70900000D03*
X222350000Y-64400000D03*
X222350000Y-70900000D03*
%TD*%
D12*
%TO.C,SW9*%
X260985000Y-39287500D03*
D13*
X262255000Y-36747500D03*
D14*
X266065000Y-39287500D03*
D13*
X268605000Y-34207500D03*
D12*
X271145000Y-39287500D03*
D15*
X258980000Y-36747500D03*
X271907000Y-34207500D03*
%TD*%
D12*
%TO.C,SW30*%
X41910000Y-79768700D03*
D13*
X43180000Y-77228700D03*
D14*
X46990000Y-79768700D03*
D13*
X49530000Y-74688700D03*
D12*
X52070000Y-79768700D03*
D15*
X39905000Y-77228700D03*
X52832000Y-74688700D03*
%TD*%
D12*
%TO.C,SW52*%
X157824791Y-109461100D03*
D13*
X160194643Y-107896395D03*
D14*
X162224200Y-112001100D03*
D13*
X166963905Y-108871691D03*
D12*
X166623609Y-114541100D03*
D19*
X157358410Y-106258895D03*
X169823520Y-110522691D03*
%TD*%
D12*
%TO.C,SW8*%
X241935000Y-39287500D03*
D13*
X243205000Y-36747500D03*
D14*
X247015000Y-39287500D03*
D13*
X249555000Y-34207500D03*
D12*
X252095000Y-39287500D03*
D15*
X239930000Y-36747500D03*
X252857000Y-34207500D03*
%TD*%
D23*
%TO.C,H1*%
X182450000Y-23450000D03*
%TD*%
D12*
%TO.C,SW16*%
X41910000Y-60718700D03*
D13*
X43180000Y-58178700D03*
D14*
X46990000Y-60718700D03*
D13*
X49530000Y-55638700D03*
D12*
X52070000Y-60718700D03*
D15*
X39905000Y-58178700D03*
X52832000Y-55638700D03*
%TD*%
D12*
%TO.C,SW44*%
X360997500Y-79768700D03*
D13*
X362267500Y-77228700D03*
D14*
X366077500Y-79768700D03*
D13*
X368617500Y-74688700D03*
D12*
X371157500Y-79768700D03*
D15*
X358992500Y-77228700D03*
X371919500Y-74688700D03*
%TD*%
D12*
%TO.C,SW1*%
X18097500Y-41668700D03*
D13*
X19367500Y-39128700D03*
D14*
X23177500Y-41668700D03*
D13*
X25717500Y-36588700D03*
D12*
X28257500Y-41668700D03*
D15*
X16092500Y-39128700D03*
X29019500Y-36588700D03*
%TD*%
D23*
%TO.C,H3*%
X376450000Y-128050000D03*
%TD*%
D12*
%TO.C,SW47*%
X60960000Y-94056200D03*
D13*
X62230000Y-91516200D03*
D14*
X66040000Y-94056200D03*
D13*
X68580000Y-88976200D03*
D12*
X71120000Y-94056200D03*
D15*
X58955000Y-91516200D03*
X71882000Y-88976200D03*
%TD*%
D23*
%TO.C,H5*%
X376450000Y-23550000D03*
%TD*%
D12*
%TO.C,SW22*%
X241935000Y-58337500D03*
D13*
X243205000Y-55797500D03*
D14*
X247015000Y-58337500D03*
D13*
X249555000Y-53257500D03*
D12*
X252095000Y-58337500D03*
D15*
X239930000Y-55797500D03*
X252857000Y-53257500D03*
%TD*%
D24*
%TO.C,P1*%
X172995000Y-65450000D03*
D25*
X175535000Y-65450000D03*
D24*
X178075000Y-65450000D03*
X172995000Y-59735000D03*
X178075000Y-59735000D03*
D25*
X174519000Y-57830000D03*
X176551000Y-57830000D03*
%TD*%
D12*
%TO.C,SW59*%
X337185000Y-98818700D03*
D13*
X338455000Y-96278700D03*
D14*
X342265000Y-98818700D03*
D13*
X344805000Y-93738700D03*
D12*
X347345000Y-98818700D03*
D15*
X335180000Y-96278700D03*
X348107000Y-93738700D03*
%TD*%
D12*
%TO.C,SW5*%
X99060000Y-36906200D03*
D13*
X100330000Y-34366200D03*
D14*
X104140000Y-36906200D03*
D13*
X106680000Y-31826200D03*
D12*
X109220000Y-36906200D03*
D15*
X97055000Y-34366200D03*
X109982000Y-31826200D03*
%TD*%
D12*
%TO.C,SW69*%
X206133591Y-124066100D03*
D13*
X205963443Y-121231395D03*
D14*
X210533000Y-121526100D03*
D13*
X210192705Y-115856691D03*
D12*
X214932409Y-118986100D03*
D20*
X203127210Y-122868895D03*
X213052320Y-114205691D03*
%TD*%
D12*
%TO.C,SW3*%
X60960000Y-36906200D03*
D13*
X62230000Y-34366200D03*
D14*
X66040000Y-36906200D03*
D13*
X68580000Y-31826200D03*
D12*
X71120000Y-36906200D03*
D15*
X58955000Y-34366200D03*
X71882000Y-31826200D03*
%TD*%
D12*
%TO.C,SW17*%
X60960000Y-55956200D03*
D13*
X62230000Y-53416200D03*
D14*
X66040000Y-55956200D03*
D13*
X68580000Y-50876200D03*
D12*
X71120000Y-55956200D03*
D15*
X58955000Y-53416200D03*
X71882000Y-50876200D03*
%TD*%
D12*
%TO.C,SW71*%
X225183591Y-157061700D03*
D13*
X225013443Y-154226995D03*
D14*
X229583000Y-154521700D03*
D13*
X229242705Y-148852291D03*
D12*
X233982409Y-151981700D03*
D20*
X222177210Y-155864495D03*
X232102320Y-147201291D03*
%TD*%
D12*
%TO.C,SW24*%
X280035000Y-55956200D03*
D13*
X281305000Y-53416200D03*
D14*
X285115000Y-55956200D03*
D13*
X287655000Y-50876200D03*
D12*
X290195000Y-55956200D03*
D15*
X278030000Y-53416200D03*
X290957000Y-50876200D03*
%TD*%
D12*
%TO.C,SW63*%
X60960000Y-113106200D03*
D13*
X62230000Y-110566200D03*
D14*
X66040000Y-113106200D03*
D13*
X68580000Y-108026200D03*
D12*
X71120000Y-113106200D03*
D15*
X58955000Y-110566200D03*
X71882000Y-108026200D03*
%TD*%
D23*
%TO.C,H6*%
X13950000Y-23050000D03*
%TD*%
D12*
%TO.C,SW67*%
X164797591Y-135483900D03*
D13*
X167167443Y-133919195D03*
D14*
X169197000Y-138023900D03*
D13*
X173936705Y-134894491D03*
D12*
X173596409Y-140563900D03*
D19*
X164331210Y-132281695D03*
X176796320Y-136545491D03*
%TD*%
D12*
%TO.C,SW65*%
X99060000Y-113106200D03*
D13*
X100330000Y-110566200D03*
D14*
X104140000Y-113106200D03*
D13*
X106680000Y-108026200D03*
D12*
X109220000Y-113106200D03*
D15*
X97055000Y-110566200D03*
X109982000Y-108026200D03*
%TD*%
D12*
%TO.C,SW72*%
X280035000Y-113106200D03*
D13*
X281305000Y-110566200D03*
D14*
X285115000Y-113106200D03*
D13*
X287655000Y-108026200D03*
D12*
X290195000Y-113106200D03*
D15*
X278030000Y-110566200D03*
X290957000Y-108026200D03*
%TD*%
D12*
%TO.C,SW62*%
X41910000Y-117868700D03*
D13*
X43180000Y-115328700D03*
D14*
X46990000Y-117868700D03*
D13*
X49530000Y-112788700D03*
D12*
X52070000Y-117868700D03*
D15*
X39905000Y-115328700D03*
X52832000Y-112788700D03*
%TD*%
D12*
%TO.C,SW73*%
X299085000Y-110725000D03*
D13*
X300355000Y-108185000D03*
D14*
X304165000Y-110725000D03*
D13*
X306705000Y-105645000D03*
D12*
X309245000Y-110725000D03*
D15*
X297080000Y-108185000D03*
X310007000Y-105645000D03*
%TD*%
D17*
%TO.C,REF\u002A\u002A*%
X256964027Y-141363911D03*
D18*
X270136273Y-133758911D03*
D17*
X245026027Y-120686689D03*
D18*
X258198273Y-113081689D03*
%TD*%
D12*
%TO.C,SW15*%
X18097500Y-60718700D03*
D13*
X19367500Y-58178700D03*
D14*
X23177500Y-60718700D03*
D13*
X25717500Y-55638700D03*
D12*
X28257500Y-60718700D03*
D15*
X16092500Y-58178700D03*
X29019500Y-55638700D03*
%TD*%
D12*
%TO.C,SW7*%
X137160000Y-39287500D03*
D13*
X138430000Y-36747500D03*
D14*
X142240000Y-39287500D03*
D13*
X144780000Y-34207500D03*
D12*
X147320000Y-39287500D03*
D15*
X135155000Y-36747500D03*
X148082000Y-34207500D03*
%TD*%
D23*
%TO.C,H2*%
X194450000Y-171550000D03*
%TD*%
D12*
%TO.C,SW34*%
X118110000Y-77387500D03*
D13*
X119380000Y-74847500D03*
D14*
X123190000Y-77387500D03*
D13*
X125730000Y-72307500D03*
D12*
X128270000Y-77387500D03*
D15*
X116105000Y-74847500D03*
X129032000Y-72307500D03*
%TD*%
D17*
%TO.C,REF\u002A\u002A*%
X135608513Y-142822025D03*
D18*
X148780759Y-150427025D03*
D17*
X147546513Y-122144803D03*
D18*
X160718759Y-129749803D03*
%TD*%
D12*
%TO.C,SW55*%
X260985000Y-96437500D03*
D13*
X262255000Y-93897500D03*
D14*
X266065000Y-96437500D03*
D13*
X268605000Y-91357500D03*
D12*
X271145000Y-96437500D03*
D15*
X258980000Y-93897500D03*
X271907000Y-91357500D03*
%TD*%
D12*
%TO.C,SW50*%
X118110000Y-96437500D03*
D13*
X119380000Y-93897500D03*
D14*
X123190000Y-96437500D03*
D13*
X125730000Y-91357500D03*
D12*
X128270000Y-96437500D03*
D15*
X116105000Y-93897500D03*
X129032000Y-91357500D03*
%TD*%
D12*
%TO.C,SW38*%
X241935000Y-77387500D03*
D13*
X243205000Y-74847500D03*
D14*
X247015000Y-77387500D03*
D13*
X249555000Y-72307500D03*
D12*
X252095000Y-77387500D03*
D15*
X239930000Y-74847500D03*
X252857000Y-72307500D03*
%TD*%
D23*
%TO.C,H4*%
X13950000Y-128050000D03*
%TD*%
D12*
%TO.C,SW56*%
X280035000Y-94056200D03*
D13*
X281305000Y-91516200D03*
D14*
X285115000Y-94056200D03*
D13*
X287655000Y-88976200D03*
D12*
X290195000Y-94056200D03*
D15*
X278030000Y-91516200D03*
X290957000Y-88976200D03*
%TD*%
D26*
%TO.C,D10*%
X288375000Y-41968750D03*
X288375000Y-38668750D03*
%TD*%
%TO.C,D21*%
X145500000Y-63400000D03*
X145500000Y-60100000D03*
%TD*%
D27*
%TO.C,LED1*%
X235018800Y-22956200D03*
X235018800Y-26256200D03*
X230118800Y-26256200D03*
X230118800Y-22956200D03*
%TD*%
D26*
%TO.C,D16*%
X50250000Y-65781250D03*
X50250000Y-62481250D03*
%TD*%
%TO.C,D60*%
X369337500Y-103881250D03*
X369337500Y-100581250D03*
%TD*%
D28*
%TO.C,C7*%
X189717696Y-55196518D03*
X190396518Y-54517696D03*
%TD*%
D26*
%TO.C,D11*%
X307425000Y-39587500D03*
X307425000Y-36287500D03*
%TD*%
D29*
%TO.C,R101*%
X227590000Y-22950000D03*
X228610000Y-22950000D03*
%TD*%
D30*
%TO.C,U2*%
X220980000Y-52018750D03*
X219710000Y-52018750D03*
X218440000Y-52018750D03*
X217170000Y-52018750D03*
X217170000Y-44818750D03*
X218440000Y-44818750D03*
X219710000Y-44818750D03*
X220980000Y-44818750D03*
%TD*%
D31*
%TO.C,C9*%
X190289411Y-57339411D03*
X189610589Y-56660589D03*
%TD*%
D32*
%TO.C,D69*%
X215931250Y-124460192D03*
X214281250Y-121602308D03*
%TD*%
D26*
%TO.C,D38*%
X250275000Y-82450000D03*
X250275000Y-79150000D03*
%TD*%
%TO.C,D59*%
X345525000Y-103881250D03*
X345525000Y-100581250D03*
%TD*%
%TO.C,D3*%
X69300000Y-41968750D03*
X69300000Y-38668750D03*
%TD*%
%TO.C,D18*%
X88350000Y-58637500D03*
X88350000Y-55337500D03*
%TD*%
D27*
%TO.C,LED8*%
X160400000Y-23000000D03*
X160400000Y-26300000D03*
X155500000Y-26300000D03*
X155500000Y-23000000D03*
%TD*%
D33*
%TO.C,C10*%
X189850000Y-61900000D03*
X188890000Y-61900000D03*
%TD*%
D26*
%TO.C,D29*%
X26437500Y-84831250D03*
X26437500Y-81531250D03*
%TD*%
%TO.C,D23*%
X269325000Y-63400000D03*
X269325000Y-60100000D03*
%TD*%
%TO.C,D65*%
X107400000Y-118168750D03*
X107400000Y-114868750D03*
%TD*%
D34*
%TO.C,R6*%
X193525000Y-50375000D03*
X193525000Y-52025000D03*
%TD*%
D26*
%TO.C,D27*%
X345525000Y-65781250D03*
X345525000Y-62481250D03*
%TD*%
%TO.C,D9*%
X269325000Y-44350000D03*
X269325000Y-41050000D03*
%TD*%
%TO.C,D76*%
X364575000Y-122931250D03*
X364575000Y-119631250D03*
%TD*%
D35*
%TO.C,C14*%
X197271178Y-53416272D03*
X197950000Y-54095094D03*
%TD*%
D31*
%TO.C,C12*%
X191075000Y-56553822D03*
X190396178Y-55875000D03*
%TD*%
D26*
%TO.C,D24*%
X288375000Y-61018750D03*
X288375000Y-57718750D03*
%TD*%
%TO.C,D1*%
X26437500Y-46731250D03*
X26437500Y-43431250D03*
%TD*%
D27*
%TO.C,LED2*%
X368368800Y-22956200D03*
X368368800Y-26256200D03*
X363468800Y-26256200D03*
X363468800Y-22956200D03*
%TD*%
D26*
%TO.C,D61*%
X31200000Y-122931250D03*
X31200000Y-119631250D03*
%TD*%
D36*
%TO.C,D37*%
X261403492Y-121482650D03*
X258545608Y-123132650D03*
%TD*%
D26*
%TO.C,D56*%
X288375000Y-99118750D03*
X288375000Y-95818750D03*
%TD*%
D32*
%TO.C,D71*%
X234981250Y-157003942D03*
X233331250Y-154146058D03*
%TD*%
D37*
%TO.C,C18*%
X186995000Y-27640000D03*
X187955000Y-27640000D03*
%TD*%
D26*
%TO.C,D32*%
X88350000Y-77687500D03*
X88350000Y-74387500D03*
%TD*%
D38*
%TO.C,U3*%
X199017500Y-58360000D03*
X199017500Y-58760000D03*
X199017500Y-59160000D03*
X199017500Y-59560000D03*
X199017500Y-59960000D03*
X199017500Y-60360000D03*
X199017500Y-60760000D03*
X199017500Y-61160000D03*
X199017500Y-61560000D03*
X199017500Y-61960000D03*
X199017500Y-62360000D03*
X199017500Y-62760000D03*
X199017500Y-63160000D03*
X199017500Y-63560000D03*
D39*
X198180000Y-64397500D03*
X197780000Y-64397500D03*
X197380000Y-64397500D03*
X196980000Y-64397500D03*
X196580000Y-64397500D03*
X196180000Y-64397500D03*
X195780000Y-64397500D03*
X195380000Y-64397500D03*
X194980000Y-64397500D03*
X194580000Y-64397500D03*
X194180000Y-64397500D03*
X193780000Y-64397500D03*
X193380000Y-64397500D03*
X192980000Y-64397500D03*
D38*
X192142500Y-63560000D03*
X192142500Y-63160000D03*
X192142500Y-62760000D03*
X192142500Y-62360000D03*
X192142500Y-61960000D03*
X192142500Y-61560000D03*
X192142500Y-61160000D03*
X192142500Y-60760000D03*
X192142500Y-60360000D03*
X192142500Y-59960000D03*
X192142500Y-59560000D03*
X192142500Y-59160000D03*
X192142500Y-58760000D03*
X192142500Y-58360000D03*
D39*
X192980000Y-57522500D03*
X193380000Y-57522500D03*
X193780000Y-57522500D03*
X194180000Y-57522500D03*
X194580000Y-57522500D03*
X194980000Y-57522500D03*
X195380000Y-57522500D03*
X195780000Y-57522500D03*
X196180000Y-57522500D03*
X196580000Y-57522500D03*
X196980000Y-57522500D03*
X197380000Y-57522500D03*
X197780000Y-57522500D03*
X198180000Y-57522500D03*
D40*
X195580000Y-60960000D03*
%TD*%
D27*
%TO.C,LED5*%
X173900000Y-167418700D03*
X173900000Y-170718700D03*
X169000000Y-170718700D03*
X169000000Y-167418700D03*
%TD*%
D29*
%TO.C,R9*%
X186965000Y-26340000D03*
X187985000Y-26340000D03*
%TD*%
D26*
%TO.C,D20*%
X126450000Y-63400000D03*
X126450000Y-60100000D03*
%TD*%
D41*
%TO.C,C2*%
X192989411Y-67510589D03*
X192310589Y-68189411D03*
%TD*%
D26*
%TO.C,D5*%
X107400000Y-41968750D03*
X107400000Y-38668750D03*
%TD*%
%TO.C,D47*%
X69300000Y-99118750D03*
X69300000Y-95818750D03*
%TD*%
%TO.C,D7*%
X145500000Y-44350000D03*
X145500000Y-41050000D03*
%TD*%
%TO.C,D43*%
X345525000Y-84831250D03*
X345525000Y-81531250D03*
%TD*%
%TO.C,D63*%
X69300000Y-118168750D03*
X69300000Y-114868750D03*
%TD*%
D42*
%TO.C,C4*%
X220950000Y-43310000D03*
X220950000Y-42350000D03*
%TD*%
D28*
%TO.C,C6*%
X189010589Y-54489411D03*
X189689411Y-53810589D03*
%TD*%
D29*
%TO.C,R4*%
X187940000Y-63000000D03*
X188960000Y-63000000D03*
%TD*%
D41*
%TO.C,C16*%
X200789411Y-55560589D03*
X200110589Y-56239411D03*
%TD*%
D43*
%TO.C,D36*%
X125470258Y-127515150D03*
X128328142Y-129165150D03*
%TD*%
D26*
%TO.C,D31*%
X69300000Y-80068750D03*
X69300000Y-76768750D03*
%TD*%
%TO.C,D50*%
X126450000Y-101500000D03*
X126450000Y-98200000D03*
%TD*%
%TO.C,D49*%
X107400000Y-99118750D03*
X107400000Y-95818750D03*
%TD*%
%TO.C,D75*%
X345525000Y-122931250D03*
X345525000Y-119631250D03*
%TD*%
D44*
%TO.C,D52*%
X161893750Y-118110192D03*
X163543750Y-115252308D03*
%TD*%
D45*
%TO.C,R2*%
X193250000Y-29610000D03*
X193250000Y-28590000D03*
%TD*%
D26*
%TO.C,D44*%
X369337500Y-84831250D03*
X369337500Y-81531250D03*
%TD*%
%TO.C,D17*%
X69300000Y-61018750D03*
X69300000Y-57718750D03*
%TD*%
%TO.C,D30*%
X50250000Y-84831250D03*
X50250000Y-81531250D03*
%TD*%
%TO.C,D55*%
X269325000Y-101500000D03*
X269325000Y-98200000D03*
%TD*%
D29*
%TO.C,R11*%
X189840000Y-63000000D03*
X190860000Y-63000000D03*
%TD*%
D26*
%TO.C,D62*%
X50250000Y-122931250D03*
X50250000Y-119631250D03*
%TD*%
D46*
%TO.C,Y1*%
X194133776Y-68255635D03*
X195689411Y-66700000D03*
X196891492Y-67902081D03*
X195335857Y-69457716D03*
%TD*%
D26*
%TO.C,D35*%
X145500000Y-82450000D03*
X145500000Y-79150000D03*
%TD*%
D41*
%TO.C,C1*%
X197689411Y-69000000D03*
X197010589Y-69678822D03*
%TD*%
D47*
%TO.C,C17*%
X201301992Y-43551992D03*
X202398008Y-44648008D03*
%TD*%
D31*
%TO.C,C8*%
X191728822Y-55878822D03*
X191050000Y-55200000D03*
%TD*%
D48*
%TO.C,R3*%
X194350000Y-66150000D03*
X193628752Y-66871248D03*
%TD*%
D27*
%TO.C,LED4*%
X219937500Y-167418700D03*
X219937500Y-170718700D03*
X215037500Y-170718700D03*
X215037500Y-167418700D03*
%TD*%
D26*
%TO.C,D40*%
X288375000Y-80068750D03*
X288375000Y-76768750D03*
%TD*%
D49*
%TO.C,C3*%
X204849999Y-44901083D03*
X204849999Y-45861083D03*
%TD*%
D26*
%TO.C,D13*%
X345525000Y-46731250D03*
X345525000Y-43431250D03*
%TD*%
%TO.C,D12*%
X326475000Y-41968750D03*
X326475000Y-38668750D03*
%TD*%
%TO.C,D2*%
X50250000Y-46731250D03*
X50250000Y-43431250D03*
%TD*%
%TO.C,D58*%
X326475000Y-99118750D03*
X326475000Y-95818750D03*
%TD*%
%TO.C,D64*%
X88350000Y-115787500D03*
X88350000Y-112487500D03*
%TD*%
D32*
%TO.C,D53*%
X232600000Y-114935192D03*
X230950000Y-112077308D03*
%TD*%
D43*
%TO.C,D51*%
X141968058Y-136417350D03*
X144825942Y-138067350D03*
%TD*%
D42*
%TO.C,C5*%
X210044580Y-45849951D03*
X210044580Y-44889951D03*
%TD*%
D26*
%TO.C,D8*%
X250275000Y-44350000D03*
X250275000Y-41050000D03*
%TD*%
D28*
%TO.C,C15*%
X196531767Y-55434505D03*
X197210589Y-54755683D03*
%TD*%
D34*
%TO.C,R5*%
X195125000Y-50375000D03*
X195125000Y-52025000D03*
%TD*%
D44*
%TO.C,D68*%
X178562500Y-127635192D03*
X180212500Y-124777308D03*
%TD*%
D26*
%TO.C,D22*%
X250275000Y-63400000D03*
X250275000Y-60100000D03*
%TD*%
D45*
%TO.C,R7*%
X196250000Y-29610000D03*
X196250000Y-28590000D03*
%TD*%
D27*
%TO.C,LED7*%
X25468800Y-22956200D03*
X25468800Y-26256200D03*
X20568800Y-26256200D03*
X20568800Y-22956200D03*
%TD*%
D50*
%TO.C,R8*%
X222550000Y-50999999D03*
X222550000Y-52019999D03*
%TD*%
D26*
%TO.C,D72*%
X288375000Y-118168750D03*
X288375000Y-114868750D03*
%TD*%
%TO.C,D25*%
X307425000Y-58637500D03*
X307425000Y-55337500D03*
%TD*%
%TO.C,D19*%
X107400000Y-61018750D03*
X107400000Y-57718750D03*
%TD*%
D36*
%TO.C,D54*%
X244905692Y-131178600D03*
X242047808Y-132828600D03*
%TD*%
D26*
%TO.C,D28*%
X369337500Y-65781250D03*
X369337500Y-62481250D03*
%TD*%
%TO.C,D34*%
X126450000Y-82450000D03*
X126450000Y-79150000D03*
%TD*%
%TO.C,D48*%
X88350000Y-96737500D03*
X88350000Y-93437500D03*
%TD*%
D50*
%TO.C,R10*%
X222550000Y-49100001D03*
X222550000Y-50120001D03*
%TD*%
D51*
%TO.C,U4*%
X195425000Y-33166219D03*
X195425000Y-34116219D03*
X195425000Y-35066219D03*
X193075000Y-35066219D03*
X193075000Y-34116219D03*
X193075000Y-33166219D03*
%TD*%
D27*
%TO.C,LED3*%
X310425000Y-123762500D03*
X310425000Y-127062500D03*
X305525000Y-127062500D03*
X305525000Y-123762500D03*
%TD*%
D44*
%TO.C,D67*%
X169037500Y-144303942D03*
X170687500Y-141446058D03*
%TD*%
D37*
%TO.C,C11*%
X200350000Y-62200000D03*
X201310000Y-62200000D03*
%TD*%
D26*
%TO.C,D14*%
X369337500Y-46731250D03*
X369337500Y-43431250D03*
%TD*%
%TO.C,D41*%
X307425000Y-77687500D03*
X307425000Y-74387500D03*
%TD*%
%TO.C,D39*%
X269325000Y-82450000D03*
X269325000Y-79150000D03*
%TD*%
D50*
%TO.C,R1*%
X222350000Y-57590000D03*
X222350000Y-58610000D03*
%TD*%
D26*
%TO.C,D46*%
X50250000Y-103881250D03*
X50250000Y-100581250D03*
%TD*%
%TO.C,D26*%
X326475000Y-61018750D03*
X326475000Y-57718750D03*
%TD*%
D27*
%TO.C,LED6*%
X83412500Y-123762500D03*
X83412500Y-127062500D03*
X78512500Y-127062500D03*
X78512500Y-123762500D03*
%TD*%
D26*
%TO.C,D74*%
X326475000Y-118168750D03*
X326475000Y-114868750D03*
%TD*%
D52*
%TO.C,J1*%
X191585000Y-25440000D03*
X197365000Y-25440000D03*
D53*
X191225000Y-26885000D03*
X192025000Y-26885000D03*
D54*
X193225000Y-26885000D03*
X194225000Y-26885000D03*
X194725000Y-26885000D03*
X195725000Y-26885000D03*
D53*
X196925000Y-26885000D03*
X197725000Y-26885000D03*
X197725000Y-26885000D03*
X196925000Y-26885000D03*
D54*
X196225000Y-26885000D03*
X195225000Y-26885000D03*
X193725000Y-26885000D03*
X192725000Y-26885000D03*
D53*
X192025000Y-26885000D03*
X191225000Y-26885000D03*
D55*
X190155000Y-21790000D03*
D56*
X190155000Y-25970000D03*
D55*
X198795000Y-21790000D03*
D56*
X198795000Y-25970000D03*
%TD*%
D31*
%TO.C,C13*%
X189528822Y-58078822D03*
X188850000Y-57400000D03*
%TD*%
D26*
%TO.C,D45*%
X26437500Y-103881250D03*
X26437500Y-100581250D03*
%TD*%
%TO.C,D15*%
X26437500Y-65781250D03*
X26437500Y-62481250D03*
%TD*%
%TO.C,D57*%
X307425000Y-96737500D03*
X307425000Y-93437500D03*
%TD*%
%TO.C,D33*%
X107400000Y-80068750D03*
X107400000Y-76768750D03*
%TD*%
D57*
%TO.C,U1*%
X208587500Y-43950000D03*
X208587500Y-45850000D03*
X206312500Y-44900000D03*
%TD*%
D58*
%TO.C,F1*%
X198950000Y-30000000D03*
X198950000Y-32800000D03*
%TD*%
D26*
%TO.C,D4*%
X88350000Y-39587500D03*
X88350000Y-36287500D03*
%TD*%
%TO.C,D73*%
X307425000Y-115787500D03*
X307425000Y-112487500D03*
%TD*%
%TO.C,D6*%
X126450000Y-44350000D03*
X126450000Y-41050000D03*
%TD*%
D44*
%TO.C,D66*%
X159512500Y-160972692D03*
X161162500Y-158114808D03*
%TD*%
D26*
%TO.C,D42*%
X326475000Y-80068750D03*
X326475000Y-76768750D03*
%TD*%
D32*
%TO.C,D70*%
X225456250Y-141128942D03*
X223806250Y-138271058D03*
%TD*%
%LPD*%
M02*
