%TF.GenerationSoftware,KiCad,Pcbnew,7.0.2*%
%TF.CreationDate,2023-06-02T16:23:41-04:00*%
%TF.ProjectId,arisu,61726973-752e-46b6-9963-61645f706362,1.1*%
%TF.SameCoordinates,Original*%
%TF.FileFunction,Copper,L2,Bot*%
%TF.FilePolarity,Positive*%
%FSLAX46Y46*%
G04 Gerber Fmt 4.6, Leading zero omitted, Abs format (unit mm)*
G04 Created by KiCad (PCBNEW 7.0.2) date 2023-06-02 16:23:41*
%MOMM*%
%LPD*%
G01*
G04 APERTURE LIST*
G04 Aperture macros list*
%AMRoundRect*
0 Rectangle with rounded corners*
0 $1 Rounding radius*
0 $2 $3 $4 $5 $6 $7 $8 $9 X,Y pos of 4 corners*
0 Add a 4 corners polygon primitive as box body*
4,1,4,$2,$3,$4,$5,$6,$7,$8,$9,$2,$3,0*
0 Add four circle primitives for the rounded corners*
1,1,$1+$1,$2,$3*
1,1,$1+$1,$4,$5*
1,1,$1+$1,$6,$7*
1,1,$1+$1,$8,$9*
0 Add four rect primitives between the rounded corners*
20,1,$1+$1,$2,$3,$4,$5,0*
20,1,$1+$1,$4,$5,$6,$7,0*
20,1,$1+$1,$6,$7,$8,$9,0*
20,1,$1+$1,$8,$9,$2,$3,0*%
%AMRotRect*
0 Rectangle, with rotation*
0 The origin of the aperture is its center*
0 $1 length*
0 $2 width*
0 $3 Rotation angle, in degrees counterclockwise*
0 Add horizontal line*
21,1,$1,$2,0,0,$3*%
G04 Aperture macros list end*
%TA.AperFunction,SMDPad,CuDef*%
%ADD10RoundRect,0.250000X-1.025000X-1.000000X1.025000X-1.000000X1.025000X1.000000X-1.025000X1.000000X0*%
%TD*%
%TA.AperFunction,SMDPad,CuDef*%
%ADD11RoundRect,0.250000X1.378525X-0.387676X0.353525X1.387676X-1.378525X0.387676X-0.353525X-1.387676X0*%
%TD*%
%TA.AperFunction,SMDPad,CuDef*%
%ADD12RoundRect,0.250000X-1.387676X-0.353525X0.387676X-1.378525X1.387676X0.353525X-0.387676X1.378525X0*%
%TD*%
%TA.AperFunction,SMDPad,CuDef*%
%ADD13RoundRect,0.250000X-0.387676X-1.378525X1.387676X-0.353525X0.387676X1.378525X-1.387676X0.353525X0*%
%TD*%
%TA.AperFunction,ComponentPad*%
%ADD14C,2.000000*%
%TD*%
%TA.AperFunction,SMDPad,CuDef*%
%ADD15RoundRect,0.250000X-0.353525X1.387676X-1.378525X-0.387676X0.353525X-1.387676X1.378525X0.387676X0*%
%TD*%
%TA.AperFunction,ComponentPad*%
%ADD16C,4.400000*%
%TD*%
%TA.AperFunction,WasherPad*%
%ADD17C,2.374910*%
%TD*%
%TA.AperFunction,WasherPad*%
%ADD18C,0.990610*%
%TD*%
%TA.AperFunction,SMDPad,CuDef*%
%ADD19RoundRect,0.225000X0.375000X-0.225000X0.375000X0.225000X-0.375000X0.225000X-0.375000X-0.225000X0*%
%TD*%
%TA.AperFunction,SMDPad,CuDef*%
%ADD20R,1.500000X0.900000*%
%TD*%
%TA.AperFunction,SMDPad,CuDef*%
%ADD21RoundRect,0.140000X0.021213X-0.219203X0.219203X-0.021213X-0.021213X0.219203X-0.219203X0.021213X0*%
%TD*%
%TA.AperFunction,SMDPad,CuDef*%
%ADD22RoundRect,0.135000X-0.135000X-0.185000X0.135000X-0.185000X0.135000X0.185000X-0.135000X0.185000X0*%
%TD*%
%TA.AperFunction,SMDPad,CuDef*%
%ADD23RoundRect,0.150000X0.150000X-0.650000X0.150000X0.650000X-0.150000X0.650000X-0.150000X-0.650000X0*%
%TD*%
%TA.AperFunction,SMDPad,CuDef*%
%ADD24RoundRect,0.140000X0.219203X0.021213X0.021213X0.219203X-0.219203X-0.021213X-0.021213X-0.219203X0*%
%TD*%
%TA.AperFunction,SMDPad,CuDef*%
%ADD25RoundRect,0.225000X0.437260X-0.007356X0.212260X0.382356X-0.437260X0.007356X-0.212260X-0.382356X0*%
%TD*%
%TA.AperFunction,SMDPad,CuDef*%
%ADD26RoundRect,0.140000X0.140000X0.170000X-0.140000X0.170000X-0.140000X-0.170000X0.140000X-0.170000X0*%
%TD*%
%TA.AperFunction,SMDPad,CuDef*%
%ADD27RoundRect,0.200000X-0.275000X0.200000X-0.275000X-0.200000X0.275000X-0.200000X0.275000X0.200000X0*%
%TD*%
%TA.AperFunction,SMDPad,CuDef*%
%ADD28RoundRect,0.140000X-0.219203X-0.021213X-0.021213X-0.219203X0.219203X0.021213X0.021213X0.219203X0*%
%TD*%
%TA.AperFunction,SMDPad,CuDef*%
%ADD29RoundRect,0.225000X0.007356X0.437260X-0.382356X0.212260X-0.007356X-0.437260X0.382356X-0.212260X0*%
%TD*%
%TA.AperFunction,SMDPad,CuDef*%
%ADD30RoundRect,0.140000X-0.140000X-0.170000X0.140000X-0.170000X0.140000X0.170000X-0.140000X0.170000X0*%
%TD*%
%TA.AperFunction,SMDPad,CuDef*%
%ADD31RoundRect,0.050000X0.387500X0.050000X-0.387500X0.050000X-0.387500X-0.050000X0.387500X-0.050000X0*%
%TD*%
%TA.AperFunction,SMDPad,CuDef*%
%ADD32RoundRect,0.050000X0.050000X0.387500X-0.050000X0.387500X-0.050000X-0.387500X0.050000X-0.387500X0*%
%TD*%
%TA.AperFunction,ComponentPad*%
%ADD33C,0.600000*%
%TD*%
%TA.AperFunction,SMDPad,CuDef*%
%ADD34RoundRect,0.144000X1.456000X1.456000X-1.456000X1.456000X-1.456000X-1.456000X1.456000X-1.456000X0*%
%TD*%
%TA.AperFunction,SMDPad,CuDef*%
%ADD35RoundRect,0.140000X-0.021213X0.219203X-0.219203X0.021213X0.021213X-0.219203X0.219203X-0.021213X0*%
%TD*%
%TA.AperFunction,SMDPad,CuDef*%
%ADD36RoundRect,0.140000X0.170000X-0.140000X0.170000X0.140000X-0.170000X0.140000X-0.170000X-0.140000X0*%
%TD*%
%TA.AperFunction,SMDPad,CuDef*%
%ADD37RoundRect,0.225000X-0.382356X-0.212260X0.007356X-0.437260X0.382356X0.212260X-0.007356X0.437260X0*%
%TD*%
%TA.AperFunction,SMDPad,CuDef*%
%ADD38RoundRect,0.225000X0.212260X-0.382356X0.437260X0.007356X-0.212260X0.382356X-0.437260X-0.007356X0*%
%TD*%
%TA.AperFunction,SMDPad,CuDef*%
%ADD39RoundRect,0.135000X0.185000X-0.135000X0.185000X0.135000X-0.185000X0.135000X-0.185000X-0.135000X0*%
%TD*%
%TA.AperFunction,SMDPad,CuDef*%
%ADD40RotRect,1.400000X1.200000X45.000000*%
%TD*%
%TA.AperFunction,SMDPad,CuDef*%
%ADD41RoundRect,0.225000X-0.335876X-0.017678X-0.017678X-0.335876X0.335876X0.017678X0.017678X0.335876X0*%
%TD*%
%TA.AperFunction,SMDPad,CuDef*%
%ADD42RoundRect,0.135000X-0.035355X0.226274X-0.226274X0.035355X0.035355X-0.226274X0.226274X-0.035355X0*%
%TD*%
%TA.AperFunction,SMDPad,CuDef*%
%ADD43RoundRect,0.140000X-0.170000X0.140000X-0.170000X-0.140000X0.170000X-0.140000X0.170000X0.140000X0*%
%TD*%
%TA.AperFunction,SMDPad,CuDef*%
%ADD44RoundRect,0.135000X-0.185000X0.135000X-0.185000X-0.135000X0.185000X-0.135000X0.185000X0.135000X0*%
%TD*%
%TA.AperFunction,SMDPad,CuDef*%
%ADD45RoundRect,0.150000X0.475000X0.150000X-0.475000X0.150000X-0.475000X-0.150000X0.475000X-0.150000X0*%
%TD*%
%TA.AperFunction,SMDPad,CuDef*%
%ADD46R,0.600000X1.450000*%
%TD*%
%TA.AperFunction,SMDPad,CuDef*%
%ADD47R,0.300000X1.450000*%
%TD*%
%TA.AperFunction,ComponentPad*%
%ADD48O,1.000000X1.600000*%
%TD*%
%TA.AperFunction,ComponentPad*%
%ADD49O,1.000000X2.100000*%
%TD*%
%TA.AperFunction,SMDPad,CuDef*%
%ADD50RoundRect,0.150000X0.512500X0.150000X-0.512500X0.150000X-0.512500X-0.150000X0.512500X-0.150000X0*%
%TD*%
%TA.AperFunction,SMDPad,CuDef*%
%ADD51RoundRect,0.250000X-0.625000X0.375000X-0.625000X-0.375000X0.625000X-0.375000X0.625000X0.375000X0*%
%TD*%
%TA.AperFunction,ViaPad*%
%ADD52C,0.600000*%
%TD*%
%TA.AperFunction,Conductor*%
%ADD53C,0.150000*%
%TD*%
%TA.AperFunction,Conductor*%
%ADD54C,0.200000*%
%TD*%
%TA.AperFunction,Conductor*%
%ADD55C,0.300000*%
%TD*%
G04 APERTURE END LIST*
D10*
%TO.P,SW18,1,1*%
%TO.N,/col3*%
X78005000Y-51035000D03*
%TO.P,SW18,2,2*%
%TO.N,Net-(D18-A)*%
X90932000Y-48495000D03*
%TD*%
%TO.P,SW35,1,1*%
%TO.N,/col6*%
X135155000Y-74847500D03*
%TO.P,SW35,2,2*%
%TO.N,Net-(D35-A)*%
X148082000Y-72307500D03*
%TD*%
D11*
%TO.P,SW54,1,1*%
%TO.N,/col9*%
X242661095Y-144153590D03*
%TO.P,SW54,2,2*%
%TO.N,Net-(D54-A)*%
X233997891Y-134228480D03*
%TD*%
D10*
%TO.P,SW29,1,1*%
%TO.N,/col0*%
X16092500Y-77228700D03*
%TO.P,SW29,2,2*%
%TO.N,Net-(D29-A)*%
X29019500Y-74688700D03*
%TD*%
%TO.P,SW11,1,1*%
%TO.N,/col12*%
X297080000Y-31985000D03*
%TO.P,SW11,2,2*%
%TO.N,Net-(D11-A)*%
X310007000Y-29445000D03*
%TD*%
%TO.P,SW76,1,1*%
%TO.N,/col15*%
X354230000Y-115328700D03*
%TO.P,SW76,2,2*%
%TO.N,Net-(D76-A)*%
X367157000Y-112788700D03*
%TD*%
%TO.P,SW57,1,1*%
%TO.N,/col12*%
X297080000Y-89135000D03*
%TO.P,SW57,2,2*%
%TO.N,Net-(D57-A)*%
X310007000Y-86595000D03*
%TD*%
%TO.P,SW48,1,1*%
%TO.N,/col3*%
X78005000Y-89135000D03*
%TO.P,SW48,2,2*%
%TO.N,Net-(D48-A)*%
X90932000Y-86595000D03*
%TD*%
%TO.P,SW46,1,1*%
%TO.N,/col1*%
X39905000Y-96278700D03*
%TO.P,SW46,2,2*%
%TO.N,Net-(D46-A)*%
X52832000Y-93738700D03*
%TD*%
D12*
%TO.P,SW66,1,1*%
%TO.N,/col5*%
X154806210Y-148779495D03*
%TO.P,SW66,2,2*%
%TO.N,Net-(D66-A)*%
X167271320Y-153043291D03*
%TD*%
D10*
%TO.P,SW25,1,1*%
%TO.N,/col12*%
X297080000Y-51035000D03*
%TO.P,SW25,2,2*%
%TO.N,Net-(D25-A)*%
X310007000Y-48495000D03*
%TD*%
%TO.P,SW58,1,1*%
%TO.N,/col13*%
X316130000Y-91516200D03*
%TO.P,SW58,2,2*%
%TO.N,Net-(D58-A)*%
X329057000Y-88976200D03*
%TD*%
D12*
%TO.P,SW68,1,1*%
%TO.N,/col7*%
X173856210Y-115783895D03*
%TO.P,SW68,2,2*%
%TO.N,Net-(D68-A)*%
X186321320Y-120047691D03*
%TD*%
D13*
%TO.P,SW70,1,1*%
%TO.N,/col9*%
X212652210Y-139366695D03*
%TO.P,SW70,2,2*%
%TO.N,Net-(D70-A)*%
X222577320Y-130703491D03*
%TD*%
D10*
%TO.P,SW27,1,1*%
%TO.N,/col14*%
X335180000Y-58178700D03*
%TO.P,SW27,2,2*%
%TO.N,Net-(D27-A)*%
X348107000Y-55638700D03*
%TD*%
%TO.P,SW19,1,1*%
%TO.N,/col4*%
X97055000Y-53416200D03*
%TO.P,SW19,2,2*%
%TO.N,Net-(D19-A)*%
X109982000Y-50876200D03*
%TD*%
D11*
%TO.P,SW37,1,1*%
%TO.N,/col8*%
X259158895Y-134628590D03*
%TO.P,SW37,2,2*%
%TO.N,Net-(D37-A)*%
X250495691Y-124703480D03*
%TD*%
D10*
%TO.P,SW49,1,1*%
%TO.N,/col4*%
X97055000Y-91516200D03*
%TO.P,SW49,2,2*%
%TO.N,Net-(D49-A)*%
X109982000Y-88976200D03*
%TD*%
D14*
%TO.P,RST1,1,1*%
%TO.N,GND*%
X162450000Y-71250000D03*
X162450000Y-64750000D03*
%TO.P,RST1,2,2*%
%TO.N,/RUN*%
X166950000Y-71250000D03*
X166950000Y-64750000D03*
%TD*%
D15*
%TO.P,SW51,1,1*%
%TO.N,/col6*%
X153678905Y-131882010D03*
%TO.P,SW51,2,2*%
%TO.N,Net-(D51-A)*%
X149415109Y-144347120D03*
%TD*%
D16*
%TO.P,H7,1*%
%TO.N,N/C*%
X206450000Y-23550000D03*
%TD*%
D10*
%TO.P,SW32,1,1*%
%TO.N,/col3*%
X78005000Y-70085000D03*
%TO.P,SW32,2,2*%
%TO.N,Net-(D32-A)*%
X90932000Y-67545000D03*
%TD*%
%TO.P,SW33,1,1*%
%TO.N,/col4*%
X97055000Y-72466200D03*
%TO.P,SW33,2,2*%
%TO.N,Net-(D33-A)*%
X109982000Y-69926200D03*
%TD*%
%TO.P,SW2,1,1*%
%TO.N,/col1*%
X39905000Y-39128700D03*
%TO.P,SW2,2,2*%
%TO.N,Net-(D2-A)*%
X52832000Y-36588700D03*
%TD*%
%TO.P,SW45,1,1*%
%TO.N,/col0*%
X16092500Y-96278700D03*
%TO.P,SW45,2,2*%
%TO.N,Net-(D45-A)*%
X29019500Y-93738700D03*
%TD*%
%TO.P,SW21,1,1*%
%TO.N,/col6*%
X135155000Y-55797500D03*
%TO.P,SW21,2,2*%
%TO.N,Net-(D21-A)*%
X148082000Y-53257500D03*
%TD*%
%TO.P,SW26,1,1*%
%TO.N,/col13*%
X316130000Y-53416200D03*
%TO.P,SW26,2,2*%
%TO.N,Net-(D26-A)*%
X329057000Y-50876200D03*
%TD*%
%TO.P,SW40,1,1*%
%TO.N,/col11*%
X278030000Y-72466200D03*
%TO.P,SW40,2,2*%
%TO.N,Net-(D40-A)*%
X290957000Y-69926200D03*
%TD*%
%TO.P,SW14,1,1*%
%TO.N,/col15*%
X358992500Y-39128700D03*
%TO.P,SW14,2,2*%
%TO.N,Net-(D14-A)*%
X371919500Y-36588700D03*
%TD*%
%TO.P,SW20,1,1*%
%TO.N,/col5*%
X116105000Y-55797500D03*
%TO.P,SW20,2,2*%
%TO.N,Net-(D20-A)*%
X129032000Y-53257500D03*
%TD*%
%TO.P,SW75,1,1*%
%TO.N,/col14*%
X335180000Y-115328700D03*
%TO.P,SW75,2,2*%
%TO.N,Net-(D75-A)*%
X348107000Y-112788700D03*
%TD*%
%TO.P,SW13,1,1*%
%TO.N,/col14*%
X335180000Y-39128700D03*
%TO.P,SW13,2,2*%
%TO.N,Net-(D13-A)*%
X348107000Y-36588700D03*
%TD*%
%TO.P,SW60,1,1*%
%TO.N,/col15*%
X358992500Y-96278700D03*
%TO.P,SW60,2,2*%
%TO.N,Net-(D60-A)*%
X371919500Y-93738700D03*
%TD*%
%TO.P,SW43,1,1*%
%TO.N,/col14*%
X335180000Y-77228700D03*
%TO.P,SW43,2,2*%
%TO.N,Net-(D43-A)*%
X348107000Y-74688700D03*
%TD*%
%TO.P,SW6,1,1*%
%TO.N,/col5*%
X116105000Y-36747500D03*
%TO.P,SW6,2,2*%
%TO.N,Net-(D6-A)*%
X129032000Y-34207500D03*
%TD*%
D13*
%TO.P,SW53,1,1*%
%TO.N,/col8*%
X219625010Y-113343895D03*
%TO.P,SW53,2,2*%
%TO.N,Net-(D53-A)*%
X229550120Y-104680691D03*
%TD*%
D10*
%TO.P,SW42,1,1*%
%TO.N,/col13*%
X316130000Y-72466200D03*
%TO.P,SW42,2,2*%
%TO.N,Net-(D42-A)*%
X329057000Y-69926200D03*
%TD*%
%TO.P,SW4,1,1*%
%TO.N,/col3*%
X78005000Y-31985000D03*
%TO.P,SW4,2,2*%
%TO.N,Net-(D4-A)*%
X90932000Y-29445000D03*
%TD*%
%TO.P,SW41,1,1*%
%TO.N,/col12*%
X297080000Y-70085000D03*
%TO.P,SW41,2,2*%
%TO.N,Net-(D41-A)*%
X310007000Y-67545000D03*
%TD*%
%TO.P,SW39,1,1*%
%TO.N,/col10*%
X258980000Y-74847500D03*
%TO.P,SW39,2,2*%
%TO.N,Net-(D39-A)*%
X271907000Y-72307500D03*
%TD*%
%TO.P,SW10,1,1*%
%TO.N,/col11*%
X278030000Y-34366200D03*
%TO.P,SW10,2,2*%
%TO.N,Net-(D10-A)*%
X290957000Y-31826200D03*
%TD*%
%TO.P,SW61,1,1*%
%TO.N,/col0*%
X20855000Y-115328700D03*
%TO.P,SW61,2,2*%
%TO.N,Net-(D61-A)*%
X33782000Y-112788700D03*
%TD*%
%TO.P,SW74,1,1*%
%TO.N,/col13*%
X316130000Y-110566200D03*
%TO.P,SW74,2,2*%
%TO.N,Net-(D74-A)*%
X329057000Y-108026200D03*
%TD*%
%TO.P,SW64,1,1*%
%TO.N,/col3*%
X78005000Y-108185000D03*
%TO.P,SW64,2,2*%
%TO.N,Net-(D64-A)*%
X90932000Y-105645000D03*
%TD*%
%TO.P,SW28,1,1*%
%TO.N,/col15*%
X358992500Y-58178700D03*
%TO.P,SW28,2,2*%
%TO.N,Net-(D28-A)*%
X371919500Y-55638700D03*
%TD*%
%TO.P,SW31,1,1*%
%TO.N,/col2*%
X58955000Y-72466200D03*
%TO.P,SW31,2,2*%
%TO.N,Net-(D31-A)*%
X71882000Y-69926200D03*
%TD*%
D15*
%TO.P,SW36,1,1*%
%TO.N,/col7*%
X137181105Y-122357010D03*
%TO.P,SW36,2,2*%
%TO.N,Net-(D36-A)*%
X132917309Y-134822120D03*
%TD*%
D10*
%TO.P,SW23,1,1*%
%TO.N,/col10*%
X258980000Y-55797500D03*
%TO.P,SW23,2,2*%
%TO.N,Net-(D23-A)*%
X271907000Y-53257500D03*
%TD*%
%TO.P,SW12,1,1*%
%TO.N,/col13*%
X316130000Y-34366200D03*
%TO.P,SW12,2,2*%
%TO.N,Net-(D12-A)*%
X329057000Y-31826200D03*
%TD*%
D14*
%TO.P,BOOT1,1,1*%
%TO.N,GND*%
X226850000Y-64400000D03*
X226850000Y-70900000D03*
%TO.P,BOOT1,2,2*%
%TO.N,Net-(BOOT1-Pad2)*%
X222350000Y-64400000D03*
X222350000Y-70900000D03*
%TD*%
D10*
%TO.P,SW9,1,1*%
%TO.N,/col10*%
X258980000Y-36747500D03*
%TO.P,SW9,2,2*%
%TO.N,Net-(D9-A)*%
X271907000Y-34207500D03*
%TD*%
%TO.P,SW30,1,1*%
%TO.N,/col1*%
X39905000Y-77228700D03*
%TO.P,SW30,2,2*%
%TO.N,Net-(D30-A)*%
X52832000Y-74688700D03*
%TD*%
D12*
%TO.P,SW52,1,1*%
%TO.N,/col7*%
X157358410Y-106258895D03*
%TO.P,SW52,2,2*%
%TO.N,Net-(D52-A)*%
X169823520Y-110522691D03*
%TD*%
D10*
%TO.P,SW8,1,1*%
%TO.N,/col9*%
X239930000Y-36747500D03*
%TO.P,SW8,2,2*%
%TO.N,Net-(D8-A)*%
X252857000Y-34207500D03*
%TD*%
D16*
%TO.P,H1,1*%
%TO.N,N/C*%
X182450000Y-23450000D03*
%TD*%
D10*
%TO.P,SW16,1,1*%
%TO.N,/col1*%
X39905000Y-58178700D03*
%TO.P,SW16,2,2*%
%TO.N,Net-(D16-A)*%
X52832000Y-55638700D03*
%TD*%
%TO.P,SW44,1,1*%
%TO.N,/col15*%
X358992500Y-77228700D03*
%TO.P,SW44,2,2*%
%TO.N,Net-(D44-A)*%
X371919500Y-74688700D03*
%TD*%
%TO.P,SW1,1,1*%
%TO.N,/col0*%
X16092500Y-39128700D03*
%TO.P,SW1,2,2*%
%TO.N,Net-(D1-A)*%
X29019500Y-36588700D03*
%TD*%
D16*
%TO.P,H3,1*%
%TO.N,N/C*%
X376450000Y-128050000D03*
%TD*%
D10*
%TO.P,SW47,1,1*%
%TO.N,/col2*%
X58955000Y-91516200D03*
%TO.P,SW47,2,2*%
%TO.N,Net-(D47-A)*%
X71882000Y-88976200D03*
%TD*%
D16*
%TO.P,H5,1*%
%TO.N,N/C*%
X376450000Y-23550000D03*
%TD*%
D10*
%TO.P,SW22,1,1*%
%TO.N,/col9*%
X239930000Y-55797500D03*
%TO.P,SW22,2,2*%
%TO.N,Net-(D22-A)*%
X252857000Y-53257500D03*
%TD*%
D17*
%TO.P,P1,*%
%TO.N,*%
X172995000Y-65450000D03*
D18*
X175535000Y-65450000D03*
D17*
X178075000Y-65450000D03*
X172995000Y-59735000D03*
X178075000Y-59735000D03*
D18*
X174519000Y-57830000D03*
X176551000Y-57830000D03*
%TD*%
D10*
%TO.P,SW59,1,1*%
%TO.N,/col14*%
X335180000Y-96278700D03*
%TO.P,SW59,2,2*%
%TO.N,Net-(D59-A)*%
X348107000Y-93738700D03*
%TD*%
%TO.P,SW5,1,1*%
%TO.N,/col4*%
X97055000Y-34366200D03*
%TO.P,SW5,2,2*%
%TO.N,Net-(D5-A)*%
X109982000Y-31826200D03*
%TD*%
D13*
%TO.P,SW69,1,1*%
%TO.N,/col8*%
X203127210Y-122868895D03*
%TO.P,SW69,2,2*%
%TO.N,Net-(D69-A)*%
X213052320Y-114205691D03*
%TD*%
D10*
%TO.P,SW3,1,1*%
%TO.N,/col2*%
X58955000Y-34366200D03*
%TO.P,SW3,2,2*%
%TO.N,Net-(D3-A)*%
X71882000Y-31826200D03*
%TD*%
%TO.P,SW17,1,1*%
%TO.N,/col2*%
X58955000Y-53416200D03*
%TO.P,SW17,2,2*%
%TO.N,Net-(D17-A)*%
X71882000Y-50876200D03*
%TD*%
D13*
%TO.P,SW71,1,1*%
%TO.N,/col10*%
X222177210Y-155864495D03*
%TO.P,SW71,2,2*%
%TO.N,Net-(D71-A)*%
X232102320Y-147201291D03*
%TD*%
D10*
%TO.P,SW24,1,1*%
%TO.N,/col11*%
X278030000Y-53416200D03*
%TO.P,SW24,2,2*%
%TO.N,Net-(D24-A)*%
X290957000Y-50876200D03*
%TD*%
%TO.P,SW63,1,1*%
%TO.N,/col2*%
X58955000Y-110566200D03*
%TO.P,SW63,2,2*%
%TO.N,Net-(D63-A)*%
X71882000Y-108026200D03*
%TD*%
D16*
%TO.P,H6,1*%
%TO.N,N/C*%
X13950000Y-23050000D03*
%TD*%
D12*
%TO.P,SW67,1,1*%
%TO.N,/col6*%
X164331210Y-132281695D03*
%TO.P,SW67,2,2*%
%TO.N,Net-(D67-A)*%
X176796320Y-136545491D03*
%TD*%
D10*
%TO.P,SW65,1,1*%
%TO.N,/col4*%
X97055000Y-110566200D03*
%TO.P,SW65,2,2*%
%TO.N,Net-(D65-A)*%
X109982000Y-108026200D03*
%TD*%
%TO.P,SW72,1,1*%
%TO.N,/col11*%
X278030000Y-110566200D03*
%TO.P,SW72,2,2*%
%TO.N,Net-(D72-A)*%
X290957000Y-108026200D03*
%TD*%
%TO.P,SW62,1,1*%
%TO.N,/col1*%
X39905000Y-115328700D03*
%TO.P,SW62,2,2*%
%TO.N,Net-(D62-A)*%
X52832000Y-112788700D03*
%TD*%
%TO.P,SW73,1,1*%
%TO.N,/col12*%
X297080000Y-108185000D03*
%TO.P,SW73,2,2*%
%TO.N,Net-(D73-A)*%
X310007000Y-105645000D03*
%TD*%
%TO.P,SW15,1,1*%
%TO.N,/col0*%
X16092500Y-58178700D03*
%TO.P,SW15,2,2*%
%TO.N,Net-(D15-A)*%
X29019500Y-55638700D03*
%TD*%
%TO.P,SW7,1,1*%
%TO.N,/col6*%
X135155000Y-36747500D03*
%TO.P,SW7,2,2*%
%TO.N,Net-(D7-A)*%
X148082000Y-34207500D03*
%TD*%
D16*
%TO.P,H2,1*%
%TO.N,N/C*%
X194450000Y-171550000D03*
%TD*%
D10*
%TO.P,SW34,1,1*%
%TO.N,/col5*%
X116105000Y-74847500D03*
%TO.P,SW34,2,2*%
%TO.N,Net-(D34-A)*%
X129032000Y-72307500D03*
%TD*%
%TO.P,SW55,1,1*%
%TO.N,/col10*%
X258980000Y-93897500D03*
%TO.P,SW55,2,2*%
%TO.N,Net-(D55-A)*%
X271907000Y-91357500D03*
%TD*%
%TO.P,SW50,1,1*%
%TO.N,/col5*%
X116105000Y-93897500D03*
%TO.P,SW50,2,2*%
%TO.N,Net-(D50-A)*%
X129032000Y-91357500D03*
%TD*%
%TO.P,SW38,1,1*%
%TO.N,/col9*%
X239930000Y-74847500D03*
%TO.P,SW38,2,2*%
%TO.N,Net-(D38-A)*%
X252857000Y-72307500D03*
%TD*%
D16*
%TO.P,H4,1*%
%TO.N,N/C*%
X13950000Y-128050000D03*
%TD*%
D10*
%TO.P,SW56,1,1*%
%TO.N,/col11*%
X278030000Y-91516200D03*
%TO.P,SW56,2,2*%
%TO.N,Net-(D56-A)*%
X290957000Y-88976200D03*
%TD*%
D19*
%TO.P,D10,1,K*%
%TO.N,/row0*%
X288375000Y-41968750D03*
%TO.P,D10,2,A*%
%TO.N,Net-(D10-A)*%
X288375000Y-38668750D03*
%TD*%
%TO.P,D21,1,K*%
%TO.N,/row1*%
X145500000Y-63400000D03*
%TO.P,D21,2,A*%
%TO.N,Net-(D21-A)*%
X145500000Y-60100000D03*
%TD*%
D20*
%TO.P,LED1,1,VDD*%
%TO.N,+5V*%
X235018800Y-22956200D03*
%TO.P,LED1,2,DOUT*%
%TO.N,Net-(LED1-DOUT)*%
X235018800Y-26256200D03*
%TO.P,LED1,3,VSS*%
%TO.N,GND*%
X230118800Y-26256200D03*
%TO.P,LED1,4,DIN*%
%TO.N,Net-(LED1-DIN)*%
X230118800Y-22956200D03*
%TD*%
D19*
%TO.P,D16,1,K*%
%TO.N,/row1*%
X50250000Y-65781250D03*
%TO.P,D16,2,A*%
%TO.N,Net-(D16-A)*%
X50250000Y-62481250D03*
%TD*%
%TO.P,D60,1,K*%
%TO.N,/row3*%
X369337500Y-103881250D03*
%TO.P,D60,2,A*%
%TO.N,Net-(D60-A)*%
X369337500Y-100581250D03*
%TD*%
D21*
%TO.P,C7,1*%
%TO.N,+1V1*%
X189717696Y-55196518D03*
%TO.P,C7,2*%
%TO.N,GND*%
X190396518Y-54517696D03*
%TD*%
D19*
%TO.P,D11,1,K*%
%TO.N,/row0*%
X307425000Y-39587500D03*
%TO.P,D11,2,A*%
%TO.N,Net-(D11-A)*%
X307425000Y-36287500D03*
%TD*%
D22*
%TO.P,R101,1*%
%TO.N,/PWM*%
X227590000Y-22950000D03*
%TO.P,R101,2*%
%TO.N,Net-(LED1-DIN)*%
X228610000Y-22950000D03*
%TD*%
D23*
%TO.P,U2,1,~{CS}*%
%TO.N,/QSPI_SS*%
X220980000Y-52018750D03*
%TO.P,U2,2,DO(IO1)*%
%TO.N,/QSPI_SD1*%
X219710000Y-52018750D03*
%TO.P,U2,3,IO2*%
%TO.N,/QSPI_SD2*%
X218440000Y-52018750D03*
%TO.P,U2,4,GND*%
%TO.N,GND*%
X217170000Y-52018750D03*
%TO.P,U2,5,DI(IO0)*%
%TO.N,/QSPI_SD0*%
X217170000Y-44818750D03*
%TO.P,U2,6,CLK*%
%TO.N,/QSPI_SCLK*%
X218440000Y-44818750D03*
%TO.P,U2,7,IO3*%
%TO.N,/QSPI_SD3*%
X219710000Y-44818750D03*
%TO.P,U2,8,VCC*%
%TO.N,+3V3*%
X220980000Y-44818750D03*
%TD*%
D24*
%TO.P,C9,1*%
%TO.N,+3V3*%
X190289411Y-57339411D03*
%TO.P,C9,2*%
%TO.N,GND*%
X189610589Y-56660589D03*
%TD*%
D25*
%TO.P,D69,1,K*%
%TO.N,/row4*%
X215931250Y-124460192D03*
%TO.P,D69,2,A*%
%TO.N,Net-(D69-A)*%
X214281250Y-121602308D03*
%TD*%
D19*
%TO.P,D38,1,K*%
%TO.N,/row2*%
X250275000Y-82450000D03*
%TO.P,D38,2,A*%
%TO.N,Net-(D38-A)*%
X250275000Y-79150000D03*
%TD*%
%TO.P,D59,1,K*%
%TO.N,/row3*%
X345525000Y-103881250D03*
%TO.P,D59,2,A*%
%TO.N,Net-(D59-A)*%
X345525000Y-100581250D03*
%TD*%
%TO.P,D3,1,K*%
%TO.N,/row0*%
X69300000Y-41968750D03*
%TO.P,D3,2,A*%
%TO.N,Net-(D3-A)*%
X69300000Y-38668750D03*
%TD*%
%TO.P,D18,1,K*%
%TO.N,/row1*%
X88350000Y-58637500D03*
%TO.P,D18,2,A*%
%TO.N,Net-(D18-A)*%
X88350000Y-55337500D03*
%TD*%
D20*
%TO.P,LED8,1,VDD*%
%TO.N,+5V*%
X160400000Y-23000000D03*
%TO.P,LED8,2,DOUT*%
%TO.N,unconnected-(LED8-DOUT-Pad2)*%
X160400000Y-26300000D03*
%TO.P,LED8,3,VSS*%
%TO.N,GND*%
X155500000Y-26300000D03*
%TO.P,LED8,4,DIN*%
%TO.N,Net-(LED7-DOUT)*%
X155500000Y-23000000D03*
%TD*%
D26*
%TO.P,C10,1*%
%TO.N,+3V3*%
X189850000Y-61900000D03*
%TO.P,C10,2*%
%TO.N,GND*%
X188890000Y-61900000D03*
%TD*%
D19*
%TO.P,D29,1,K*%
%TO.N,/row2*%
X26437500Y-84831250D03*
%TO.P,D29,2,A*%
%TO.N,Net-(D29-A)*%
X26437500Y-81531250D03*
%TD*%
%TO.P,D23,1,K*%
%TO.N,/row1*%
X269325000Y-63400000D03*
%TO.P,D23,2,A*%
%TO.N,Net-(D23-A)*%
X269325000Y-60100000D03*
%TD*%
%TO.P,D65,1,K*%
%TO.N,/row4*%
X107400000Y-118168750D03*
%TO.P,D65,2,A*%
%TO.N,Net-(D65-A)*%
X107400000Y-114868750D03*
%TD*%
D27*
%TO.P,R6,1*%
%TO.N,/USB_D-*%
X193525000Y-50375000D03*
%TO.P,R6,2*%
%TO.N,/USB_DN*%
X193525000Y-52025000D03*
%TD*%
D19*
%TO.P,D27,1,K*%
%TO.N,/row1*%
X345525000Y-65781250D03*
%TO.P,D27,2,A*%
%TO.N,Net-(D27-A)*%
X345525000Y-62481250D03*
%TD*%
%TO.P,D9,1,K*%
%TO.N,/row0*%
X269325000Y-44350000D03*
%TO.P,D9,2,A*%
%TO.N,Net-(D9-A)*%
X269325000Y-41050000D03*
%TD*%
%TO.P,D76,1,K*%
%TO.N,/row4*%
X364575000Y-122931250D03*
%TO.P,D76,2,A*%
%TO.N,Net-(D76-A)*%
X364575000Y-119631250D03*
%TD*%
D28*
%TO.P,C14,1*%
%TO.N,+3V3*%
X197271178Y-53416272D03*
%TO.P,C14,2*%
%TO.N,GND*%
X197950000Y-54095094D03*
%TD*%
D24*
%TO.P,C12,1*%
%TO.N,+3V3*%
X191075000Y-56553822D03*
%TO.P,C12,2*%
%TO.N,GND*%
X190396178Y-55875000D03*
%TD*%
D19*
%TO.P,D24,1,K*%
%TO.N,/row1*%
X288375000Y-61018750D03*
%TO.P,D24,2,A*%
%TO.N,Net-(D24-A)*%
X288375000Y-57718750D03*
%TD*%
%TO.P,D1,1,K*%
%TO.N,/row0*%
X26437500Y-46731250D03*
%TO.P,D1,2,A*%
%TO.N,Net-(D1-A)*%
X26437500Y-43431250D03*
%TD*%
D20*
%TO.P,LED2,1,VDD*%
%TO.N,+5V*%
X368368800Y-22956200D03*
%TO.P,LED2,2,DOUT*%
%TO.N,Net-(LED2-DOUT)*%
X368368800Y-26256200D03*
%TO.P,LED2,3,VSS*%
%TO.N,GND*%
X363468800Y-26256200D03*
%TO.P,LED2,4,DIN*%
%TO.N,Net-(LED1-DOUT)*%
X363468800Y-22956200D03*
%TD*%
D19*
%TO.P,D61,1,K*%
%TO.N,/row4*%
X31200000Y-122931250D03*
%TO.P,D61,2,A*%
%TO.N,Net-(D61-A)*%
X31200000Y-119631250D03*
%TD*%
D29*
%TO.P,D37,1,K*%
%TO.N,/row2*%
X261403492Y-121482650D03*
%TO.P,D37,2,A*%
%TO.N,Net-(D37-A)*%
X258545608Y-123132650D03*
%TD*%
D19*
%TO.P,D56,1,K*%
%TO.N,/row3*%
X288375000Y-99118750D03*
%TO.P,D56,2,A*%
%TO.N,Net-(D56-A)*%
X288375000Y-95818750D03*
%TD*%
D25*
%TO.P,D71,1,K*%
%TO.N,/row4*%
X234981250Y-157003942D03*
%TO.P,D71,2,A*%
%TO.N,Net-(D71-A)*%
X233331250Y-154146058D03*
%TD*%
D30*
%TO.P,C18,1*%
%TO.N,GND*%
X186995000Y-27640000D03*
%TO.P,C18,2*%
%TO.N,Net-(J1-SHIELD)*%
X187955000Y-27640000D03*
%TD*%
D19*
%TO.P,D32,1,K*%
%TO.N,/row2*%
X88350000Y-77687500D03*
%TO.P,D32,2,A*%
%TO.N,Net-(D32-A)*%
X88350000Y-74387500D03*
%TD*%
D31*
%TO.P,U3,1,IOVDD*%
%TO.N,+3V3*%
X199017500Y-58360000D03*
%TO.P,U3,2,GPIO0*%
%TO.N,/col15*%
X199017500Y-58760000D03*
%TO.P,U3,3,GPIO1*%
%TO.N,/col14*%
X199017500Y-59160000D03*
%TO.P,U3,4,GPIO2*%
%TO.N,/col13*%
X199017500Y-59560000D03*
%TO.P,U3,5,GPIO3*%
%TO.N,/col12*%
X199017500Y-59960000D03*
%TO.P,U3,6,GPIO4*%
%TO.N,/col11*%
X199017500Y-60360000D03*
%TO.P,U3,7,GPIO5*%
%TO.N,/col10*%
X199017500Y-60760000D03*
%TO.P,U3,8,GPIO6*%
%TO.N,/col9*%
X199017500Y-61160000D03*
%TO.P,U3,9,GPIO7*%
%TO.N,/PWM*%
X199017500Y-61560000D03*
%TO.P,U3,10,IOVDD*%
%TO.N,+3V3*%
X199017500Y-61960000D03*
%TO.P,U3,11,GPIO8*%
%TO.N,/GPIO8*%
X199017500Y-62360000D03*
%TO.P,U3,12,GPIO9*%
%TO.N,/GPIO9*%
X199017500Y-62760000D03*
%TO.P,U3,13,GPIO10*%
%TO.N,/GPIO10*%
X199017500Y-63160000D03*
%TO.P,U3,14,GPIO11*%
%TO.N,/row4*%
X199017500Y-63560000D03*
D32*
%TO.P,U3,15,GPIO12*%
%TO.N,/row3*%
X198180000Y-64397500D03*
%TO.P,U3,16,GPIO13*%
%TO.N,/row2*%
X197780000Y-64397500D03*
%TO.P,U3,17,GPIO14*%
%TO.N,/row1*%
X197380000Y-64397500D03*
%TO.P,U3,18,GPIO15*%
%TO.N,/row0*%
X196980000Y-64397500D03*
%TO.P,U3,19,TESTEN*%
%TO.N,GND*%
X196580000Y-64397500D03*
%TO.P,U3,20,XIN*%
%TO.N,/XIN*%
X196180000Y-64397500D03*
%TO.P,U3,21,XOUT*%
%TO.N,/XOUT*%
X195780000Y-64397500D03*
%TO.P,U3,22,IOVDD*%
%TO.N,+3V3*%
X195380000Y-64397500D03*
%TO.P,U3,23,DVDD*%
%TO.N,+1V1*%
X194980000Y-64397500D03*
%TO.P,U3,24,SWCLK*%
%TO.N,SWCLK*%
X194580000Y-64397500D03*
%TO.P,U3,25,SWD*%
%TO.N,SWDIO*%
X194180000Y-64397500D03*
%TO.P,U3,26,RUN*%
%TO.N,/RUN*%
X193780000Y-64397500D03*
%TO.P,U3,27,GPIO16*%
%TO.N,/col8*%
X193380000Y-64397500D03*
%TO.P,U3,28,GPIO17*%
%TO.N,/col7*%
X192980000Y-64397500D03*
D31*
%TO.P,U3,29,GPIO18*%
%TO.N,/GPIO18*%
X192142500Y-63560000D03*
%TO.P,U3,30,GPIO19*%
%TO.N,/GPIO19*%
X192142500Y-63160000D03*
%TO.P,U3,31,GPIO20*%
%TO.N,/GPIO20*%
X192142500Y-62760000D03*
%TO.P,U3,32,GPIO21*%
%TO.N,/GPIO21*%
X192142500Y-62360000D03*
%TO.P,U3,33,IOVDD*%
%TO.N,+3V3*%
X192142500Y-61960000D03*
%TO.P,U3,34,GPIO22*%
%TO.N,/GPIO22*%
X192142500Y-61560000D03*
%TO.P,U3,35,GPIO23*%
%TO.N,/col6*%
X192142500Y-61160000D03*
%TO.P,U3,36,GPIO24*%
%TO.N,/col5*%
X192142500Y-60760000D03*
%TO.P,U3,37,GPIO25*%
%TO.N,/col4*%
X192142500Y-60360000D03*
%TO.P,U3,38,GPIO26_ADC0*%
%TO.N,/col3*%
X192142500Y-59960000D03*
%TO.P,U3,39,GPIO27_ADC1*%
%TO.N,/col2*%
X192142500Y-59560000D03*
%TO.P,U3,40,GPIO28_ADC2*%
%TO.N,/col1*%
X192142500Y-59160000D03*
%TO.P,U3,41,GPIO29_ADC3*%
%TO.N,/col0*%
X192142500Y-58760000D03*
%TO.P,U3,42,IOVDD*%
%TO.N,+3V3*%
X192142500Y-58360000D03*
D32*
%TO.P,U3,43,ADC_AVDD*%
X192980000Y-57522500D03*
%TO.P,U3,44,VREG_IN*%
X193380000Y-57522500D03*
%TO.P,U3,45,VREG_VOUT*%
%TO.N,+1V1*%
X193780000Y-57522500D03*
%TO.P,U3,46,USB_DM*%
%TO.N,/USB_DN*%
X194180000Y-57522500D03*
%TO.P,U3,47,USB_DP*%
%TO.N,/USB_DP*%
X194580000Y-57522500D03*
%TO.P,U3,48,USB_VDD*%
%TO.N,+3V3*%
X194980000Y-57522500D03*
%TO.P,U3,49,IOVDD*%
X195380000Y-57522500D03*
%TO.P,U3,50,DVDD*%
%TO.N,+1V1*%
X195780000Y-57522500D03*
%TO.P,U3,51,QSPI_SD3*%
%TO.N,/QSPI_SD3*%
X196180000Y-57522500D03*
%TO.P,U3,52,QSPI_SCLK*%
%TO.N,/QSPI_SCLK*%
X196580000Y-57522500D03*
%TO.P,U3,53,QSPI_SD0*%
%TO.N,/QSPI_SD0*%
X196980000Y-57522500D03*
%TO.P,U3,54,QSPI_SD2*%
%TO.N,/QSPI_SD2*%
X197380000Y-57522500D03*
%TO.P,U3,55,QSPI_SD1*%
%TO.N,/QSPI_SD1*%
X197780000Y-57522500D03*
%TO.P,U3,56,QSPI_SS*%
%TO.N,/QSPI_SS*%
X198180000Y-57522500D03*
D33*
%TO.P,U3,57,GND*%
%TO.N,GND*%
X196855000Y-62235000D03*
X196855000Y-60960000D03*
X196855000Y-59685000D03*
X195580000Y-62235000D03*
X195580000Y-60960000D03*
D34*
X195580000Y-60960000D03*
D33*
X195580000Y-59685000D03*
X194305000Y-62235000D03*
X194305000Y-60960000D03*
X194305000Y-59685000D03*
%TD*%
D20*
%TO.P,LED5,1,VDD*%
%TO.N,+5V*%
X173900000Y-167418700D03*
%TO.P,LED5,2,DOUT*%
%TO.N,Net-(LED5-DOUT)*%
X173900000Y-170718700D03*
%TO.P,LED5,3,VSS*%
%TO.N,GND*%
X169000000Y-170718700D03*
%TO.P,LED5,4,DIN*%
%TO.N,Net-(LED4-DOUT)*%
X169000000Y-167418700D03*
%TD*%
D22*
%TO.P,R9,1*%
%TO.N,GND*%
X186965000Y-26340000D03*
%TO.P,R9,2*%
%TO.N,Net-(J1-SHIELD)*%
X187985000Y-26340000D03*
%TD*%
D19*
%TO.P,D20,1,K*%
%TO.N,/row1*%
X126450000Y-63400000D03*
%TO.P,D20,2,A*%
%TO.N,Net-(D20-A)*%
X126450000Y-60100000D03*
%TD*%
D35*
%TO.P,C2,1*%
%TO.N,Net-(C2-Pad1)*%
X192989411Y-67510589D03*
%TO.P,C2,2*%
%TO.N,GND*%
X192310589Y-68189411D03*
%TD*%
D19*
%TO.P,D5,1,K*%
%TO.N,/row0*%
X107400000Y-41968750D03*
%TO.P,D5,2,A*%
%TO.N,Net-(D5-A)*%
X107400000Y-38668750D03*
%TD*%
%TO.P,D47,1,K*%
%TO.N,/row3*%
X69300000Y-99118750D03*
%TO.P,D47,2,A*%
%TO.N,Net-(D47-A)*%
X69300000Y-95818750D03*
%TD*%
%TO.P,D7,1,K*%
%TO.N,/row0*%
X145500000Y-44350000D03*
%TO.P,D7,2,A*%
%TO.N,Net-(D7-A)*%
X145500000Y-41050000D03*
%TD*%
%TO.P,D43,1,K*%
%TO.N,/row2*%
X345525000Y-84831250D03*
%TO.P,D43,2,A*%
%TO.N,Net-(D43-A)*%
X345525000Y-81531250D03*
%TD*%
%TO.P,D63,1,K*%
%TO.N,/row4*%
X69300000Y-118168750D03*
%TO.P,D63,2,A*%
%TO.N,Net-(D63-A)*%
X69300000Y-114868750D03*
%TD*%
D36*
%TO.P,C4,1*%
%TO.N,+3V3*%
X220950000Y-43310000D03*
%TO.P,C4,2*%
%TO.N,GND*%
X220950000Y-42350000D03*
%TD*%
D21*
%TO.P,C6,1*%
%TO.N,+1V1*%
X189010589Y-54489411D03*
%TO.P,C6,2*%
%TO.N,GND*%
X189689411Y-53810589D03*
%TD*%
D22*
%TO.P,R4,1*%
%TO.N,+3V3*%
X187940000Y-63000000D03*
%TO.P,R4,2*%
%TO.N,Net-(R11-Pad1)*%
X188960000Y-63000000D03*
%TD*%
D35*
%TO.P,C16,1*%
%TO.N,+3V3*%
X200789411Y-55560589D03*
%TO.P,C16,2*%
%TO.N,GND*%
X200110589Y-56239411D03*
%TD*%
D37*
%TO.P,D36,1,K*%
%TO.N,/row2*%
X125470258Y-127515150D03*
%TO.P,D36,2,A*%
%TO.N,Net-(D36-A)*%
X128328142Y-129165150D03*
%TD*%
D19*
%TO.P,D31,1,K*%
%TO.N,/row2*%
X69300000Y-80068750D03*
%TO.P,D31,2,A*%
%TO.N,Net-(D31-A)*%
X69300000Y-76768750D03*
%TD*%
%TO.P,D50,1,K*%
%TO.N,/row3*%
X126450000Y-101500000D03*
%TO.P,D50,2,A*%
%TO.N,Net-(D50-A)*%
X126450000Y-98200000D03*
%TD*%
%TO.P,D49,1,K*%
%TO.N,/row3*%
X107400000Y-99118750D03*
%TO.P,D49,2,A*%
%TO.N,Net-(D49-A)*%
X107400000Y-95818750D03*
%TD*%
%TO.P,D75,1,K*%
%TO.N,/row4*%
X345525000Y-122931250D03*
%TO.P,D75,2,A*%
%TO.N,Net-(D75-A)*%
X345525000Y-119631250D03*
%TD*%
D38*
%TO.P,D52,1,K*%
%TO.N,/row3*%
X161893750Y-118110192D03*
%TO.P,D52,2,A*%
%TO.N,Net-(D52-A)*%
X163543750Y-115252308D03*
%TD*%
D39*
%TO.P,R2,1*%
%TO.N,GND*%
X193250000Y-29610000D03*
%TO.P,R2,2*%
%TO.N,Net-(J1-CC1)*%
X193250000Y-28590000D03*
%TD*%
D19*
%TO.P,D44,1,K*%
%TO.N,/row2*%
X369337500Y-84831250D03*
%TO.P,D44,2,A*%
%TO.N,Net-(D44-A)*%
X369337500Y-81531250D03*
%TD*%
%TO.P,D17,1,K*%
%TO.N,/row1*%
X69300000Y-61018750D03*
%TO.P,D17,2,A*%
%TO.N,Net-(D17-A)*%
X69300000Y-57718750D03*
%TD*%
%TO.P,D30,1,K*%
%TO.N,/row2*%
X50250000Y-84831250D03*
%TO.P,D30,2,A*%
%TO.N,Net-(D30-A)*%
X50250000Y-81531250D03*
%TD*%
%TO.P,D55,1,K*%
%TO.N,/row3*%
X269325000Y-101500000D03*
%TO.P,D55,2,A*%
%TO.N,Net-(D55-A)*%
X269325000Y-98200000D03*
%TD*%
D22*
%TO.P,R11,1*%
%TO.N,Net-(R11-Pad1)*%
X189840000Y-63000000D03*
%TO.P,R11,2*%
%TO.N,/RUN*%
X190860000Y-63000000D03*
%TD*%
D19*
%TO.P,D62,1,K*%
%TO.N,/row4*%
X50250000Y-122931250D03*
%TO.P,D62,2,A*%
%TO.N,Net-(D62-A)*%
X50250000Y-119631250D03*
%TD*%
D40*
%TO.P,Y1,1,1*%
%TO.N,Net-(C2-Pad1)*%
X194133776Y-68255635D03*
%TO.P,Y1,2,2*%
%TO.N,GND*%
X195689411Y-66700000D03*
%TO.P,Y1,3,3*%
%TO.N,/XIN*%
X196891492Y-67902081D03*
%TO.P,Y1,4,4*%
%TO.N,GND*%
X195335857Y-69457716D03*
%TD*%
D19*
%TO.P,D35,1,K*%
%TO.N,/row2*%
X145500000Y-82450000D03*
%TO.P,D35,2,A*%
%TO.N,Net-(D35-A)*%
X145500000Y-79150000D03*
%TD*%
D35*
%TO.P,C1,1*%
%TO.N,/XIN*%
X197689411Y-69000000D03*
%TO.P,C1,2*%
%TO.N,GND*%
X197010589Y-69678822D03*
%TD*%
D41*
%TO.P,C17,1*%
%TO.N,+3V3*%
X201301992Y-43551992D03*
%TO.P,C17,2*%
%TO.N,GND*%
X202398008Y-44648008D03*
%TD*%
D24*
%TO.P,C8,1*%
%TO.N,+1V1*%
X191728822Y-55878822D03*
%TO.P,C8,2*%
%TO.N,GND*%
X191050000Y-55200000D03*
%TD*%
D42*
%TO.P,R3,1*%
%TO.N,/XOUT*%
X194350000Y-66150000D03*
%TO.P,R3,2*%
%TO.N,Net-(C2-Pad1)*%
X193628752Y-66871248D03*
%TD*%
D20*
%TO.P,LED4,1,VDD*%
%TO.N,+5V*%
X219937500Y-167418700D03*
%TO.P,LED4,2,DOUT*%
%TO.N,Net-(LED4-DOUT)*%
X219937500Y-170718700D03*
%TO.P,LED4,3,VSS*%
%TO.N,GND*%
X215037500Y-170718700D03*
%TO.P,LED4,4,DIN*%
%TO.N,Net-(LED3-DOUT)*%
X215037500Y-167418700D03*
%TD*%
D19*
%TO.P,D40,1,K*%
%TO.N,/row2*%
X288375000Y-80068750D03*
%TO.P,D40,2,A*%
%TO.N,Net-(D40-A)*%
X288375000Y-76768750D03*
%TD*%
D43*
%TO.P,C3,1*%
%TO.N,+5V*%
X204849999Y-44901083D03*
%TO.P,C3,2*%
%TO.N,GND*%
X204849999Y-45861083D03*
%TD*%
D19*
%TO.P,D13,1,K*%
%TO.N,/row0*%
X345525000Y-46731250D03*
%TO.P,D13,2,A*%
%TO.N,Net-(D13-A)*%
X345525000Y-43431250D03*
%TD*%
%TO.P,D12,1,K*%
%TO.N,/row0*%
X326475000Y-41968750D03*
%TO.P,D12,2,A*%
%TO.N,Net-(D12-A)*%
X326475000Y-38668750D03*
%TD*%
%TO.P,D2,1,K*%
%TO.N,/row0*%
X50250000Y-46731250D03*
%TO.P,D2,2,A*%
%TO.N,Net-(D2-A)*%
X50250000Y-43431250D03*
%TD*%
%TO.P,D58,1,K*%
%TO.N,/row3*%
X326475000Y-99118750D03*
%TO.P,D58,2,A*%
%TO.N,Net-(D58-A)*%
X326475000Y-95818750D03*
%TD*%
%TO.P,D64,1,K*%
%TO.N,/row4*%
X88350000Y-115787500D03*
%TO.P,D64,2,A*%
%TO.N,Net-(D64-A)*%
X88350000Y-112487500D03*
%TD*%
D25*
%TO.P,D53,1,K*%
%TO.N,/row3*%
X232600000Y-114935192D03*
%TO.P,D53,2,A*%
%TO.N,Net-(D53-A)*%
X230950000Y-112077308D03*
%TD*%
D37*
%TO.P,D51,1,K*%
%TO.N,/row3*%
X141968058Y-136417350D03*
%TO.P,D51,2,A*%
%TO.N,Net-(D51-A)*%
X144825942Y-138067350D03*
%TD*%
D36*
%TO.P,C5,1*%
%TO.N,+3V3*%
X210044580Y-45849951D03*
%TO.P,C5,2*%
%TO.N,GND*%
X210044580Y-44889951D03*
%TD*%
D19*
%TO.P,D8,1,K*%
%TO.N,/row0*%
X250275000Y-44350000D03*
%TO.P,D8,2,A*%
%TO.N,Net-(D8-A)*%
X250275000Y-41050000D03*
%TD*%
D21*
%TO.P,C15,1*%
%TO.N,+3V3*%
X196531767Y-55434505D03*
%TO.P,C15,2*%
%TO.N,GND*%
X197210589Y-54755683D03*
%TD*%
D27*
%TO.P,R5,1*%
%TO.N,/USB_D+*%
X195125000Y-50375000D03*
%TO.P,R5,2*%
%TO.N,/USB_DP*%
X195125000Y-52025000D03*
%TD*%
D38*
%TO.P,D68,1,K*%
%TO.N,/row4*%
X178562500Y-127635192D03*
%TO.P,D68,2,A*%
%TO.N,Net-(D68-A)*%
X180212500Y-124777308D03*
%TD*%
D19*
%TO.P,D22,1,K*%
%TO.N,/row1*%
X250275000Y-63400000D03*
%TO.P,D22,2,A*%
%TO.N,Net-(D22-A)*%
X250275000Y-60100000D03*
%TD*%
D39*
%TO.P,R7,1*%
%TO.N,GND*%
X196250000Y-29610000D03*
%TO.P,R7,2*%
%TO.N,Net-(J1-CC2)*%
X196250000Y-28590000D03*
%TD*%
D20*
%TO.P,LED7,1,VDD*%
%TO.N,+5V*%
X25468800Y-22956200D03*
%TO.P,LED7,2,DOUT*%
%TO.N,Net-(LED7-DOUT)*%
X25468800Y-26256200D03*
%TO.P,LED7,3,VSS*%
%TO.N,GND*%
X20568800Y-26256200D03*
%TO.P,LED7,4,DIN*%
%TO.N,Net-(LED6-DOUT)*%
X20568800Y-22956200D03*
%TD*%
D44*
%TO.P,R8,1*%
%TO.N,Net-(R10-Pad2)*%
X222550000Y-50999999D03*
%TO.P,R8,2*%
%TO.N,/QSPI_SS*%
X222550000Y-52019999D03*
%TD*%
D19*
%TO.P,D72,1,K*%
%TO.N,/row4*%
X288375000Y-118168750D03*
%TO.P,D72,2,A*%
%TO.N,Net-(D72-A)*%
X288375000Y-114868750D03*
%TD*%
%TO.P,D25,1,K*%
%TO.N,/row1*%
X307425000Y-58637500D03*
%TO.P,D25,2,A*%
%TO.N,Net-(D25-A)*%
X307425000Y-55337500D03*
%TD*%
%TO.P,D19,1,K*%
%TO.N,/row1*%
X107400000Y-61018750D03*
%TO.P,D19,2,A*%
%TO.N,Net-(D19-A)*%
X107400000Y-57718750D03*
%TD*%
D29*
%TO.P,D54,1,K*%
%TO.N,/row3*%
X244905692Y-131178600D03*
%TO.P,D54,2,A*%
%TO.N,Net-(D54-A)*%
X242047808Y-132828600D03*
%TD*%
D19*
%TO.P,D28,1,K*%
%TO.N,/row1*%
X369337500Y-65781250D03*
%TO.P,D28,2,A*%
%TO.N,Net-(D28-A)*%
X369337500Y-62481250D03*
%TD*%
%TO.P,D34,1,K*%
%TO.N,/row2*%
X126450000Y-82450000D03*
%TO.P,D34,2,A*%
%TO.N,Net-(D34-A)*%
X126450000Y-79150000D03*
%TD*%
%TO.P,D48,1,K*%
%TO.N,/row3*%
X88350000Y-96737500D03*
%TO.P,D48,2,A*%
%TO.N,Net-(D48-A)*%
X88350000Y-93437500D03*
%TD*%
D44*
%TO.P,R10,1*%
%TO.N,+3V3*%
X222550000Y-49100001D03*
%TO.P,R10,2*%
%TO.N,Net-(R10-Pad2)*%
X222550000Y-50120001D03*
%TD*%
D45*
%TO.P,U4,1,IO1*%
%TO.N,/USB_D+*%
X195425000Y-33166219D03*
%TO.P,U4,2,VN*%
%TO.N,GND*%
X195425000Y-34116219D03*
%TO.P,U4,3,IO2*%
%TO.N,unconnected-(U4-IO2-Pad3)*%
X195425000Y-35066219D03*
%TO.P,U4,4,IO3*%
%TO.N,unconnected-(U4-IO3-Pad4)*%
X193075000Y-35066219D03*
%TO.P,U4,5,VP*%
%TO.N,+5V*%
X193075000Y-34116219D03*
%TO.P,U4,6,IO4*%
%TO.N,/USB_D-*%
X193075000Y-33166219D03*
%TD*%
D20*
%TO.P,LED3,1,VDD*%
%TO.N,+5V*%
X310425000Y-123762500D03*
%TO.P,LED3,2,DOUT*%
%TO.N,Net-(LED3-DOUT)*%
X310425000Y-127062500D03*
%TO.P,LED3,3,VSS*%
%TO.N,GND*%
X305525000Y-127062500D03*
%TO.P,LED3,4,DIN*%
%TO.N,Net-(LED2-DOUT)*%
X305525000Y-123762500D03*
%TD*%
D38*
%TO.P,D67,1,K*%
%TO.N,/row4*%
X169037500Y-144303942D03*
%TO.P,D67,2,A*%
%TO.N,Net-(D67-A)*%
X170687500Y-141446058D03*
%TD*%
D30*
%TO.P,C11,1*%
%TO.N,+3V3*%
X200350000Y-62200000D03*
%TO.P,C11,2*%
%TO.N,GND*%
X201310000Y-62200000D03*
%TD*%
D19*
%TO.P,D14,1,K*%
%TO.N,/row0*%
X369337500Y-46731250D03*
%TO.P,D14,2,A*%
%TO.N,Net-(D14-A)*%
X369337500Y-43431250D03*
%TD*%
%TO.P,D41,1,K*%
%TO.N,/row2*%
X307425000Y-77687500D03*
%TO.P,D41,2,A*%
%TO.N,Net-(D41-A)*%
X307425000Y-74387500D03*
%TD*%
%TO.P,D39,1,K*%
%TO.N,/row2*%
X269325000Y-82450000D03*
%TO.P,D39,2,A*%
%TO.N,Net-(D39-A)*%
X269325000Y-79150000D03*
%TD*%
D44*
%TO.P,R1,1*%
%TO.N,/QSPI_SS*%
X222350000Y-57590000D03*
%TO.P,R1,2*%
%TO.N,Net-(BOOT1-Pad2)*%
X222350000Y-58610000D03*
%TD*%
D19*
%TO.P,D46,1,K*%
%TO.N,/row3*%
X50250000Y-103881250D03*
%TO.P,D46,2,A*%
%TO.N,Net-(D46-A)*%
X50250000Y-100581250D03*
%TD*%
%TO.P,D26,1,K*%
%TO.N,/row1*%
X326475000Y-61018750D03*
%TO.P,D26,2,A*%
%TO.N,Net-(D26-A)*%
X326475000Y-57718750D03*
%TD*%
D20*
%TO.P,LED6,1,VDD*%
%TO.N,+5V*%
X83412500Y-123762500D03*
%TO.P,LED6,2,DOUT*%
%TO.N,Net-(LED6-DOUT)*%
X83412500Y-127062500D03*
%TO.P,LED6,3,VSS*%
%TO.N,GND*%
X78512500Y-127062500D03*
%TO.P,LED6,4,DIN*%
%TO.N,Net-(LED5-DOUT)*%
X78512500Y-123762500D03*
%TD*%
D19*
%TO.P,D74,1,K*%
%TO.N,/row4*%
X326475000Y-118168750D03*
%TO.P,D74,2,A*%
%TO.N,Net-(D74-A)*%
X326475000Y-114868750D03*
%TD*%
D46*
%TO.P,J1,A1,GND*%
%TO.N,GND*%
X191225000Y-26885000D03*
%TO.P,J1,A4,VBUS*%
%TO.N,VBUS*%
X192025000Y-26885000D03*
D47*
%TO.P,J1,A5,CC1*%
%TO.N,Net-(J1-CC1)*%
X193225000Y-26885000D03*
%TO.P,J1,A6,D+*%
%TO.N,/USB_D+*%
X194225000Y-26885000D03*
%TO.P,J1,A7,D-*%
%TO.N,/USB_D-*%
X194725000Y-26885000D03*
%TO.P,J1,A8,SBU1*%
%TO.N,unconnected-(J1-SBU1-PadA8)*%
X195725000Y-26885000D03*
D46*
%TO.P,J1,A9,VBUS*%
%TO.N,VBUS*%
X196925000Y-26885000D03*
%TO.P,J1,A12,GND*%
%TO.N,GND*%
X197725000Y-26885000D03*
%TO.P,J1,B1,GND*%
X197725000Y-26885000D03*
%TO.P,J1,B4,VBUS*%
%TO.N,VBUS*%
X196925000Y-26885000D03*
D47*
%TO.P,J1,B5,CC2*%
%TO.N,Net-(J1-CC2)*%
X196225000Y-26885000D03*
%TO.P,J1,B6,D+*%
%TO.N,/USB_D+*%
X195225000Y-26885000D03*
%TO.P,J1,B7,D-*%
%TO.N,/USB_D-*%
X193725000Y-26885000D03*
%TO.P,J1,B8,SBU2*%
%TO.N,unconnected-(J1-SBU2-PadB8)*%
X192725000Y-26885000D03*
D46*
%TO.P,J1,B9,VBUS*%
%TO.N,VBUS*%
X192025000Y-26885000D03*
%TO.P,J1,B12,GND*%
%TO.N,GND*%
X191225000Y-26885000D03*
D48*
%TO.P,J1,S1,SHIELD*%
%TO.N,Net-(J1-SHIELD)*%
X190155000Y-21790000D03*
D49*
X190155000Y-25970000D03*
D48*
X198795000Y-21790000D03*
D49*
X198795000Y-25970000D03*
%TD*%
D24*
%TO.P,C13,1*%
%TO.N,+3V3*%
X189528822Y-58078822D03*
%TO.P,C13,2*%
%TO.N,GND*%
X188850000Y-57400000D03*
%TD*%
D19*
%TO.P,D45,1,K*%
%TO.N,/row3*%
X26437500Y-103881250D03*
%TO.P,D45,2,A*%
%TO.N,Net-(D45-A)*%
X26437500Y-100581250D03*
%TD*%
%TO.P,D15,1,K*%
%TO.N,/row1*%
X26437500Y-65781250D03*
%TO.P,D15,2,A*%
%TO.N,Net-(D15-A)*%
X26437500Y-62481250D03*
%TD*%
%TO.P,D57,1,K*%
%TO.N,/row3*%
X307425000Y-96737500D03*
%TO.P,D57,2,A*%
%TO.N,Net-(D57-A)*%
X307425000Y-93437500D03*
%TD*%
%TO.P,D33,1,K*%
%TO.N,/row2*%
X107400000Y-80068750D03*
%TO.P,D33,2,A*%
%TO.N,Net-(D33-A)*%
X107400000Y-76768750D03*
%TD*%
D50*
%TO.P,U1,1,GND*%
%TO.N,GND*%
X208587500Y-43950000D03*
%TO.P,U1,2,VO*%
%TO.N,+3V3*%
X208587500Y-45850000D03*
%TO.P,U1,3,VI*%
%TO.N,+5V*%
X206312500Y-44900000D03*
%TD*%
D51*
%TO.P,F1,1*%
%TO.N,VBUS*%
X198950000Y-30000000D03*
%TO.P,F1,2*%
%TO.N,+5V*%
X198950000Y-32800000D03*
%TD*%
D19*
%TO.P,D4,1,K*%
%TO.N,/row0*%
X88350000Y-39587500D03*
%TO.P,D4,2,A*%
%TO.N,Net-(D4-A)*%
X88350000Y-36287500D03*
%TD*%
%TO.P,D73,1,K*%
%TO.N,/row4*%
X307425000Y-115787500D03*
%TO.P,D73,2,A*%
%TO.N,Net-(D73-A)*%
X307425000Y-112487500D03*
%TD*%
%TO.P,D6,1,K*%
%TO.N,/row0*%
X126450000Y-44350000D03*
%TO.P,D6,2,A*%
%TO.N,Net-(D6-A)*%
X126450000Y-41050000D03*
%TD*%
D38*
%TO.P,D66,1,K*%
%TO.N,/row4*%
X159512500Y-160972692D03*
%TO.P,D66,2,A*%
%TO.N,Net-(D66-A)*%
X161162500Y-158114808D03*
%TD*%
D19*
%TO.P,D42,1,K*%
%TO.N,/row2*%
X326475000Y-80068750D03*
%TO.P,D42,2,A*%
%TO.N,Net-(D42-A)*%
X326475000Y-76768750D03*
%TD*%
D25*
%TO.P,D70,1,K*%
%TO.N,/row4*%
X225456250Y-141128942D03*
%TO.P,D70,2,A*%
%TO.N,Net-(D70-A)*%
X223806250Y-138271058D03*
%TD*%
D52*
%TO.N,GND*%
X152950000Y-26300000D03*
X170350000Y-170700000D03*
X186275000Y-26950000D03*
X200150000Y-57200000D03*
X200254833Y-45861083D03*
X188889999Y-61900000D03*
X191225000Y-26885000D03*
X231950000Y-26800000D03*
X79850000Y-127000000D03*
X189050000Y-55800000D03*
X202200000Y-62200000D03*
X364750000Y-26256200D03*
X21950000Y-26200000D03*
X220950000Y-42350000D03*
X196650000Y-34100000D03*
X198619021Y-53380979D03*
X215950000Y-52050000D03*
X216450000Y-170700000D03*
X306750000Y-127000000D03*
X192925000Y-68975000D03*
X198150000Y-28400000D03*
%TO.N,+1V1*%
X195904500Y-58400000D03*
X195115464Y-65365465D03*
X192250000Y-55400000D03*
%TO.N,/row0*%
X201000500Y-66826097D03*
X150900000Y-44600000D03*
X197107794Y-65442206D03*
%TO.N,/row1*%
X145256250Y-63562500D03*
X200115872Y-66436443D03*
X198750000Y-65890449D03*
%TO.N,SWCLK*%
X190781501Y-66271500D03*
%TO.N,SWDIO*%
X190045878Y-66095878D03*
%TO.N,/RUN*%
X180225000Y-67050000D03*
X190910000Y-63800000D03*
X190950000Y-65222000D03*
%TO.N,/QSPI_SS*%
X219311129Y-53361129D03*
X222350000Y-56800000D03*
%TO.N,/row2*%
X199317267Y-66414949D03*
X269875000Y-85725000D03*
X274637500Y-106362500D03*
X151606250Y-84137500D03*
%TO.N,/row3*%
X201850000Y-70200000D03*
X126206250Y-101662500D03*
X232600000Y-114935192D03*
X161893750Y-118110192D03*
X199182872Y-64467128D03*
%TO.N,/row4*%
X200650000Y-65300000D03*
X207311444Y-105711444D03*
%TO.N,/PWM*%
X206846890Y-57694397D03*
X227600000Y-26700000D03*
%TO.N,/col0*%
X188147018Y-58300000D03*
X12700000Y-57943800D03*
X12700000Y-96043800D03*
X12700000Y-76993800D03*
X17462500Y-115094000D03*
X12700000Y-38893800D03*
%TO.N,/col1*%
X36512500Y-38893800D03*
X187397515Y-58300000D03*
X36512500Y-96043800D03*
X37306200Y-115094000D03*
X36512500Y-57943800D03*
X36512500Y-76993800D03*
%TO.N,/col2*%
X56356200Y-92075000D03*
X186648012Y-58300000D03*
X56356200Y-110331000D03*
X56356200Y-53975000D03*
X56356200Y-73025000D03*
X56356200Y-34925000D03*
%TO.N,/col3*%
X75406200Y-88900000D03*
X75406200Y-69850000D03*
X75406200Y-31750000D03*
X185898509Y-58300000D03*
X75406200Y-107950000D03*
X75406200Y-50800000D03*
%TO.N,/col4*%
X94456200Y-34131200D03*
X94456200Y-110331000D03*
X185149006Y-58300000D03*
X94456200Y-91281200D03*
X94456200Y-72231200D03*
X94456200Y-53181200D03*
%TO.N,/col5*%
X113506000Y-55562500D03*
X113506000Y-36512500D03*
X184399503Y-58300000D03*
X113506000Y-93662500D03*
X152400000Y-147638000D03*
X113506000Y-74612500D03*
%TO.N,/col6*%
X183650000Y-58300000D03*
X166633607Y-123233607D03*
X132556000Y-36512500D03*
X132556000Y-55562500D03*
X132556000Y-74612500D03*
%TO.N,/col9*%
X206097463Y-57704977D03*
X239950000Y-36800000D03*
X242650000Y-144150000D03*
X239950000Y-55800000D03*
X212652210Y-139366695D03*
X239930000Y-74847500D03*
X204750000Y-135250000D03*
%TO.N,/col10*%
X258980000Y-93897500D03*
X205348007Y-57696641D03*
X258980000Y-55797500D03*
X258980000Y-74847500D03*
X222177210Y-155864495D03*
X258980000Y-36747500D03*
%TO.N,/col11*%
X278030000Y-72466200D03*
X278030000Y-34366200D03*
X278030000Y-91516200D03*
X278030000Y-110566200D03*
X204598512Y-57700000D03*
X278030000Y-53416200D03*
%TO.N,/col12*%
X297080000Y-108185000D03*
X203849009Y-57700000D03*
X297080000Y-70085000D03*
X297080000Y-31985000D03*
X297080000Y-89135000D03*
X297080000Y-51035000D03*
%TO.N,/col13*%
X316130000Y-91516200D03*
X316130000Y-72466200D03*
X203099506Y-57700000D03*
X316130000Y-34366200D03*
X316130000Y-53416200D03*
X316130000Y-110566200D03*
%TO.N,/col14*%
X335180000Y-96278700D03*
X335180000Y-77228700D03*
X335180000Y-58178700D03*
X335180000Y-115328700D03*
X202350003Y-57700000D03*
X335180000Y-39128700D03*
%TO.N,/col15*%
X358992500Y-77228700D03*
X358992500Y-58178700D03*
X354230000Y-115328700D03*
X358992500Y-96278700D03*
X358992500Y-39128700D03*
X201600500Y-57700000D03*
%TO.N,/col8*%
X219625010Y-113343895D03*
X203127210Y-122868895D03*
%TO.N,Net-(J1-CC1)*%
X193191814Y-25706313D03*
%TO.N,Net-(J1-CC2)*%
X195558436Y-25506564D03*
%TO.N,+5V*%
X191804789Y-34100000D03*
X177150000Y-63434500D03*
X197350000Y-31300000D03*
X161950000Y-23000000D03*
%TD*%
D53*
%TO.N,GND*%
X192925000Y-68803822D02*
X192310589Y-68189411D01*
X208587500Y-43950000D02*
X206676417Y-45861083D01*
X200150000Y-57200000D02*
X200150000Y-56278822D01*
D54*
X198298614Y-69201386D02*
X197821178Y-69678822D01*
D53*
X206676417Y-45861083D02*
X204849999Y-45861083D01*
D54*
X196580000Y-64397500D02*
X196557794Y-64419706D01*
D53*
X305587500Y-127000000D02*
X305525000Y-127062500D01*
D54*
X197821178Y-69678822D02*
X197010589Y-69678822D01*
D53*
X192925000Y-68975000D02*
X192925000Y-68803822D01*
X196789483Y-69457716D02*
X195335857Y-69457716D01*
X200254833Y-45861083D02*
X204849999Y-45861083D01*
X364750000Y-26256200D02*
X363468800Y-26256200D01*
X192925000Y-68975000D02*
X193407716Y-69457716D01*
X209527451Y-44889951D02*
X208587500Y-43950000D01*
X195441219Y-34100000D02*
X195425000Y-34116219D01*
X202200000Y-62200000D02*
X201310000Y-62200000D01*
X196650000Y-31342463D02*
X196650000Y-34100000D01*
D54*
X198298614Y-67410844D02*
X198298614Y-69201386D01*
D53*
X198150000Y-28400000D02*
X197725000Y-27975000D01*
X196250000Y-30942463D02*
X196650000Y-31342463D01*
X196650000Y-34100000D02*
X195441219Y-34100000D01*
X196580000Y-61960000D02*
X196580000Y-64397500D01*
X200150000Y-57100000D02*
X200150000Y-57200000D01*
X186275000Y-26950000D02*
X186355000Y-26950000D01*
X186355000Y-26950000D02*
X186965000Y-26340000D01*
X197010589Y-69678822D02*
X196789483Y-69457716D01*
X230662600Y-26800000D02*
X230118800Y-26256200D01*
X200150000Y-56278822D02*
X200110589Y-56239411D01*
X186275000Y-26950000D02*
X186465000Y-26950000D01*
X195335857Y-69457716D02*
X195335857Y-67053554D01*
X193407716Y-69457716D02*
X195335857Y-69457716D01*
X186465000Y-26950000D02*
X187155000Y-27640000D01*
X200170000Y-57080000D02*
X200150000Y-57100000D01*
X190650000Y-55800000D02*
X189050000Y-55800000D01*
X197725000Y-27975000D02*
X197725000Y-26885000D01*
X193250000Y-29610000D02*
X188935000Y-29610000D01*
X196250000Y-29610000D02*
X196250000Y-30942463D01*
X188850000Y-57400000D02*
X188850000Y-56000000D01*
D54*
X215981250Y-52018750D02*
X215950000Y-52050000D01*
D53*
X20625000Y-26200000D02*
X20568800Y-26256200D01*
X79850000Y-127000000D02*
X78575000Y-127000000D01*
X197289411Y-54755683D02*
X197950000Y-54095094D01*
X215056200Y-170700000D02*
X215037500Y-170718700D01*
X210044580Y-44889951D02*
X209527451Y-44889951D01*
X306750000Y-127000000D02*
X305587500Y-127000000D01*
D54*
X196557794Y-64419706D02*
X196557794Y-65670024D01*
D53*
X189050000Y-55921178D02*
X189050000Y-55800000D01*
X21950000Y-26200000D02*
X20625000Y-26200000D01*
X152950000Y-26300000D02*
X155500000Y-26300000D01*
X200254833Y-45861083D02*
X200211083Y-45861083D01*
X195580000Y-60960000D02*
X196580000Y-61960000D01*
X78575000Y-127000000D02*
X78512500Y-127062500D01*
X216450000Y-170700000D02*
X215056200Y-170700000D01*
X203611083Y-45861083D02*
X202398008Y-44648008D01*
X170331300Y-170718700D02*
X169000000Y-170718700D01*
X189789411Y-56660589D02*
X189050000Y-55921178D01*
X204849999Y-45861083D02*
X203611083Y-45861083D01*
X188850000Y-56000000D02*
X189050000Y-55800000D01*
X231950000Y-26800000D02*
X230662600Y-26800000D01*
D54*
X196557794Y-65670024D02*
X198298614Y-67410844D01*
D53*
X188935000Y-29610000D02*
X186275000Y-26950000D01*
X191050000Y-55171178D02*
X189689411Y-53810589D01*
X170350000Y-170700000D02*
X170331300Y-170718700D01*
D54*
X217170000Y-52018750D02*
X215981250Y-52018750D01*
D53*
X198619021Y-53380979D02*
X197950000Y-54050000D01*
X191089411Y-55360589D02*
X190650000Y-55800000D01*
%TO.N,/XIN*%
X196180000Y-65882439D02*
X196180000Y-64397500D01*
X197689411Y-69000000D02*
X197689411Y-68700000D01*
X196836916Y-67847505D02*
X196836916Y-66539355D01*
X197689411Y-68700000D02*
X196891492Y-67902081D01*
X196836916Y-66539355D02*
X196180000Y-65882439D01*
%TO.N,Net-(C2-Pad1)*%
X192989411Y-67510589D02*
X193628752Y-66871248D01*
D55*
%TO.N,VBUS*%
X193152958Y-24897347D02*
X192025000Y-26025305D01*
X196925000Y-26885000D02*
X196925000Y-26025305D01*
X192025000Y-26025305D02*
X192025000Y-26885000D01*
X196925000Y-26025305D02*
X195797042Y-24897347D01*
X196925000Y-26885000D02*
X196925000Y-28545000D01*
X195797042Y-24897347D02*
X193152958Y-24897347D01*
X196925000Y-28545000D02*
X198380000Y-30000000D01*
D53*
%TO.N,+3V3*%
X189315000Y-62435000D02*
X189850000Y-61900000D01*
X198355000Y-61723909D02*
X198355000Y-58596091D01*
D54*
X189528822Y-58078822D02*
X189810000Y-58360000D01*
D53*
X192850000Y-63735000D02*
X195143909Y-63735000D01*
X192980000Y-58070000D02*
X192690000Y-58360000D01*
D54*
X192796911Y-57339411D02*
X190289411Y-57339411D01*
D53*
X210044580Y-45849951D02*
X208850000Y-45849951D01*
X196707377Y-55610115D02*
X196531767Y-55434505D01*
X194980000Y-57948909D02*
X194743909Y-58185000D01*
D54*
X199017500Y-61960000D02*
X200110000Y-61960000D01*
D53*
X199732463Y-58360000D02*
X200789411Y-57303052D01*
X192805000Y-58596091D02*
X192805000Y-61723909D01*
X192568909Y-61960000D02*
X192850000Y-62241091D01*
X197271178Y-53878822D02*
X197271178Y-53416272D01*
X195775000Y-55375000D02*
X197271178Y-53878822D01*
X195380000Y-57522500D02*
X195380000Y-57096091D01*
X200789411Y-57303052D02*
X200789411Y-55560589D01*
X195143909Y-63735000D02*
X195380000Y-63971091D01*
X195855000Y-56546220D02*
X196746788Y-55654432D01*
X192142500Y-61960000D02*
X189830000Y-61960000D01*
X194743909Y-58185000D02*
X193616091Y-58185000D01*
X196200000Y-55900000D02*
X195775000Y-55375000D01*
X196121963Y-58925000D02*
X195687037Y-58925000D01*
X193380000Y-57948909D02*
X193380000Y-57522500D01*
X193616091Y-58185000D02*
X193380000Y-57948909D01*
X188130883Y-63000000D02*
X188695883Y-62435000D01*
X198591091Y-61960000D02*
X198355000Y-61723909D01*
X195380000Y-58617963D02*
X195380000Y-57522500D01*
X195380000Y-63971091D02*
X195380000Y-64397500D01*
X194980000Y-57522500D02*
X194980000Y-57120000D01*
X199017500Y-58360000D02*
X199732463Y-58360000D01*
D54*
X189810000Y-58360000D02*
X192142500Y-58360000D01*
D53*
X195687037Y-58925000D02*
X195380000Y-58617963D01*
X188695883Y-62435000D02*
X189315000Y-62435000D01*
X195380000Y-57096091D02*
X195616091Y-56860000D01*
X192980000Y-57522500D02*
X192980000Y-58070000D01*
X193380000Y-56789620D02*
X191310798Y-56789620D01*
X191310798Y-56789620D02*
X191075000Y-56553822D01*
X192142500Y-58360000D02*
X192568909Y-58360000D01*
X192568909Y-58360000D02*
X192805000Y-58596091D01*
X199017500Y-58360000D02*
X196429500Y-58360000D01*
X196429500Y-58360000D02*
X196429500Y-58617463D01*
X195616091Y-56860000D02*
X195855000Y-56860000D01*
X193380000Y-56789620D02*
X193380000Y-57522500D01*
X192690000Y-58360000D02*
X192142500Y-58360000D01*
D54*
X192142500Y-58360000D02*
X192604264Y-58360000D01*
X200110000Y-61960000D02*
X200350000Y-62200000D01*
D53*
X198591091Y-58360000D02*
X199017500Y-58360000D01*
X192850000Y-62241091D02*
X192850000Y-63735000D01*
X194980000Y-57120000D02*
X196200000Y-55900000D01*
X220950000Y-43310000D02*
X220950000Y-44788750D01*
X198355000Y-58596091D02*
X198591091Y-58360000D01*
X192568909Y-61960000D02*
X192142500Y-61960000D01*
X196429500Y-58617463D02*
X196121963Y-58925000D01*
X192805000Y-61723909D02*
X192568909Y-61960000D01*
X195855000Y-56860000D02*
X195855000Y-56546220D01*
D54*
X192980000Y-57522500D02*
X192796911Y-57339411D01*
D53*
X199017500Y-61960000D02*
X198591091Y-61960000D01*
%TO.N,+1V1*%
X195780000Y-58275500D02*
X195904500Y-58400000D01*
X189010589Y-53732807D02*
X189010589Y-54489411D01*
D54*
X192250000Y-56264620D02*
X192450000Y-56464620D01*
D53*
X189517010Y-53226386D02*
X189010589Y-53732807D01*
X189717696Y-55196518D02*
X189010589Y-54489411D01*
X192250000Y-55400000D02*
X190076386Y-53226386D01*
D54*
X193780000Y-56730001D02*
X193780000Y-57522500D01*
D53*
X194980000Y-65230001D02*
X194980000Y-64397500D01*
D54*
X192250000Y-55400000D02*
X192250000Y-56264620D01*
X192450000Y-56464620D02*
X193000000Y-56464620D01*
D53*
X195780000Y-57522500D02*
X195780000Y-58275500D01*
X195115464Y-65365465D02*
X194980000Y-65230001D01*
X190076386Y-53226386D02*
X189517010Y-53226386D01*
D54*
X193514619Y-56464620D02*
X193780000Y-56730001D01*
X193000000Y-56464620D02*
X193514619Y-56464620D01*
%TO.N,/row0*%
X307181250Y-39750000D02*
X290512500Y-39750000D01*
X309562500Y-42131250D02*
X307181250Y-39750000D01*
X330993750Y-46893750D02*
X326231250Y-42131250D01*
X26193750Y-46893750D02*
X50006250Y-46893750D01*
D53*
X197107794Y-65442206D02*
X196980000Y-65314412D01*
D54*
X88106250Y-39750000D02*
X104775000Y-39750000D01*
X104775000Y-39750000D02*
X107156250Y-42131250D01*
X69056250Y-42131250D02*
X85725000Y-42131250D01*
X269081250Y-44512500D02*
X250031250Y-44512500D01*
D53*
X202450000Y-68500000D02*
X224482412Y-68500000D01*
D54*
X345281250Y-46893750D02*
X330993750Y-46893750D01*
X285750000Y-44512500D02*
X269081250Y-44512500D01*
X290512500Y-39750000D02*
X288131250Y-42131250D01*
X85725000Y-42131250D02*
X88106250Y-39750000D01*
D53*
X196980000Y-65314412D02*
X196980000Y-64397500D01*
D54*
X150900000Y-44600000D02*
X145343750Y-44600000D01*
X326231250Y-42131250D02*
X309562500Y-42131250D01*
X109537500Y-44512500D02*
X126206250Y-44512500D01*
X107156250Y-42131250D02*
X109537500Y-44512500D01*
X369093750Y-46893750D02*
X345281250Y-46893750D01*
X126206250Y-44512500D02*
X145256250Y-44512500D01*
X50006250Y-46893750D02*
X64293750Y-46893750D01*
D53*
X201000500Y-67050500D02*
X202450000Y-68500000D01*
D54*
X288131250Y-42131250D02*
X285750000Y-44512500D01*
X64293750Y-46893750D02*
X69056250Y-42131250D01*
D53*
X224482412Y-68500000D02*
X248469912Y-44512500D01*
X248469912Y-44512500D02*
X250031250Y-44512500D01*
X201000500Y-66826097D02*
X201000500Y-67050500D01*
D54*
%TO.N,Net-(D1-A)*%
X29019500Y-39174288D02*
X29019500Y-36588700D01*
X26193750Y-43593750D02*
X26193750Y-42000038D01*
X26193750Y-42000038D02*
X29019500Y-39174288D01*
%TO.N,/row1*%
X198750000Y-65890449D02*
X198750000Y-65700000D01*
X107156250Y-61181250D02*
X90487500Y-61181250D01*
X288131250Y-61181250D02*
X304800000Y-61181250D01*
X198750000Y-65700000D02*
X198460000Y-65410000D01*
X197380000Y-64936594D02*
X197380000Y-64397500D01*
X200374500Y-66977208D02*
X206744792Y-73347500D01*
X197657794Y-65410000D02*
X197657794Y-65214388D01*
X307181250Y-58800000D02*
X309562500Y-61181250D01*
X285750000Y-63562500D02*
X288131250Y-61181250D01*
X126206250Y-63562500D02*
X109537500Y-63562500D01*
X330993750Y-65943750D02*
X345281250Y-65943750D01*
X90487500Y-61181250D02*
X88106250Y-58800000D01*
X250031250Y-63562500D02*
X269081250Y-63562500D01*
X88106250Y-58800000D02*
X71437500Y-58800000D01*
X206744792Y-73347500D02*
X240246250Y-73347500D01*
X145256250Y-63562500D02*
X126206250Y-63562500D01*
X200374500Y-66977208D02*
X200374500Y-66695071D01*
X200374500Y-66695071D02*
X200115872Y-66436443D01*
X326231250Y-61181250D02*
X330993750Y-65943750D01*
X309562500Y-61181250D02*
X326231250Y-61181250D01*
X198460000Y-65410000D02*
X197657794Y-65410000D01*
X269081250Y-63562500D02*
X285750000Y-63562500D01*
X50006250Y-65943750D02*
X26193750Y-65943750D01*
X345281250Y-65943750D02*
X369093750Y-65943750D01*
X197657794Y-65214388D02*
X197380000Y-64936594D01*
X304800000Y-61181250D02*
X307181250Y-58800000D01*
X109537500Y-63562500D02*
X107156250Y-61181250D01*
X69056250Y-61181250D02*
X54768750Y-61181250D01*
X240246250Y-73347500D02*
X250031250Y-63562500D01*
X54768750Y-61181250D02*
X50006250Y-65943750D01*
X71437500Y-58800000D02*
X69056250Y-61181250D01*
%TO.N,Net-(D2-A)*%
X50006250Y-42000038D02*
X52832000Y-39174288D01*
X50006250Y-43593750D02*
X50006250Y-42000038D01*
X52832000Y-39174288D02*
X52832000Y-36588700D01*
%TO.N,Net-(D3-A)*%
X69056250Y-37237538D02*
X71882000Y-34411788D01*
X71882000Y-34411788D02*
X71882000Y-31826200D01*
X69056250Y-38831250D02*
X69056250Y-37237538D01*
%TO.N,Net-(D4-A)*%
X88106250Y-36450000D02*
X88106250Y-34856338D01*
X90932000Y-32030588D02*
X90932000Y-29445000D01*
X88106250Y-34856338D02*
X90932000Y-32030588D01*
%TO.N,Net-(D5-A)*%
X107156250Y-37237538D02*
X109982000Y-34411788D01*
X107156250Y-38831250D02*
X107156250Y-37237538D01*
X109982000Y-34411788D02*
X109982000Y-31826200D01*
%TO.N,Net-(D6-A)*%
X129032000Y-36793088D02*
X129032000Y-34207500D01*
X126206250Y-41212500D02*
X126206250Y-39618838D01*
X126206250Y-39618838D02*
X129032000Y-36793088D01*
%TO.N,Net-(D7-A)*%
X145256250Y-39618838D02*
X148082000Y-36793088D01*
X145256250Y-41212500D02*
X145256250Y-39618838D01*
X148082000Y-36793088D02*
X148082000Y-34207500D01*
%TO.N,Net-(D8-A)*%
X250031250Y-37033250D02*
X252857000Y-34207500D01*
X250031250Y-41212500D02*
X250031250Y-37033250D01*
%TO.N,Net-(D9-A)*%
X269081250Y-41212500D02*
X269081250Y-37033250D01*
X269081250Y-37033250D02*
X271907000Y-34207500D01*
%TO.N,Net-(D10-A)*%
X290957000Y-34411788D02*
X290957000Y-31826200D01*
X288131250Y-38831250D02*
X288131250Y-37237538D01*
X288131250Y-37237538D02*
X290957000Y-34411788D01*
%TO.N,Net-(D11-A)*%
X307181250Y-36450000D02*
X307181250Y-32270750D01*
X307181250Y-32270750D02*
X310007000Y-29445000D01*
%TO.N,Net-(D12-A)*%
X326231250Y-37237538D02*
X329057000Y-34411788D01*
X326231250Y-38831250D02*
X326231250Y-37237538D01*
X329057000Y-34411788D02*
X329057000Y-31826200D01*
%TO.N,Net-(D13-A)*%
X348107000Y-39174288D02*
X348107000Y-36588700D01*
X345281250Y-42000038D02*
X348107000Y-39174288D01*
X345281250Y-43593750D02*
X345281250Y-42000038D01*
%TO.N,Net-(D14-A)*%
X369093750Y-39414450D02*
X371919500Y-36588700D01*
X369093750Y-43593750D02*
X369093750Y-39414450D01*
%TO.N,Net-(D15-A)*%
X29019500Y-58224288D02*
X29019500Y-55638700D01*
X26193750Y-61050038D02*
X29019500Y-58224288D01*
X26193750Y-62643750D02*
X26193750Y-61050038D01*
%TO.N,Net-(D16-A)*%
X50006250Y-61050038D02*
X52832000Y-58224288D01*
X52832000Y-58224288D02*
X52832000Y-55638700D01*
X50006250Y-62643750D02*
X50006250Y-61050038D01*
%TO.N,Net-(D17-A)*%
X71882000Y-53461788D02*
X71882000Y-50876200D01*
X69056250Y-57881250D02*
X69056250Y-56287538D01*
X69056250Y-56287538D02*
X71882000Y-53461788D01*
%TO.N,Net-(D18-A)*%
X88106250Y-55500000D02*
X88106250Y-53906338D01*
X88106250Y-53906338D02*
X90932000Y-51080588D01*
X90932000Y-51080588D02*
X90932000Y-48495000D01*
%TO.N,Net-(D19-A)*%
X107156250Y-56287538D02*
X109982000Y-53461788D01*
X107156250Y-57881250D02*
X107156250Y-56287538D01*
X109982000Y-53461788D02*
X109982000Y-50876200D01*
%TO.N,Net-(D20-A)*%
X129032000Y-55843088D02*
X129032000Y-53257500D01*
X126206250Y-60262500D02*
X126206250Y-58668838D01*
X126206250Y-58668838D02*
X129032000Y-55843088D01*
%TO.N,Net-(D21-A)*%
X148082000Y-55843088D02*
X148082000Y-53257500D01*
X145256250Y-60262500D02*
X145256250Y-58668838D01*
X145256250Y-58668838D02*
X148082000Y-55843088D01*
%TO.N,Net-(D22-A)*%
X250031250Y-60262500D02*
X250031250Y-58668838D01*
X250031250Y-58668838D02*
X252857000Y-55843088D01*
X252857000Y-55843088D02*
X252857000Y-53257500D01*
%TO.N,Net-(D23-A)*%
X269081250Y-58668838D02*
X271907000Y-55843088D01*
X271907000Y-55843088D02*
X271907000Y-53257500D01*
X269081250Y-60262500D02*
X269081250Y-58668838D01*
%TO.N,Net-(D24-A)*%
X288131250Y-53701950D02*
X290957000Y-50876200D01*
X288131250Y-57881250D02*
X288131250Y-53701950D01*
%TO.N,Net-(D25-A)*%
X310007000Y-51080588D02*
X310007000Y-48495000D01*
X307181250Y-53906338D02*
X310007000Y-51080588D01*
X307181250Y-55500000D02*
X307181250Y-53906338D01*
%TO.N,Net-(D26-A)*%
X326231250Y-57881250D02*
X326231250Y-56287538D01*
X329057000Y-53461788D02*
X329057000Y-50876200D01*
X326231250Y-56287538D02*
X329057000Y-53461788D01*
%TO.N,Net-(D27-A)*%
X345281250Y-62643750D02*
X345281250Y-58464450D01*
X345281250Y-58464450D02*
X348107000Y-55638700D01*
%TO.N,Net-(D28-A)*%
X369093750Y-58464450D02*
X371919500Y-55638700D01*
X369093750Y-62643750D02*
X369093750Y-58464450D01*
%TO.N,Net-(D29-A)*%
X29019500Y-77274288D02*
X29019500Y-74688700D01*
X26193750Y-80100038D02*
X29019500Y-77274288D01*
X26193750Y-81693750D02*
X26193750Y-80100038D01*
%TO.N,Net-(D30-A)*%
X50006250Y-81693750D02*
X50006250Y-80100038D01*
X50006250Y-80100038D02*
X52832000Y-77274288D01*
X52832000Y-77274288D02*
X52832000Y-74688700D01*
%TO.N,Net-(D31-A)*%
X69056250Y-75337538D02*
X71882000Y-72511788D01*
X71882000Y-72511788D02*
X71882000Y-69926200D01*
X69056250Y-76931250D02*
X69056250Y-75337538D01*
%TO.N,Net-(D32-A)*%
X88106250Y-74550000D02*
X88106250Y-72956338D01*
X90932000Y-70130588D02*
X90932000Y-67545000D01*
X88106250Y-72956338D02*
X90932000Y-70130588D01*
%TO.N,Net-(D33-A)*%
X107156250Y-76931250D02*
X107156250Y-75337538D01*
X109982000Y-72511788D02*
X109982000Y-69926200D01*
X107156250Y-75337538D02*
X109982000Y-72511788D01*
%TO.N,Net-(D34-A)*%
X126206250Y-79312500D02*
X126206250Y-77493750D01*
X126206250Y-77493750D02*
X129032000Y-74668000D01*
X129032000Y-74668000D02*
X129032000Y-72307500D01*
%TO.N,Net-(D35-A)*%
X148082000Y-74618000D02*
X148082000Y-72307500D01*
X145256250Y-77443750D02*
X148082000Y-74618000D01*
X145256250Y-79312500D02*
X145256250Y-77443750D01*
%TO.N,Net-(D36-A)*%
X128328142Y-129165150D02*
X132917309Y-133754317D01*
%TO.N,Net-(D37-A)*%
X258545608Y-123132650D02*
X256443300Y-124088900D01*
X256443300Y-124088900D02*
X255043300Y-124288900D01*
X255043300Y-124288900D02*
X250495691Y-124703480D01*
%TO.N,Net-(D38-A)*%
X250031250Y-77718838D02*
X252857000Y-74893088D01*
X252857000Y-74893088D02*
X252857000Y-72307500D01*
X250031250Y-79312500D02*
X250031250Y-77718838D01*
%TO.N,Net-(D39-A)*%
X269081250Y-79312500D02*
X269081250Y-75133250D01*
X269081250Y-75133250D02*
X271907000Y-72307500D01*
%TO.N,Net-(D40-A)*%
X288131250Y-72751950D02*
X290957000Y-69926200D01*
X288131250Y-76931250D02*
X288131250Y-72751950D01*
%TO.N,Net-(D41-A)*%
X307181250Y-74550000D02*
X307181250Y-72956338D01*
X310007000Y-70130588D02*
X310007000Y-67545000D01*
X307181250Y-72956338D02*
X310007000Y-70130588D01*
%TO.N,Net-(D42-A)*%
X326231250Y-75337538D02*
X329057000Y-72511788D01*
X326231250Y-76931250D02*
X326231250Y-75337538D01*
X329057000Y-72511788D02*
X329057000Y-69926200D01*
%TO.N,Net-(D43-A)*%
X345281250Y-81693750D02*
X345281250Y-77514450D01*
X345281250Y-77514450D02*
X348107000Y-74688700D01*
%TO.N,Net-(D44-A)*%
X371919500Y-77274288D02*
X371919500Y-74688700D01*
X369093750Y-80100038D02*
X371919500Y-77274288D01*
X369093750Y-81693750D02*
X369093750Y-80100038D01*
%TO.N,Net-(D45-A)*%
X29019500Y-96280500D02*
X29019500Y-93738700D01*
X26193750Y-99106250D02*
X29019500Y-96280500D01*
X26193750Y-100743750D02*
X26193750Y-99106250D01*
%TO.N,Net-(D46-A)*%
X50006250Y-99150038D02*
X52832000Y-96324288D01*
X52832000Y-96324288D02*
X52832000Y-93738700D01*
X50006250Y-100743750D02*
X50006250Y-99150038D01*
%TO.N,Net-(D47-A)*%
X69056250Y-95981250D02*
X69056250Y-94243750D01*
X71882000Y-91418000D02*
X71882000Y-88976200D01*
X69056250Y-94243750D02*
X71882000Y-91418000D01*
%TO.N,Net-(D48-A)*%
X88106250Y-93600000D02*
X88106250Y-91693750D01*
X88106250Y-91693750D02*
X90932000Y-88868000D01*
X90932000Y-88868000D02*
X90932000Y-86595000D01*
%TO.N,Net-(D49-A)*%
X107156250Y-94387538D02*
X109982000Y-91561788D01*
X109982000Y-91561788D02*
X109982000Y-88976200D01*
X107156250Y-95981250D02*
X107156250Y-94387538D01*
%TO.N,Net-(D50-A)*%
X127787500Y-95212500D02*
X129032000Y-93968000D01*
X126206250Y-98362500D02*
X126206250Y-96768838D01*
X126206250Y-96768838D02*
X127762588Y-95212500D01*
X129032000Y-93968000D02*
X129032000Y-91357500D01*
X127762588Y-95212500D02*
X127787500Y-95212500D01*
%TO.N,Net-(D51-A)*%
X144825942Y-138067350D02*
X149415109Y-142656517D01*
X149415109Y-142656517D02*
X149415109Y-144347120D01*
%TO.N,Net-(D52-A)*%
X168273367Y-110522691D02*
X169823520Y-110522691D01*
X163543750Y-115252308D02*
X168273367Y-110522691D01*
%TO.N,Net-(D53-A)*%
X230950000Y-112077308D02*
X229550120Y-110677428D01*
X229550120Y-110677428D02*
X229550120Y-104680691D01*
%TO.N,Net-(D54-A)*%
X242047808Y-132828600D02*
X241303017Y-133573391D01*
X241303017Y-133573391D02*
X234652980Y-133573391D01*
%TO.N,Net-(D55-A)*%
X269081250Y-98362500D02*
X269081250Y-94183250D01*
X269081250Y-94183250D02*
X271907000Y-91357500D01*
%TO.N,Net-(D56-A)*%
X288131250Y-91801950D02*
X290957000Y-88976200D01*
X288131250Y-95981250D02*
X288131250Y-91801950D01*
%TO.N,Net-(D57-A)*%
X307181250Y-92006338D02*
X310007000Y-89180588D01*
X307181250Y-93600000D02*
X307181250Y-92006338D01*
X310007000Y-89180588D02*
X310007000Y-86595000D01*
%TO.N,Net-(D58-A)*%
X329057000Y-91561788D02*
X329057000Y-88976200D01*
X326231250Y-94387538D02*
X329057000Y-91561788D01*
X326231250Y-95981250D02*
X326231250Y-94387538D01*
%TO.N,Net-(D59-A)*%
X345281250Y-96564450D02*
X348107000Y-93738700D01*
X345281250Y-100743750D02*
X345281250Y-96564450D01*
%TO.N,Net-(D60-A)*%
X369093750Y-96564450D02*
X371919500Y-93738700D01*
X369093750Y-100743750D02*
X369093750Y-96564450D01*
%TO.N,Net-(D61-A)*%
X30956250Y-119793750D02*
X30956250Y-118200038D01*
X33782000Y-115374288D02*
X33782000Y-112788700D01*
X30956250Y-118200038D02*
X33782000Y-115374288D01*
%TO.N,Net-(D62-A)*%
X50006250Y-118093750D02*
X52832000Y-115268000D01*
X52832000Y-115268000D02*
X52832000Y-112788700D01*
X50006250Y-119793750D02*
X50006250Y-118093750D01*
%TO.N,Net-(D63-A)*%
X69056250Y-113343750D02*
X71882000Y-110518000D01*
X69056250Y-115031250D02*
X69056250Y-113343750D01*
X71882000Y-110518000D02*
X71882000Y-108026200D01*
%TO.N,Net-(D64-A)*%
X89662588Y-109500000D02*
X89700000Y-109500000D01*
X89700000Y-109500000D02*
X90932000Y-108268000D01*
X88106250Y-112650000D02*
X88106250Y-111056338D01*
X90932000Y-108268000D02*
X90932000Y-105645000D01*
X88106250Y-111056338D02*
X89662588Y-109500000D01*
%TO.N,Net-(D65-A)*%
X107156250Y-115031250D02*
X107156250Y-113437538D01*
X107156250Y-113437538D02*
X109982000Y-110611788D01*
X109982000Y-110611788D02*
X109982000Y-108026200D01*
%TO.N,Net-(D66-A)*%
X161162500Y-158114808D02*
X166234017Y-153043291D01*
%TO.N,Net-(D67-A)*%
X170687500Y-141446058D02*
X175588067Y-136545491D01*
%TO.N,Net-(D68-A)*%
X180212500Y-124777308D02*
X184942117Y-120047691D01*
X184942117Y-120047691D02*
X186321320Y-120047691D01*
D53*
%TO.N,SWCLK*%
X194580000Y-64397500D02*
X194580000Y-64896701D01*
X194580000Y-64896701D02*
X193205201Y-66271500D01*
X193205201Y-66271500D02*
X190781501Y-66271500D01*
%TO.N,SWDIO*%
X190045878Y-66095878D02*
X190394756Y-65747000D01*
X194180000Y-64872437D02*
X194180000Y-64397500D01*
X193305437Y-65747000D02*
X194180000Y-64872437D01*
X190394756Y-65747000D02*
X193305437Y-65747000D01*
%TO.N,/RUN*%
X191174500Y-64997500D02*
X190950000Y-65222000D01*
X193780000Y-64848173D02*
X193268173Y-65360000D01*
X183475000Y-63800000D02*
X190910000Y-63800000D01*
X192329327Y-64997500D02*
X191174500Y-64997500D01*
X193780000Y-64397500D02*
X193780000Y-64848173D01*
X180225000Y-67050000D02*
X183475000Y-63800000D01*
X193268173Y-65360000D02*
X192691827Y-65360000D01*
X192691827Y-65360000D02*
X192329327Y-64997500D01*
X190910000Y-63800000D02*
X190910000Y-63050000D01*
D54*
%TO.N,/QSPI_SS*%
X201485710Y-53850000D02*
X198180000Y-57155710D01*
X198180000Y-57155710D02*
X198180000Y-57522500D01*
X222350000Y-56800000D02*
X222350000Y-57590000D01*
X219311129Y-53361129D02*
X219804017Y-53361129D01*
D53*
X220980000Y-52018750D02*
X222448751Y-52018750D01*
D54*
X219804017Y-53361129D02*
X220980000Y-52185146D01*
X219311129Y-53361129D02*
X218822258Y-53850000D01*
X218822258Y-53850000D02*
X201485710Y-53850000D01*
D53*
%TO.N,/XOUT*%
X195072685Y-66150000D02*
X195780000Y-65442685D01*
X195780000Y-65442685D02*
X195780000Y-64397500D01*
X194350000Y-66150000D02*
X195072685Y-66150000D01*
D54*
%TO.N,/USB_D+*%
X195125000Y-27860000D02*
X195225000Y-27760000D01*
X195050000Y-50375000D02*
X195050000Y-49662499D01*
X194425000Y-32750000D02*
X194425000Y-28010000D01*
X194425000Y-28010000D02*
X194425000Y-27960000D01*
X195425000Y-33166219D02*
X194841219Y-33166219D01*
X194425000Y-49037499D02*
X194425000Y-32750000D01*
X194841219Y-33166219D02*
X194425000Y-32750000D01*
X195225000Y-27760000D02*
X195225000Y-26885000D01*
X194325000Y-27860000D02*
X195125000Y-27860000D01*
X195050000Y-49662499D02*
X194425000Y-49037499D01*
X194425000Y-27960000D02*
X194225000Y-27760000D01*
X194225000Y-27760000D02*
X194325000Y-27860000D01*
X194225000Y-26885000D02*
X194225000Y-27760000D01*
%TO.N,/USB_DP*%
X195150000Y-52025000D02*
X195150000Y-52737501D01*
X194575000Y-53312501D02*
X194575000Y-57477500D01*
X195150000Y-52737501D02*
X194575000Y-53312501D01*
%TO.N,/USB_D-*%
X194075000Y-49037499D02*
X194075000Y-32750000D01*
X194675000Y-25910000D02*
X194725000Y-25960000D01*
X193775000Y-25910000D02*
X194675000Y-25910000D01*
X193658781Y-33166219D02*
X194075000Y-32750000D01*
X194075000Y-28153842D02*
X193725000Y-27803842D01*
X193075000Y-33166219D02*
X193658781Y-33166219D01*
X194075000Y-32750000D02*
X194075000Y-28153842D01*
X193725000Y-26885000D02*
X193725000Y-25960000D01*
X193725000Y-25960000D02*
X193775000Y-25910000D01*
X193450000Y-50375000D02*
X193450000Y-49662499D01*
X194725000Y-25960000D02*
X194725000Y-26885000D01*
X193450000Y-49662499D02*
X194075000Y-49037499D01*
X193725000Y-27803842D02*
X193725000Y-26885000D01*
%TO.N,/USB_DN*%
X194175000Y-57517500D02*
X194180000Y-57522500D01*
X193600000Y-52025000D02*
X193600000Y-52737501D01*
X194175000Y-53312501D02*
X194175000Y-57517500D01*
X193600000Y-52737501D02*
X194175000Y-53312501D01*
%TO.N,/row2*%
X269875000Y-85725000D02*
X269875000Y-83406250D01*
X326231250Y-80231250D02*
X309562500Y-80231250D01*
X151606250Y-84137500D02*
X146781250Y-84137500D01*
X126206250Y-82612500D02*
X145256250Y-82612500D01*
X307181250Y-77850000D02*
X290512500Y-77850000D01*
D53*
X199317267Y-65667267D02*
X199317267Y-66414949D01*
D54*
X345281250Y-84993750D02*
X330993750Y-84993750D01*
X290512500Y-77850000D02*
X288131250Y-80231250D01*
X250031250Y-82612500D02*
X215514818Y-82612500D01*
X109537500Y-82612500D02*
X126206250Y-82612500D01*
X26193750Y-84993750D02*
X50006250Y-84993750D01*
D53*
X198735000Y-65085000D02*
X199317267Y-65667267D01*
D54*
X107156250Y-80231250D02*
X109537500Y-82612500D01*
X274637500Y-108248642D02*
X261403492Y-121482650D01*
X330993750Y-84993750D02*
X326231250Y-80231250D01*
X85725000Y-80231250D02*
X88106250Y-77850000D01*
X125470258Y-127515150D02*
X125470258Y-113529742D01*
X215514818Y-82612500D02*
X199350000Y-66447682D01*
D53*
X197988025Y-65085000D02*
X198735000Y-65085000D01*
D54*
X269875000Y-83406250D02*
X269081250Y-82612500D01*
X69056250Y-80231250D02*
X85725000Y-80231250D01*
X369093750Y-84993750D02*
X345281250Y-84993750D01*
X288131250Y-80231250D02*
X285750000Y-82612500D01*
X104775000Y-77850000D02*
X107156250Y-80231250D01*
X285750000Y-82612500D02*
X269081250Y-82612500D01*
X88106250Y-77850000D02*
X104775000Y-77850000D01*
X64293750Y-84993750D02*
X69056250Y-80231250D01*
X146781250Y-84137500D02*
X145256250Y-82612500D01*
X274637500Y-106362500D02*
X274637500Y-108248642D01*
X125470258Y-113529742D02*
X145256250Y-93743750D01*
X50006250Y-84993750D02*
X64293750Y-84993750D01*
X309562500Y-80231250D02*
X307181250Y-77850000D01*
D53*
X197780000Y-64397500D02*
X197780000Y-64876975D01*
X197780000Y-64876975D02*
X197988025Y-65085000D01*
D54*
X269081250Y-82612500D02*
X250031250Y-82612500D01*
X145256250Y-93743750D02*
X145256250Y-82612500D01*
%TO.N,/row3*%
X304800000Y-99281250D02*
X307181250Y-96900000D01*
D53*
X238457209Y-123257209D02*
X232600000Y-117400000D01*
D54*
X109537500Y-101662500D02*
X107156250Y-99281250D01*
D53*
X232600000Y-117400000D02*
X232600000Y-114935192D01*
D54*
X69056250Y-99281250D02*
X54768750Y-99281250D01*
X345281250Y-104043750D02*
X369093750Y-104043750D01*
D53*
X238457209Y-123557209D02*
X238457209Y-123257209D01*
D54*
X160275216Y-118110192D02*
X161893750Y-118110192D01*
D53*
X199113244Y-64397500D02*
X199182872Y-64467128D01*
D54*
X50006250Y-104043750D02*
X26193750Y-104043750D01*
X141968058Y-136417350D02*
X160275216Y-118110192D01*
X201850000Y-70200000D02*
X233312500Y-101662500D01*
X54768750Y-99281250D02*
X50006250Y-104043750D01*
X326231250Y-99281250D02*
X330993750Y-104043750D01*
X90487500Y-99281250D02*
X88106250Y-96900000D01*
X245872692Y-101662500D02*
X269081250Y-101662500D01*
D53*
X244905692Y-128505692D02*
X241511839Y-125111839D01*
D54*
X126206250Y-101662500D02*
X109537500Y-101662500D01*
X271462500Y-99281250D02*
X288131250Y-99281250D01*
D53*
X244905692Y-131178600D02*
X244905692Y-128505692D01*
D54*
X232600000Y-114935192D02*
X245872692Y-101662500D01*
X269081250Y-101662500D02*
X271462500Y-99281250D01*
X288131250Y-99281250D02*
X304800000Y-99281250D01*
X88106250Y-96900000D02*
X71437500Y-96900000D01*
X330993750Y-104043750D02*
X345281250Y-104043750D01*
D53*
X198180000Y-64397500D02*
X199113244Y-64397500D01*
D54*
X71437500Y-96900000D02*
X69056250Y-99281250D01*
X233312500Y-101662500D02*
X245872692Y-101662500D01*
D53*
X240011839Y-125111839D02*
X238457209Y-123557209D01*
D54*
X307181250Y-96900000D02*
X323850000Y-96900000D01*
D53*
X241511839Y-125111839D02*
X240011839Y-125111839D01*
D54*
X107156250Y-99281250D02*
X90487500Y-99281250D01*
X323850000Y-96900000D02*
X326231250Y-99281250D01*
%TO.N,/row4*%
X218934922Y-124460192D02*
X215931250Y-124460192D01*
X104775000Y-115950000D02*
X107156250Y-118331250D01*
X225682409Y-140902783D02*
X225682409Y-131207679D01*
X171608558Y-144303942D02*
X169037500Y-144303942D01*
X69056250Y-118331250D02*
X85725000Y-118331250D01*
X178774219Y-137138281D02*
X171608558Y-144303942D01*
X30956250Y-123093750D02*
X50006250Y-123093750D01*
X307181250Y-115950000D02*
X290512500Y-115950000D01*
X85725000Y-118331250D02*
X88106250Y-115950000D01*
X159512500Y-160972692D02*
X152848035Y-160972692D01*
X137193154Y-145317811D02*
X133132751Y-145317811D01*
X133132751Y-145317811D02*
X123607751Y-135792811D01*
X64293750Y-123093750D02*
X69056250Y-118331250D01*
X309562500Y-118331250D02*
X307181250Y-115950000D01*
X169249219Y-153616302D02*
X161892829Y-160972692D01*
X245268750Y-155575000D02*
X234981250Y-157003942D01*
D53*
X200650000Y-65192500D02*
X200650000Y-65300000D01*
D54*
X266157353Y-141830147D02*
X260350000Y-146050000D01*
X152848035Y-160972692D02*
X137193154Y-145317811D01*
X326231250Y-118331250D02*
X309562500Y-118331250D01*
X50006250Y-123093750D02*
X64293750Y-123093750D01*
X178774219Y-127846911D02*
X178774219Y-137138281D01*
X212756250Y-127635192D02*
X178562500Y-127635192D01*
X290512500Y-115950000D02*
X288131250Y-118331250D01*
D53*
X216132409Y-114532409D02*
X216132409Y-124259033D01*
D54*
X345281250Y-123093750D02*
X330993750Y-123093750D01*
X235207409Y-147101159D02*
X229235192Y-141128942D01*
X288131250Y-118331250D02*
X288131250Y-119856250D01*
X235207409Y-156777783D02*
X235207409Y-147101159D01*
X364331250Y-123093750D02*
X345281250Y-123093750D01*
X215931250Y-124460192D02*
X212756250Y-127635192D01*
X161892829Y-160972692D02*
X159512500Y-160972692D01*
X288131250Y-119856250D02*
X266157353Y-141830147D01*
D53*
X207311444Y-105711444D02*
X216132409Y-114532409D01*
D54*
X123607751Y-134782751D02*
X107156250Y-118331250D01*
X260350000Y-146050000D02*
X245268750Y-155575000D01*
D53*
X199017500Y-63560000D02*
X200650000Y-65192500D01*
D54*
X229235192Y-141128942D02*
X225456250Y-141128942D01*
X88106250Y-115950000D02*
X104775000Y-115950000D01*
X330993750Y-123093750D02*
X326231250Y-118331250D01*
X169249219Y-144515661D02*
X169249219Y-153616302D01*
X123607751Y-135792811D02*
X123607751Y-134782751D01*
X225682409Y-131207679D02*
X218934922Y-124460192D01*
D53*
%TO.N,/PWM*%
X202984903Y-61560000D02*
X199017500Y-61560000D01*
X206646963Y-57897940D02*
X202984903Y-61560000D01*
X206846890Y-57694397D02*
X206646963Y-57894324D01*
X206646963Y-57894324D02*
X206646963Y-57897940D01*
X227600000Y-26700000D02*
X227600000Y-22960000D01*
D54*
%TO.N,/col0*%
X12934900Y-39128700D02*
X12700000Y-38893800D01*
X16092500Y-77228700D02*
X12934900Y-77228700D01*
X16092500Y-58178700D02*
X12934900Y-58178700D01*
X16092500Y-96278700D02*
X12934900Y-96278700D01*
X12934900Y-96278700D02*
X12700000Y-96043800D01*
D53*
X192142500Y-58760000D02*
X188607018Y-58760000D01*
D54*
X16092500Y-39128700D02*
X12934900Y-39128700D01*
X12934900Y-77228700D02*
X12700000Y-76993800D01*
D53*
X188607018Y-58760000D02*
X188147018Y-58300000D01*
D54*
X20855000Y-115328700D02*
X17697200Y-115328700D01*
X12934900Y-58178700D02*
X12700000Y-57943800D01*
X17697200Y-115328700D02*
X17462500Y-115094000D01*
%TO.N,/col1*%
X36747400Y-39128700D02*
X36512500Y-38893800D01*
X39905000Y-96278700D02*
X36747400Y-96278700D01*
X36747400Y-58178700D02*
X36512500Y-57943800D01*
X37540900Y-115328700D02*
X37306200Y-115094000D01*
X39905000Y-58178700D02*
X36747400Y-58178700D01*
D53*
X188257515Y-59160000D02*
X187397515Y-58300000D01*
D54*
X36747400Y-96278700D02*
X36512500Y-96043800D01*
X39670100Y-76993800D02*
X36512500Y-76993800D01*
X39905000Y-115328700D02*
X37540900Y-115328700D01*
X39905000Y-39128700D02*
X36747400Y-39128700D01*
D53*
X192142500Y-59160000D02*
X188257515Y-59160000D01*
D54*
%TO.N,/col2*%
X58396200Y-34925000D02*
X56356200Y-34925000D01*
X56591400Y-110566200D02*
X56356200Y-110331000D01*
D53*
X192142500Y-59560000D02*
X187908012Y-59560000D01*
D54*
X58396200Y-53975000D02*
X56356200Y-53975000D01*
X58955000Y-110566200D02*
X56591400Y-110566200D01*
D53*
X187908012Y-59560000D02*
X186648012Y-58300000D01*
D54*
X58396200Y-92075000D02*
X56356200Y-92075000D01*
X58396200Y-73025000D02*
X56356200Y-73025000D01*
%TO.N,/col3*%
X78005000Y-51035000D02*
X75641200Y-51035000D01*
X78005000Y-70085000D02*
X75641200Y-70085000D01*
X78005000Y-108185000D02*
X75641200Y-108185000D01*
D53*
X187558509Y-59960000D02*
X185898509Y-58300000D01*
D54*
X75641200Y-108185000D02*
X75406200Y-107950000D01*
D53*
X192142500Y-59960000D02*
X187558509Y-59960000D01*
D54*
X77770000Y-31750000D02*
X75406200Y-31750000D01*
X75641200Y-89135000D02*
X75406200Y-88900000D01*
X75641200Y-70085000D02*
X75406200Y-69850000D01*
X75641200Y-51035000D02*
X75406200Y-50800000D01*
X78005000Y-89135000D02*
X75641200Y-89135000D01*
%TO.N,/col4*%
X97055000Y-53416200D02*
X94691200Y-53416200D01*
X97055000Y-72466200D02*
X94691200Y-72466200D01*
X94691400Y-110566200D02*
X94456200Y-110331000D01*
X97055000Y-34366200D02*
X94691200Y-34366200D01*
X94691200Y-91516200D02*
X94456200Y-91281200D01*
D53*
X192142500Y-60360000D02*
X187209006Y-60360000D01*
D54*
X97055000Y-91516200D02*
X94691200Y-91516200D01*
X97055000Y-110566200D02*
X94691400Y-110566200D01*
D53*
X187209006Y-60360000D02*
X185149006Y-58300000D01*
D54*
X94691200Y-34366200D02*
X94456200Y-34131200D01*
X94691200Y-53416200D02*
X94456200Y-53181200D01*
X94691200Y-72466200D02*
X94456200Y-72231200D01*
%TO.N,/QSPI_SD1*%
X201340736Y-53500000D02*
X197780000Y-57060736D01*
X218395146Y-53500000D02*
X201340736Y-53500000D01*
X219710000Y-52185146D02*
X218395146Y-53500000D01*
X197780000Y-57060736D02*
X197780000Y-57522500D01*
%TO.N,/QSPI_SD2*%
X217475146Y-53150000D02*
X201195762Y-53150000D01*
X197380000Y-56965762D02*
X197380000Y-57522500D01*
X201195762Y-53150000D02*
X197380000Y-56965762D01*
X218440000Y-52185146D02*
X217475146Y-53150000D01*
%TO.N,/QSPI_SD0*%
X196980000Y-56870788D02*
X196980000Y-57522500D01*
X217170000Y-47643724D02*
X212013724Y-52800000D01*
X212013724Y-52800000D02*
X201050787Y-52800000D01*
X201050787Y-52800000D02*
X196980000Y-56870788D01*
X217170000Y-44818750D02*
X217170000Y-47643724D01*
%TO.N,/QSPI_SCLK*%
X196580000Y-56775814D02*
X196580000Y-57522500D01*
X216570000Y-47748750D02*
X211868750Y-52450000D01*
X200905813Y-52450000D02*
X196580000Y-56775814D01*
X218440000Y-44652354D02*
X217443896Y-43656250D01*
X216896104Y-43656250D02*
X216570000Y-43982354D01*
X217443896Y-43656250D02*
X216896104Y-43656250D01*
X211868750Y-52450000D02*
X200905813Y-52450000D01*
X216570000Y-43982354D02*
X216570000Y-47748750D01*
%TO.N,/QSPI_SD3*%
X211653064Y-52100000D02*
X200760839Y-52100000D01*
X218313896Y-43256250D02*
X216730419Y-43256250D01*
X216170000Y-43816669D02*
X216170000Y-47583064D01*
X219710000Y-44652354D02*
X218313896Y-43256250D01*
X200760839Y-52100000D02*
X196180000Y-56680840D01*
X196180000Y-56680840D02*
X196180000Y-57522500D01*
X216170000Y-47583064D02*
X211653064Y-52100000D01*
X216730419Y-43256250D02*
X216170000Y-43816669D01*
%TO.N,/col5*%
X113741000Y-36747500D02*
X113506000Y-36512500D01*
D53*
X186859503Y-60760000D02*
X184399503Y-58300000D01*
D54*
X115870000Y-74612500D02*
X113506000Y-74612500D01*
X116105000Y-93897500D02*
X113741000Y-93897500D01*
D53*
X192142500Y-60760000D02*
X186859503Y-60760000D01*
D54*
X113741000Y-93897500D02*
X113506000Y-93662500D01*
X153541495Y-148779495D02*
X152400000Y-147638000D01*
X116105000Y-55797500D02*
X113741000Y-55797500D01*
X113741000Y-55797500D02*
X113506000Y-55562500D01*
X116105000Y-36747500D02*
X113741000Y-36747500D01*
%TO.N,/col6*%
X132791000Y-74847500D02*
X132556000Y-74612500D01*
X164331210Y-131787210D02*
X165150000Y-128550000D01*
X132791000Y-36747500D02*
X132556000Y-36512500D01*
X135155000Y-36747500D02*
X132791000Y-36747500D01*
D53*
X192142500Y-61160000D02*
X186510000Y-61160000D01*
D54*
X154236905Y-132281695D02*
X164331210Y-132281695D01*
X135155000Y-74847500D02*
X132791000Y-74847500D01*
X165150000Y-128550000D02*
X166633607Y-123233607D01*
D53*
X186510000Y-61160000D02*
X183650000Y-58300000D01*
D54*
X132791000Y-55797500D02*
X132556000Y-55562500D01*
X135155000Y-55797500D02*
X132791000Y-55797500D01*
D53*
%TO.N,/col9*%
X202642440Y-61160000D02*
X199017500Y-61160000D01*
D54*
X208866695Y-139366695D02*
X212652210Y-139366695D01*
D53*
X206097463Y-57704977D02*
X202642440Y-61160000D01*
D54*
X204750000Y-135250000D02*
X208866695Y-139366695D01*
D53*
%TO.N,/col10*%
X205344334Y-57696641D02*
X205344334Y-57705666D01*
X205344334Y-57705666D02*
X202290000Y-60760000D01*
X202290000Y-60760000D02*
X199017500Y-60760000D01*
%TO.N,/col11*%
X199017500Y-60360000D02*
X201990000Y-60360000D01*
X204598512Y-57751488D02*
X204598512Y-57700000D01*
X201990000Y-60360000D02*
X204598512Y-57751488D01*
%TO.N,/col12*%
X199017500Y-59960000D02*
X201590000Y-59960000D01*
X203849009Y-57700991D02*
X203849009Y-57700000D01*
X201590000Y-59960000D02*
X203849009Y-57700991D01*
%TO.N,/col13*%
X201290000Y-59560000D02*
X203099506Y-57750494D01*
X199017500Y-59560000D02*
X201290000Y-59560000D01*
X203099506Y-57750494D02*
X203099506Y-57700000D01*
%TO.N,/col14*%
X202350003Y-57799997D02*
X202350003Y-57700000D01*
X199017500Y-59160000D02*
X200990000Y-59160000D01*
X200990000Y-59160000D02*
X202350003Y-57799997D01*
%TO.N,/col15*%
X200590000Y-58760000D02*
X199017500Y-58760000D01*
X201600500Y-57749500D02*
X200590000Y-58760000D01*
X201600500Y-57700000D02*
X201600500Y-57749500D01*
D54*
%TO.N,/col7*%
X153279220Y-106258895D02*
X137181105Y-122357010D01*
D53*
X170650000Y-92967305D02*
X157358410Y-106258895D01*
X192980000Y-64397500D02*
X190578236Y-64397500D01*
X170650000Y-84325736D02*
X170650000Y-92967305D01*
X190578236Y-64397500D02*
X170650000Y-84325736D01*
D54*
X157358410Y-106258895D02*
X153279220Y-106258895D01*
%TO.N,Net-(D69-A)*%
X214281250Y-121602308D02*
X213052320Y-120373378D01*
X213052320Y-120373378D02*
X213052320Y-114205691D01*
%TO.N,Net-(D70-A)*%
X223806250Y-138271058D02*
X223043750Y-137508558D01*
X223043750Y-137508558D02*
X223043750Y-131169921D01*
%TO.N,Net-(D71-A)*%
X233331250Y-154146058D02*
X232102320Y-152917128D01*
X232102320Y-152917128D02*
X232102320Y-147201291D01*
%TO.N,Net-(D72-A)*%
X288131250Y-115031250D02*
X288131250Y-113437538D01*
X290957000Y-110611788D02*
X290957000Y-108026200D01*
X288131250Y-113437538D02*
X290957000Y-110611788D01*
%TO.N,Net-(D73-A)*%
X307181250Y-112650000D02*
X307181250Y-111056338D01*
X307181250Y-111056338D02*
X310007000Y-108230588D01*
X310007000Y-108230588D02*
X310007000Y-105645000D01*
%TO.N,Net-(D74-A)*%
X326231250Y-115031250D02*
X326231250Y-110851950D01*
X326231250Y-110851950D02*
X329057000Y-108026200D01*
%TO.N,Net-(D75-A)*%
X345281250Y-119793750D02*
X345281250Y-118200038D01*
X345281250Y-118200038D02*
X348107000Y-115374288D01*
X348107000Y-115374288D02*
X348107000Y-112788700D01*
%TO.N,Net-(D76-A)*%
X364331250Y-119793750D02*
X364331250Y-115614450D01*
X364331250Y-115614450D02*
X367157000Y-112788700D01*
%TO.N,Net-(LED1-DOUT)*%
X235018800Y-26256200D02*
X238256250Y-23018750D01*
X238256250Y-23018750D02*
X363406250Y-23018750D01*
D53*
%TO.N,Net-(LED1-DIN)*%
X228616200Y-22956200D02*
X230118800Y-22956200D01*
D54*
%TO.N,Net-(LED2-DOUT)*%
X376631250Y-35318650D02*
X371475000Y-30162400D01*
X371474900Y-30162400D02*
X368368800Y-27056300D01*
X368368800Y-27056300D02*
X368368800Y-26256200D01*
X306275000Y-123012500D02*
X315100000Y-123012500D01*
X376631250Y-120868750D02*
X376631250Y-35318650D01*
X371475000Y-30162400D02*
X371474900Y-30162400D01*
X315100000Y-123012500D02*
X321468750Y-129381250D01*
X368118750Y-129381250D02*
X376631250Y-120868750D01*
X305525000Y-123762500D02*
X306275000Y-123012500D01*
X321468750Y-129381250D02*
X368118750Y-129381250D01*
%TO.N,Net-(LED3-DOUT)*%
X240506250Y-163512500D02*
X272256250Y-139700000D01*
X284956250Y-128587500D02*
X308900000Y-128587500D01*
X215037500Y-167418700D02*
X217203186Y-167418700D01*
X223837500Y-171450000D02*
X240506250Y-163512500D01*
X217203186Y-167418700D02*
X223837500Y-171450000D01*
X308900000Y-128587500D02*
X310425000Y-127062500D01*
X272256250Y-139700000D02*
X284956250Y-128587500D01*
%TO.N,Net-(LED4-DOUT)*%
X169450000Y-167868700D02*
X169450000Y-168050000D01*
X169518700Y-168118700D02*
X174900000Y-168118700D01*
X174900000Y-166913674D02*
X180413674Y-161400000D01*
X169450000Y-168050000D02*
X169518700Y-168118700D01*
X169000000Y-167418700D02*
X169450000Y-167868700D01*
X214037500Y-164818700D02*
X214037500Y-168118700D01*
X217918800Y-168700000D02*
X219937500Y-170718700D01*
X210618800Y-161400000D02*
X214037500Y-164818700D01*
X174900000Y-168118700D02*
X174900000Y-166913674D01*
X180413674Y-161400000D02*
X210618800Y-161400000D01*
X214037500Y-168118700D02*
X214618800Y-168700000D01*
X214618800Y-168700000D02*
X217918800Y-168700000D01*
%TO.N,Net-(LED5-DOUT)*%
X168725050Y-172243750D02*
X172374950Y-172243750D01*
X160337500Y-167481250D02*
X168725050Y-172243750D01*
X138150000Y-158750000D02*
X146050000Y-158750000D01*
X122656250Y-148850000D02*
X128250000Y-148850000D01*
X150812500Y-161925000D02*
X160337500Y-167481250D01*
X80162500Y-125412500D02*
X103187500Y-129381250D01*
X103187500Y-129381250D02*
X122656250Y-148850000D01*
X146050000Y-158750000D02*
X150812500Y-161925000D01*
X78512500Y-123762500D02*
X80162500Y-125412500D01*
X172374950Y-172243750D02*
X173900000Y-170718700D01*
X128250000Y-148850000D02*
X138150000Y-158750000D01*
%TO.N,Net-(LED6-DOUT)*%
X20568800Y-22956200D02*
X10918750Y-32606250D01*
X10918750Y-32606250D02*
X10918750Y-130775000D01*
X10918750Y-130775000D02*
X11112500Y-130968750D01*
X11112500Y-130968750D02*
X79506250Y-130968750D01*
X79506250Y-130968750D02*
X83412500Y-127062500D01*
%TO.N,Net-(LED7-DOUT)*%
X154662500Y-22162500D02*
X26828186Y-22162500D01*
X155500000Y-23000000D02*
X154662500Y-22162500D01*
X26518800Y-25206200D02*
X25468800Y-26256200D01*
X26518800Y-22471886D02*
X26518800Y-25206200D01*
X26828186Y-22162500D02*
X26518800Y-22471886D01*
D53*
%TO.N,/col8*%
X193380000Y-64823909D02*
X193143909Y-65060000D01*
D54*
X231050000Y-140750000D02*
X238250000Y-147950000D01*
X219625010Y-117525010D02*
X231050000Y-128950000D01*
D53*
X193380000Y-64397500D02*
X193380000Y-64823909D01*
D54*
X238250000Y-147950000D02*
X245837485Y-147950000D01*
X231050000Y-128950000D02*
X231050000Y-140750000D01*
D53*
X170950000Y-84450000D02*
X170950000Y-90691685D01*
D54*
X219625010Y-113343895D02*
X219625010Y-117525010D01*
D53*
X190702500Y-64697500D02*
X170950000Y-84450000D01*
X192453591Y-64697500D02*
X190702500Y-64697500D01*
X193143909Y-65060000D02*
X192816091Y-65060000D01*
D54*
X245837485Y-147950000D02*
X259158895Y-134628590D01*
D53*
X170950000Y-90691685D02*
X203127210Y-122868895D01*
X192816091Y-65060000D02*
X192453591Y-64697500D01*
%TO.N,Net-(BOOT1-Pad2)*%
X222350000Y-58610000D02*
X222340000Y-64390000D01*
%TO.N,Net-(J1-SHIELD)*%
X187955000Y-27640000D02*
X187955000Y-26370000D01*
X188355000Y-25970000D02*
X190155000Y-25970000D01*
X187985000Y-26340000D02*
X188355000Y-25970000D01*
%TO.N,Net-(J1-CC1)*%
X193222189Y-25736688D02*
X193222189Y-26787811D01*
X193225000Y-26885000D02*
X193225000Y-28565000D01*
X193225000Y-28565000D02*
X193250000Y-28590000D01*
%TO.N,Net-(J1-CC2)*%
X196225000Y-26885000D02*
X196225000Y-28565000D01*
X196225000Y-28565000D02*
X196250000Y-28590000D01*
X196225000Y-26173128D02*
X195558436Y-25506564D01*
X196225000Y-26885000D02*
X196225000Y-26173128D01*
%TO.N,+5V*%
X202129468Y-31300000D02*
X200629468Y-32800000D01*
D54*
X160512095Y-167177901D02*
X150997902Y-161627954D01*
X240298210Y-163168530D02*
X272004183Y-139389050D01*
X305931250Y-124618750D02*
X309568750Y-124618750D01*
D55*
X191804789Y-34100000D02*
X193066281Y-34100000D01*
D54*
X369887500Y-28009214D02*
X369887500Y-24474900D01*
X161950000Y-23000000D02*
X160362500Y-21412500D01*
X368213724Y-129781250D02*
X377031250Y-120963724D01*
X173900000Y-167418700D02*
X172931300Y-166450000D01*
X26662501Y-21762500D02*
X25468800Y-22956200D01*
X150997902Y-161627954D02*
X135037759Y-145667811D01*
X231372855Y-167418700D02*
X240298210Y-163168530D01*
X180268700Y-161050000D02*
X213568800Y-161050000D01*
X135037759Y-145667811D02*
X120067811Y-145667811D01*
D53*
X210215380Y-31300000D02*
X219234180Y-22281200D01*
D54*
X173900000Y-167418700D02*
X180268700Y-161050000D01*
X304400000Y-128187500D02*
X304400000Y-126150000D01*
X316443750Y-129781250D02*
X368213724Y-129781250D01*
X304400000Y-126150000D02*
X305931250Y-124618750D01*
D53*
X219234180Y-22281200D02*
X234343800Y-22281200D01*
D54*
X219937500Y-167418700D02*
X231372855Y-167418700D01*
X369887500Y-24474900D02*
X368368800Y-22956200D01*
X310425000Y-123762500D02*
X316443750Y-129781250D01*
X235356250Y-22618750D02*
X362006250Y-22618750D01*
D55*
X198950000Y-39001084D02*
X204849999Y-44901083D01*
D54*
X377031250Y-120963724D02*
X377031250Y-35152964D01*
X284682827Y-128295238D02*
X284790565Y-128187500D01*
X98162500Y-123762500D02*
X83412500Y-123762500D01*
X272004183Y-139389050D02*
X284682827Y-128295238D01*
X362006250Y-22618750D02*
X362418800Y-22206200D01*
X172931300Y-166450000D02*
X161239996Y-166450000D01*
D53*
X234343800Y-22281200D02*
X235018800Y-22956200D01*
D54*
X154456300Y-21412500D02*
X154106300Y-21762500D01*
D53*
X161950000Y-23000000D02*
X160400000Y-23000000D01*
X197350000Y-31300000D02*
X210215380Y-31300000D01*
D54*
X284790565Y-128187500D02*
X304400000Y-128187500D01*
X191900000Y-34100000D02*
X191900000Y-48200000D01*
X309568750Y-124618750D02*
X310425000Y-123762500D01*
D55*
X198950000Y-32800000D02*
X198950000Y-39001084D01*
D54*
X213568800Y-161050000D02*
X219937500Y-167418700D01*
X154106300Y-21762500D02*
X26662501Y-21762500D01*
X362418800Y-22206200D02*
X367618800Y-22206200D01*
X377031250Y-35152964D02*
X369887500Y-28009214D01*
X367618800Y-22206200D02*
X368368800Y-22956200D01*
X160362500Y-21412500D02*
X154456300Y-21412500D01*
X191900000Y-48200000D02*
X177150000Y-62950000D01*
X177150000Y-62950000D02*
X177150000Y-63434500D01*
X120067811Y-145667811D02*
X98162500Y-123762500D01*
X161239996Y-166450000D02*
X160512095Y-167177901D01*
D53*
X200629468Y-32800000D02*
X198950000Y-32800000D01*
X204849999Y-44901083D02*
X206311417Y-44901083D01*
%TO.N,Net-(R11-Pad1)*%
X189840000Y-63000000D02*
X188960000Y-63000000D01*
%TO.N,Net-(R10-Pad2)*%
X222550000Y-51000000D02*
X222550000Y-50120000D01*
%TD*%
%TA.AperFunction,Conductor*%
%TO.N,+3V3*%
G36*
X199044647Y-40019685D02*
G01*
X199065289Y-40036319D01*
X201308405Y-42279435D01*
X201341890Y-42340758D01*
X201336906Y-42410450D01*
X201295034Y-42466383D01*
X201248110Y-42483884D01*
X201249032Y-42487774D01*
X201070016Y-42530201D01*
X200918559Y-42606265D01*
X200843633Y-42667301D01*
X200838940Y-42671539D01*
X200807017Y-42703462D01*
X200807017Y-42703463D01*
X201301992Y-43198439D01*
X201567863Y-43464310D01*
X201601348Y-43525633D01*
X201596364Y-43595325D01*
X201567863Y-43639672D01*
X200789338Y-44418196D01*
X200803594Y-44432451D01*
X200808278Y-44436680D01*
X200883208Y-44497720D01*
X201034658Y-44573781D01*
X201199576Y-44612868D01*
X201212632Y-44612868D01*
X201279671Y-44632553D01*
X201325426Y-44685357D01*
X201336632Y-44736867D01*
X201336632Y-44750485D01*
X201370354Y-44892768D01*
X201375744Y-44915511D01*
X201451859Y-45067068D01*
X201465055Y-45083267D01*
X201492134Y-45147676D01*
X201480092Y-45216500D01*
X201432753Y-45267889D01*
X201368916Y-45285583D01*
X200862774Y-45285583D01*
X200795735Y-45265898D01*
X200775093Y-45249264D01*
X200757097Y-45231268D01*
X200630708Y-45151853D01*
X200604355Y-45135294D01*
X200434088Y-45075715D01*
X200434086Y-45075714D01*
X200434084Y-45075714D01*
X200254833Y-45055517D01*
X200075581Y-45075714D01*
X200075578Y-45075714D01*
X200075578Y-45075715D01*
X199905311Y-45135294D01*
X199905309Y-45135294D01*
X199905309Y-45135295D01*
X199752568Y-45231268D01*
X199625018Y-45358818D01*
X199578053Y-45433563D01*
X199529044Y-45511561D01*
X199508134Y-45571319D01*
X199469464Y-45681831D01*
X199449267Y-45861083D01*
X199469464Y-46040334D01*
X199469464Y-46040336D01*
X199469465Y-46040338D01*
X199529044Y-46210605D01*
X199551377Y-46246147D01*
X199625018Y-46363347D01*
X199752568Y-46490897D01*
X199752570Y-46490898D01*
X199752571Y-46490899D01*
X199905311Y-46586872D01*
X200075578Y-46646451D01*
X200254833Y-46666648D01*
X200434088Y-46646451D01*
X200604355Y-46586872D01*
X200757095Y-46490899D01*
X200757096Y-46490897D01*
X200775093Y-46472902D01*
X200836416Y-46439417D01*
X200862774Y-46436583D01*
X203565243Y-46436583D01*
X203581427Y-46437643D01*
X203611083Y-46441548D01*
X203640738Y-46437644D01*
X203656923Y-46436583D01*
X204158333Y-46436583D01*
X204225372Y-46456268D01*
X204246014Y-46472902D01*
X204284312Y-46511200D01*
X204423604Y-46593576D01*
X204423604Y-46593577D01*
X204579002Y-46638725D01*
X204579006Y-46638726D01*
X204615309Y-46641583D01*
X204617754Y-46641583D01*
X205082244Y-46641583D01*
X205084689Y-46641583D01*
X205120992Y-46638726D01*
X205276394Y-46593577D01*
X205415686Y-46511200D01*
X205453983Y-46472902D01*
X205515306Y-46439417D01*
X205541665Y-46436583D01*
X206630577Y-46436583D01*
X206646762Y-46437644D01*
X206676417Y-46441548D01*
X206714131Y-46436583D01*
X206714137Y-46436583D01*
X206826653Y-46421770D01*
X206966650Y-46363781D01*
X206966652Y-46363778D01*
X206966655Y-46363778D01*
X206967225Y-46363341D01*
X207034337Y-46311842D01*
X207056685Y-46294695D01*
X207056685Y-46294694D01*
X207072977Y-46282193D01*
X207072978Y-46282191D01*
X207086868Y-46271534D01*
X207105087Y-46247789D01*
X207115767Y-46235611D01*
X207239341Y-46112037D01*
X207300662Y-46078554D01*
X207370354Y-46083538D01*
X207426287Y-46125410D01*
X207446096Y-46165125D01*
X207473717Y-46260197D01*
X207557317Y-46401557D01*
X207673442Y-46517682D01*
X207814802Y-46601282D01*
X207972506Y-46647099D01*
X208006923Y-46649808D01*
X208011803Y-46650000D01*
X208337500Y-46650000D01*
X208837500Y-46650000D01*
X209163197Y-46650000D01*
X209168076Y-46649808D01*
X209202493Y-46647099D01*
X209360195Y-46601283D01*
X209442486Y-46552616D01*
X209510210Y-46535433D01*
X209568730Y-46552617D01*
X209618384Y-46581983D01*
X209773664Y-46627096D01*
X209794580Y-46628741D01*
X209794580Y-46099951D01*
X210294580Y-46099951D01*
X210294580Y-46628740D01*
X210315495Y-46627096D01*
X210470774Y-46581983D01*
X210609959Y-46499669D01*
X210724298Y-46385330D01*
X210806611Y-46246147D01*
X210849084Y-46099951D01*
X210294580Y-46099951D01*
X209794580Y-46099951D01*
X209739045Y-46099951D01*
X209738589Y-46100000D01*
X208837500Y-46100000D01*
X208837500Y-46650000D01*
X208337500Y-46650000D01*
X208337500Y-45724000D01*
X208357185Y-45656961D01*
X208409989Y-45611206D01*
X208461500Y-45600000D01*
X209245535Y-45600000D01*
X209245991Y-45599951D01*
X209546227Y-45599951D01*
X209609348Y-45617219D01*
X209618185Y-45622445D01*
X209773583Y-45667593D01*
X209773587Y-45667594D01*
X209809890Y-45670451D01*
X209812335Y-45670451D01*
X210276825Y-45670451D01*
X210279270Y-45670451D01*
X210315573Y-45667594D01*
X210470975Y-45622445D01*
X210479811Y-45617219D01*
X210542933Y-45599951D01*
X210849084Y-45599951D01*
X210806610Y-45453753D01*
X210794670Y-45433563D01*
X210777486Y-45365839D01*
X210794669Y-45307320D01*
X210807074Y-45286346D01*
X210852223Y-45130944D01*
X210855080Y-45094641D01*
X210855080Y-44685261D01*
X210852223Y-44648958D01*
X210850220Y-44642065D01*
X210807074Y-44493556D01*
X210724696Y-44354262D01*
X210610268Y-44239834D01*
X210470974Y-44157456D01*
X210315576Y-44112308D01*
X210281704Y-44109642D01*
X210281690Y-44109641D01*
X210279270Y-44109451D01*
X209874500Y-44109451D01*
X209807461Y-44089766D01*
X209761706Y-44036962D01*
X209750500Y-43985451D01*
X209750500Y-43736751D01*
X209750500Y-43734306D01*
X209747598Y-43697431D01*
X209701744Y-43539602D01*
X209618081Y-43398135D01*
X209501865Y-43281919D01*
X209360397Y-43198255D01*
X209202572Y-43152402D01*
X209168128Y-43149691D01*
X209168114Y-43149690D01*
X209165694Y-43149500D01*
X208009306Y-43149500D01*
X208006886Y-43149690D01*
X208006871Y-43149691D01*
X207972427Y-43152402D01*
X207814602Y-43198255D01*
X207673134Y-43281919D01*
X207556919Y-43398134D01*
X207473255Y-43539602D01*
X207427402Y-43697427D01*
X207424691Y-43731871D01*
X207424690Y-43731886D01*
X207424500Y-43734306D01*
X207424500Y-43736750D01*
X207424500Y-43736751D01*
X207424500Y-44131405D01*
X207404815Y-44198444D01*
X207352011Y-44244199D01*
X207282853Y-44254143D01*
X207237379Y-44238137D01*
X207085397Y-44148255D01*
X206927572Y-44102402D01*
X206893128Y-44099691D01*
X206893114Y-44099690D01*
X206890694Y-44099500D01*
X205734306Y-44099500D01*
X205731886Y-44099690D01*
X205731871Y-44099691D01*
X205697427Y-44102402D01*
X205539602Y-44148255D01*
X205453928Y-44198923D01*
X205386204Y-44216106D01*
X205327686Y-44198923D01*
X205276392Y-44168588D01*
X205120995Y-44123440D01*
X205087123Y-44120774D01*
X205087109Y-44120773D01*
X205084689Y-44120583D01*
X205082244Y-44120583D01*
X205040807Y-44120583D01*
X204973768Y-44100898D01*
X204953126Y-44084264D01*
X203423552Y-42554690D01*
X220139500Y-42554690D01*
X220139690Y-42557110D01*
X220139691Y-42557124D01*
X220142357Y-42590996D01*
X220187504Y-42746391D01*
X220187505Y-42746393D01*
X220187506Y-42746395D01*
X220199910Y-42767369D01*
X220217093Y-42835092D01*
X220199912Y-42893609D01*
X220187968Y-42913805D01*
X220145496Y-43060000D01*
X220451647Y-43060000D01*
X220514768Y-43077268D01*
X220523605Y-43082494D01*
X220679003Y-43127642D01*
X220679007Y-43127643D01*
X220715310Y-43130500D01*
X220735765Y-43130500D01*
X220756830Y-43134079D01*
X220756862Y-43133804D01*
X220949999Y-43155565D01*
X220949999Y-43155564D01*
X220950000Y-43155565D01*
X221014659Y-43148279D01*
X221143138Y-43133804D01*
X221143169Y-43134079D01*
X221164235Y-43130500D01*
X221182245Y-43130500D01*
X221184690Y-43130500D01*
X221220993Y-43127643D01*
X221376395Y-43082494D01*
X221385231Y-43077268D01*
X221448353Y-43060000D01*
X221754504Y-43060000D01*
X221712030Y-42913802D01*
X221700090Y-42893612D01*
X221682906Y-42825888D01*
X221700089Y-42767369D01*
X221712494Y-42746395D01*
X221757643Y-42590993D01*
X221760500Y-42554690D01*
X221760500Y-42145310D01*
X221757643Y-42109007D01*
X221712494Y-41953605D01*
X221630117Y-41814313D01*
X221630116Y-41814311D01*
X221515688Y-41699883D01*
X221376394Y-41617505D01*
X221220996Y-41572357D01*
X221187124Y-41569691D01*
X221187110Y-41569690D01*
X221184690Y-41569500D01*
X221182245Y-41569500D01*
X221164235Y-41569500D01*
X221143169Y-41565920D01*
X221143138Y-41566196D01*
X220950000Y-41544434D01*
X220756862Y-41566196D01*
X220756830Y-41565920D01*
X220735765Y-41569500D01*
X220715310Y-41569500D01*
X220712890Y-41569690D01*
X220712875Y-41569691D01*
X220679003Y-41572357D01*
X220523605Y-41617505D01*
X220384311Y-41699883D01*
X220269883Y-41814311D01*
X220187505Y-41953605D01*
X220142357Y-42109003D01*
X220139691Y-42142875D01*
X220139690Y-42142890D01*
X220139500Y-42145310D01*
X220139500Y-42554690D01*
X203423552Y-42554690D01*
X201080543Y-40211681D01*
X201047058Y-40150358D01*
X201052042Y-40080666D01*
X201093914Y-40024733D01*
X201159378Y-40000316D01*
X201168224Y-40000000D01*
X224226000Y-40000000D01*
X224293039Y-40019685D01*
X224338794Y-40072489D01*
X224350000Y-40124000D01*
X224350000Y-53392471D01*
X224330315Y-53459510D01*
X224306076Y-53487149D01*
X220642632Y-56585585D01*
X214300000Y-61950000D01*
X214300000Y-61950001D01*
X214300000Y-67800500D01*
X214280315Y-67867539D01*
X214227511Y-67913294D01*
X214176000Y-67924500D01*
X202739742Y-67924500D01*
X202672703Y-67904815D01*
X202652061Y-67888181D01*
X201826409Y-67062529D01*
X201792924Y-67001206D01*
X201790870Y-66960965D01*
X201806065Y-66826097D01*
X201785868Y-66646845D01*
X201785868Y-66646842D01*
X201726289Y-66476575D01*
X201630316Y-66323835D01*
X201630315Y-66323834D01*
X201630314Y-66323832D01*
X201502764Y-66196282D01*
X201350020Y-66100307D01*
X201263495Y-66070030D01*
X201206720Y-66029308D01*
X201180973Y-65964355D01*
X201194430Y-65895794D01*
X201216767Y-65865310D01*
X201279816Y-65802262D01*
X201375789Y-65649522D01*
X201435368Y-65479255D01*
X201455565Y-65300000D01*
X201435368Y-65120745D01*
X201375789Y-64950478D01*
X201279816Y-64797738D01*
X201279815Y-64797737D01*
X201279814Y-64797735D01*
X201152264Y-64670185D01*
X201089867Y-64630979D01*
X200999522Y-64574211D01*
X200829255Y-64514632D01*
X200829253Y-64514631D01*
X200829251Y-64514631D01*
X200823632Y-64513998D01*
X200759219Y-64486929D01*
X200749839Y-64478459D01*
X199991819Y-63720438D01*
X199958334Y-63659115D01*
X199955500Y-63632757D01*
X199955500Y-63470599D01*
X199955500Y-63470598D01*
X199955500Y-63466898D01*
X199944877Y-63378436D01*
X199944876Y-63378434D01*
X199944438Y-63374784D01*
X199944438Y-63345216D01*
X199945552Y-63335942D01*
X199955500Y-63253102D01*
X199955500Y-63127675D01*
X199975185Y-63060636D01*
X200027989Y-63014881D01*
X200097147Y-63004937D01*
X200098915Y-63005319D01*
X200100000Y-63004504D01*
X200100000Y-62259500D01*
X200119685Y-62192461D01*
X200172489Y-62146706D01*
X200224000Y-62135500D01*
X200405500Y-62135500D01*
X200472539Y-62155185D01*
X200518294Y-62207989D01*
X200529500Y-62259500D01*
X200529500Y-62434690D01*
X200529690Y-62437110D01*
X200529691Y-62437124D01*
X200532357Y-62470996D01*
X200577504Y-62626392D01*
X200577506Y-62626395D01*
X200582731Y-62635230D01*
X200600000Y-62698352D01*
X200600000Y-63004503D01*
X200746193Y-62962032D01*
X200766383Y-62950091D01*
X200834106Y-62932906D01*
X200892629Y-62950089D01*
X200913605Y-62962494D01*
X201069003Y-63007642D01*
X201069007Y-63007643D01*
X201105310Y-63010500D01*
X201107755Y-63010500D01*
X201512245Y-63010500D01*
X201514690Y-63010500D01*
X201550993Y-63007643D01*
X201706395Y-62962494D01*
X201749307Y-62937115D01*
X201817029Y-62919932D01*
X201853379Y-62926804D01*
X202020745Y-62985368D01*
X202200000Y-63005565D01*
X202379255Y-62985368D01*
X202549522Y-62925789D01*
X202702262Y-62829816D01*
X202829816Y-62702262D01*
X202925789Y-62549522D01*
X202985368Y-62379255D01*
X203001824Y-62233201D01*
X203028890Y-62168788D01*
X203086485Y-62129233D01*
X203108855Y-62124147D01*
X203135139Y-62120687D01*
X203275136Y-62062698D01*
X203307769Y-62037658D01*
X203329811Y-62020745D01*
X203353357Y-62002676D01*
X203365171Y-61993612D01*
X203365171Y-61993611D01*
X203381463Y-61981110D01*
X203381464Y-61981108D01*
X203395354Y-61970451D01*
X203413573Y-61946706D01*
X203424253Y-61934528D01*
X206829655Y-58529126D01*
X206890976Y-58495643D01*
X206903449Y-58493589D01*
X207026145Y-58479765D01*
X207196412Y-58420186D01*
X207349152Y-58324213D01*
X207476706Y-58196659D01*
X207572679Y-58043919D01*
X207632258Y-57873652D01*
X207652455Y-57694397D01*
X207632258Y-57515142D01*
X207572679Y-57344875D01*
X207476706Y-57192135D01*
X207476705Y-57192134D01*
X207476704Y-57192132D01*
X207349154Y-57064582D01*
X207229114Y-56989156D01*
X207196412Y-56968608D01*
X207026145Y-56909029D01*
X207026143Y-56909028D01*
X207026141Y-56909028D01*
X206846890Y-56888831D01*
X206667637Y-56909028D01*
X206498012Y-56968382D01*
X206428233Y-56971943D01*
X206416104Y-56968382D01*
X206276715Y-56919608D01*
X206097463Y-56899411D01*
X205918211Y-56919608D01*
X205918208Y-56919608D01*
X205918208Y-56919609D01*
X205775598Y-56969510D01*
X205705822Y-56973071D01*
X205693691Y-56969509D01*
X205527262Y-56911272D01*
X205348007Y-56891075D01*
X205168754Y-56911272D01*
X205009412Y-56967028D01*
X204939633Y-56970589D01*
X204927503Y-56967027D01*
X204777767Y-56914631D01*
X204598512Y-56894434D01*
X204419259Y-56914631D01*
X204264713Y-56968709D01*
X204194934Y-56972270D01*
X204182804Y-56968708D01*
X204182518Y-56968608D01*
X204166827Y-56963117D01*
X204028264Y-56914631D01*
X203849009Y-56894434D01*
X203669756Y-56914631D01*
X203515210Y-56968709D01*
X203445431Y-56972270D01*
X203433301Y-56968708D01*
X203433015Y-56968608D01*
X203417324Y-56963117D01*
X203278761Y-56914631D01*
X203099505Y-56894434D01*
X202920253Y-56914631D01*
X202765707Y-56968709D01*
X202695928Y-56972270D01*
X202683798Y-56968708D01*
X202683512Y-56968608D01*
X202667821Y-56963117D01*
X202529258Y-56914631D01*
X202350003Y-56894434D01*
X202170750Y-56914631D01*
X202016204Y-56968709D01*
X201946425Y-56972270D01*
X201934295Y-56968708D01*
X201934009Y-56968608D01*
X201918318Y-56963117D01*
X201779755Y-56914631D01*
X201600500Y-56894434D01*
X201421248Y-56914631D01*
X201421245Y-56914631D01*
X201421245Y-56914632D01*
X201250978Y-56974211D01*
X201250977Y-56974211D01*
X201250973Y-56974213D01*
X201110561Y-57062439D01*
X201043324Y-57081439D01*
X200976489Y-57061071D01*
X200931276Y-57007803D01*
X200927554Y-56998416D01*
X200875789Y-56850478D01*
X200838078Y-56790462D01*
X200819079Y-56723228D01*
X200839446Y-56656392D01*
X200848774Y-56643971D01*
X200852087Y-56640093D01*
X200930047Y-56498282D01*
X200936106Y-56474680D01*
X200971843Y-56414643D01*
X201025377Y-56385412D01*
X201048098Y-56379578D01*
X201181505Y-56306237D01*
X201181506Y-56306236D01*
X200965023Y-56089754D01*
X200932599Y-56032907D01*
X200930047Y-56022966D01*
X200852087Y-55881155D01*
X200837537Y-55864120D01*
X200830012Y-55855309D01*
X200830011Y-55855308D01*
X200828437Y-55853465D01*
X200667639Y-55692667D01*
X200634154Y-55631344D01*
X200639138Y-55561652D01*
X200639822Y-55560588D01*
X201142964Y-55560588D01*
X201535058Y-55952684D01*
X201535059Y-55952684D01*
X201608401Y-55819274D01*
X201648614Y-55662655D01*
X201648614Y-55500948D01*
X201608401Y-55344330D01*
X201530501Y-55202629D01*
X201516876Y-55186675D01*
X201516875Y-55186675D01*
X201142964Y-55560586D01*
X201142964Y-55560588D01*
X200639822Y-55560588D01*
X200667639Y-55517305D01*
X201698126Y-54486819D01*
X201759449Y-54453334D01*
X201785807Y-54450500D01*
X218774771Y-54450500D01*
X218790955Y-54451560D01*
X218822258Y-54455682D01*
X218979020Y-54435044D01*
X219125099Y-54374536D01*
X219131353Y-54369737D01*
X219250540Y-54278282D01*
X219269767Y-54253223D01*
X219280448Y-54241043D01*
X219329664Y-54191827D01*
X219390985Y-54158344D01*
X219403456Y-54156290D01*
X219490384Y-54146497D01*
X219660651Y-54086918D01*
X219813391Y-53990945D01*
X219813391Y-53990944D01*
X219825222Y-53983511D01*
X219825794Y-53984421D01*
X219874158Y-53958010D01*
X219884340Y-53956236D01*
X219960777Y-53946174D01*
X219984798Y-53936224D01*
X220106858Y-53885665D01*
X220135886Y-53863391D01*
X220232299Y-53789411D01*
X220251526Y-53764352D01*
X220262207Y-53752172D01*
X220659757Y-53354622D01*
X220721078Y-53321139D01*
X220757179Y-53318689D01*
X220759878Y-53318901D01*
X220761863Y-53319058D01*
X220761869Y-53319058D01*
X220764306Y-53319250D01*
X220766751Y-53319250D01*
X221193249Y-53319250D01*
X221195694Y-53319250D01*
X221232569Y-53316348D01*
X221390398Y-53270494D01*
X221531865Y-53186831D01*
X221648081Y-53070615D01*
X221731744Y-52929148D01*
X221777598Y-52771319D01*
X221778947Y-52754166D01*
X221803829Y-52688880D01*
X221860059Y-52647407D01*
X221929784Y-52642918D01*
X221965686Y-52657162D01*
X221972401Y-52661133D01*
X221972402Y-52661134D01*
X222110607Y-52742868D01*
X222264796Y-52787664D01*
X222300819Y-52790499D01*
X222799180Y-52790498D01*
X222835204Y-52787664D01*
X222989393Y-52742868D01*
X223127598Y-52661134D01*
X223241135Y-52547597D01*
X223322869Y-52409392D01*
X223367665Y-52255203D01*
X223370500Y-52219180D01*
X223370499Y-51820819D01*
X223367665Y-51784795D01*
X223322869Y-51630606D01*
X223288870Y-51573116D01*
X223271688Y-51505396D01*
X223288870Y-51446879D01*
X223322869Y-51389392D01*
X223367665Y-51235203D01*
X223370500Y-51199180D01*
X223370499Y-50800819D01*
X223367665Y-50764795D01*
X223322869Y-50610606D01*
X223318499Y-50595563D01*
X223322951Y-50594269D01*
X223313086Y-50555447D01*
X223321900Y-50525425D01*
X223318499Y-50524437D01*
X223367664Y-50355207D01*
X223367665Y-50355205D01*
X223370500Y-50319182D01*
X223370499Y-49920821D01*
X223367665Y-49884797D01*
X223322869Y-49730608D01*
X223288580Y-49672628D01*
X223271398Y-49604906D01*
X223288581Y-49546387D01*
X223322405Y-49489194D01*
X223362844Y-49350001D01*
X222810409Y-49350001D01*
X222802178Y-49349677D01*
X222804045Y-49349788D01*
X222801616Y-49349692D01*
X222799181Y-49349501D01*
X222796735Y-49349501D01*
X222303243Y-49349501D01*
X222303217Y-49349501D01*
X222300820Y-49349502D01*
X222298412Y-49349691D01*
X222295962Y-49349788D01*
X222297828Y-49349678D01*
X222289608Y-49350001D01*
X221737156Y-49350001D01*
X221777595Y-49489196D01*
X221811418Y-49546388D01*
X221828601Y-49614112D01*
X221811419Y-49672628D01*
X221777130Y-49730608D01*
X221732335Y-49884794D01*
X221729691Y-49918385D01*
X221729690Y-49918401D01*
X221729500Y-49920820D01*
X221729500Y-49923264D01*
X221729500Y-49923265D01*
X221729500Y-50316757D01*
X221729500Y-50316782D01*
X221729501Y-50319181D01*
X221729689Y-50321572D01*
X221729690Y-50321594D01*
X221732335Y-50355206D01*
X221781501Y-50524436D01*
X221777049Y-50525729D01*
X221786912Y-50564609D01*
X221778112Y-50594579D01*
X221781501Y-50595564D01*
X221728790Y-50776996D01*
X221727061Y-50776493D01*
X221707660Y-50827392D01*
X221651428Y-50868861D01*
X221581702Y-50873345D01*
X221547720Y-50854630D01*
X221545348Y-50858643D01*
X221390397Y-50767005D01*
X221232572Y-50721152D01*
X221198128Y-50718441D01*
X221198114Y-50718440D01*
X221195694Y-50718250D01*
X220764306Y-50718250D01*
X220761886Y-50718440D01*
X220761871Y-50718441D01*
X220727427Y-50721152D01*
X220569602Y-50767005D01*
X220414652Y-50858643D01*
X220413456Y-50856621D01*
X220371349Y-50879609D01*
X220301658Y-50874619D01*
X220275747Y-50857967D01*
X220275348Y-50858643D01*
X220120397Y-50767005D01*
X219962572Y-50721152D01*
X219928128Y-50718441D01*
X219928114Y-50718440D01*
X219925694Y-50718250D01*
X219494306Y-50718250D01*
X219491886Y-50718440D01*
X219491871Y-50718441D01*
X219457427Y-50721152D01*
X219299602Y-50767005D01*
X219144652Y-50858643D01*
X219143456Y-50856621D01*
X219101349Y-50879609D01*
X219031658Y-50874619D01*
X219005747Y-50857967D01*
X219005348Y-50858643D01*
X218850397Y-50767005D01*
X218692572Y-50721152D01*
X218658128Y-50718441D01*
X218658114Y-50718440D01*
X218655694Y-50718250D01*
X218224306Y-50718250D01*
X218221886Y-50718440D01*
X218221871Y-50718441D01*
X218187427Y-50721152D01*
X218029602Y-50767005D01*
X217874652Y-50858643D01*
X217873456Y-50856621D01*
X217831349Y-50879609D01*
X217761658Y-50874619D01*
X217735747Y-50857967D01*
X217735348Y-50858643D01*
X217580397Y-50767005D01*
X217422572Y-50721152D01*
X217388128Y-50718441D01*
X217388114Y-50718440D01*
X217385694Y-50718250D01*
X216954306Y-50718250D01*
X216951886Y-50718440D01*
X216951871Y-50718441D01*
X216917427Y-50721152D01*
X216759602Y-50767005D01*
X216618134Y-50850669D01*
X216501919Y-50966884D01*
X216418255Y-51108352D01*
X216386882Y-51216337D01*
X216349275Y-51275222D01*
X216285802Y-51304428D01*
X216226853Y-51298783D01*
X216129255Y-51264632D01*
X216129253Y-51264631D01*
X216129251Y-51264631D01*
X215950000Y-51244434D01*
X215770748Y-51264631D01*
X215770745Y-51264631D01*
X215770745Y-51264632D01*
X215600478Y-51324211D01*
X215600476Y-51324211D01*
X215600476Y-51324212D01*
X215447735Y-51420185D01*
X215320185Y-51547735D01*
X215268113Y-51630608D01*
X215224211Y-51700478D01*
X215221242Y-51708964D01*
X215164631Y-51870748D01*
X215144434Y-52050000D01*
X215164631Y-52229251D01*
X215164631Y-52229253D01*
X215164632Y-52229255D01*
X215218971Y-52384547D01*
X215222532Y-52454324D01*
X215187803Y-52514952D01*
X215125810Y-52547179D01*
X215101929Y-52549500D01*
X213412821Y-52549500D01*
X213345782Y-52529815D01*
X213300027Y-52477011D01*
X213290083Y-52407853D01*
X213319108Y-52344297D01*
X213325140Y-52337819D01*
X215346223Y-50316736D01*
X216812957Y-48850001D01*
X221737156Y-48850001D01*
X222300000Y-48850001D01*
X222300000Y-48850000D01*
X222799999Y-48850000D01*
X222800000Y-48850001D01*
X223362844Y-48850001D01*
X223322404Y-48710805D01*
X223240735Y-48572710D01*
X223127290Y-48459265D01*
X222989192Y-48377594D01*
X222835128Y-48332834D01*
X222800000Y-48330069D01*
X222799999Y-48850000D01*
X222300000Y-48850000D01*
X222300000Y-48330069D01*
X222299999Y-48330069D01*
X222264871Y-48332834D01*
X222110807Y-48377594D01*
X221972709Y-48459265D01*
X221859264Y-48572710D01*
X221777595Y-48710805D01*
X221737156Y-48850001D01*
X216812957Y-48850001D01*
X217561044Y-48101914D01*
X217573234Y-48091225D01*
X217598282Y-48072006D01*
X217694536Y-47946565D01*
X217755044Y-47800486D01*
X217770500Y-47683085D01*
X217770499Y-47683085D01*
X217775682Y-47643724D01*
X217771560Y-47612416D01*
X217770499Y-47596232D01*
X217770499Y-47282966D01*
X217770499Y-46134652D01*
X217790184Y-46067617D01*
X217842988Y-46021862D01*
X217912146Y-46011918D01*
X217957620Y-46027924D01*
X218029602Y-46070494D01*
X218187427Y-46116347D01*
X218187431Y-46116348D01*
X218224306Y-46119250D01*
X218226751Y-46119250D01*
X218653249Y-46119250D01*
X218655694Y-46119250D01*
X218692569Y-46116348D01*
X218850398Y-46070494D01*
X218991865Y-45986831D01*
X218991865Y-45986830D01*
X219005348Y-45978857D01*
X219006543Y-45980879D01*
X219048642Y-45957892D01*
X219118334Y-45962876D01*
X219144252Y-45979533D01*
X219144652Y-45978857D01*
X219158134Y-45986830D01*
X219158135Y-45986831D01*
X219227620Y-46027924D01*
X219299602Y-46070494D01*
X219457427Y-46116347D01*
X219457431Y-46116348D01*
X219494306Y-46119250D01*
X219496751Y-46119250D01*
X219923249Y-46119250D01*
X219925694Y-46119250D01*
X219962569Y-46116348D01*
X220120398Y-46070494D01*
X220219445Y-46011918D01*
X220275349Y-45978857D01*
X220276473Y-45980758D01*
X220318986Y-45957541D01*
X220388678Y-45962520D01*
X220414552Y-45979147D01*
X220414960Y-45978459D01*
X220569799Y-46070030D01*
X220727511Y-46115849D01*
X220729999Y-46116045D01*
X220730000Y-46116044D01*
X220730000Y-45068750D01*
X221230000Y-45068750D01*
X221230000Y-46116045D01*
X221232488Y-46115849D01*
X221390200Y-46070030D01*
X221531557Y-45986432D01*
X221647682Y-45870307D01*
X221731282Y-45728947D01*
X221777099Y-45571243D01*
X221779808Y-45536826D01*
X221780000Y-45531946D01*
X221780000Y-45068750D01*
X221230000Y-45068750D01*
X220730000Y-45068750D01*
X220730000Y-44124747D01*
X220702833Y-44074993D01*
X220700000Y-44048637D01*
X220700000Y-43560000D01*
X221230000Y-43560000D01*
X221230000Y-44568750D01*
X221780000Y-44568750D01*
X221780000Y-44105553D01*
X221779808Y-44100673D01*
X221777099Y-44066256D01*
X221731283Y-43908555D01*
X221699149Y-43854220D01*
X221681966Y-43786496D01*
X221699151Y-43727974D01*
X221712031Y-43706195D01*
X221754504Y-43560000D01*
X221230000Y-43560000D01*
X220700000Y-43560000D01*
X220113932Y-43560000D01*
X220079337Y-43555076D01*
X219962572Y-43521152D01*
X219928128Y-43518441D01*
X219928114Y-43518440D01*
X219925694Y-43518250D01*
X219494306Y-43518250D01*
X219491879Y-43518440D01*
X219491853Y-43518442D01*
X219487148Y-43518812D01*
X219418772Y-43504438D01*
X219389755Y-43482874D01*
X218772095Y-42865214D01*
X218761399Y-42853018D01*
X218742177Y-42827966D01*
X218616736Y-42731713D01*
X218470658Y-42671206D01*
X218353257Y-42655750D01*
X218313896Y-42650567D01*
X218286059Y-42654232D01*
X218282593Y-42654689D01*
X218266409Y-42655750D01*
X216777906Y-42655750D01*
X216761721Y-42654689D01*
X216757795Y-42654172D01*
X216730418Y-42650567D01*
X216695160Y-42655209D01*
X216691058Y-42655750D01*
X216632357Y-42663478D01*
X216573656Y-42671206D01*
X216427580Y-42731712D01*
X216408445Y-42746395D01*
X216302137Y-42827968D01*
X216302135Y-42827969D01*
X216302134Y-42827971D01*
X216282909Y-42853024D01*
X216272217Y-42865215D01*
X215778965Y-43358467D01*
X215766774Y-43369159D01*
X215741718Y-43388386D01*
X215645183Y-43514190D01*
X215643906Y-43517586D01*
X215584956Y-43659906D01*
X215564317Y-43816668D01*
X215568439Y-43847970D01*
X215569500Y-43864156D01*
X215569500Y-47282966D01*
X215549815Y-47350005D01*
X215533181Y-47370647D01*
X211440648Y-51463181D01*
X211379325Y-51496666D01*
X211352967Y-51499500D01*
X200808326Y-51499500D01*
X200792141Y-51498439D01*
X200788215Y-51497922D01*
X200760838Y-51494317D01*
X200582750Y-51517762D01*
X200581943Y-51518910D01*
X200552170Y-51536456D01*
X200457996Y-51575464D01*
X200332555Y-51671718D01*
X200313333Y-51696770D01*
X200302639Y-51708964D01*
X199276666Y-52734937D01*
X199215343Y-52768422D01*
X199145651Y-52763438D01*
X199123013Y-52752250D01*
X199022160Y-52688880D01*
X198968543Y-52655190D01*
X198798276Y-52595611D01*
X198798274Y-52595610D01*
X198798272Y-52595610D01*
X198619021Y-52575413D01*
X198439769Y-52595610D01*
X198439766Y-52595610D01*
X198439766Y-52595611D01*
X198269499Y-52655190D01*
X198269497Y-52655190D01*
X198269497Y-52655191D01*
X198116756Y-52751164D01*
X197989206Y-52878714D01*
X197893230Y-53031459D01*
X197839972Y-53183663D01*
X197810612Y-53230389D01*
X197800342Y-53240659D01*
X197743503Y-53273081D01*
X197733555Y-53275635D01*
X197591744Y-53353595D01*
X197565898Y-53375670D01*
X197565883Y-53375683D01*
X197564054Y-53377246D01*
X197562346Y-53378953D01*
X197562333Y-53378966D01*
X197233872Y-53707427D01*
X197233859Y-53707440D01*
X197232152Y-53709148D01*
X197230589Y-53710977D01*
X197230576Y-53710992D01*
X197208501Y-53736838D01*
X197148928Y-53845204D01*
X197099382Y-53894468D01*
X197071104Y-53905571D01*
X196951717Y-53936224D01*
X196809907Y-54014184D01*
X196784061Y-54036259D01*
X196784046Y-54036272D01*
X196782217Y-54037835D01*
X196780510Y-54039541D01*
X196780497Y-54039554D01*
X196494461Y-54325590D01*
X196494448Y-54325603D01*
X196492741Y-54327311D01*
X196491178Y-54329140D01*
X196491165Y-54329155D01*
X196469090Y-54355001D01*
X196391130Y-54496812D01*
X196385069Y-54520418D01*
X196349328Y-54580454D01*
X196295807Y-54609678D01*
X196273086Y-54615512D01*
X196139671Y-54688856D01*
X196356153Y-54905338D01*
X196388576Y-54962179D01*
X196391130Y-54972128D01*
X196469090Y-55113938D01*
X196469091Y-55113939D01*
X196492741Y-55141629D01*
X196494459Y-55143347D01*
X196494460Y-55143348D01*
X196593676Y-55242564D01*
X196627161Y-55303887D01*
X196622177Y-55373579D01*
X196593676Y-55417926D01*
X195788965Y-56222638D01*
X195776773Y-56233331D01*
X195751717Y-56252557D01*
X195669214Y-56360080D01*
X195655463Y-56377999D01*
X195601094Y-56509259D01*
X195557253Y-56563662D01*
X195490959Y-56585727D01*
X195479128Y-56585585D01*
X195469349Y-56585000D01*
X195299500Y-56585000D01*
X195232461Y-56565315D01*
X195186706Y-56512511D01*
X195175500Y-56461000D01*
X195175500Y-55494145D01*
X195672564Y-55494145D01*
X195712776Y-55650763D01*
X195790676Y-55792463D01*
X195804301Y-55808417D01*
X196178213Y-55434504D01*
X195786118Y-55042409D01*
X195712775Y-55175821D01*
X195672564Y-55332438D01*
X195672564Y-55494145D01*
X195175500Y-55494145D01*
X195175500Y-53612596D01*
X195195185Y-53545557D01*
X195211814Y-53524920D01*
X195218396Y-53518338D01*
X196411975Y-53518338D01*
X196452187Y-53674957D01*
X196525528Y-53808366D01*
X196525529Y-53808366D01*
X196917625Y-53416271D01*
X196917625Y-53416270D01*
X196543712Y-53042359D01*
X196530086Y-53058314D01*
X196452187Y-53200013D01*
X196411975Y-53356631D01*
X196411975Y-53518338D01*
X195218396Y-53518338D01*
X195541043Y-53195691D01*
X195553223Y-53185010D01*
X195578282Y-53165783D01*
X195674536Y-53040342D01*
X195735044Y-52894263D01*
X195735044Y-52894262D01*
X195741291Y-52879181D01*
X195741974Y-52879464D01*
X195763141Y-52831609D01*
X195793667Y-52805569D01*
X195835185Y-52780472D01*
X195926851Y-52688806D01*
X196897264Y-52688806D01*
X197271176Y-53062719D01*
X197271177Y-53062719D01*
X197663272Y-52670623D01*
X197663272Y-52670622D01*
X197529863Y-52597281D01*
X197373244Y-52557069D01*
X197211538Y-52557069D01*
X197054919Y-52597281D01*
X196913220Y-52675180D01*
X196897264Y-52688806D01*
X195926851Y-52688806D01*
X195955472Y-52660185D01*
X196043478Y-52514606D01*
X196094086Y-52352196D01*
X196100500Y-52281616D01*
X196100500Y-51768384D01*
X196094086Y-51697804D01*
X196043478Y-51535394D01*
X195955472Y-51389815D01*
X195955471Y-51389813D01*
X195853339Y-51287681D01*
X195819854Y-51226358D01*
X195824838Y-51156666D01*
X195853339Y-51112319D01*
X195955471Y-51010186D01*
X195955472Y-51010185D01*
X196043478Y-50864606D01*
X196094086Y-50702196D01*
X196100500Y-50631616D01*
X196100500Y-50118384D01*
X196094086Y-50047804D01*
X196043478Y-49885394D01*
X195955472Y-49739815D01*
X195955471Y-49739813D01*
X195835186Y-49619528D01*
X195714197Y-49546388D01*
X195689606Y-49531522D01*
X195689605Y-49531521D01*
X195676721Y-49523733D01*
X195677836Y-49521887D01*
X195636514Y-49494355D01*
X195616996Y-49462165D01*
X195574536Y-49359658D01*
X195502450Y-49265713D01*
X195502448Y-49265711D01*
X195478281Y-49234216D01*
X195453233Y-49214996D01*
X195441038Y-49204301D01*
X195061819Y-48825082D01*
X195028334Y-48763759D01*
X195025500Y-48737401D01*
X195025500Y-43654408D01*
X200241116Y-43654408D01*
X200280201Y-43819322D01*
X200356265Y-43970779D01*
X200417295Y-44045697D01*
X200421542Y-44050400D01*
X200435786Y-44064643D01*
X200948439Y-43551990D01*
X200453464Y-43057017D01*
X200453463Y-43057017D01*
X200421531Y-43088949D01*
X200417312Y-43093622D01*
X200356263Y-43168563D01*
X200280202Y-43320013D01*
X200241116Y-43484930D01*
X200241116Y-43654408D01*
X195025500Y-43654408D01*
X195025500Y-40124000D01*
X195045185Y-40056961D01*
X195097989Y-40011206D01*
X195149500Y-40000000D01*
X198977608Y-40000000D01*
X199044647Y-40019685D01*
G37*
%TD.AperFunction*%
%TD*%
M02*
