%TF.GenerationSoftware,KiCad,Pcbnew,7.0.2*%
%TF.CreationDate,2023-06-06T09:56:26-04:00*%
%TF.ProjectId,arisu,61726973-752e-46b6-9963-61645f706362,1.1*%
%TF.SameCoordinates,Original*%
%TF.FileFunction,Other,Comment*%
%FSLAX46Y46*%
G04 Gerber Fmt 4.6, Leading zero omitted, Abs format (unit mm)*
G04 Created by KiCad (PCBNEW 7.0.2) date 2023-06-06 09:56:26*
%MOMM*%
%LPD*%
G01*
G04 APERTURE LIST*
%ADD10C,0.150000*%
G04 APERTURE END LIST*
D10*
X400333333Y-35645952D02*
X400333333Y-36312619D01*
X400095238Y-35265000D02*
X399857143Y-35979285D01*
X399857143Y-35979285D02*
X400476190Y-35979285D01*
X400857143Y-36217380D02*
X400904762Y-36265000D01*
X400904762Y-36265000D02*
X400857143Y-36312619D01*
X400857143Y-36312619D02*
X400809524Y-36265000D01*
X400809524Y-36265000D02*
X400857143Y-36217380D01*
X400857143Y-36217380D02*
X400857143Y-36312619D01*
X401523809Y-35312619D02*
X401619047Y-35312619D01*
X401619047Y-35312619D02*
X401714285Y-35360238D01*
X401714285Y-35360238D02*
X401761904Y-35407857D01*
X401761904Y-35407857D02*
X401809523Y-35503095D01*
X401809523Y-35503095D02*
X401857142Y-35693571D01*
X401857142Y-35693571D02*
X401857142Y-35931666D01*
X401857142Y-35931666D02*
X401809523Y-36122142D01*
X401809523Y-36122142D02*
X401761904Y-36217380D01*
X401761904Y-36217380D02*
X401714285Y-36265000D01*
X401714285Y-36265000D02*
X401619047Y-36312619D01*
X401619047Y-36312619D02*
X401523809Y-36312619D01*
X401523809Y-36312619D02*
X401428571Y-36265000D01*
X401428571Y-36265000D02*
X401380952Y-36217380D01*
X401380952Y-36217380D02*
X401333333Y-36122142D01*
X401333333Y-36122142D02*
X401285714Y-35931666D01*
X401285714Y-35931666D02*
X401285714Y-35693571D01*
X401285714Y-35693571D02*
X401333333Y-35503095D01*
X401333333Y-35503095D02*
X401380952Y-35407857D01*
X401380952Y-35407857D02*
X401428571Y-35360238D01*
X401428571Y-35360238D02*
X401523809Y-35312619D01*
X402476190Y-35312619D02*
X402571428Y-35312619D01*
X402571428Y-35312619D02*
X402666666Y-35360238D01*
X402666666Y-35360238D02*
X402714285Y-35407857D01*
X402714285Y-35407857D02*
X402761904Y-35503095D01*
X402761904Y-35503095D02*
X402809523Y-35693571D01*
X402809523Y-35693571D02*
X402809523Y-35931666D01*
X402809523Y-35931666D02*
X402761904Y-36122142D01*
X402761904Y-36122142D02*
X402714285Y-36217380D01*
X402714285Y-36217380D02*
X402666666Y-36265000D01*
X402666666Y-36265000D02*
X402571428Y-36312619D01*
X402571428Y-36312619D02*
X402476190Y-36312619D01*
X402476190Y-36312619D02*
X402380952Y-36265000D01*
X402380952Y-36265000D02*
X402333333Y-36217380D01*
X402333333Y-36217380D02*
X402285714Y-36122142D01*
X402285714Y-36122142D02*
X402238095Y-35931666D01*
X402238095Y-35931666D02*
X402238095Y-35693571D01*
X402238095Y-35693571D02*
X402285714Y-35503095D01*
X402285714Y-35503095D02*
X402333333Y-35407857D01*
X402333333Y-35407857D02*
X402380952Y-35360238D01*
X402380952Y-35360238D02*
X402476190Y-35312619D01*
X403428571Y-35312619D02*
X403523809Y-35312619D01*
X403523809Y-35312619D02*
X403619047Y-35360238D01*
X403619047Y-35360238D02*
X403666666Y-35407857D01*
X403666666Y-35407857D02*
X403714285Y-35503095D01*
X403714285Y-35503095D02*
X403761904Y-35693571D01*
X403761904Y-35693571D02*
X403761904Y-35931666D01*
X403761904Y-35931666D02*
X403714285Y-36122142D01*
X403714285Y-36122142D02*
X403666666Y-36217380D01*
X403666666Y-36217380D02*
X403619047Y-36265000D01*
X403619047Y-36265000D02*
X403523809Y-36312619D01*
X403523809Y-36312619D02*
X403428571Y-36312619D01*
X403428571Y-36312619D02*
X403333333Y-36265000D01*
X403333333Y-36265000D02*
X403285714Y-36217380D01*
X403285714Y-36217380D02*
X403238095Y-36122142D01*
X403238095Y-36122142D02*
X403190476Y-35931666D01*
X403190476Y-35931666D02*
X403190476Y-35693571D01*
X403190476Y-35693571D02*
X403238095Y-35503095D01*
X403238095Y-35503095D02*
X403285714Y-35407857D01*
X403285714Y-35407857D02*
X403333333Y-35360238D01*
X403333333Y-35360238D02*
X403428571Y-35312619D01*
X404380952Y-35312619D02*
X404476190Y-35312619D01*
X404476190Y-35312619D02*
X404571428Y-35360238D01*
X404571428Y-35360238D02*
X404619047Y-35407857D01*
X404619047Y-35407857D02*
X404666666Y-35503095D01*
X404666666Y-35503095D02*
X404714285Y-35693571D01*
X404714285Y-35693571D02*
X404714285Y-35931666D01*
X404714285Y-35931666D02*
X404666666Y-36122142D01*
X404666666Y-36122142D02*
X404619047Y-36217380D01*
X404619047Y-36217380D02*
X404571428Y-36265000D01*
X404571428Y-36265000D02*
X404476190Y-36312619D01*
X404476190Y-36312619D02*
X404380952Y-36312619D01*
X404380952Y-36312619D02*
X404285714Y-36265000D01*
X404285714Y-36265000D02*
X404238095Y-36217380D01*
X404238095Y-36217380D02*
X404190476Y-36122142D01*
X404190476Y-36122142D02*
X404142857Y-35931666D01*
X404142857Y-35931666D02*
X404142857Y-35693571D01*
X404142857Y-35693571D02*
X404190476Y-35503095D01*
X404190476Y-35503095D02*
X404238095Y-35407857D01*
X404238095Y-35407857D02*
X404285714Y-35360238D01*
X404285714Y-35360238D02*
X404380952Y-35312619D01*
X405904762Y-36312619D02*
X405904762Y-35645952D01*
X405904762Y-35741190D02*
X405952381Y-35693571D01*
X405952381Y-35693571D02*
X406047619Y-35645952D01*
X406047619Y-35645952D02*
X406190476Y-35645952D01*
X406190476Y-35645952D02*
X406285714Y-35693571D01*
X406285714Y-35693571D02*
X406333333Y-35788809D01*
X406333333Y-35788809D02*
X406333333Y-36312619D01*
X406333333Y-35788809D02*
X406380952Y-35693571D01*
X406380952Y-35693571D02*
X406476190Y-35645952D01*
X406476190Y-35645952D02*
X406619047Y-35645952D01*
X406619047Y-35645952D02*
X406714286Y-35693571D01*
X406714286Y-35693571D02*
X406761905Y-35788809D01*
X406761905Y-35788809D02*
X406761905Y-36312619D01*
X407238095Y-36312619D02*
X407238095Y-35645952D01*
X407238095Y-35741190D02*
X407285714Y-35693571D01*
X407285714Y-35693571D02*
X407380952Y-35645952D01*
X407380952Y-35645952D02*
X407523809Y-35645952D01*
X407523809Y-35645952D02*
X407619047Y-35693571D01*
X407619047Y-35693571D02*
X407666666Y-35788809D01*
X407666666Y-35788809D02*
X407666666Y-36312619D01*
X407666666Y-35788809D02*
X407714285Y-35693571D01*
X407714285Y-35693571D02*
X407809523Y-35645952D01*
X407809523Y-35645952D02*
X407952380Y-35645952D01*
X407952380Y-35645952D02*
X408047619Y-35693571D01*
X408047619Y-35693571D02*
X408095238Y-35788809D01*
X408095238Y-35788809D02*
X408095238Y-36312619D01*
X406000000Y-37500000D02*
X406000000Y-37586420D01*
X402000000Y-37500000D02*
X402000000Y-37586420D01*
X406000000Y-37000000D02*
X402000000Y-37000000D01*
X406000000Y-37000000D02*
X402000000Y-37000000D01*
X406000000Y-37000000D02*
X404873496Y-37586421D01*
X406000000Y-37000000D02*
X404873496Y-36413579D01*
X402000000Y-37000000D02*
X403126504Y-36413579D01*
X402000000Y-37000000D02*
X403126504Y-37586421D01*
X217145952Y-191666666D02*
X217812619Y-191666666D01*
X216765000Y-191904761D02*
X217479285Y-192142856D01*
X217479285Y-192142856D02*
X217479285Y-191523809D01*
X217717380Y-191142856D02*
X217765000Y-191095237D01*
X217765000Y-191095237D02*
X217812619Y-191142856D01*
X217812619Y-191142856D02*
X217765000Y-191190475D01*
X217765000Y-191190475D02*
X217717380Y-191142856D01*
X217717380Y-191142856D02*
X217812619Y-191142856D01*
X216812619Y-190476190D02*
X216812619Y-190380952D01*
X216812619Y-190380952D02*
X216860238Y-190285714D01*
X216860238Y-190285714D02*
X216907857Y-190238095D01*
X216907857Y-190238095D02*
X217003095Y-190190476D01*
X217003095Y-190190476D02*
X217193571Y-190142857D01*
X217193571Y-190142857D02*
X217431666Y-190142857D01*
X217431666Y-190142857D02*
X217622142Y-190190476D01*
X217622142Y-190190476D02*
X217717380Y-190238095D01*
X217717380Y-190238095D02*
X217765000Y-190285714D01*
X217765000Y-190285714D02*
X217812619Y-190380952D01*
X217812619Y-190380952D02*
X217812619Y-190476190D01*
X217812619Y-190476190D02*
X217765000Y-190571428D01*
X217765000Y-190571428D02*
X217717380Y-190619047D01*
X217717380Y-190619047D02*
X217622142Y-190666666D01*
X217622142Y-190666666D02*
X217431666Y-190714285D01*
X217431666Y-190714285D02*
X217193571Y-190714285D01*
X217193571Y-190714285D02*
X217003095Y-190666666D01*
X217003095Y-190666666D02*
X216907857Y-190619047D01*
X216907857Y-190619047D02*
X216860238Y-190571428D01*
X216860238Y-190571428D02*
X216812619Y-190476190D01*
X216812619Y-189523809D02*
X216812619Y-189428571D01*
X216812619Y-189428571D02*
X216860238Y-189333333D01*
X216860238Y-189333333D02*
X216907857Y-189285714D01*
X216907857Y-189285714D02*
X217003095Y-189238095D01*
X217003095Y-189238095D02*
X217193571Y-189190476D01*
X217193571Y-189190476D02*
X217431666Y-189190476D01*
X217431666Y-189190476D02*
X217622142Y-189238095D01*
X217622142Y-189238095D02*
X217717380Y-189285714D01*
X217717380Y-189285714D02*
X217765000Y-189333333D01*
X217765000Y-189333333D02*
X217812619Y-189428571D01*
X217812619Y-189428571D02*
X217812619Y-189523809D01*
X217812619Y-189523809D02*
X217765000Y-189619047D01*
X217765000Y-189619047D02*
X217717380Y-189666666D01*
X217717380Y-189666666D02*
X217622142Y-189714285D01*
X217622142Y-189714285D02*
X217431666Y-189761904D01*
X217431666Y-189761904D02*
X217193571Y-189761904D01*
X217193571Y-189761904D02*
X217003095Y-189714285D01*
X217003095Y-189714285D02*
X216907857Y-189666666D01*
X216907857Y-189666666D02*
X216860238Y-189619047D01*
X216860238Y-189619047D02*
X216812619Y-189523809D01*
X216812619Y-188571428D02*
X216812619Y-188476190D01*
X216812619Y-188476190D02*
X216860238Y-188380952D01*
X216860238Y-188380952D02*
X216907857Y-188333333D01*
X216907857Y-188333333D02*
X217003095Y-188285714D01*
X217003095Y-188285714D02*
X217193571Y-188238095D01*
X217193571Y-188238095D02*
X217431666Y-188238095D01*
X217431666Y-188238095D02*
X217622142Y-188285714D01*
X217622142Y-188285714D02*
X217717380Y-188333333D01*
X217717380Y-188333333D02*
X217765000Y-188380952D01*
X217765000Y-188380952D02*
X217812619Y-188476190D01*
X217812619Y-188476190D02*
X217812619Y-188571428D01*
X217812619Y-188571428D02*
X217765000Y-188666666D01*
X217765000Y-188666666D02*
X217717380Y-188714285D01*
X217717380Y-188714285D02*
X217622142Y-188761904D01*
X217622142Y-188761904D02*
X217431666Y-188809523D01*
X217431666Y-188809523D02*
X217193571Y-188809523D01*
X217193571Y-188809523D02*
X217003095Y-188761904D01*
X217003095Y-188761904D02*
X216907857Y-188714285D01*
X216907857Y-188714285D02*
X216860238Y-188666666D01*
X216860238Y-188666666D02*
X216812619Y-188571428D01*
X216812619Y-187619047D02*
X216812619Y-187523809D01*
X216812619Y-187523809D02*
X216860238Y-187428571D01*
X216860238Y-187428571D02*
X216907857Y-187380952D01*
X216907857Y-187380952D02*
X217003095Y-187333333D01*
X217003095Y-187333333D02*
X217193571Y-187285714D01*
X217193571Y-187285714D02*
X217431666Y-187285714D01*
X217431666Y-187285714D02*
X217622142Y-187333333D01*
X217622142Y-187333333D02*
X217717380Y-187380952D01*
X217717380Y-187380952D02*
X217765000Y-187428571D01*
X217765000Y-187428571D02*
X217812619Y-187523809D01*
X217812619Y-187523809D02*
X217812619Y-187619047D01*
X217812619Y-187619047D02*
X217765000Y-187714285D01*
X217765000Y-187714285D02*
X217717380Y-187761904D01*
X217717380Y-187761904D02*
X217622142Y-187809523D01*
X217622142Y-187809523D02*
X217431666Y-187857142D01*
X217431666Y-187857142D02*
X217193571Y-187857142D01*
X217193571Y-187857142D02*
X217003095Y-187809523D01*
X217003095Y-187809523D02*
X216907857Y-187761904D01*
X216907857Y-187761904D02*
X216860238Y-187714285D01*
X216860238Y-187714285D02*
X216812619Y-187619047D01*
X217812619Y-186095237D02*
X217145952Y-186095237D01*
X217241190Y-186095237D02*
X217193571Y-186047618D01*
X217193571Y-186047618D02*
X217145952Y-185952380D01*
X217145952Y-185952380D02*
X217145952Y-185809523D01*
X217145952Y-185809523D02*
X217193571Y-185714285D01*
X217193571Y-185714285D02*
X217288809Y-185666666D01*
X217288809Y-185666666D02*
X217812619Y-185666666D01*
X217288809Y-185666666D02*
X217193571Y-185619047D01*
X217193571Y-185619047D02*
X217145952Y-185523809D01*
X217145952Y-185523809D02*
X217145952Y-185380952D01*
X217145952Y-185380952D02*
X217193571Y-185285713D01*
X217193571Y-185285713D02*
X217288809Y-185238094D01*
X217288809Y-185238094D02*
X217812619Y-185238094D01*
X217812619Y-184761904D02*
X217145952Y-184761904D01*
X217241190Y-184761904D02*
X217193571Y-184714285D01*
X217193571Y-184714285D02*
X217145952Y-184619047D01*
X217145952Y-184619047D02*
X217145952Y-184476190D01*
X217145952Y-184476190D02*
X217193571Y-184380952D01*
X217193571Y-184380952D02*
X217288809Y-184333333D01*
X217288809Y-184333333D02*
X217812619Y-184333333D01*
X217288809Y-184333333D02*
X217193571Y-184285714D01*
X217193571Y-184285714D02*
X217145952Y-184190476D01*
X217145952Y-184190476D02*
X217145952Y-184047619D01*
X217145952Y-184047619D02*
X217193571Y-183952380D01*
X217193571Y-183952380D02*
X217288809Y-183904761D01*
X217288809Y-183904761D02*
X217812619Y-183904761D01*
X219000000Y-186000000D02*
X219086420Y-186000000D01*
X219000000Y-190000000D02*
X219086420Y-190000000D01*
X218500000Y-186000000D02*
X218500000Y-190000000D01*
X218500000Y-186000000D02*
X218500000Y-190000000D01*
X218500000Y-186000000D02*
X219086421Y-187126504D01*
X218500000Y-186000000D02*
X217913579Y-187126504D01*
X218500000Y-190000000D02*
X217913579Y-188873496D01*
X218500000Y-190000000D02*
X219086421Y-188873496D01*
X208352381Y-32312619D02*
X207780953Y-32312619D01*
X208066667Y-32312619D02*
X208066667Y-31312619D01*
X208066667Y-31312619D02*
X207971429Y-31455476D01*
X207971429Y-31455476D02*
X207876191Y-31550714D01*
X207876191Y-31550714D02*
X207780953Y-31598333D01*
X208733334Y-31407857D02*
X208780953Y-31360238D01*
X208780953Y-31360238D02*
X208876191Y-31312619D01*
X208876191Y-31312619D02*
X209114286Y-31312619D01*
X209114286Y-31312619D02*
X209209524Y-31360238D01*
X209209524Y-31360238D02*
X209257143Y-31407857D01*
X209257143Y-31407857D02*
X209304762Y-31503095D01*
X209304762Y-31503095D02*
X209304762Y-31598333D01*
X209304762Y-31598333D02*
X209257143Y-31741190D01*
X209257143Y-31741190D02*
X208685715Y-32312619D01*
X208685715Y-32312619D02*
X209304762Y-32312619D01*
X209733334Y-32217380D02*
X209780953Y-32265000D01*
X209780953Y-32265000D02*
X209733334Y-32312619D01*
X209733334Y-32312619D02*
X209685715Y-32265000D01*
X209685715Y-32265000D02*
X209733334Y-32217380D01*
X209733334Y-32217380D02*
X209733334Y-32312619D01*
X210400000Y-31312619D02*
X210495238Y-31312619D01*
X210495238Y-31312619D02*
X210590476Y-31360238D01*
X210590476Y-31360238D02*
X210638095Y-31407857D01*
X210638095Y-31407857D02*
X210685714Y-31503095D01*
X210685714Y-31503095D02*
X210733333Y-31693571D01*
X210733333Y-31693571D02*
X210733333Y-31931666D01*
X210733333Y-31931666D02*
X210685714Y-32122142D01*
X210685714Y-32122142D02*
X210638095Y-32217380D01*
X210638095Y-32217380D02*
X210590476Y-32265000D01*
X210590476Y-32265000D02*
X210495238Y-32312619D01*
X210495238Y-32312619D02*
X210400000Y-32312619D01*
X210400000Y-32312619D02*
X210304762Y-32265000D01*
X210304762Y-32265000D02*
X210257143Y-32217380D01*
X210257143Y-32217380D02*
X210209524Y-32122142D01*
X210209524Y-32122142D02*
X210161905Y-31931666D01*
X210161905Y-31931666D02*
X210161905Y-31693571D01*
X210161905Y-31693571D02*
X210209524Y-31503095D01*
X210209524Y-31503095D02*
X210257143Y-31407857D01*
X210257143Y-31407857D02*
X210304762Y-31360238D01*
X210304762Y-31360238D02*
X210400000Y-31312619D01*
X211352381Y-31312619D02*
X211447619Y-31312619D01*
X211447619Y-31312619D02*
X211542857Y-31360238D01*
X211542857Y-31360238D02*
X211590476Y-31407857D01*
X211590476Y-31407857D02*
X211638095Y-31503095D01*
X211638095Y-31503095D02*
X211685714Y-31693571D01*
X211685714Y-31693571D02*
X211685714Y-31931666D01*
X211685714Y-31931666D02*
X211638095Y-32122142D01*
X211638095Y-32122142D02*
X211590476Y-32217380D01*
X211590476Y-32217380D02*
X211542857Y-32265000D01*
X211542857Y-32265000D02*
X211447619Y-32312619D01*
X211447619Y-32312619D02*
X211352381Y-32312619D01*
X211352381Y-32312619D02*
X211257143Y-32265000D01*
X211257143Y-32265000D02*
X211209524Y-32217380D01*
X211209524Y-32217380D02*
X211161905Y-32122142D01*
X211161905Y-32122142D02*
X211114286Y-31931666D01*
X211114286Y-31931666D02*
X211114286Y-31693571D01*
X211114286Y-31693571D02*
X211161905Y-31503095D01*
X211161905Y-31503095D02*
X211209524Y-31407857D01*
X211209524Y-31407857D02*
X211257143Y-31360238D01*
X211257143Y-31360238D02*
X211352381Y-31312619D01*
X212304762Y-31312619D02*
X212400000Y-31312619D01*
X212400000Y-31312619D02*
X212495238Y-31360238D01*
X212495238Y-31360238D02*
X212542857Y-31407857D01*
X212542857Y-31407857D02*
X212590476Y-31503095D01*
X212590476Y-31503095D02*
X212638095Y-31693571D01*
X212638095Y-31693571D02*
X212638095Y-31931666D01*
X212638095Y-31931666D02*
X212590476Y-32122142D01*
X212590476Y-32122142D02*
X212542857Y-32217380D01*
X212542857Y-32217380D02*
X212495238Y-32265000D01*
X212495238Y-32265000D02*
X212400000Y-32312619D01*
X212400000Y-32312619D02*
X212304762Y-32312619D01*
X212304762Y-32312619D02*
X212209524Y-32265000D01*
X212209524Y-32265000D02*
X212161905Y-32217380D01*
X212161905Y-32217380D02*
X212114286Y-32122142D01*
X212114286Y-32122142D02*
X212066667Y-31931666D01*
X212066667Y-31931666D02*
X212066667Y-31693571D01*
X212066667Y-31693571D02*
X212114286Y-31503095D01*
X212114286Y-31503095D02*
X212161905Y-31407857D01*
X212161905Y-31407857D02*
X212209524Y-31360238D01*
X212209524Y-31360238D02*
X212304762Y-31312619D01*
X213257143Y-31312619D02*
X213352381Y-31312619D01*
X213352381Y-31312619D02*
X213447619Y-31360238D01*
X213447619Y-31360238D02*
X213495238Y-31407857D01*
X213495238Y-31407857D02*
X213542857Y-31503095D01*
X213542857Y-31503095D02*
X213590476Y-31693571D01*
X213590476Y-31693571D02*
X213590476Y-31931666D01*
X213590476Y-31931666D02*
X213542857Y-32122142D01*
X213542857Y-32122142D02*
X213495238Y-32217380D01*
X213495238Y-32217380D02*
X213447619Y-32265000D01*
X213447619Y-32265000D02*
X213352381Y-32312619D01*
X213352381Y-32312619D02*
X213257143Y-32312619D01*
X213257143Y-32312619D02*
X213161905Y-32265000D01*
X213161905Y-32265000D02*
X213114286Y-32217380D01*
X213114286Y-32217380D02*
X213066667Y-32122142D01*
X213066667Y-32122142D02*
X213019048Y-31931666D01*
X213019048Y-31931666D02*
X213019048Y-31693571D01*
X213019048Y-31693571D02*
X213066667Y-31503095D01*
X213066667Y-31503095D02*
X213114286Y-31407857D01*
X213114286Y-31407857D02*
X213161905Y-31360238D01*
X213161905Y-31360238D02*
X213257143Y-31312619D01*
X214780953Y-32312619D02*
X214780953Y-31645952D01*
X214780953Y-31741190D02*
X214828572Y-31693571D01*
X214828572Y-31693571D02*
X214923810Y-31645952D01*
X214923810Y-31645952D02*
X215066667Y-31645952D01*
X215066667Y-31645952D02*
X215161905Y-31693571D01*
X215161905Y-31693571D02*
X215209524Y-31788809D01*
X215209524Y-31788809D02*
X215209524Y-32312619D01*
X215209524Y-31788809D02*
X215257143Y-31693571D01*
X215257143Y-31693571D02*
X215352381Y-31645952D01*
X215352381Y-31645952D02*
X215495238Y-31645952D01*
X215495238Y-31645952D02*
X215590477Y-31693571D01*
X215590477Y-31693571D02*
X215638096Y-31788809D01*
X215638096Y-31788809D02*
X215638096Y-32312619D01*
X216114286Y-32312619D02*
X216114286Y-31645952D01*
X216114286Y-31741190D02*
X216161905Y-31693571D01*
X216161905Y-31693571D02*
X216257143Y-31645952D01*
X216257143Y-31645952D02*
X216400000Y-31645952D01*
X216400000Y-31645952D02*
X216495238Y-31693571D01*
X216495238Y-31693571D02*
X216542857Y-31788809D01*
X216542857Y-31788809D02*
X216542857Y-32312619D01*
X216542857Y-31788809D02*
X216590476Y-31693571D01*
X216590476Y-31693571D02*
X216685714Y-31645952D01*
X216685714Y-31645952D02*
X216828571Y-31645952D01*
X216828571Y-31645952D02*
X216923810Y-31693571D01*
X216923810Y-31693571D02*
X216971429Y-31788809D01*
X216971429Y-31788809D02*
X216971429Y-32312619D01*
X206400000Y-32500000D02*
X206400000Y-32413580D01*
X218400000Y-32500000D02*
X218400000Y-32413580D01*
X206400000Y-33000000D02*
X218400000Y-33000000D01*
X206400000Y-33000000D02*
X218400000Y-33000000D01*
X206400000Y-33000000D02*
X207526504Y-32413579D01*
X206400000Y-33000000D02*
X207526504Y-33586421D01*
X218400000Y-33000000D02*
X217273496Y-33586421D01*
X218400000Y-33000000D02*
X217273496Y-32413579D01*
X400283333Y-141585952D02*
X400283333Y-142252619D01*
X400045238Y-141205000D02*
X399807143Y-141919285D01*
X399807143Y-141919285D02*
X400426190Y-141919285D01*
X400807143Y-142157380D02*
X400854762Y-142205000D01*
X400854762Y-142205000D02*
X400807143Y-142252619D01*
X400807143Y-142252619D02*
X400759524Y-142205000D01*
X400759524Y-142205000D02*
X400807143Y-142157380D01*
X400807143Y-142157380D02*
X400807143Y-142252619D01*
X401473809Y-141252619D02*
X401569047Y-141252619D01*
X401569047Y-141252619D02*
X401664285Y-141300238D01*
X401664285Y-141300238D02*
X401711904Y-141347857D01*
X401711904Y-141347857D02*
X401759523Y-141443095D01*
X401759523Y-141443095D02*
X401807142Y-141633571D01*
X401807142Y-141633571D02*
X401807142Y-141871666D01*
X401807142Y-141871666D02*
X401759523Y-142062142D01*
X401759523Y-142062142D02*
X401711904Y-142157380D01*
X401711904Y-142157380D02*
X401664285Y-142205000D01*
X401664285Y-142205000D02*
X401569047Y-142252619D01*
X401569047Y-142252619D02*
X401473809Y-142252619D01*
X401473809Y-142252619D02*
X401378571Y-142205000D01*
X401378571Y-142205000D02*
X401330952Y-142157380D01*
X401330952Y-142157380D02*
X401283333Y-142062142D01*
X401283333Y-142062142D02*
X401235714Y-141871666D01*
X401235714Y-141871666D02*
X401235714Y-141633571D01*
X401235714Y-141633571D02*
X401283333Y-141443095D01*
X401283333Y-141443095D02*
X401330952Y-141347857D01*
X401330952Y-141347857D02*
X401378571Y-141300238D01*
X401378571Y-141300238D02*
X401473809Y-141252619D01*
X402426190Y-141252619D02*
X402521428Y-141252619D01*
X402521428Y-141252619D02*
X402616666Y-141300238D01*
X402616666Y-141300238D02*
X402664285Y-141347857D01*
X402664285Y-141347857D02*
X402711904Y-141443095D01*
X402711904Y-141443095D02*
X402759523Y-141633571D01*
X402759523Y-141633571D02*
X402759523Y-141871666D01*
X402759523Y-141871666D02*
X402711904Y-142062142D01*
X402711904Y-142062142D02*
X402664285Y-142157380D01*
X402664285Y-142157380D02*
X402616666Y-142205000D01*
X402616666Y-142205000D02*
X402521428Y-142252619D01*
X402521428Y-142252619D02*
X402426190Y-142252619D01*
X402426190Y-142252619D02*
X402330952Y-142205000D01*
X402330952Y-142205000D02*
X402283333Y-142157380D01*
X402283333Y-142157380D02*
X402235714Y-142062142D01*
X402235714Y-142062142D02*
X402188095Y-141871666D01*
X402188095Y-141871666D02*
X402188095Y-141633571D01*
X402188095Y-141633571D02*
X402235714Y-141443095D01*
X402235714Y-141443095D02*
X402283333Y-141347857D01*
X402283333Y-141347857D02*
X402330952Y-141300238D01*
X402330952Y-141300238D02*
X402426190Y-141252619D01*
X403378571Y-141252619D02*
X403473809Y-141252619D01*
X403473809Y-141252619D02*
X403569047Y-141300238D01*
X403569047Y-141300238D02*
X403616666Y-141347857D01*
X403616666Y-141347857D02*
X403664285Y-141443095D01*
X403664285Y-141443095D02*
X403711904Y-141633571D01*
X403711904Y-141633571D02*
X403711904Y-141871666D01*
X403711904Y-141871666D02*
X403664285Y-142062142D01*
X403664285Y-142062142D02*
X403616666Y-142157380D01*
X403616666Y-142157380D02*
X403569047Y-142205000D01*
X403569047Y-142205000D02*
X403473809Y-142252619D01*
X403473809Y-142252619D02*
X403378571Y-142252619D01*
X403378571Y-142252619D02*
X403283333Y-142205000D01*
X403283333Y-142205000D02*
X403235714Y-142157380D01*
X403235714Y-142157380D02*
X403188095Y-142062142D01*
X403188095Y-142062142D02*
X403140476Y-141871666D01*
X403140476Y-141871666D02*
X403140476Y-141633571D01*
X403140476Y-141633571D02*
X403188095Y-141443095D01*
X403188095Y-141443095D02*
X403235714Y-141347857D01*
X403235714Y-141347857D02*
X403283333Y-141300238D01*
X403283333Y-141300238D02*
X403378571Y-141252619D01*
X404330952Y-141252619D02*
X404426190Y-141252619D01*
X404426190Y-141252619D02*
X404521428Y-141300238D01*
X404521428Y-141300238D02*
X404569047Y-141347857D01*
X404569047Y-141347857D02*
X404616666Y-141443095D01*
X404616666Y-141443095D02*
X404664285Y-141633571D01*
X404664285Y-141633571D02*
X404664285Y-141871666D01*
X404664285Y-141871666D02*
X404616666Y-142062142D01*
X404616666Y-142062142D02*
X404569047Y-142157380D01*
X404569047Y-142157380D02*
X404521428Y-142205000D01*
X404521428Y-142205000D02*
X404426190Y-142252619D01*
X404426190Y-142252619D02*
X404330952Y-142252619D01*
X404330952Y-142252619D02*
X404235714Y-142205000D01*
X404235714Y-142205000D02*
X404188095Y-142157380D01*
X404188095Y-142157380D02*
X404140476Y-142062142D01*
X404140476Y-142062142D02*
X404092857Y-141871666D01*
X404092857Y-141871666D02*
X404092857Y-141633571D01*
X404092857Y-141633571D02*
X404140476Y-141443095D01*
X404140476Y-141443095D02*
X404188095Y-141347857D01*
X404188095Y-141347857D02*
X404235714Y-141300238D01*
X404235714Y-141300238D02*
X404330952Y-141252619D01*
X405854762Y-142252619D02*
X405854762Y-141585952D01*
X405854762Y-141681190D02*
X405902381Y-141633571D01*
X405902381Y-141633571D02*
X405997619Y-141585952D01*
X405997619Y-141585952D02*
X406140476Y-141585952D01*
X406140476Y-141585952D02*
X406235714Y-141633571D01*
X406235714Y-141633571D02*
X406283333Y-141728809D01*
X406283333Y-141728809D02*
X406283333Y-142252619D01*
X406283333Y-141728809D02*
X406330952Y-141633571D01*
X406330952Y-141633571D02*
X406426190Y-141585952D01*
X406426190Y-141585952D02*
X406569047Y-141585952D01*
X406569047Y-141585952D02*
X406664286Y-141633571D01*
X406664286Y-141633571D02*
X406711905Y-141728809D01*
X406711905Y-141728809D02*
X406711905Y-142252619D01*
X407188095Y-142252619D02*
X407188095Y-141585952D01*
X407188095Y-141681190D02*
X407235714Y-141633571D01*
X407235714Y-141633571D02*
X407330952Y-141585952D01*
X407330952Y-141585952D02*
X407473809Y-141585952D01*
X407473809Y-141585952D02*
X407569047Y-141633571D01*
X407569047Y-141633571D02*
X407616666Y-141728809D01*
X407616666Y-141728809D02*
X407616666Y-142252619D01*
X407616666Y-141728809D02*
X407664285Y-141633571D01*
X407664285Y-141633571D02*
X407759523Y-141585952D01*
X407759523Y-141585952D02*
X407902380Y-141585952D01*
X407902380Y-141585952D02*
X407997619Y-141633571D01*
X407997619Y-141633571D02*
X408045238Y-141728809D01*
X408045238Y-141728809D02*
X408045238Y-142252619D01*
X401950000Y-142440000D02*
X401950000Y-142353580D01*
X405950000Y-142440000D02*
X405950000Y-142353580D01*
X401950000Y-142940000D02*
X405950000Y-142940000D01*
X401950000Y-142940000D02*
X405950000Y-142940000D01*
X401950000Y-142940000D02*
X403076504Y-142353579D01*
X401950000Y-142940000D02*
X403076504Y-143526421D01*
X405950000Y-142940000D02*
X404823496Y-143526421D01*
X405950000Y-142940000D02*
X404823496Y-142353579D01*
X33745952Y-148566666D02*
X34412619Y-148566666D01*
X33365000Y-148804761D02*
X34079285Y-149042856D01*
X34079285Y-149042856D02*
X34079285Y-148423809D01*
X34317380Y-148042856D02*
X34365000Y-147995237D01*
X34365000Y-147995237D02*
X34412619Y-148042856D01*
X34412619Y-148042856D02*
X34365000Y-148090475D01*
X34365000Y-148090475D02*
X34317380Y-148042856D01*
X34317380Y-148042856D02*
X34412619Y-148042856D01*
X33412619Y-147376190D02*
X33412619Y-147280952D01*
X33412619Y-147280952D02*
X33460238Y-147185714D01*
X33460238Y-147185714D02*
X33507857Y-147138095D01*
X33507857Y-147138095D02*
X33603095Y-147090476D01*
X33603095Y-147090476D02*
X33793571Y-147042857D01*
X33793571Y-147042857D02*
X34031666Y-147042857D01*
X34031666Y-147042857D02*
X34222142Y-147090476D01*
X34222142Y-147090476D02*
X34317380Y-147138095D01*
X34317380Y-147138095D02*
X34365000Y-147185714D01*
X34365000Y-147185714D02*
X34412619Y-147280952D01*
X34412619Y-147280952D02*
X34412619Y-147376190D01*
X34412619Y-147376190D02*
X34365000Y-147471428D01*
X34365000Y-147471428D02*
X34317380Y-147519047D01*
X34317380Y-147519047D02*
X34222142Y-147566666D01*
X34222142Y-147566666D02*
X34031666Y-147614285D01*
X34031666Y-147614285D02*
X33793571Y-147614285D01*
X33793571Y-147614285D02*
X33603095Y-147566666D01*
X33603095Y-147566666D02*
X33507857Y-147519047D01*
X33507857Y-147519047D02*
X33460238Y-147471428D01*
X33460238Y-147471428D02*
X33412619Y-147376190D01*
X33412619Y-146423809D02*
X33412619Y-146328571D01*
X33412619Y-146328571D02*
X33460238Y-146233333D01*
X33460238Y-146233333D02*
X33507857Y-146185714D01*
X33507857Y-146185714D02*
X33603095Y-146138095D01*
X33603095Y-146138095D02*
X33793571Y-146090476D01*
X33793571Y-146090476D02*
X34031666Y-146090476D01*
X34031666Y-146090476D02*
X34222142Y-146138095D01*
X34222142Y-146138095D02*
X34317380Y-146185714D01*
X34317380Y-146185714D02*
X34365000Y-146233333D01*
X34365000Y-146233333D02*
X34412619Y-146328571D01*
X34412619Y-146328571D02*
X34412619Y-146423809D01*
X34412619Y-146423809D02*
X34365000Y-146519047D01*
X34365000Y-146519047D02*
X34317380Y-146566666D01*
X34317380Y-146566666D02*
X34222142Y-146614285D01*
X34222142Y-146614285D02*
X34031666Y-146661904D01*
X34031666Y-146661904D02*
X33793571Y-146661904D01*
X33793571Y-146661904D02*
X33603095Y-146614285D01*
X33603095Y-146614285D02*
X33507857Y-146566666D01*
X33507857Y-146566666D02*
X33460238Y-146519047D01*
X33460238Y-146519047D02*
X33412619Y-146423809D01*
X33412619Y-145471428D02*
X33412619Y-145376190D01*
X33412619Y-145376190D02*
X33460238Y-145280952D01*
X33460238Y-145280952D02*
X33507857Y-145233333D01*
X33507857Y-145233333D02*
X33603095Y-145185714D01*
X33603095Y-145185714D02*
X33793571Y-145138095D01*
X33793571Y-145138095D02*
X34031666Y-145138095D01*
X34031666Y-145138095D02*
X34222142Y-145185714D01*
X34222142Y-145185714D02*
X34317380Y-145233333D01*
X34317380Y-145233333D02*
X34365000Y-145280952D01*
X34365000Y-145280952D02*
X34412619Y-145376190D01*
X34412619Y-145376190D02*
X34412619Y-145471428D01*
X34412619Y-145471428D02*
X34365000Y-145566666D01*
X34365000Y-145566666D02*
X34317380Y-145614285D01*
X34317380Y-145614285D02*
X34222142Y-145661904D01*
X34222142Y-145661904D02*
X34031666Y-145709523D01*
X34031666Y-145709523D02*
X33793571Y-145709523D01*
X33793571Y-145709523D02*
X33603095Y-145661904D01*
X33603095Y-145661904D02*
X33507857Y-145614285D01*
X33507857Y-145614285D02*
X33460238Y-145566666D01*
X33460238Y-145566666D02*
X33412619Y-145471428D01*
X33412619Y-144519047D02*
X33412619Y-144423809D01*
X33412619Y-144423809D02*
X33460238Y-144328571D01*
X33460238Y-144328571D02*
X33507857Y-144280952D01*
X33507857Y-144280952D02*
X33603095Y-144233333D01*
X33603095Y-144233333D02*
X33793571Y-144185714D01*
X33793571Y-144185714D02*
X34031666Y-144185714D01*
X34031666Y-144185714D02*
X34222142Y-144233333D01*
X34222142Y-144233333D02*
X34317380Y-144280952D01*
X34317380Y-144280952D02*
X34365000Y-144328571D01*
X34365000Y-144328571D02*
X34412619Y-144423809D01*
X34412619Y-144423809D02*
X34412619Y-144519047D01*
X34412619Y-144519047D02*
X34365000Y-144614285D01*
X34365000Y-144614285D02*
X34317380Y-144661904D01*
X34317380Y-144661904D02*
X34222142Y-144709523D01*
X34222142Y-144709523D02*
X34031666Y-144757142D01*
X34031666Y-144757142D02*
X33793571Y-144757142D01*
X33793571Y-144757142D02*
X33603095Y-144709523D01*
X33603095Y-144709523D02*
X33507857Y-144661904D01*
X33507857Y-144661904D02*
X33460238Y-144614285D01*
X33460238Y-144614285D02*
X33412619Y-144519047D01*
X34412619Y-142995237D02*
X33745952Y-142995237D01*
X33841190Y-142995237D02*
X33793571Y-142947618D01*
X33793571Y-142947618D02*
X33745952Y-142852380D01*
X33745952Y-142852380D02*
X33745952Y-142709523D01*
X33745952Y-142709523D02*
X33793571Y-142614285D01*
X33793571Y-142614285D02*
X33888809Y-142566666D01*
X33888809Y-142566666D02*
X34412619Y-142566666D01*
X33888809Y-142566666D02*
X33793571Y-142519047D01*
X33793571Y-142519047D02*
X33745952Y-142423809D01*
X33745952Y-142423809D02*
X33745952Y-142280952D01*
X33745952Y-142280952D02*
X33793571Y-142185713D01*
X33793571Y-142185713D02*
X33888809Y-142138094D01*
X33888809Y-142138094D02*
X34412619Y-142138094D01*
X34412619Y-141661904D02*
X33745952Y-141661904D01*
X33841190Y-141661904D02*
X33793571Y-141614285D01*
X33793571Y-141614285D02*
X33745952Y-141519047D01*
X33745952Y-141519047D02*
X33745952Y-141376190D01*
X33745952Y-141376190D02*
X33793571Y-141280952D01*
X33793571Y-141280952D02*
X33888809Y-141233333D01*
X33888809Y-141233333D02*
X34412619Y-141233333D01*
X33888809Y-141233333D02*
X33793571Y-141185714D01*
X33793571Y-141185714D02*
X33745952Y-141090476D01*
X33745952Y-141090476D02*
X33745952Y-140947619D01*
X33745952Y-140947619D02*
X33793571Y-140852380D01*
X33793571Y-140852380D02*
X33888809Y-140804761D01*
X33888809Y-140804761D02*
X34412619Y-140804761D01*
X34600000Y-146900000D02*
X34513580Y-146900000D01*
X34600000Y-142900000D02*
X34513580Y-142900000D01*
X35100000Y-146900000D02*
X35100000Y-142900000D01*
X35100000Y-146900000D02*
X35100000Y-142900000D01*
X35100000Y-146900000D02*
X34513579Y-145773496D01*
X35100000Y-146900000D02*
X35686421Y-145773496D01*
X35100000Y-142900000D02*
X35686421Y-144026504D01*
X35100000Y-142900000D02*
X34513579Y-144026504D01*
X229583334Y-188312619D02*
X230202381Y-188312619D01*
X230202381Y-188312619D02*
X229869048Y-188693571D01*
X229869048Y-188693571D02*
X230011905Y-188693571D01*
X230011905Y-188693571D02*
X230107143Y-188741190D01*
X230107143Y-188741190D02*
X230154762Y-188788809D01*
X230154762Y-188788809D02*
X230202381Y-188884047D01*
X230202381Y-188884047D02*
X230202381Y-189122142D01*
X230202381Y-189122142D02*
X230154762Y-189217380D01*
X230154762Y-189217380D02*
X230107143Y-189265000D01*
X230107143Y-189265000D02*
X230011905Y-189312619D01*
X230011905Y-189312619D02*
X229726191Y-189312619D01*
X229726191Y-189312619D02*
X229630953Y-189265000D01*
X229630953Y-189265000D02*
X229583334Y-189217380D01*
X231154762Y-189312619D02*
X230583334Y-189312619D01*
X230869048Y-189312619D02*
X230869048Y-188312619D01*
X230869048Y-188312619D02*
X230773810Y-188455476D01*
X230773810Y-188455476D02*
X230678572Y-188550714D01*
X230678572Y-188550714D02*
X230583334Y-188598333D01*
X231583334Y-189217380D02*
X231630953Y-189265000D01*
X231630953Y-189265000D02*
X231583334Y-189312619D01*
X231583334Y-189312619D02*
X231535715Y-189265000D01*
X231535715Y-189265000D02*
X231583334Y-189217380D01*
X231583334Y-189217380D02*
X231583334Y-189312619D01*
X232535714Y-188312619D02*
X232059524Y-188312619D01*
X232059524Y-188312619D02*
X232011905Y-188788809D01*
X232011905Y-188788809D02*
X232059524Y-188741190D01*
X232059524Y-188741190D02*
X232154762Y-188693571D01*
X232154762Y-188693571D02*
X232392857Y-188693571D01*
X232392857Y-188693571D02*
X232488095Y-188741190D01*
X232488095Y-188741190D02*
X232535714Y-188788809D01*
X232535714Y-188788809D02*
X232583333Y-188884047D01*
X232583333Y-188884047D02*
X232583333Y-189122142D01*
X232583333Y-189122142D02*
X232535714Y-189217380D01*
X232535714Y-189217380D02*
X232488095Y-189265000D01*
X232488095Y-189265000D02*
X232392857Y-189312619D01*
X232392857Y-189312619D02*
X232154762Y-189312619D01*
X232154762Y-189312619D02*
X232059524Y-189265000D01*
X232059524Y-189265000D02*
X232011905Y-189217380D01*
X233202381Y-188312619D02*
X233297619Y-188312619D01*
X233297619Y-188312619D02*
X233392857Y-188360238D01*
X233392857Y-188360238D02*
X233440476Y-188407857D01*
X233440476Y-188407857D02*
X233488095Y-188503095D01*
X233488095Y-188503095D02*
X233535714Y-188693571D01*
X233535714Y-188693571D02*
X233535714Y-188931666D01*
X233535714Y-188931666D02*
X233488095Y-189122142D01*
X233488095Y-189122142D02*
X233440476Y-189217380D01*
X233440476Y-189217380D02*
X233392857Y-189265000D01*
X233392857Y-189265000D02*
X233297619Y-189312619D01*
X233297619Y-189312619D02*
X233202381Y-189312619D01*
X233202381Y-189312619D02*
X233107143Y-189265000D01*
X233107143Y-189265000D02*
X233059524Y-189217380D01*
X233059524Y-189217380D02*
X233011905Y-189122142D01*
X233011905Y-189122142D02*
X232964286Y-188931666D01*
X232964286Y-188931666D02*
X232964286Y-188693571D01*
X232964286Y-188693571D02*
X233011905Y-188503095D01*
X233011905Y-188503095D02*
X233059524Y-188407857D01*
X233059524Y-188407857D02*
X233107143Y-188360238D01*
X233107143Y-188360238D02*
X233202381Y-188312619D01*
X234154762Y-188312619D02*
X234250000Y-188312619D01*
X234250000Y-188312619D02*
X234345238Y-188360238D01*
X234345238Y-188360238D02*
X234392857Y-188407857D01*
X234392857Y-188407857D02*
X234440476Y-188503095D01*
X234440476Y-188503095D02*
X234488095Y-188693571D01*
X234488095Y-188693571D02*
X234488095Y-188931666D01*
X234488095Y-188931666D02*
X234440476Y-189122142D01*
X234440476Y-189122142D02*
X234392857Y-189217380D01*
X234392857Y-189217380D02*
X234345238Y-189265000D01*
X234345238Y-189265000D02*
X234250000Y-189312619D01*
X234250000Y-189312619D02*
X234154762Y-189312619D01*
X234154762Y-189312619D02*
X234059524Y-189265000D01*
X234059524Y-189265000D02*
X234011905Y-189217380D01*
X234011905Y-189217380D02*
X233964286Y-189122142D01*
X233964286Y-189122142D02*
X233916667Y-188931666D01*
X233916667Y-188931666D02*
X233916667Y-188693571D01*
X233916667Y-188693571D02*
X233964286Y-188503095D01*
X233964286Y-188503095D02*
X234011905Y-188407857D01*
X234011905Y-188407857D02*
X234059524Y-188360238D01*
X234059524Y-188360238D02*
X234154762Y-188312619D01*
X235107143Y-188312619D02*
X235202381Y-188312619D01*
X235202381Y-188312619D02*
X235297619Y-188360238D01*
X235297619Y-188360238D02*
X235345238Y-188407857D01*
X235345238Y-188407857D02*
X235392857Y-188503095D01*
X235392857Y-188503095D02*
X235440476Y-188693571D01*
X235440476Y-188693571D02*
X235440476Y-188931666D01*
X235440476Y-188931666D02*
X235392857Y-189122142D01*
X235392857Y-189122142D02*
X235345238Y-189217380D01*
X235345238Y-189217380D02*
X235297619Y-189265000D01*
X235297619Y-189265000D02*
X235202381Y-189312619D01*
X235202381Y-189312619D02*
X235107143Y-189312619D01*
X235107143Y-189312619D02*
X235011905Y-189265000D01*
X235011905Y-189265000D02*
X234964286Y-189217380D01*
X234964286Y-189217380D02*
X234916667Y-189122142D01*
X234916667Y-189122142D02*
X234869048Y-188931666D01*
X234869048Y-188931666D02*
X234869048Y-188693571D01*
X234869048Y-188693571D02*
X234916667Y-188503095D01*
X234916667Y-188503095D02*
X234964286Y-188407857D01*
X234964286Y-188407857D02*
X235011905Y-188360238D01*
X235011905Y-188360238D02*
X235107143Y-188312619D01*
X236630953Y-189312619D02*
X236630953Y-188645952D01*
X236630953Y-188741190D02*
X236678572Y-188693571D01*
X236678572Y-188693571D02*
X236773810Y-188645952D01*
X236773810Y-188645952D02*
X236916667Y-188645952D01*
X236916667Y-188645952D02*
X237011905Y-188693571D01*
X237011905Y-188693571D02*
X237059524Y-188788809D01*
X237059524Y-188788809D02*
X237059524Y-189312619D01*
X237059524Y-188788809D02*
X237107143Y-188693571D01*
X237107143Y-188693571D02*
X237202381Y-188645952D01*
X237202381Y-188645952D02*
X237345238Y-188645952D01*
X237345238Y-188645952D02*
X237440477Y-188693571D01*
X237440477Y-188693571D02*
X237488096Y-188788809D01*
X237488096Y-188788809D02*
X237488096Y-189312619D01*
X237964286Y-189312619D02*
X237964286Y-188645952D01*
X237964286Y-188741190D02*
X238011905Y-188693571D01*
X238011905Y-188693571D02*
X238107143Y-188645952D01*
X238107143Y-188645952D02*
X238250000Y-188645952D01*
X238250000Y-188645952D02*
X238345238Y-188693571D01*
X238345238Y-188693571D02*
X238392857Y-188788809D01*
X238392857Y-188788809D02*
X238392857Y-189312619D01*
X238392857Y-188788809D02*
X238440476Y-188693571D01*
X238440476Y-188693571D02*
X238535714Y-188645952D01*
X238535714Y-188645952D02*
X238678571Y-188645952D01*
X238678571Y-188645952D02*
X238773810Y-188693571D01*
X238773810Y-188693571D02*
X238821429Y-188788809D01*
X238821429Y-188788809D02*
X238821429Y-189312619D01*
X250000000Y-190500000D02*
X250000000Y-190586420D01*
X218500000Y-190500000D02*
X218500000Y-190586420D01*
X250000000Y-190000000D02*
X218500000Y-190000000D01*
X250000000Y-190000000D02*
X218500000Y-190000000D01*
X250000000Y-190000000D02*
X248873496Y-190586421D01*
X250000000Y-190000000D02*
X248873496Y-189413579D01*
X218500000Y-190000000D02*
X219626504Y-189413579D01*
X218500000Y-190000000D02*
X219626504Y-190586421D01*
X220352381Y-32312619D02*
X219780953Y-32312619D01*
X220066667Y-32312619D02*
X220066667Y-31312619D01*
X220066667Y-31312619D02*
X219971429Y-31455476D01*
X219971429Y-31455476D02*
X219876191Y-31550714D01*
X219876191Y-31550714D02*
X219780953Y-31598333D01*
X220733334Y-31407857D02*
X220780953Y-31360238D01*
X220780953Y-31360238D02*
X220876191Y-31312619D01*
X220876191Y-31312619D02*
X221114286Y-31312619D01*
X221114286Y-31312619D02*
X221209524Y-31360238D01*
X221209524Y-31360238D02*
X221257143Y-31407857D01*
X221257143Y-31407857D02*
X221304762Y-31503095D01*
X221304762Y-31503095D02*
X221304762Y-31598333D01*
X221304762Y-31598333D02*
X221257143Y-31741190D01*
X221257143Y-31741190D02*
X220685715Y-32312619D01*
X220685715Y-32312619D02*
X221304762Y-32312619D01*
X221733334Y-32217380D02*
X221780953Y-32265000D01*
X221780953Y-32265000D02*
X221733334Y-32312619D01*
X221733334Y-32312619D02*
X221685715Y-32265000D01*
X221685715Y-32265000D02*
X221733334Y-32217380D01*
X221733334Y-32217380D02*
X221733334Y-32312619D01*
X222400000Y-31312619D02*
X222495238Y-31312619D01*
X222495238Y-31312619D02*
X222590476Y-31360238D01*
X222590476Y-31360238D02*
X222638095Y-31407857D01*
X222638095Y-31407857D02*
X222685714Y-31503095D01*
X222685714Y-31503095D02*
X222733333Y-31693571D01*
X222733333Y-31693571D02*
X222733333Y-31931666D01*
X222733333Y-31931666D02*
X222685714Y-32122142D01*
X222685714Y-32122142D02*
X222638095Y-32217380D01*
X222638095Y-32217380D02*
X222590476Y-32265000D01*
X222590476Y-32265000D02*
X222495238Y-32312619D01*
X222495238Y-32312619D02*
X222400000Y-32312619D01*
X222400000Y-32312619D02*
X222304762Y-32265000D01*
X222304762Y-32265000D02*
X222257143Y-32217380D01*
X222257143Y-32217380D02*
X222209524Y-32122142D01*
X222209524Y-32122142D02*
X222161905Y-31931666D01*
X222161905Y-31931666D02*
X222161905Y-31693571D01*
X222161905Y-31693571D02*
X222209524Y-31503095D01*
X222209524Y-31503095D02*
X222257143Y-31407857D01*
X222257143Y-31407857D02*
X222304762Y-31360238D01*
X222304762Y-31360238D02*
X222400000Y-31312619D01*
X223352381Y-31312619D02*
X223447619Y-31312619D01*
X223447619Y-31312619D02*
X223542857Y-31360238D01*
X223542857Y-31360238D02*
X223590476Y-31407857D01*
X223590476Y-31407857D02*
X223638095Y-31503095D01*
X223638095Y-31503095D02*
X223685714Y-31693571D01*
X223685714Y-31693571D02*
X223685714Y-31931666D01*
X223685714Y-31931666D02*
X223638095Y-32122142D01*
X223638095Y-32122142D02*
X223590476Y-32217380D01*
X223590476Y-32217380D02*
X223542857Y-32265000D01*
X223542857Y-32265000D02*
X223447619Y-32312619D01*
X223447619Y-32312619D02*
X223352381Y-32312619D01*
X223352381Y-32312619D02*
X223257143Y-32265000D01*
X223257143Y-32265000D02*
X223209524Y-32217380D01*
X223209524Y-32217380D02*
X223161905Y-32122142D01*
X223161905Y-32122142D02*
X223114286Y-31931666D01*
X223114286Y-31931666D02*
X223114286Y-31693571D01*
X223114286Y-31693571D02*
X223161905Y-31503095D01*
X223161905Y-31503095D02*
X223209524Y-31407857D01*
X223209524Y-31407857D02*
X223257143Y-31360238D01*
X223257143Y-31360238D02*
X223352381Y-31312619D01*
X224304762Y-31312619D02*
X224400000Y-31312619D01*
X224400000Y-31312619D02*
X224495238Y-31360238D01*
X224495238Y-31360238D02*
X224542857Y-31407857D01*
X224542857Y-31407857D02*
X224590476Y-31503095D01*
X224590476Y-31503095D02*
X224638095Y-31693571D01*
X224638095Y-31693571D02*
X224638095Y-31931666D01*
X224638095Y-31931666D02*
X224590476Y-32122142D01*
X224590476Y-32122142D02*
X224542857Y-32217380D01*
X224542857Y-32217380D02*
X224495238Y-32265000D01*
X224495238Y-32265000D02*
X224400000Y-32312619D01*
X224400000Y-32312619D02*
X224304762Y-32312619D01*
X224304762Y-32312619D02*
X224209524Y-32265000D01*
X224209524Y-32265000D02*
X224161905Y-32217380D01*
X224161905Y-32217380D02*
X224114286Y-32122142D01*
X224114286Y-32122142D02*
X224066667Y-31931666D01*
X224066667Y-31931666D02*
X224066667Y-31693571D01*
X224066667Y-31693571D02*
X224114286Y-31503095D01*
X224114286Y-31503095D02*
X224161905Y-31407857D01*
X224161905Y-31407857D02*
X224209524Y-31360238D01*
X224209524Y-31360238D02*
X224304762Y-31312619D01*
X225257143Y-31312619D02*
X225352381Y-31312619D01*
X225352381Y-31312619D02*
X225447619Y-31360238D01*
X225447619Y-31360238D02*
X225495238Y-31407857D01*
X225495238Y-31407857D02*
X225542857Y-31503095D01*
X225542857Y-31503095D02*
X225590476Y-31693571D01*
X225590476Y-31693571D02*
X225590476Y-31931666D01*
X225590476Y-31931666D02*
X225542857Y-32122142D01*
X225542857Y-32122142D02*
X225495238Y-32217380D01*
X225495238Y-32217380D02*
X225447619Y-32265000D01*
X225447619Y-32265000D02*
X225352381Y-32312619D01*
X225352381Y-32312619D02*
X225257143Y-32312619D01*
X225257143Y-32312619D02*
X225161905Y-32265000D01*
X225161905Y-32265000D02*
X225114286Y-32217380D01*
X225114286Y-32217380D02*
X225066667Y-32122142D01*
X225066667Y-32122142D02*
X225019048Y-31931666D01*
X225019048Y-31931666D02*
X225019048Y-31693571D01*
X225019048Y-31693571D02*
X225066667Y-31503095D01*
X225066667Y-31503095D02*
X225114286Y-31407857D01*
X225114286Y-31407857D02*
X225161905Y-31360238D01*
X225161905Y-31360238D02*
X225257143Y-31312619D01*
X226780953Y-32312619D02*
X226780953Y-31645952D01*
X226780953Y-31741190D02*
X226828572Y-31693571D01*
X226828572Y-31693571D02*
X226923810Y-31645952D01*
X226923810Y-31645952D02*
X227066667Y-31645952D01*
X227066667Y-31645952D02*
X227161905Y-31693571D01*
X227161905Y-31693571D02*
X227209524Y-31788809D01*
X227209524Y-31788809D02*
X227209524Y-32312619D01*
X227209524Y-31788809D02*
X227257143Y-31693571D01*
X227257143Y-31693571D02*
X227352381Y-31645952D01*
X227352381Y-31645952D02*
X227495238Y-31645952D01*
X227495238Y-31645952D02*
X227590477Y-31693571D01*
X227590477Y-31693571D02*
X227638096Y-31788809D01*
X227638096Y-31788809D02*
X227638096Y-32312619D01*
X228114286Y-32312619D02*
X228114286Y-31645952D01*
X228114286Y-31741190D02*
X228161905Y-31693571D01*
X228161905Y-31693571D02*
X228257143Y-31645952D01*
X228257143Y-31645952D02*
X228400000Y-31645952D01*
X228400000Y-31645952D02*
X228495238Y-31693571D01*
X228495238Y-31693571D02*
X228542857Y-31788809D01*
X228542857Y-31788809D02*
X228542857Y-32312619D01*
X228542857Y-31788809D02*
X228590476Y-31693571D01*
X228590476Y-31693571D02*
X228685714Y-31645952D01*
X228685714Y-31645952D02*
X228828571Y-31645952D01*
X228828571Y-31645952D02*
X228923810Y-31693571D01*
X228923810Y-31693571D02*
X228971429Y-31788809D01*
X228971429Y-31788809D02*
X228971429Y-32312619D01*
X218400000Y-32500000D02*
X218400000Y-32413580D01*
X230400000Y-32500000D02*
X230400000Y-32413580D01*
X218400000Y-33000000D02*
X230400000Y-33000000D01*
X218400000Y-33000000D02*
X230400000Y-33000000D01*
X218400000Y-33000000D02*
X219526504Y-32413579D01*
X218400000Y-33000000D02*
X219526504Y-33586421D01*
X230400000Y-33000000D02*
X229273496Y-33586421D01*
X230400000Y-33000000D02*
X229273496Y-32413579D01*
X29433333Y-35245952D02*
X29433333Y-35912619D01*
X29195238Y-34865000D02*
X28957143Y-35579285D01*
X28957143Y-35579285D02*
X29576190Y-35579285D01*
X29957143Y-35817380D02*
X30004762Y-35865000D01*
X30004762Y-35865000D02*
X29957143Y-35912619D01*
X29957143Y-35912619D02*
X29909524Y-35865000D01*
X29909524Y-35865000D02*
X29957143Y-35817380D01*
X29957143Y-35817380D02*
X29957143Y-35912619D01*
X30623809Y-34912619D02*
X30719047Y-34912619D01*
X30719047Y-34912619D02*
X30814285Y-34960238D01*
X30814285Y-34960238D02*
X30861904Y-35007857D01*
X30861904Y-35007857D02*
X30909523Y-35103095D01*
X30909523Y-35103095D02*
X30957142Y-35293571D01*
X30957142Y-35293571D02*
X30957142Y-35531666D01*
X30957142Y-35531666D02*
X30909523Y-35722142D01*
X30909523Y-35722142D02*
X30861904Y-35817380D01*
X30861904Y-35817380D02*
X30814285Y-35865000D01*
X30814285Y-35865000D02*
X30719047Y-35912619D01*
X30719047Y-35912619D02*
X30623809Y-35912619D01*
X30623809Y-35912619D02*
X30528571Y-35865000D01*
X30528571Y-35865000D02*
X30480952Y-35817380D01*
X30480952Y-35817380D02*
X30433333Y-35722142D01*
X30433333Y-35722142D02*
X30385714Y-35531666D01*
X30385714Y-35531666D02*
X30385714Y-35293571D01*
X30385714Y-35293571D02*
X30433333Y-35103095D01*
X30433333Y-35103095D02*
X30480952Y-35007857D01*
X30480952Y-35007857D02*
X30528571Y-34960238D01*
X30528571Y-34960238D02*
X30623809Y-34912619D01*
X31576190Y-34912619D02*
X31671428Y-34912619D01*
X31671428Y-34912619D02*
X31766666Y-34960238D01*
X31766666Y-34960238D02*
X31814285Y-35007857D01*
X31814285Y-35007857D02*
X31861904Y-35103095D01*
X31861904Y-35103095D02*
X31909523Y-35293571D01*
X31909523Y-35293571D02*
X31909523Y-35531666D01*
X31909523Y-35531666D02*
X31861904Y-35722142D01*
X31861904Y-35722142D02*
X31814285Y-35817380D01*
X31814285Y-35817380D02*
X31766666Y-35865000D01*
X31766666Y-35865000D02*
X31671428Y-35912619D01*
X31671428Y-35912619D02*
X31576190Y-35912619D01*
X31576190Y-35912619D02*
X31480952Y-35865000D01*
X31480952Y-35865000D02*
X31433333Y-35817380D01*
X31433333Y-35817380D02*
X31385714Y-35722142D01*
X31385714Y-35722142D02*
X31338095Y-35531666D01*
X31338095Y-35531666D02*
X31338095Y-35293571D01*
X31338095Y-35293571D02*
X31385714Y-35103095D01*
X31385714Y-35103095D02*
X31433333Y-35007857D01*
X31433333Y-35007857D02*
X31480952Y-34960238D01*
X31480952Y-34960238D02*
X31576190Y-34912619D01*
X32528571Y-34912619D02*
X32623809Y-34912619D01*
X32623809Y-34912619D02*
X32719047Y-34960238D01*
X32719047Y-34960238D02*
X32766666Y-35007857D01*
X32766666Y-35007857D02*
X32814285Y-35103095D01*
X32814285Y-35103095D02*
X32861904Y-35293571D01*
X32861904Y-35293571D02*
X32861904Y-35531666D01*
X32861904Y-35531666D02*
X32814285Y-35722142D01*
X32814285Y-35722142D02*
X32766666Y-35817380D01*
X32766666Y-35817380D02*
X32719047Y-35865000D01*
X32719047Y-35865000D02*
X32623809Y-35912619D01*
X32623809Y-35912619D02*
X32528571Y-35912619D01*
X32528571Y-35912619D02*
X32433333Y-35865000D01*
X32433333Y-35865000D02*
X32385714Y-35817380D01*
X32385714Y-35817380D02*
X32338095Y-35722142D01*
X32338095Y-35722142D02*
X32290476Y-35531666D01*
X32290476Y-35531666D02*
X32290476Y-35293571D01*
X32290476Y-35293571D02*
X32338095Y-35103095D01*
X32338095Y-35103095D02*
X32385714Y-35007857D01*
X32385714Y-35007857D02*
X32433333Y-34960238D01*
X32433333Y-34960238D02*
X32528571Y-34912619D01*
X33480952Y-34912619D02*
X33576190Y-34912619D01*
X33576190Y-34912619D02*
X33671428Y-34960238D01*
X33671428Y-34960238D02*
X33719047Y-35007857D01*
X33719047Y-35007857D02*
X33766666Y-35103095D01*
X33766666Y-35103095D02*
X33814285Y-35293571D01*
X33814285Y-35293571D02*
X33814285Y-35531666D01*
X33814285Y-35531666D02*
X33766666Y-35722142D01*
X33766666Y-35722142D02*
X33719047Y-35817380D01*
X33719047Y-35817380D02*
X33671428Y-35865000D01*
X33671428Y-35865000D02*
X33576190Y-35912619D01*
X33576190Y-35912619D02*
X33480952Y-35912619D01*
X33480952Y-35912619D02*
X33385714Y-35865000D01*
X33385714Y-35865000D02*
X33338095Y-35817380D01*
X33338095Y-35817380D02*
X33290476Y-35722142D01*
X33290476Y-35722142D02*
X33242857Y-35531666D01*
X33242857Y-35531666D02*
X33242857Y-35293571D01*
X33242857Y-35293571D02*
X33290476Y-35103095D01*
X33290476Y-35103095D02*
X33338095Y-35007857D01*
X33338095Y-35007857D02*
X33385714Y-34960238D01*
X33385714Y-34960238D02*
X33480952Y-34912619D01*
X35004762Y-35912619D02*
X35004762Y-35245952D01*
X35004762Y-35341190D02*
X35052381Y-35293571D01*
X35052381Y-35293571D02*
X35147619Y-35245952D01*
X35147619Y-35245952D02*
X35290476Y-35245952D01*
X35290476Y-35245952D02*
X35385714Y-35293571D01*
X35385714Y-35293571D02*
X35433333Y-35388809D01*
X35433333Y-35388809D02*
X35433333Y-35912619D01*
X35433333Y-35388809D02*
X35480952Y-35293571D01*
X35480952Y-35293571D02*
X35576190Y-35245952D01*
X35576190Y-35245952D02*
X35719047Y-35245952D01*
X35719047Y-35245952D02*
X35814286Y-35293571D01*
X35814286Y-35293571D02*
X35861905Y-35388809D01*
X35861905Y-35388809D02*
X35861905Y-35912619D01*
X36338095Y-35912619D02*
X36338095Y-35245952D01*
X36338095Y-35341190D02*
X36385714Y-35293571D01*
X36385714Y-35293571D02*
X36480952Y-35245952D01*
X36480952Y-35245952D02*
X36623809Y-35245952D01*
X36623809Y-35245952D02*
X36719047Y-35293571D01*
X36719047Y-35293571D02*
X36766666Y-35388809D01*
X36766666Y-35388809D02*
X36766666Y-35912619D01*
X36766666Y-35388809D02*
X36814285Y-35293571D01*
X36814285Y-35293571D02*
X36909523Y-35245952D01*
X36909523Y-35245952D02*
X37052380Y-35245952D01*
X37052380Y-35245952D02*
X37147619Y-35293571D01*
X37147619Y-35293571D02*
X37195238Y-35388809D01*
X37195238Y-35388809D02*
X37195238Y-35912619D01*
X35100000Y-37100000D02*
X35100000Y-37186420D01*
X31100000Y-37100000D02*
X31100000Y-37186420D01*
X35100000Y-36600000D02*
X31100000Y-36600000D01*
X35100000Y-36600000D02*
X31100000Y-36600000D01*
X35100000Y-36600000D02*
X33973496Y-37186421D01*
X35100000Y-36600000D02*
X33973496Y-36013579D01*
X31100000Y-36600000D02*
X32226504Y-36013579D01*
X31100000Y-36600000D02*
X32226504Y-37186421D01*
X198083334Y-188312619D02*
X198702381Y-188312619D01*
X198702381Y-188312619D02*
X198369048Y-188693571D01*
X198369048Y-188693571D02*
X198511905Y-188693571D01*
X198511905Y-188693571D02*
X198607143Y-188741190D01*
X198607143Y-188741190D02*
X198654762Y-188788809D01*
X198654762Y-188788809D02*
X198702381Y-188884047D01*
X198702381Y-188884047D02*
X198702381Y-189122142D01*
X198702381Y-189122142D02*
X198654762Y-189217380D01*
X198654762Y-189217380D02*
X198607143Y-189265000D01*
X198607143Y-189265000D02*
X198511905Y-189312619D01*
X198511905Y-189312619D02*
X198226191Y-189312619D01*
X198226191Y-189312619D02*
X198130953Y-189265000D01*
X198130953Y-189265000D02*
X198083334Y-189217380D01*
X199654762Y-189312619D02*
X199083334Y-189312619D01*
X199369048Y-189312619D02*
X199369048Y-188312619D01*
X199369048Y-188312619D02*
X199273810Y-188455476D01*
X199273810Y-188455476D02*
X199178572Y-188550714D01*
X199178572Y-188550714D02*
X199083334Y-188598333D01*
X200083334Y-189217380D02*
X200130953Y-189265000D01*
X200130953Y-189265000D02*
X200083334Y-189312619D01*
X200083334Y-189312619D02*
X200035715Y-189265000D01*
X200035715Y-189265000D02*
X200083334Y-189217380D01*
X200083334Y-189217380D02*
X200083334Y-189312619D01*
X201035714Y-188312619D02*
X200559524Y-188312619D01*
X200559524Y-188312619D02*
X200511905Y-188788809D01*
X200511905Y-188788809D02*
X200559524Y-188741190D01*
X200559524Y-188741190D02*
X200654762Y-188693571D01*
X200654762Y-188693571D02*
X200892857Y-188693571D01*
X200892857Y-188693571D02*
X200988095Y-188741190D01*
X200988095Y-188741190D02*
X201035714Y-188788809D01*
X201035714Y-188788809D02*
X201083333Y-188884047D01*
X201083333Y-188884047D02*
X201083333Y-189122142D01*
X201083333Y-189122142D02*
X201035714Y-189217380D01*
X201035714Y-189217380D02*
X200988095Y-189265000D01*
X200988095Y-189265000D02*
X200892857Y-189312619D01*
X200892857Y-189312619D02*
X200654762Y-189312619D01*
X200654762Y-189312619D02*
X200559524Y-189265000D01*
X200559524Y-189265000D02*
X200511905Y-189217380D01*
X201702381Y-188312619D02*
X201797619Y-188312619D01*
X201797619Y-188312619D02*
X201892857Y-188360238D01*
X201892857Y-188360238D02*
X201940476Y-188407857D01*
X201940476Y-188407857D02*
X201988095Y-188503095D01*
X201988095Y-188503095D02*
X202035714Y-188693571D01*
X202035714Y-188693571D02*
X202035714Y-188931666D01*
X202035714Y-188931666D02*
X201988095Y-189122142D01*
X201988095Y-189122142D02*
X201940476Y-189217380D01*
X201940476Y-189217380D02*
X201892857Y-189265000D01*
X201892857Y-189265000D02*
X201797619Y-189312619D01*
X201797619Y-189312619D02*
X201702381Y-189312619D01*
X201702381Y-189312619D02*
X201607143Y-189265000D01*
X201607143Y-189265000D02*
X201559524Y-189217380D01*
X201559524Y-189217380D02*
X201511905Y-189122142D01*
X201511905Y-189122142D02*
X201464286Y-188931666D01*
X201464286Y-188931666D02*
X201464286Y-188693571D01*
X201464286Y-188693571D02*
X201511905Y-188503095D01*
X201511905Y-188503095D02*
X201559524Y-188407857D01*
X201559524Y-188407857D02*
X201607143Y-188360238D01*
X201607143Y-188360238D02*
X201702381Y-188312619D01*
X202654762Y-188312619D02*
X202750000Y-188312619D01*
X202750000Y-188312619D02*
X202845238Y-188360238D01*
X202845238Y-188360238D02*
X202892857Y-188407857D01*
X202892857Y-188407857D02*
X202940476Y-188503095D01*
X202940476Y-188503095D02*
X202988095Y-188693571D01*
X202988095Y-188693571D02*
X202988095Y-188931666D01*
X202988095Y-188931666D02*
X202940476Y-189122142D01*
X202940476Y-189122142D02*
X202892857Y-189217380D01*
X202892857Y-189217380D02*
X202845238Y-189265000D01*
X202845238Y-189265000D02*
X202750000Y-189312619D01*
X202750000Y-189312619D02*
X202654762Y-189312619D01*
X202654762Y-189312619D02*
X202559524Y-189265000D01*
X202559524Y-189265000D02*
X202511905Y-189217380D01*
X202511905Y-189217380D02*
X202464286Y-189122142D01*
X202464286Y-189122142D02*
X202416667Y-188931666D01*
X202416667Y-188931666D02*
X202416667Y-188693571D01*
X202416667Y-188693571D02*
X202464286Y-188503095D01*
X202464286Y-188503095D02*
X202511905Y-188407857D01*
X202511905Y-188407857D02*
X202559524Y-188360238D01*
X202559524Y-188360238D02*
X202654762Y-188312619D01*
X203607143Y-188312619D02*
X203702381Y-188312619D01*
X203702381Y-188312619D02*
X203797619Y-188360238D01*
X203797619Y-188360238D02*
X203845238Y-188407857D01*
X203845238Y-188407857D02*
X203892857Y-188503095D01*
X203892857Y-188503095D02*
X203940476Y-188693571D01*
X203940476Y-188693571D02*
X203940476Y-188931666D01*
X203940476Y-188931666D02*
X203892857Y-189122142D01*
X203892857Y-189122142D02*
X203845238Y-189217380D01*
X203845238Y-189217380D02*
X203797619Y-189265000D01*
X203797619Y-189265000D02*
X203702381Y-189312619D01*
X203702381Y-189312619D02*
X203607143Y-189312619D01*
X203607143Y-189312619D02*
X203511905Y-189265000D01*
X203511905Y-189265000D02*
X203464286Y-189217380D01*
X203464286Y-189217380D02*
X203416667Y-189122142D01*
X203416667Y-189122142D02*
X203369048Y-188931666D01*
X203369048Y-188931666D02*
X203369048Y-188693571D01*
X203369048Y-188693571D02*
X203416667Y-188503095D01*
X203416667Y-188503095D02*
X203464286Y-188407857D01*
X203464286Y-188407857D02*
X203511905Y-188360238D01*
X203511905Y-188360238D02*
X203607143Y-188312619D01*
X205130953Y-189312619D02*
X205130953Y-188645952D01*
X205130953Y-188741190D02*
X205178572Y-188693571D01*
X205178572Y-188693571D02*
X205273810Y-188645952D01*
X205273810Y-188645952D02*
X205416667Y-188645952D01*
X205416667Y-188645952D02*
X205511905Y-188693571D01*
X205511905Y-188693571D02*
X205559524Y-188788809D01*
X205559524Y-188788809D02*
X205559524Y-189312619D01*
X205559524Y-188788809D02*
X205607143Y-188693571D01*
X205607143Y-188693571D02*
X205702381Y-188645952D01*
X205702381Y-188645952D02*
X205845238Y-188645952D01*
X205845238Y-188645952D02*
X205940477Y-188693571D01*
X205940477Y-188693571D02*
X205988096Y-188788809D01*
X205988096Y-188788809D02*
X205988096Y-189312619D01*
X206464286Y-189312619D02*
X206464286Y-188645952D01*
X206464286Y-188741190D02*
X206511905Y-188693571D01*
X206511905Y-188693571D02*
X206607143Y-188645952D01*
X206607143Y-188645952D02*
X206750000Y-188645952D01*
X206750000Y-188645952D02*
X206845238Y-188693571D01*
X206845238Y-188693571D02*
X206892857Y-188788809D01*
X206892857Y-188788809D02*
X206892857Y-189312619D01*
X206892857Y-188788809D02*
X206940476Y-188693571D01*
X206940476Y-188693571D02*
X207035714Y-188645952D01*
X207035714Y-188645952D02*
X207178571Y-188645952D01*
X207178571Y-188645952D02*
X207273810Y-188693571D01*
X207273810Y-188693571D02*
X207321429Y-188788809D01*
X207321429Y-188788809D02*
X207321429Y-189312619D01*
X218500000Y-190500000D02*
X218500000Y-190586420D01*
X187000000Y-190500000D02*
X187000000Y-190586420D01*
X218500000Y-190000000D02*
X187000000Y-190000000D01*
X218500000Y-190000000D02*
X187000000Y-190000000D01*
X218500000Y-190000000D02*
X217373496Y-190586421D01*
X218500000Y-190000000D02*
X217373496Y-189413579D01*
X187000000Y-190000000D02*
X188126504Y-189413579D01*
X187000000Y-190000000D02*
X188126504Y-190586421D01*
X400645952Y-38666666D02*
X401312619Y-38666666D01*
X400265000Y-38904761D02*
X400979285Y-39142856D01*
X400979285Y-39142856D02*
X400979285Y-38523809D01*
X401217380Y-38142856D02*
X401265000Y-38095237D01*
X401265000Y-38095237D02*
X401312619Y-38142856D01*
X401312619Y-38142856D02*
X401265000Y-38190475D01*
X401265000Y-38190475D02*
X401217380Y-38142856D01*
X401217380Y-38142856D02*
X401312619Y-38142856D01*
X400312619Y-37476190D02*
X400312619Y-37380952D01*
X400312619Y-37380952D02*
X400360238Y-37285714D01*
X400360238Y-37285714D02*
X400407857Y-37238095D01*
X400407857Y-37238095D02*
X400503095Y-37190476D01*
X400503095Y-37190476D02*
X400693571Y-37142857D01*
X400693571Y-37142857D02*
X400931666Y-37142857D01*
X400931666Y-37142857D02*
X401122142Y-37190476D01*
X401122142Y-37190476D02*
X401217380Y-37238095D01*
X401217380Y-37238095D02*
X401265000Y-37285714D01*
X401265000Y-37285714D02*
X401312619Y-37380952D01*
X401312619Y-37380952D02*
X401312619Y-37476190D01*
X401312619Y-37476190D02*
X401265000Y-37571428D01*
X401265000Y-37571428D02*
X401217380Y-37619047D01*
X401217380Y-37619047D02*
X401122142Y-37666666D01*
X401122142Y-37666666D02*
X400931666Y-37714285D01*
X400931666Y-37714285D02*
X400693571Y-37714285D01*
X400693571Y-37714285D02*
X400503095Y-37666666D01*
X400503095Y-37666666D02*
X400407857Y-37619047D01*
X400407857Y-37619047D02*
X400360238Y-37571428D01*
X400360238Y-37571428D02*
X400312619Y-37476190D01*
X400312619Y-36523809D02*
X400312619Y-36428571D01*
X400312619Y-36428571D02*
X400360238Y-36333333D01*
X400360238Y-36333333D02*
X400407857Y-36285714D01*
X400407857Y-36285714D02*
X400503095Y-36238095D01*
X400503095Y-36238095D02*
X400693571Y-36190476D01*
X400693571Y-36190476D02*
X400931666Y-36190476D01*
X400931666Y-36190476D02*
X401122142Y-36238095D01*
X401122142Y-36238095D02*
X401217380Y-36285714D01*
X401217380Y-36285714D02*
X401265000Y-36333333D01*
X401265000Y-36333333D02*
X401312619Y-36428571D01*
X401312619Y-36428571D02*
X401312619Y-36523809D01*
X401312619Y-36523809D02*
X401265000Y-36619047D01*
X401265000Y-36619047D02*
X401217380Y-36666666D01*
X401217380Y-36666666D02*
X401122142Y-36714285D01*
X401122142Y-36714285D02*
X400931666Y-36761904D01*
X400931666Y-36761904D02*
X400693571Y-36761904D01*
X400693571Y-36761904D02*
X400503095Y-36714285D01*
X400503095Y-36714285D02*
X400407857Y-36666666D01*
X400407857Y-36666666D02*
X400360238Y-36619047D01*
X400360238Y-36619047D02*
X400312619Y-36523809D01*
X400312619Y-35571428D02*
X400312619Y-35476190D01*
X400312619Y-35476190D02*
X400360238Y-35380952D01*
X400360238Y-35380952D02*
X400407857Y-35333333D01*
X400407857Y-35333333D02*
X400503095Y-35285714D01*
X400503095Y-35285714D02*
X400693571Y-35238095D01*
X400693571Y-35238095D02*
X400931666Y-35238095D01*
X400931666Y-35238095D02*
X401122142Y-35285714D01*
X401122142Y-35285714D02*
X401217380Y-35333333D01*
X401217380Y-35333333D02*
X401265000Y-35380952D01*
X401265000Y-35380952D02*
X401312619Y-35476190D01*
X401312619Y-35476190D02*
X401312619Y-35571428D01*
X401312619Y-35571428D02*
X401265000Y-35666666D01*
X401265000Y-35666666D02*
X401217380Y-35714285D01*
X401217380Y-35714285D02*
X401122142Y-35761904D01*
X401122142Y-35761904D02*
X400931666Y-35809523D01*
X400931666Y-35809523D02*
X400693571Y-35809523D01*
X400693571Y-35809523D02*
X400503095Y-35761904D01*
X400503095Y-35761904D02*
X400407857Y-35714285D01*
X400407857Y-35714285D02*
X400360238Y-35666666D01*
X400360238Y-35666666D02*
X400312619Y-35571428D01*
X400312619Y-34619047D02*
X400312619Y-34523809D01*
X400312619Y-34523809D02*
X400360238Y-34428571D01*
X400360238Y-34428571D02*
X400407857Y-34380952D01*
X400407857Y-34380952D02*
X400503095Y-34333333D01*
X400503095Y-34333333D02*
X400693571Y-34285714D01*
X400693571Y-34285714D02*
X400931666Y-34285714D01*
X400931666Y-34285714D02*
X401122142Y-34333333D01*
X401122142Y-34333333D02*
X401217380Y-34380952D01*
X401217380Y-34380952D02*
X401265000Y-34428571D01*
X401265000Y-34428571D02*
X401312619Y-34523809D01*
X401312619Y-34523809D02*
X401312619Y-34619047D01*
X401312619Y-34619047D02*
X401265000Y-34714285D01*
X401265000Y-34714285D02*
X401217380Y-34761904D01*
X401217380Y-34761904D02*
X401122142Y-34809523D01*
X401122142Y-34809523D02*
X400931666Y-34857142D01*
X400931666Y-34857142D02*
X400693571Y-34857142D01*
X400693571Y-34857142D02*
X400503095Y-34809523D01*
X400503095Y-34809523D02*
X400407857Y-34761904D01*
X400407857Y-34761904D02*
X400360238Y-34714285D01*
X400360238Y-34714285D02*
X400312619Y-34619047D01*
X401312619Y-33095237D02*
X400645952Y-33095237D01*
X400741190Y-33095237D02*
X400693571Y-33047618D01*
X400693571Y-33047618D02*
X400645952Y-32952380D01*
X400645952Y-32952380D02*
X400645952Y-32809523D01*
X400645952Y-32809523D02*
X400693571Y-32714285D01*
X400693571Y-32714285D02*
X400788809Y-32666666D01*
X400788809Y-32666666D02*
X401312619Y-32666666D01*
X400788809Y-32666666D02*
X400693571Y-32619047D01*
X400693571Y-32619047D02*
X400645952Y-32523809D01*
X400645952Y-32523809D02*
X400645952Y-32380952D01*
X400645952Y-32380952D02*
X400693571Y-32285713D01*
X400693571Y-32285713D02*
X400788809Y-32238094D01*
X400788809Y-32238094D02*
X401312619Y-32238094D01*
X401312619Y-31761904D02*
X400645952Y-31761904D01*
X400741190Y-31761904D02*
X400693571Y-31714285D01*
X400693571Y-31714285D02*
X400645952Y-31619047D01*
X400645952Y-31619047D02*
X400645952Y-31476190D01*
X400645952Y-31476190D02*
X400693571Y-31380952D01*
X400693571Y-31380952D02*
X400788809Y-31333333D01*
X400788809Y-31333333D02*
X401312619Y-31333333D01*
X400788809Y-31333333D02*
X400693571Y-31285714D01*
X400693571Y-31285714D02*
X400645952Y-31190476D01*
X400645952Y-31190476D02*
X400645952Y-31047619D01*
X400645952Y-31047619D02*
X400693571Y-30952380D01*
X400693571Y-30952380D02*
X400788809Y-30904761D01*
X400788809Y-30904761D02*
X401312619Y-30904761D01*
X401500000Y-37000000D02*
X401413580Y-37000000D01*
X401500000Y-33000000D02*
X401413580Y-33000000D01*
X402000000Y-37000000D02*
X402000000Y-33000000D01*
X402000000Y-37000000D02*
X402000000Y-33000000D01*
X402000000Y-37000000D02*
X401413579Y-35873496D01*
X402000000Y-37000000D02*
X402586421Y-35873496D01*
X402000000Y-33000000D02*
X402586421Y-34126504D01*
X402000000Y-33000000D02*
X401413579Y-34126504D01*
X29433333Y-141545952D02*
X29433333Y-142212619D01*
X29195238Y-141165000D02*
X28957143Y-141879285D01*
X28957143Y-141879285D02*
X29576190Y-141879285D01*
X29957143Y-142117380D02*
X30004762Y-142165000D01*
X30004762Y-142165000D02*
X29957143Y-142212619D01*
X29957143Y-142212619D02*
X29909524Y-142165000D01*
X29909524Y-142165000D02*
X29957143Y-142117380D01*
X29957143Y-142117380D02*
X29957143Y-142212619D01*
X30623809Y-141212619D02*
X30719047Y-141212619D01*
X30719047Y-141212619D02*
X30814285Y-141260238D01*
X30814285Y-141260238D02*
X30861904Y-141307857D01*
X30861904Y-141307857D02*
X30909523Y-141403095D01*
X30909523Y-141403095D02*
X30957142Y-141593571D01*
X30957142Y-141593571D02*
X30957142Y-141831666D01*
X30957142Y-141831666D02*
X30909523Y-142022142D01*
X30909523Y-142022142D02*
X30861904Y-142117380D01*
X30861904Y-142117380D02*
X30814285Y-142165000D01*
X30814285Y-142165000D02*
X30719047Y-142212619D01*
X30719047Y-142212619D02*
X30623809Y-142212619D01*
X30623809Y-142212619D02*
X30528571Y-142165000D01*
X30528571Y-142165000D02*
X30480952Y-142117380D01*
X30480952Y-142117380D02*
X30433333Y-142022142D01*
X30433333Y-142022142D02*
X30385714Y-141831666D01*
X30385714Y-141831666D02*
X30385714Y-141593571D01*
X30385714Y-141593571D02*
X30433333Y-141403095D01*
X30433333Y-141403095D02*
X30480952Y-141307857D01*
X30480952Y-141307857D02*
X30528571Y-141260238D01*
X30528571Y-141260238D02*
X30623809Y-141212619D01*
X31576190Y-141212619D02*
X31671428Y-141212619D01*
X31671428Y-141212619D02*
X31766666Y-141260238D01*
X31766666Y-141260238D02*
X31814285Y-141307857D01*
X31814285Y-141307857D02*
X31861904Y-141403095D01*
X31861904Y-141403095D02*
X31909523Y-141593571D01*
X31909523Y-141593571D02*
X31909523Y-141831666D01*
X31909523Y-141831666D02*
X31861904Y-142022142D01*
X31861904Y-142022142D02*
X31814285Y-142117380D01*
X31814285Y-142117380D02*
X31766666Y-142165000D01*
X31766666Y-142165000D02*
X31671428Y-142212619D01*
X31671428Y-142212619D02*
X31576190Y-142212619D01*
X31576190Y-142212619D02*
X31480952Y-142165000D01*
X31480952Y-142165000D02*
X31433333Y-142117380D01*
X31433333Y-142117380D02*
X31385714Y-142022142D01*
X31385714Y-142022142D02*
X31338095Y-141831666D01*
X31338095Y-141831666D02*
X31338095Y-141593571D01*
X31338095Y-141593571D02*
X31385714Y-141403095D01*
X31385714Y-141403095D02*
X31433333Y-141307857D01*
X31433333Y-141307857D02*
X31480952Y-141260238D01*
X31480952Y-141260238D02*
X31576190Y-141212619D01*
X32528571Y-141212619D02*
X32623809Y-141212619D01*
X32623809Y-141212619D02*
X32719047Y-141260238D01*
X32719047Y-141260238D02*
X32766666Y-141307857D01*
X32766666Y-141307857D02*
X32814285Y-141403095D01*
X32814285Y-141403095D02*
X32861904Y-141593571D01*
X32861904Y-141593571D02*
X32861904Y-141831666D01*
X32861904Y-141831666D02*
X32814285Y-142022142D01*
X32814285Y-142022142D02*
X32766666Y-142117380D01*
X32766666Y-142117380D02*
X32719047Y-142165000D01*
X32719047Y-142165000D02*
X32623809Y-142212619D01*
X32623809Y-142212619D02*
X32528571Y-142212619D01*
X32528571Y-142212619D02*
X32433333Y-142165000D01*
X32433333Y-142165000D02*
X32385714Y-142117380D01*
X32385714Y-142117380D02*
X32338095Y-142022142D01*
X32338095Y-142022142D02*
X32290476Y-141831666D01*
X32290476Y-141831666D02*
X32290476Y-141593571D01*
X32290476Y-141593571D02*
X32338095Y-141403095D01*
X32338095Y-141403095D02*
X32385714Y-141307857D01*
X32385714Y-141307857D02*
X32433333Y-141260238D01*
X32433333Y-141260238D02*
X32528571Y-141212619D01*
X33480952Y-141212619D02*
X33576190Y-141212619D01*
X33576190Y-141212619D02*
X33671428Y-141260238D01*
X33671428Y-141260238D02*
X33719047Y-141307857D01*
X33719047Y-141307857D02*
X33766666Y-141403095D01*
X33766666Y-141403095D02*
X33814285Y-141593571D01*
X33814285Y-141593571D02*
X33814285Y-141831666D01*
X33814285Y-141831666D02*
X33766666Y-142022142D01*
X33766666Y-142022142D02*
X33719047Y-142117380D01*
X33719047Y-142117380D02*
X33671428Y-142165000D01*
X33671428Y-142165000D02*
X33576190Y-142212619D01*
X33576190Y-142212619D02*
X33480952Y-142212619D01*
X33480952Y-142212619D02*
X33385714Y-142165000D01*
X33385714Y-142165000D02*
X33338095Y-142117380D01*
X33338095Y-142117380D02*
X33290476Y-142022142D01*
X33290476Y-142022142D02*
X33242857Y-141831666D01*
X33242857Y-141831666D02*
X33242857Y-141593571D01*
X33242857Y-141593571D02*
X33290476Y-141403095D01*
X33290476Y-141403095D02*
X33338095Y-141307857D01*
X33338095Y-141307857D02*
X33385714Y-141260238D01*
X33385714Y-141260238D02*
X33480952Y-141212619D01*
X35004762Y-142212619D02*
X35004762Y-141545952D01*
X35004762Y-141641190D02*
X35052381Y-141593571D01*
X35052381Y-141593571D02*
X35147619Y-141545952D01*
X35147619Y-141545952D02*
X35290476Y-141545952D01*
X35290476Y-141545952D02*
X35385714Y-141593571D01*
X35385714Y-141593571D02*
X35433333Y-141688809D01*
X35433333Y-141688809D02*
X35433333Y-142212619D01*
X35433333Y-141688809D02*
X35480952Y-141593571D01*
X35480952Y-141593571D02*
X35576190Y-141545952D01*
X35576190Y-141545952D02*
X35719047Y-141545952D01*
X35719047Y-141545952D02*
X35814286Y-141593571D01*
X35814286Y-141593571D02*
X35861905Y-141688809D01*
X35861905Y-141688809D02*
X35861905Y-142212619D01*
X36338095Y-142212619D02*
X36338095Y-141545952D01*
X36338095Y-141641190D02*
X36385714Y-141593571D01*
X36385714Y-141593571D02*
X36480952Y-141545952D01*
X36480952Y-141545952D02*
X36623809Y-141545952D01*
X36623809Y-141545952D02*
X36719047Y-141593571D01*
X36719047Y-141593571D02*
X36766666Y-141688809D01*
X36766666Y-141688809D02*
X36766666Y-142212619D01*
X36766666Y-141688809D02*
X36814285Y-141593571D01*
X36814285Y-141593571D02*
X36909523Y-141545952D01*
X36909523Y-141545952D02*
X37052380Y-141545952D01*
X37052380Y-141545952D02*
X37147619Y-141593571D01*
X37147619Y-141593571D02*
X37195238Y-141688809D01*
X37195238Y-141688809D02*
X37195238Y-142212619D01*
X35100000Y-143400000D02*
X35100000Y-143486420D01*
X31100000Y-143400000D02*
X31100000Y-143486420D01*
X35100000Y-142900000D02*
X31100000Y-142900000D01*
X35100000Y-142900000D02*
X31100000Y-142900000D01*
X35100000Y-142900000D02*
X33973496Y-143486421D01*
X35100000Y-142900000D02*
X33973496Y-142313579D01*
X31100000Y-142900000D02*
X32226504Y-142313579D01*
X31100000Y-142900000D02*
X32226504Y-143486421D01*
X399745952Y-148666666D02*
X400412619Y-148666666D01*
X399365000Y-148904761D02*
X400079285Y-149142856D01*
X400079285Y-149142856D02*
X400079285Y-148523809D01*
X400317380Y-148142856D02*
X400365000Y-148095237D01*
X400365000Y-148095237D02*
X400412619Y-148142856D01*
X400412619Y-148142856D02*
X400365000Y-148190475D01*
X400365000Y-148190475D02*
X400317380Y-148142856D01*
X400317380Y-148142856D02*
X400412619Y-148142856D01*
X399412619Y-147476190D02*
X399412619Y-147380952D01*
X399412619Y-147380952D02*
X399460238Y-147285714D01*
X399460238Y-147285714D02*
X399507857Y-147238095D01*
X399507857Y-147238095D02*
X399603095Y-147190476D01*
X399603095Y-147190476D02*
X399793571Y-147142857D01*
X399793571Y-147142857D02*
X400031666Y-147142857D01*
X400031666Y-147142857D02*
X400222142Y-147190476D01*
X400222142Y-147190476D02*
X400317380Y-147238095D01*
X400317380Y-147238095D02*
X400365000Y-147285714D01*
X400365000Y-147285714D02*
X400412619Y-147380952D01*
X400412619Y-147380952D02*
X400412619Y-147476190D01*
X400412619Y-147476190D02*
X400365000Y-147571428D01*
X400365000Y-147571428D02*
X400317380Y-147619047D01*
X400317380Y-147619047D02*
X400222142Y-147666666D01*
X400222142Y-147666666D02*
X400031666Y-147714285D01*
X400031666Y-147714285D02*
X399793571Y-147714285D01*
X399793571Y-147714285D02*
X399603095Y-147666666D01*
X399603095Y-147666666D02*
X399507857Y-147619047D01*
X399507857Y-147619047D02*
X399460238Y-147571428D01*
X399460238Y-147571428D02*
X399412619Y-147476190D01*
X399412619Y-146523809D02*
X399412619Y-146428571D01*
X399412619Y-146428571D02*
X399460238Y-146333333D01*
X399460238Y-146333333D02*
X399507857Y-146285714D01*
X399507857Y-146285714D02*
X399603095Y-146238095D01*
X399603095Y-146238095D02*
X399793571Y-146190476D01*
X399793571Y-146190476D02*
X400031666Y-146190476D01*
X400031666Y-146190476D02*
X400222142Y-146238095D01*
X400222142Y-146238095D02*
X400317380Y-146285714D01*
X400317380Y-146285714D02*
X400365000Y-146333333D01*
X400365000Y-146333333D02*
X400412619Y-146428571D01*
X400412619Y-146428571D02*
X400412619Y-146523809D01*
X400412619Y-146523809D02*
X400365000Y-146619047D01*
X400365000Y-146619047D02*
X400317380Y-146666666D01*
X400317380Y-146666666D02*
X400222142Y-146714285D01*
X400222142Y-146714285D02*
X400031666Y-146761904D01*
X400031666Y-146761904D02*
X399793571Y-146761904D01*
X399793571Y-146761904D02*
X399603095Y-146714285D01*
X399603095Y-146714285D02*
X399507857Y-146666666D01*
X399507857Y-146666666D02*
X399460238Y-146619047D01*
X399460238Y-146619047D02*
X399412619Y-146523809D01*
X399412619Y-145571428D02*
X399412619Y-145476190D01*
X399412619Y-145476190D02*
X399460238Y-145380952D01*
X399460238Y-145380952D02*
X399507857Y-145333333D01*
X399507857Y-145333333D02*
X399603095Y-145285714D01*
X399603095Y-145285714D02*
X399793571Y-145238095D01*
X399793571Y-145238095D02*
X400031666Y-145238095D01*
X400031666Y-145238095D02*
X400222142Y-145285714D01*
X400222142Y-145285714D02*
X400317380Y-145333333D01*
X400317380Y-145333333D02*
X400365000Y-145380952D01*
X400365000Y-145380952D02*
X400412619Y-145476190D01*
X400412619Y-145476190D02*
X400412619Y-145571428D01*
X400412619Y-145571428D02*
X400365000Y-145666666D01*
X400365000Y-145666666D02*
X400317380Y-145714285D01*
X400317380Y-145714285D02*
X400222142Y-145761904D01*
X400222142Y-145761904D02*
X400031666Y-145809523D01*
X400031666Y-145809523D02*
X399793571Y-145809523D01*
X399793571Y-145809523D02*
X399603095Y-145761904D01*
X399603095Y-145761904D02*
X399507857Y-145714285D01*
X399507857Y-145714285D02*
X399460238Y-145666666D01*
X399460238Y-145666666D02*
X399412619Y-145571428D01*
X399412619Y-144619047D02*
X399412619Y-144523809D01*
X399412619Y-144523809D02*
X399460238Y-144428571D01*
X399460238Y-144428571D02*
X399507857Y-144380952D01*
X399507857Y-144380952D02*
X399603095Y-144333333D01*
X399603095Y-144333333D02*
X399793571Y-144285714D01*
X399793571Y-144285714D02*
X400031666Y-144285714D01*
X400031666Y-144285714D02*
X400222142Y-144333333D01*
X400222142Y-144333333D02*
X400317380Y-144380952D01*
X400317380Y-144380952D02*
X400365000Y-144428571D01*
X400365000Y-144428571D02*
X400412619Y-144523809D01*
X400412619Y-144523809D02*
X400412619Y-144619047D01*
X400412619Y-144619047D02*
X400365000Y-144714285D01*
X400365000Y-144714285D02*
X400317380Y-144761904D01*
X400317380Y-144761904D02*
X400222142Y-144809523D01*
X400222142Y-144809523D02*
X400031666Y-144857142D01*
X400031666Y-144857142D02*
X399793571Y-144857142D01*
X399793571Y-144857142D02*
X399603095Y-144809523D01*
X399603095Y-144809523D02*
X399507857Y-144761904D01*
X399507857Y-144761904D02*
X399460238Y-144714285D01*
X399460238Y-144714285D02*
X399412619Y-144619047D01*
X400412619Y-143095237D02*
X399745952Y-143095237D01*
X399841190Y-143095237D02*
X399793571Y-143047618D01*
X399793571Y-143047618D02*
X399745952Y-142952380D01*
X399745952Y-142952380D02*
X399745952Y-142809523D01*
X399745952Y-142809523D02*
X399793571Y-142714285D01*
X399793571Y-142714285D02*
X399888809Y-142666666D01*
X399888809Y-142666666D02*
X400412619Y-142666666D01*
X399888809Y-142666666D02*
X399793571Y-142619047D01*
X399793571Y-142619047D02*
X399745952Y-142523809D01*
X399745952Y-142523809D02*
X399745952Y-142380952D01*
X399745952Y-142380952D02*
X399793571Y-142285713D01*
X399793571Y-142285713D02*
X399888809Y-142238094D01*
X399888809Y-142238094D02*
X400412619Y-142238094D01*
X400412619Y-141761904D02*
X399745952Y-141761904D01*
X399841190Y-141761904D02*
X399793571Y-141714285D01*
X399793571Y-141714285D02*
X399745952Y-141619047D01*
X399745952Y-141619047D02*
X399745952Y-141476190D01*
X399745952Y-141476190D02*
X399793571Y-141380952D01*
X399793571Y-141380952D02*
X399888809Y-141333333D01*
X399888809Y-141333333D02*
X400412619Y-141333333D01*
X399888809Y-141333333D02*
X399793571Y-141285714D01*
X399793571Y-141285714D02*
X399745952Y-141190476D01*
X399745952Y-141190476D02*
X399745952Y-141047619D01*
X399745952Y-141047619D02*
X399793571Y-140952380D01*
X399793571Y-140952380D02*
X399888809Y-140904761D01*
X399888809Y-140904761D02*
X400412619Y-140904761D01*
X400600000Y-147000000D02*
X400513580Y-147000000D01*
X400600000Y-143000000D02*
X400513580Y-143000000D01*
X401100000Y-147000000D02*
X401100000Y-143000000D01*
X401100000Y-147000000D02*
X401100000Y-143000000D01*
X401100000Y-147000000D02*
X400513579Y-145873496D01*
X401100000Y-147000000D02*
X401686421Y-145873496D01*
X401100000Y-143000000D02*
X401686421Y-144126504D01*
X401100000Y-143000000D02*
X400513579Y-144126504D01*
X205045952Y-38666666D02*
X205712619Y-38666666D01*
X204665000Y-38904761D02*
X205379285Y-39142856D01*
X205379285Y-39142856D02*
X205379285Y-38523809D01*
X205617380Y-38142856D02*
X205665000Y-38095237D01*
X205665000Y-38095237D02*
X205712619Y-38142856D01*
X205712619Y-38142856D02*
X205665000Y-38190475D01*
X205665000Y-38190475D02*
X205617380Y-38142856D01*
X205617380Y-38142856D02*
X205712619Y-38142856D01*
X204712619Y-37476190D02*
X204712619Y-37380952D01*
X204712619Y-37380952D02*
X204760238Y-37285714D01*
X204760238Y-37285714D02*
X204807857Y-37238095D01*
X204807857Y-37238095D02*
X204903095Y-37190476D01*
X204903095Y-37190476D02*
X205093571Y-37142857D01*
X205093571Y-37142857D02*
X205331666Y-37142857D01*
X205331666Y-37142857D02*
X205522142Y-37190476D01*
X205522142Y-37190476D02*
X205617380Y-37238095D01*
X205617380Y-37238095D02*
X205665000Y-37285714D01*
X205665000Y-37285714D02*
X205712619Y-37380952D01*
X205712619Y-37380952D02*
X205712619Y-37476190D01*
X205712619Y-37476190D02*
X205665000Y-37571428D01*
X205665000Y-37571428D02*
X205617380Y-37619047D01*
X205617380Y-37619047D02*
X205522142Y-37666666D01*
X205522142Y-37666666D02*
X205331666Y-37714285D01*
X205331666Y-37714285D02*
X205093571Y-37714285D01*
X205093571Y-37714285D02*
X204903095Y-37666666D01*
X204903095Y-37666666D02*
X204807857Y-37619047D01*
X204807857Y-37619047D02*
X204760238Y-37571428D01*
X204760238Y-37571428D02*
X204712619Y-37476190D01*
X204712619Y-36523809D02*
X204712619Y-36428571D01*
X204712619Y-36428571D02*
X204760238Y-36333333D01*
X204760238Y-36333333D02*
X204807857Y-36285714D01*
X204807857Y-36285714D02*
X204903095Y-36238095D01*
X204903095Y-36238095D02*
X205093571Y-36190476D01*
X205093571Y-36190476D02*
X205331666Y-36190476D01*
X205331666Y-36190476D02*
X205522142Y-36238095D01*
X205522142Y-36238095D02*
X205617380Y-36285714D01*
X205617380Y-36285714D02*
X205665000Y-36333333D01*
X205665000Y-36333333D02*
X205712619Y-36428571D01*
X205712619Y-36428571D02*
X205712619Y-36523809D01*
X205712619Y-36523809D02*
X205665000Y-36619047D01*
X205665000Y-36619047D02*
X205617380Y-36666666D01*
X205617380Y-36666666D02*
X205522142Y-36714285D01*
X205522142Y-36714285D02*
X205331666Y-36761904D01*
X205331666Y-36761904D02*
X205093571Y-36761904D01*
X205093571Y-36761904D02*
X204903095Y-36714285D01*
X204903095Y-36714285D02*
X204807857Y-36666666D01*
X204807857Y-36666666D02*
X204760238Y-36619047D01*
X204760238Y-36619047D02*
X204712619Y-36523809D01*
X204712619Y-35571428D02*
X204712619Y-35476190D01*
X204712619Y-35476190D02*
X204760238Y-35380952D01*
X204760238Y-35380952D02*
X204807857Y-35333333D01*
X204807857Y-35333333D02*
X204903095Y-35285714D01*
X204903095Y-35285714D02*
X205093571Y-35238095D01*
X205093571Y-35238095D02*
X205331666Y-35238095D01*
X205331666Y-35238095D02*
X205522142Y-35285714D01*
X205522142Y-35285714D02*
X205617380Y-35333333D01*
X205617380Y-35333333D02*
X205665000Y-35380952D01*
X205665000Y-35380952D02*
X205712619Y-35476190D01*
X205712619Y-35476190D02*
X205712619Y-35571428D01*
X205712619Y-35571428D02*
X205665000Y-35666666D01*
X205665000Y-35666666D02*
X205617380Y-35714285D01*
X205617380Y-35714285D02*
X205522142Y-35761904D01*
X205522142Y-35761904D02*
X205331666Y-35809523D01*
X205331666Y-35809523D02*
X205093571Y-35809523D01*
X205093571Y-35809523D02*
X204903095Y-35761904D01*
X204903095Y-35761904D02*
X204807857Y-35714285D01*
X204807857Y-35714285D02*
X204760238Y-35666666D01*
X204760238Y-35666666D02*
X204712619Y-35571428D01*
X204712619Y-34619047D02*
X204712619Y-34523809D01*
X204712619Y-34523809D02*
X204760238Y-34428571D01*
X204760238Y-34428571D02*
X204807857Y-34380952D01*
X204807857Y-34380952D02*
X204903095Y-34333333D01*
X204903095Y-34333333D02*
X205093571Y-34285714D01*
X205093571Y-34285714D02*
X205331666Y-34285714D01*
X205331666Y-34285714D02*
X205522142Y-34333333D01*
X205522142Y-34333333D02*
X205617380Y-34380952D01*
X205617380Y-34380952D02*
X205665000Y-34428571D01*
X205665000Y-34428571D02*
X205712619Y-34523809D01*
X205712619Y-34523809D02*
X205712619Y-34619047D01*
X205712619Y-34619047D02*
X205665000Y-34714285D01*
X205665000Y-34714285D02*
X205617380Y-34761904D01*
X205617380Y-34761904D02*
X205522142Y-34809523D01*
X205522142Y-34809523D02*
X205331666Y-34857142D01*
X205331666Y-34857142D02*
X205093571Y-34857142D01*
X205093571Y-34857142D02*
X204903095Y-34809523D01*
X204903095Y-34809523D02*
X204807857Y-34761904D01*
X204807857Y-34761904D02*
X204760238Y-34714285D01*
X204760238Y-34714285D02*
X204712619Y-34619047D01*
X205712619Y-33095237D02*
X205045952Y-33095237D01*
X205141190Y-33095237D02*
X205093571Y-33047618D01*
X205093571Y-33047618D02*
X205045952Y-32952380D01*
X205045952Y-32952380D02*
X205045952Y-32809523D01*
X205045952Y-32809523D02*
X205093571Y-32714285D01*
X205093571Y-32714285D02*
X205188809Y-32666666D01*
X205188809Y-32666666D02*
X205712619Y-32666666D01*
X205188809Y-32666666D02*
X205093571Y-32619047D01*
X205093571Y-32619047D02*
X205045952Y-32523809D01*
X205045952Y-32523809D02*
X205045952Y-32380952D01*
X205045952Y-32380952D02*
X205093571Y-32285713D01*
X205093571Y-32285713D02*
X205188809Y-32238094D01*
X205188809Y-32238094D02*
X205712619Y-32238094D01*
X205712619Y-31761904D02*
X205045952Y-31761904D01*
X205141190Y-31761904D02*
X205093571Y-31714285D01*
X205093571Y-31714285D02*
X205045952Y-31619047D01*
X205045952Y-31619047D02*
X205045952Y-31476190D01*
X205045952Y-31476190D02*
X205093571Y-31380952D01*
X205093571Y-31380952D02*
X205188809Y-31333333D01*
X205188809Y-31333333D02*
X205712619Y-31333333D01*
X205188809Y-31333333D02*
X205093571Y-31285714D01*
X205093571Y-31285714D02*
X205045952Y-31190476D01*
X205045952Y-31190476D02*
X205045952Y-31047619D01*
X205045952Y-31047619D02*
X205093571Y-30952380D01*
X205093571Y-30952380D02*
X205188809Y-30904761D01*
X205188809Y-30904761D02*
X205712619Y-30904761D01*
X206900000Y-33000000D02*
X206986420Y-33000000D01*
X206900000Y-37000000D02*
X206986420Y-37000000D01*
X206400000Y-33000000D02*
X206400000Y-37000000D01*
X206400000Y-33000000D02*
X206400000Y-37000000D01*
X206400000Y-33000000D02*
X206986421Y-34126504D01*
X206400000Y-33000000D02*
X205813579Y-34126504D01*
X206400000Y-37000000D02*
X205813579Y-35873496D01*
X206400000Y-37000000D02*
X206986421Y-35873496D01*
X33412619Y-39040475D02*
X33412619Y-38421428D01*
X33412619Y-38421428D02*
X33793571Y-38754761D01*
X33793571Y-38754761D02*
X33793571Y-38611904D01*
X33793571Y-38611904D02*
X33841190Y-38516666D01*
X33841190Y-38516666D02*
X33888809Y-38469047D01*
X33888809Y-38469047D02*
X33984047Y-38421428D01*
X33984047Y-38421428D02*
X34222142Y-38421428D01*
X34222142Y-38421428D02*
X34317380Y-38469047D01*
X34317380Y-38469047D02*
X34365000Y-38516666D01*
X34365000Y-38516666D02*
X34412619Y-38611904D01*
X34412619Y-38611904D02*
X34412619Y-38897618D01*
X34412619Y-38897618D02*
X34365000Y-38992856D01*
X34365000Y-38992856D02*
X34317380Y-39040475D01*
X34317380Y-37992856D02*
X34365000Y-37945237D01*
X34365000Y-37945237D02*
X34412619Y-37992856D01*
X34412619Y-37992856D02*
X34365000Y-38040475D01*
X34365000Y-38040475D02*
X34317380Y-37992856D01*
X34317380Y-37992856D02*
X34412619Y-37992856D01*
X33412619Y-37040476D02*
X33412619Y-37516666D01*
X33412619Y-37516666D02*
X33888809Y-37564285D01*
X33888809Y-37564285D02*
X33841190Y-37516666D01*
X33841190Y-37516666D02*
X33793571Y-37421428D01*
X33793571Y-37421428D02*
X33793571Y-37183333D01*
X33793571Y-37183333D02*
X33841190Y-37088095D01*
X33841190Y-37088095D02*
X33888809Y-37040476D01*
X33888809Y-37040476D02*
X33984047Y-36992857D01*
X33984047Y-36992857D02*
X34222142Y-36992857D01*
X34222142Y-36992857D02*
X34317380Y-37040476D01*
X34317380Y-37040476D02*
X34365000Y-37088095D01*
X34365000Y-37088095D02*
X34412619Y-37183333D01*
X34412619Y-37183333D02*
X34412619Y-37421428D01*
X34412619Y-37421428D02*
X34365000Y-37516666D01*
X34365000Y-37516666D02*
X34317380Y-37564285D01*
X33412619Y-36373809D02*
X33412619Y-36278571D01*
X33412619Y-36278571D02*
X33460238Y-36183333D01*
X33460238Y-36183333D02*
X33507857Y-36135714D01*
X33507857Y-36135714D02*
X33603095Y-36088095D01*
X33603095Y-36088095D02*
X33793571Y-36040476D01*
X33793571Y-36040476D02*
X34031666Y-36040476D01*
X34031666Y-36040476D02*
X34222142Y-36088095D01*
X34222142Y-36088095D02*
X34317380Y-36135714D01*
X34317380Y-36135714D02*
X34365000Y-36183333D01*
X34365000Y-36183333D02*
X34412619Y-36278571D01*
X34412619Y-36278571D02*
X34412619Y-36373809D01*
X34412619Y-36373809D02*
X34365000Y-36469047D01*
X34365000Y-36469047D02*
X34317380Y-36516666D01*
X34317380Y-36516666D02*
X34222142Y-36564285D01*
X34222142Y-36564285D02*
X34031666Y-36611904D01*
X34031666Y-36611904D02*
X33793571Y-36611904D01*
X33793571Y-36611904D02*
X33603095Y-36564285D01*
X33603095Y-36564285D02*
X33507857Y-36516666D01*
X33507857Y-36516666D02*
X33460238Y-36469047D01*
X33460238Y-36469047D02*
X33412619Y-36373809D01*
X33412619Y-35421428D02*
X33412619Y-35326190D01*
X33412619Y-35326190D02*
X33460238Y-35230952D01*
X33460238Y-35230952D02*
X33507857Y-35183333D01*
X33507857Y-35183333D02*
X33603095Y-35135714D01*
X33603095Y-35135714D02*
X33793571Y-35088095D01*
X33793571Y-35088095D02*
X34031666Y-35088095D01*
X34031666Y-35088095D02*
X34222142Y-35135714D01*
X34222142Y-35135714D02*
X34317380Y-35183333D01*
X34317380Y-35183333D02*
X34365000Y-35230952D01*
X34365000Y-35230952D02*
X34412619Y-35326190D01*
X34412619Y-35326190D02*
X34412619Y-35421428D01*
X34412619Y-35421428D02*
X34365000Y-35516666D01*
X34365000Y-35516666D02*
X34317380Y-35564285D01*
X34317380Y-35564285D02*
X34222142Y-35611904D01*
X34222142Y-35611904D02*
X34031666Y-35659523D01*
X34031666Y-35659523D02*
X33793571Y-35659523D01*
X33793571Y-35659523D02*
X33603095Y-35611904D01*
X33603095Y-35611904D02*
X33507857Y-35564285D01*
X33507857Y-35564285D02*
X33460238Y-35516666D01*
X33460238Y-35516666D02*
X33412619Y-35421428D01*
X33412619Y-34469047D02*
X33412619Y-34373809D01*
X33412619Y-34373809D02*
X33460238Y-34278571D01*
X33460238Y-34278571D02*
X33507857Y-34230952D01*
X33507857Y-34230952D02*
X33603095Y-34183333D01*
X33603095Y-34183333D02*
X33793571Y-34135714D01*
X33793571Y-34135714D02*
X34031666Y-34135714D01*
X34031666Y-34135714D02*
X34222142Y-34183333D01*
X34222142Y-34183333D02*
X34317380Y-34230952D01*
X34317380Y-34230952D02*
X34365000Y-34278571D01*
X34365000Y-34278571D02*
X34412619Y-34373809D01*
X34412619Y-34373809D02*
X34412619Y-34469047D01*
X34412619Y-34469047D02*
X34365000Y-34564285D01*
X34365000Y-34564285D02*
X34317380Y-34611904D01*
X34317380Y-34611904D02*
X34222142Y-34659523D01*
X34222142Y-34659523D02*
X34031666Y-34707142D01*
X34031666Y-34707142D02*
X33793571Y-34707142D01*
X33793571Y-34707142D02*
X33603095Y-34659523D01*
X33603095Y-34659523D02*
X33507857Y-34611904D01*
X33507857Y-34611904D02*
X33460238Y-34564285D01*
X33460238Y-34564285D02*
X33412619Y-34469047D01*
X34412619Y-32945237D02*
X33745952Y-32945237D01*
X33841190Y-32945237D02*
X33793571Y-32897618D01*
X33793571Y-32897618D02*
X33745952Y-32802380D01*
X33745952Y-32802380D02*
X33745952Y-32659523D01*
X33745952Y-32659523D02*
X33793571Y-32564285D01*
X33793571Y-32564285D02*
X33888809Y-32516666D01*
X33888809Y-32516666D02*
X34412619Y-32516666D01*
X33888809Y-32516666D02*
X33793571Y-32469047D01*
X33793571Y-32469047D02*
X33745952Y-32373809D01*
X33745952Y-32373809D02*
X33745952Y-32230952D01*
X33745952Y-32230952D02*
X33793571Y-32135713D01*
X33793571Y-32135713D02*
X33888809Y-32088094D01*
X33888809Y-32088094D02*
X34412619Y-32088094D01*
X34412619Y-31611904D02*
X33745952Y-31611904D01*
X33841190Y-31611904D02*
X33793571Y-31564285D01*
X33793571Y-31564285D02*
X33745952Y-31469047D01*
X33745952Y-31469047D02*
X33745952Y-31326190D01*
X33745952Y-31326190D02*
X33793571Y-31230952D01*
X33793571Y-31230952D02*
X33888809Y-31183333D01*
X33888809Y-31183333D02*
X34412619Y-31183333D01*
X33888809Y-31183333D02*
X33793571Y-31135714D01*
X33793571Y-31135714D02*
X33745952Y-31040476D01*
X33745952Y-31040476D02*
X33745952Y-30897619D01*
X33745952Y-30897619D02*
X33793571Y-30802380D01*
X33793571Y-30802380D02*
X33888809Y-30754761D01*
X33888809Y-30754761D02*
X34412619Y-30754761D01*
X34600000Y-36600000D02*
X34513580Y-36600000D01*
X34600000Y-33100000D02*
X34513580Y-33100000D01*
X35100000Y-36600000D02*
X35100000Y-33100000D01*
X35100000Y-36600000D02*
X35100000Y-33100000D01*
X35100000Y-36600000D02*
X34513579Y-35473496D01*
X35100000Y-36600000D02*
X35686421Y-35473496D01*
X35100000Y-33100000D02*
X35686421Y-34226504D01*
X35100000Y-33100000D02*
X34513579Y-34226504D01*
X229045952Y-38666666D02*
X229712619Y-38666666D01*
X228665000Y-38904761D02*
X229379285Y-39142856D01*
X229379285Y-39142856D02*
X229379285Y-38523809D01*
X229617380Y-38142856D02*
X229665000Y-38095237D01*
X229665000Y-38095237D02*
X229712619Y-38142856D01*
X229712619Y-38142856D02*
X229665000Y-38190475D01*
X229665000Y-38190475D02*
X229617380Y-38142856D01*
X229617380Y-38142856D02*
X229712619Y-38142856D01*
X228712619Y-37476190D02*
X228712619Y-37380952D01*
X228712619Y-37380952D02*
X228760238Y-37285714D01*
X228760238Y-37285714D02*
X228807857Y-37238095D01*
X228807857Y-37238095D02*
X228903095Y-37190476D01*
X228903095Y-37190476D02*
X229093571Y-37142857D01*
X229093571Y-37142857D02*
X229331666Y-37142857D01*
X229331666Y-37142857D02*
X229522142Y-37190476D01*
X229522142Y-37190476D02*
X229617380Y-37238095D01*
X229617380Y-37238095D02*
X229665000Y-37285714D01*
X229665000Y-37285714D02*
X229712619Y-37380952D01*
X229712619Y-37380952D02*
X229712619Y-37476190D01*
X229712619Y-37476190D02*
X229665000Y-37571428D01*
X229665000Y-37571428D02*
X229617380Y-37619047D01*
X229617380Y-37619047D02*
X229522142Y-37666666D01*
X229522142Y-37666666D02*
X229331666Y-37714285D01*
X229331666Y-37714285D02*
X229093571Y-37714285D01*
X229093571Y-37714285D02*
X228903095Y-37666666D01*
X228903095Y-37666666D02*
X228807857Y-37619047D01*
X228807857Y-37619047D02*
X228760238Y-37571428D01*
X228760238Y-37571428D02*
X228712619Y-37476190D01*
X228712619Y-36523809D02*
X228712619Y-36428571D01*
X228712619Y-36428571D02*
X228760238Y-36333333D01*
X228760238Y-36333333D02*
X228807857Y-36285714D01*
X228807857Y-36285714D02*
X228903095Y-36238095D01*
X228903095Y-36238095D02*
X229093571Y-36190476D01*
X229093571Y-36190476D02*
X229331666Y-36190476D01*
X229331666Y-36190476D02*
X229522142Y-36238095D01*
X229522142Y-36238095D02*
X229617380Y-36285714D01*
X229617380Y-36285714D02*
X229665000Y-36333333D01*
X229665000Y-36333333D02*
X229712619Y-36428571D01*
X229712619Y-36428571D02*
X229712619Y-36523809D01*
X229712619Y-36523809D02*
X229665000Y-36619047D01*
X229665000Y-36619047D02*
X229617380Y-36666666D01*
X229617380Y-36666666D02*
X229522142Y-36714285D01*
X229522142Y-36714285D02*
X229331666Y-36761904D01*
X229331666Y-36761904D02*
X229093571Y-36761904D01*
X229093571Y-36761904D02*
X228903095Y-36714285D01*
X228903095Y-36714285D02*
X228807857Y-36666666D01*
X228807857Y-36666666D02*
X228760238Y-36619047D01*
X228760238Y-36619047D02*
X228712619Y-36523809D01*
X228712619Y-35571428D02*
X228712619Y-35476190D01*
X228712619Y-35476190D02*
X228760238Y-35380952D01*
X228760238Y-35380952D02*
X228807857Y-35333333D01*
X228807857Y-35333333D02*
X228903095Y-35285714D01*
X228903095Y-35285714D02*
X229093571Y-35238095D01*
X229093571Y-35238095D02*
X229331666Y-35238095D01*
X229331666Y-35238095D02*
X229522142Y-35285714D01*
X229522142Y-35285714D02*
X229617380Y-35333333D01*
X229617380Y-35333333D02*
X229665000Y-35380952D01*
X229665000Y-35380952D02*
X229712619Y-35476190D01*
X229712619Y-35476190D02*
X229712619Y-35571428D01*
X229712619Y-35571428D02*
X229665000Y-35666666D01*
X229665000Y-35666666D02*
X229617380Y-35714285D01*
X229617380Y-35714285D02*
X229522142Y-35761904D01*
X229522142Y-35761904D02*
X229331666Y-35809523D01*
X229331666Y-35809523D02*
X229093571Y-35809523D01*
X229093571Y-35809523D02*
X228903095Y-35761904D01*
X228903095Y-35761904D02*
X228807857Y-35714285D01*
X228807857Y-35714285D02*
X228760238Y-35666666D01*
X228760238Y-35666666D02*
X228712619Y-35571428D01*
X228712619Y-34619047D02*
X228712619Y-34523809D01*
X228712619Y-34523809D02*
X228760238Y-34428571D01*
X228760238Y-34428571D02*
X228807857Y-34380952D01*
X228807857Y-34380952D02*
X228903095Y-34333333D01*
X228903095Y-34333333D02*
X229093571Y-34285714D01*
X229093571Y-34285714D02*
X229331666Y-34285714D01*
X229331666Y-34285714D02*
X229522142Y-34333333D01*
X229522142Y-34333333D02*
X229617380Y-34380952D01*
X229617380Y-34380952D02*
X229665000Y-34428571D01*
X229665000Y-34428571D02*
X229712619Y-34523809D01*
X229712619Y-34523809D02*
X229712619Y-34619047D01*
X229712619Y-34619047D02*
X229665000Y-34714285D01*
X229665000Y-34714285D02*
X229617380Y-34761904D01*
X229617380Y-34761904D02*
X229522142Y-34809523D01*
X229522142Y-34809523D02*
X229331666Y-34857142D01*
X229331666Y-34857142D02*
X229093571Y-34857142D01*
X229093571Y-34857142D02*
X228903095Y-34809523D01*
X228903095Y-34809523D02*
X228807857Y-34761904D01*
X228807857Y-34761904D02*
X228760238Y-34714285D01*
X228760238Y-34714285D02*
X228712619Y-34619047D01*
X229712619Y-33095237D02*
X229045952Y-33095237D01*
X229141190Y-33095237D02*
X229093571Y-33047618D01*
X229093571Y-33047618D02*
X229045952Y-32952380D01*
X229045952Y-32952380D02*
X229045952Y-32809523D01*
X229045952Y-32809523D02*
X229093571Y-32714285D01*
X229093571Y-32714285D02*
X229188809Y-32666666D01*
X229188809Y-32666666D02*
X229712619Y-32666666D01*
X229188809Y-32666666D02*
X229093571Y-32619047D01*
X229093571Y-32619047D02*
X229045952Y-32523809D01*
X229045952Y-32523809D02*
X229045952Y-32380952D01*
X229045952Y-32380952D02*
X229093571Y-32285713D01*
X229093571Y-32285713D02*
X229188809Y-32238094D01*
X229188809Y-32238094D02*
X229712619Y-32238094D01*
X229712619Y-31761904D02*
X229045952Y-31761904D01*
X229141190Y-31761904D02*
X229093571Y-31714285D01*
X229093571Y-31714285D02*
X229045952Y-31619047D01*
X229045952Y-31619047D02*
X229045952Y-31476190D01*
X229045952Y-31476190D02*
X229093571Y-31380952D01*
X229093571Y-31380952D02*
X229188809Y-31333333D01*
X229188809Y-31333333D02*
X229712619Y-31333333D01*
X229188809Y-31333333D02*
X229093571Y-31285714D01*
X229093571Y-31285714D02*
X229045952Y-31190476D01*
X229045952Y-31190476D02*
X229045952Y-31047619D01*
X229045952Y-31047619D02*
X229093571Y-30952380D01*
X229093571Y-30952380D02*
X229188809Y-30904761D01*
X229188809Y-30904761D02*
X229712619Y-30904761D01*
X230900000Y-33000000D02*
X230986420Y-33000000D01*
X230900000Y-37000000D02*
X230986420Y-37000000D01*
X230400000Y-33000000D02*
X230400000Y-37000000D01*
X230400000Y-33000000D02*
X230400000Y-37000000D01*
X230400000Y-33000000D02*
X230986421Y-34126504D01*
X230400000Y-33000000D02*
X229813579Y-34126504D01*
X230400000Y-37000000D02*
X229813579Y-35873496D01*
X230400000Y-37000000D02*
X230986421Y-35873496D01*
%TO.C,H7*%
X232600000Y-37000000D02*
G75*
G03*
X232600000Y-37000000I-2200000J0D01*
G01*
%TO.C,H1*%
X208600000Y-36900000D02*
G75*
G03*
X208600000Y-36900000I-2200000J0D01*
G01*
%TO.C,H3*%
X404150000Y-142940000D02*
G75*
G03*
X404150000Y-142940000I-2200000J0D01*
G01*
%TO.C,H5*%
X405050000Y-36940000D02*
G75*
G03*
X405050000Y-36940000I-2200000J0D01*
G01*
%TO.C,H6*%
X37300000Y-36600000D02*
G75*
G03*
X37300000Y-36600000I-2200000J0D01*
G01*
%TO.C,H2*%
X220700000Y-186000000D02*
G75*
G03*
X220700000Y-186000000I-2200000J0D01*
G01*
%TO.C,H4*%
X37300000Y-142900000D02*
G75*
G03*
X37300000Y-142900000I-2200000J0D01*
G01*
%TD*%
M02*
