%TF.GenerationSoftware,KiCad,Pcbnew,7.0.2*%
%TF.CreationDate,2023-06-02T16:23:41-04:00*%
%TF.ProjectId,arisu,61726973-752e-46b6-9963-61645f706362,1.1*%
%TF.SameCoordinates,Original*%
%TF.FileFunction,Paste,Bot*%
%TF.FilePolarity,Positive*%
%FSLAX46Y46*%
G04 Gerber Fmt 4.6, Leading zero omitted, Abs format (unit mm)*
G04 Created by KiCad (PCBNEW 7.0.2) date 2023-06-02 16:23:41*
%MOMM*%
%LPD*%
G01*
G04 APERTURE LIST*
G04 Aperture macros list*
%AMRoundRect*
0 Rectangle with rounded corners*
0 $1 Rounding radius*
0 $2 $3 $4 $5 $6 $7 $8 $9 X,Y pos of 4 corners*
0 Add a 4 corners polygon primitive as box body*
4,1,4,$2,$3,$4,$5,$6,$7,$8,$9,$2,$3,0*
0 Add four circle primitives for the rounded corners*
1,1,$1+$1,$2,$3*
1,1,$1+$1,$4,$5*
1,1,$1+$1,$6,$7*
1,1,$1+$1,$8,$9*
0 Add four rect primitives between the rounded corners*
20,1,$1+$1,$2,$3,$4,$5,0*
20,1,$1+$1,$4,$5,$6,$7,0*
20,1,$1+$1,$6,$7,$8,$9,0*
20,1,$1+$1,$8,$9,$2,$3,0*%
%AMRotRect*
0 Rectangle, with rotation*
0 The origin of the aperture is its center*
0 $1 length*
0 $2 width*
0 $3 Rotation angle, in degrees counterclockwise*
0 Add horizontal line*
21,1,$1,$2,0,0,$3*%
G04 Aperture macros list end*
%ADD10RoundRect,0.250000X-1.025000X-1.000000X1.025000X-1.000000X1.025000X1.000000X-1.025000X1.000000X0*%
%ADD11RoundRect,0.250000X1.378525X-0.387676X0.353525X1.387676X-1.378525X0.387676X-0.353525X-1.387676X0*%
%ADD12RoundRect,0.250000X-1.387676X-0.353525X0.387676X-1.378525X1.387676X0.353525X-0.387676X1.378525X0*%
%ADD13RoundRect,0.250000X-0.387676X-1.378525X1.387676X-0.353525X0.387676X1.378525X-1.387676X0.353525X0*%
%ADD14RoundRect,0.250000X-0.353525X1.387676X-1.378525X-0.387676X0.353525X-1.387676X1.378525X0.387676X0*%
%ADD15RoundRect,0.225000X0.375000X-0.225000X0.375000X0.225000X-0.375000X0.225000X-0.375000X-0.225000X0*%
%ADD16R,1.500000X0.900000*%
%ADD17RoundRect,0.140000X0.021213X-0.219203X0.219203X-0.021213X-0.021213X0.219203X-0.219203X0.021213X0*%
%ADD18RoundRect,0.135000X-0.135000X-0.185000X0.135000X-0.185000X0.135000X0.185000X-0.135000X0.185000X0*%
%ADD19RoundRect,0.150000X0.150000X-0.650000X0.150000X0.650000X-0.150000X0.650000X-0.150000X-0.650000X0*%
%ADD20RoundRect,0.140000X0.219203X0.021213X0.021213X0.219203X-0.219203X-0.021213X-0.021213X-0.219203X0*%
%ADD21RoundRect,0.225000X0.437260X-0.007356X0.212260X0.382356X-0.437260X0.007356X-0.212260X-0.382356X0*%
%ADD22RoundRect,0.140000X0.140000X0.170000X-0.140000X0.170000X-0.140000X-0.170000X0.140000X-0.170000X0*%
%ADD23RoundRect,0.200000X-0.275000X0.200000X-0.275000X-0.200000X0.275000X-0.200000X0.275000X0.200000X0*%
%ADD24RoundRect,0.140000X-0.219203X-0.021213X-0.021213X-0.219203X0.219203X0.021213X0.021213X0.219203X0*%
%ADD25RoundRect,0.225000X0.007356X0.437260X-0.382356X0.212260X-0.007356X-0.437260X0.382356X-0.212260X0*%
%ADD26RoundRect,0.140000X-0.140000X-0.170000X0.140000X-0.170000X0.140000X0.170000X-0.140000X0.170000X0*%
%ADD27RoundRect,0.250000X0.292217X0.292217X-0.292217X0.292217X-0.292217X-0.292217X0.292217X-0.292217X0*%
%ADD28RoundRect,0.050000X0.387500X0.050000X-0.387500X0.050000X-0.387500X-0.050000X0.387500X-0.050000X0*%
%ADD29RoundRect,0.050000X0.050000X0.387500X-0.050000X0.387500X-0.050000X-0.387500X0.050000X-0.387500X0*%
%ADD30RoundRect,0.140000X-0.021213X0.219203X-0.219203X0.021213X0.021213X-0.219203X0.219203X-0.021213X0*%
%ADD31RoundRect,0.140000X0.170000X-0.140000X0.170000X0.140000X-0.170000X0.140000X-0.170000X-0.140000X0*%
%ADD32RoundRect,0.225000X-0.382356X-0.212260X0.007356X-0.437260X0.382356X0.212260X-0.007356X0.437260X0*%
%ADD33RoundRect,0.225000X0.212260X-0.382356X0.437260X0.007356X-0.212260X0.382356X-0.437260X-0.007356X0*%
%ADD34RoundRect,0.135000X0.185000X-0.135000X0.185000X0.135000X-0.185000X0.135000X-0.185000X-0.135000X0*%
%ADD35RotRect,1.400000X1.200000X45.000000*%
%ADD36RoundRect,0.225000X-0.335876X-0.017678X-0.017678X-0.335876X0.335876X0.017678X0.017678X0.335876X0*%
%ADD37RoundRect,0.135000X-0.035355X0.226274X-0.226274X0.035355X0.035355X-0.226274X0.226274X-0.035355X0*%
%ADD38RoundRect,0.140000X-0.170000X0.140000X-0.170000X-0.140000X0.170000X-0.140000X0.170000X0.140000X0*%
%ADD39RoundRect,0.135000X-0.185000X0.135000X-0.185000X-0.135000X0.185000X-0.135000X0.185000X0.135000X0*%
%ADD40RoundRect,0.150000X0.475000X0.150000X-0.475000X0.150000X-0.475000X-0.150000X0.475000X-0.150000X0*%
%ADD41R,0.600000X1.450000*%
%ADD42R,0.300000X1.450000*%
%ADD43RoundRect,0.150000X0.512500X0.150000X-0.512500X0.150000X-0.512500X-0.150000X0.512500X-0.150000X0*%
%ADD44RoundRect,0.250000X-0.625000X0.375000X-0.625000X-0.375000X0.625000X-0.375000X0.625000X0.375000X0*%
G04 APERTURE END LIST*
D10*
%TO.C,SW18*%
X78005000Y-51035000D03*
X90932000Y-48495000D03*
%TD*%
%TO.C,SW35*%
X135155000Y-74847500D03*
X148082000Y-72307500D03*
%TD*%
D11*
%TO.C,SW54*%
X242661095Y-144153590D03*
X233997891Y-134228480D03*
%TD*%
D10*
%TO.C,SW29*%
X16092500Y-77228700D03*
X29019500Y-74688700D03*
%TD*%
%TO.C,SW11*%
X297080000Y-31985000D03*
X310007000Y-29445000D03*
%TD*%
%TO.C,SW76*%
X354230000Y-115328700D03*
X367157000Y-112788700D03*
%TD*%
%TO.C,SW57*%
X297080000Y-89135000D03*
X310007000Y-86595000D03*
%TD*%
%TO.C,SW48*%
X78005000Y-89135000D03*
X90932000Y-86595000D03*
%TD*%
%TO.C,SW46*%
X39905000Y-96278700D03*
X52832000Y-93738700D03*
%TD*%
D12*
%TO.C,SW66*%
X154806210Y-148779495D03*
X167271320Y-153043291D03*
%TD*%
D10*
%TO.C,SW25*%
X297080000Y-51035000D03*
X310007000Y-48495000D03*
%TD*%
%TO.C,SW58*%
X316130000Y-91516200D03*
X329057000Y-88976200D03*
%TD*%
D12*
%TO.C,SW68*%
X173856210Y-115783895D03*
X186321320Y-120047691D03*
%TD*%
D13*
%TO.C,SW70*%
X212652210Y-139366695D03*
X222577320Y-130703491D03*
%TD*%
D10*
%TO.C,SW27*%
X335180000Y-58178700D03*
X348107000Y-55638700D03*
%TD*%
%TO.C,SW19*%
X97055000Y-53416200D03*
X109982000Y-50876200D03*
%TD*%
D11*
%TO.C,SW37*%
X259158895Y-134628590D03*
X250495691Y-124703480D03*
%TD*%
D10*
%TO.C,SW49*%
X97055000Y-91516200D03*
X109982000Y-88976200D03*
%TD*%
D14*
%TO.C,SW51*%
X153678905Y-131882010D03*
X149415109Y-144347120D03*
%TD*%
D10*
%TO.C,SW32*%
X78005000Y-70085000D03*
X90932000Y-67545000D03*
%TD*%
%TO.C,SW33*%
X97055000Y-72466200D03*
X109982000Y-69926200D03*
%TD*%
%TO.C,SW2*%
X39905000Y-39128700D03*
X52832000Y-36588700D03*
%TD*%
%TO.C,SW45*%
X16092500Y-96278700D03*
X29019500Y-93738700D03*
%TD*%
%TO.C,SW21*%
X135155000Y-55797500D03*
X148082000Y-53257500D03*
%TD*%
%TO.C,SW26*%
X316130000Y-53416200D03*
X329057000Y-50876200D03*
%TD*%
%TO.C,SW40*%
X278030000Y-72466200D03*
X290957000Y-69926200D03*
%TD*%
%TO.C,SW14*%
X358992500Y-39128700D03*
X371919500Y-36588700D03*
%TD*%
%TO.C,SW20*%
X116105000Y-55797500D03*
X129032000Y-53257500D03*
%TD*%
%TO.C,SW75*%
X335180000Y-115328700D03*
X348107000Y-112788700D03*
%TD*%
%TO.C,SW13*%
X335180000Y-39128700D03*
X348107000Y-36588700D03*
%TD*%
%TO.C,SW60*%
X358992500Y-96278700D03*
X371919500Y-93738700D03*
%TD*%
%TO.C,SW43*%
X335180000Y-77228700D03*
X348107000Y-74688700D03*
%TD*%
%TO.C,SW6*%
X116105000Y-36747500D03*
X129032000Y-34207500D03*
%TD*%
D13*
%TO.C,SW53*%
X219625010Y-113343895D03*
X229550120Y-104680691D03*
%TD*%
D10*
%TO.C,SW42*%
X316130000Y-72466200D03*
X329057000Y-69926200D03*
%TD*%
%TO.C,SW4*%
X78005000Y-31985000D03*
X90932000Y-29445000D03*
%TD*%
%TO.C,SW41*%
X297080000Y-70085000D03*
X310007000Y-67545000D03*
%TD*%
%TO.C,SW39*%
X258980000Y-74847500D03*
X271907000Y-72307500D03*
%TD*%
%TO.C,SW10*%
X278030000Y-34366200D03*
X290957000Y-31826200D03*
%TD*%
%TO.C,SW61*%
X20855000Y-115328700D03*
X33782000Y-112788700D03*
%TD*%
%TO.C,SW74*%
X316130000Y-110566200D03*
X329057000Y-108026200D03*
%TD*%
%TO.C,SW64*%
X78005000Y-108185000D03*
X90932000Y-105645000D03*
%TD*%
%TO.C,SW28*%
X358992500Y-58178700D03*
X371919500Y-55638700D03*
%TD*%
%TO.C,SW31*%
X58955000Y-72466200D03*
X71882000Y-69926200D03*
%TD*%
D14*
%TO.C,SW36*%
X137181105Y-122357010D03*
X132917309Y-134822120D03*
%TD*%
D10*
%TO.C,SW23*%
X258980000Y-55797500D03*
X271907000Y-53257500D03*
%TD*%
%TO.C,SW12*%
X316130000Y-34366200D03*
X329057000Y-31826200D03*
%TD*%
%TO.C,SW9*%
X258980000Y-36747500D03*
X271907000Y-34207500D03*
%TD*%
%TO.C,SW30*%
X39905000Y-77228700D03*
X52832000Y-74688700D03*
%TD*%
D12*
%TO.C,SW52*%
X157358410Y-106258895D03*
X169823520Y-110522691D03*
%TD*%
D10*
%TO.C,SW8*%
X239930000Y-36747500D03*
X252857000Y-34207500D03*
%TD*%
%TO.C,SW16*%
X39905000Y-58178700D03*
X52832000Y-55638700D03*
%TD*%
%TO.C,SW44*%
X358992500Y-77228700D03*
X371919500Y-74688700D03*
%TD*%
%TO.C,SW1*%
X16092500Y-39128700D03*
X29019500Y-36588700D03*
%TD*%
%TO.C,SW47*%
X58955000Y-91516200D03*
X71882000Y-88976200D03*
%TD*%
%TO.C,SW22*%
X239930000Y-55797500D03*
X252857000Y-53257500D03*
%TD*%
%TO.C,SW59*%
X335180000Y-96278700D03*
X348107000Y-93738700D03*
%TD*%
%TO.C,SW5*%
X97055000Y-34366200D03*
X109982000Y-31826200D03*
%TD*%
D13*
%TO.C,SW69*%
X203127210Y-122868895D03*
X213052320Y-114205691D03*
%TD*%
D10*
%TO.C,SW3*%
X58955000Y-34366200D03*
X71882000Y-31826200D03*
%TD*%
%TO.C,SW17*%
X58955000Y-53416200D03*
X71882000Y-50876200D03*
%TD*%
D13*
%TO.C,SW71*%
X222177210Y-155864495D03*
X232102320Y-147201291D03*
%TD*%
D10*
%TO.C,SW24*%
X278030000Y-53416200D03*
X290957000Y-50876200D03*
%TD*%
%TO.C,SW63*%
X58955000Y-110566200D03*
X71882000Y-108026200D03*
%TD*%
D12*
%TO.C,SW67*%
X164331210Y-132281695D03*
X176796320Y-136545491D03*
%TD*%
D10*
%TO.C,SW65*%
X97055000Y-110566200D03*
X109982000Y-108026200D03*
%TD*%
%TO.C,SW72*%
X278030000Y-110566200D03*
X290957000Y-108026200D03*
%TD*%
%TO.C,SW62*%
X39905000Y-115328700D03*
X52832000Y-112788700D03*
%TD*%
%TO.C,SW73*%
X297080000Y-108185000D03*
X310007000Y-105645000D03*
%TD*%
%TO.C,SW15*%
X16092500Y-58178700D03*
X29019500Y-55638700D03*
%TD*%
%TO.C,SW7*%
X135155000Y-36747500D03*
X148082000Y-34207500D03*
%TD*%
%TO.C,SW34*%
X116105000Y-74847500D03*
X129032000Y-72307500D03*
%TD*%
%TO.C,SW55*%
X258980000Y-93897500D03*
X271907000Y-91357500D03*
%TD*%
%TO.C,SW50*%
X116105000Y-93897500D03*
X129032000Y-91357500D03*
%TD*%
%TO.C,SW38*%
X239930000Y-74847500D03*
X252857000Y-72307500D03*
%TD*%
%TO.C,SW56*%
X278030000Y-91516200D03*
X290957000Y-88976200D03*
%TD*%
D15*
%TO.C,D10*%
X288375000Y-41968750D03*
X288375000Y-38668750D03*
%TD*%
%TO.C,D21*%
X145500000Y-63400000D03*
X145500000Y-60100000D03*
%TD*%
D16*
%TO.C,LED1*%
X235018800Y-22956200D03*
X235018800Y-26256200D03*
X230118800Y-26256200D03*
X230118800Y-22956200D03*
%TD*%
D15*
%TO.C,D16*%
X50250000Y-65781250D03*
X50250000Y-62481250D03*
%TD*%
%TO.C,D60*%
X369337500Y-103881250D03*
X369337500Y-100581250D03*
%TD*%
D17*
%TO.C,C7*%
X189717696Y-55196518D03*
X190396518Y-54517696D03*
%TD*%
D15*
%TO.C,D11*%
X307425000Y-39587500D03*
X307425000Y-36287500D03*
%TD*%
D18*
%TO.C,R101*%
X227590000Y-22950000D03*
X228610000Y-22950000D03*
%TD*%
D19*
%TO.C,U2*%
X220980000Y-52018750D03*
X219710000Y-52018750D03*
X218440000Y-52018750D03*
X217170000Y-52018750D03*
X217170000Y-44818750D03*
X218440000Y-44818750D03*
X219710000Y-44818750D03*
X220980000Y-44818750D03*
%TD*%
D20*
%TO.C,C9*%
X190289411Y-57339411D03*
X189610589Y-56660589D03*
%TD*%
D21*
%TO.C,D69*%
X215931250Y-124460192D03*
X214281250Y-121602308D03*
%TD*%
D15*
%TO.C,D38*%
X250275000Y-82450000D03*
X250275000Y-79150000D03*
%TD*%
%TO.C,D59*%
X345525000Y-103881250D03*
X345525000Y-100581250D03*
%TD*%
%TO.C,D3*%
X69300000Y-41968750D03*
X69300000Y-38668750D03*
%TD*%
%TO.C,D18*%
X88350000Y-58637500D03*
X88350000Y-55337500D03*
%TD*%
D16*
%TO.C,LED8*%
X160400000Y-23000000D03*
X160400000Y-26300000D03*
X155500000Y-26300000D03*
X155500000Y-23000000D03*
%TD*%
D22*
%TO.C,C10*%
X189850000Y-61900000D03*
X188890000Y-61900000D03*
%TD*%
D15*
%TO.C,D29*%
X26437500Y-84831250D03*
X26437500Y-81531250D03*
%TD*%
%TO.C,D23*%
X269325000Y-63400000D03*
X269325000Y-60100000D03*
%TD*%
%TO.C,D65*%
X107400000Y-118168750D03*
X107400000Y-114868750D03*
%TD*%
D23*
%TO.C,R6*%
X193525000Y-50375000D03*
X193525000Y-52025000D03*
%TD*%
D15*
%TO.C,D27*%
X345525000Y-65781250D03*
X345525000Y-62481250D03*
%TD*%
%TO.C,D9*%
X269325000Y-44350000D03*
X269325000Y-41050000D03*
%TD*%
%TO.C,D76*%
X364575000Y-122931250D03*
X364575000Y-119631250D03*
%TD*%
D24*
%TO.C,C14*%
X197271178Y-53416272D03*
X197950000Y-54095094D03*
%TD*%
D20*
%TO.C,C12*%
X191075000Y-56553822D03*
X190396178Y-55875000D03*
%TD*%
D15*
%TO.C,D24*%
X288375000Y-61018750D03*
X288375000Y-57718750D03*
%TD*%
%TO.C,D1*%
X26437500Y-46731250D03*
X26437500Y-43431250D03*
%TD*%
D16*
%TO.C,LED2*%
X368368800Y-22956200D03*
X368368800Y-26256200D03*
X363468800Y-26256200D03*
X363468800Y-22956200D03*
%TD*%
D15*
%TO.C,D61*%
X31200000Y-122931250D03*
X31200000Y-119631250D03*
%TD*%
D25*
%TO.C,D37*%
X261403492Y-121482650D03*
X258545608Y-123132650D03*
%TD*%
D15*
%TO.C,D56*%
X288375000Y-99118750D03*
X288375000Y-95818750D03*
%TD*%
D21*
%TO.C,D71*%
X234981250Y-157003942D03*
X233331250Y-154146058D03*
%TD*%
D26*
%TO.C,C18*%
X186995000Y-27640000D03*
X187955000Y-27640000D03*
%TD*%
D15*
%TO.C,D32*%
X88350000Y-77687500D03*
X88350000Y-74387500D03*
%TD*%
D27*
%TO.C,U3*%
X196217500Y-61597500D03*
X196217500Y-60322500D03*
X194942500Y-61597500D03*
X194942500Y-60322500D03*
D28*
X199017500Y-58360000D03*
X199017500Y-58760000D03*
X199017500Y-59160000D03*
X199017500Y-59560000D03*
X199017500Y-59960000D03*
X199017500Y-60360000D03*
X199017500Y-60760000D03*
X199017500Y-61160000D03*
X199017500Y-61560000D03*
X199017500Y-61960000D03*
X199017500Y-62360000D03*
X199017500Y-62760000D03*
X199017500Y-63160000D03*
X199017500Y-63560000D03*
D29*
X198180000Y-64397500D03*
X197780000Y-64397500D03*
X197380000Y-64397500D03*
X196980000Y-64397500D03*
X196580000Y-64397500D03*
X196180000Y-64397500D03*
X195780000Y-64397500D03*
X195380000Y-64397500D03*
X194980000Y-64397500D03*
X194580000Y-64397500D03*
X194180000Y-64397500D03*
X193780000Y-64397500D03*
X193380000Y-64397500D03*
X192980000Y-64397500D03*
D28*
X192142500Y-63560000D03*
X192142500Y-63160000D03*
X192142500Y-62760000D03*
X192142500Y-62360000D03*
X192142500Y-61960000D03*
X192142500Y-61560000D03*
X192142500Y-61160000D03*
X192142500Y-60760000D03*
X192142500Y-60360000D03*
X192142500Y-59960000D03*
X192142500Y-59560000D03*
X192142500Y-59160000D03*
X192142500Y-58760000D03*
X192142500Y-58360000D03*
D29*
X192980000Y-57522500D03*
X193380000Y-57522500D03*
X193780000Y-57522500D03*
X194180000Y-57522500D03*
X194580000Y-57522500D03*
X194980000Y-57522500D03*
X195380000Y-57522500D03*
X195780000Y-57522500D03*
X196180000Y-57522500D03*
X196580000Y-57522500D03*
X196980000Y-57522500D03*
X197380000Y-57522500D03*
X197780000Y-57522500D03*
X198180000Y-57522500D03*
%TD*%
D16*
%TO.C,LED5*%
X173900000Y-167418700D03*
X173900000Y-170718700D03*
X169000000Y-170718700D03*
X169000000Y-167418700D03*
%TD*%
D18*
%TO.C,R9*%
X186965000Y-26340000D03*
X187985000Y-26340000D03*
%TD*%
D15*
%TO.C,D20*%
X126450000Y-63400000D03*
X126450000Y-60100000D03*
%TD*%
D30*
%TO.C,C2*%
X192989411Y-67510589D03*
X192310589Y-68189411D03*
%TD*%
D15*
%TO.C,D5*%
X107400000Y-41968750D03*
X107400000Y-38668750D03*
%TD*%
%TO.C,D47*%
X69300000Y-99118750D03*
X69300000Y-95818750D03*
%TD*%
%TO.C,D7*%
X145500000Y-44350000D03*
X145500000Y-41050000D03*
%TD*%
%TO.C,D43*%
X345525000Y-84831250D03*
X345525000Y-81531250D03*
%TD*%
%TO.C,D63*%
X69300000Y-118168750D03*
X69300000Y-114868750D03*
%TD*%
D31*
%TO.C,C4*%
X220950000Y-43310000D03*
X220950000Y-42350000D03*
%TD*%
D17*
%TO.C,C6*%
X189010589Y-54489411D03*
X189689411Y-53810589D03*
%TD*%
D18*
%TO.C,R4*%
X187940000Y-63000000D03*
X188960000Y-63000000D03*
%TD*%
D30*
%TO.C,C16*%
X200789411Y-55560589D03*
X200110589Y-56239411D03*
%TD*%
D32*
%TO.C,D36*%
X125470258Y-127515150D03*
X128328142Y-129165150D03*
%TD*%
D15*
%TO.C,D31*%
X69300000Y-80068750D03*
X69300000Y-76768750D03*
%TD*%
%TO.C,D50*%
X126450000Y-101500000D03*
X126450000Y-98200000D03*
%TD*%
%TO.C,D49*%
X107400000Y-99118750D03*
X107400000Y-95818750D03*
%TD*%
%TO.C,D75*%
X345525000Y-122931250D03*
X345525000Y-119631250D03*
%TD*%
D33*
%TO.C,D52*%
X161893750Y-118110192D03*
X163543750Y-115252308D03*
%TD*%
D34*
%TO.C,R2*%
X193250000Y-29610000D03*
X193250000Y-28590000D03*
%TD*%
D15*
%TO.C,D44*%
X369337500Y-84831250D03*
X369337500Y-81531250D03*
%TD*%
%TO.C,D17*%
X69300000Y-61018750D03*
X69300000Y-57718750D03*
%TD*%
%TO.C,D30*%
X50250000Y-84831250D03*
X50250000Y-81531250D03*
%TD*%
%TO.C,D55*%
X269325000Y-101500000D03*
X269325000Y-98200000D03*
%TD*%
D18*
%TO.C,R11*%
X189840000Y-63000000D03*
X190860000Y-63000000D03*
%TD*%
D15*
%TO.C,D62*%
X50250000Y-122931250D03*
X50250000Y-119631250D03*
%TD*%
D35*
%TO.C,Y1*%
X194133776Y-68255635D03*
X195689411Y-66700000D03*
X196891492Y-67902081D03*
X195335857Y-69457716D03*
%TD*%
D15*
%TO.C,D35*%
X145500000Y-82450000D03*
X145500000Y-79150000D03*
%TD*%
D30*
%TO.C,C1*%
X197689411Y-69000000D03*
X197010589Y-69678822D03*
%TD*%
D36*
%TO.C,C17*%
X201301992Y-43551992D03*
X202398008Y-44648008D03*
%TD*%
D20*
%TO.C,C8*%
X191728822Y-55878822D03*
X191050000Y-55200000D03*
%TD*%
D37*
%TO.C,R3*%
X194350000Y-66150000D03*
X193628752Y-66871248D03*
%TD*%
D16*
%TO.C,LED4*%
X219937500Y-167418700D03*
X219937500Y-170718700D03*
X215037500Y-170718700D03*
X215037500Y-167418700D03*
%TD*%
D15*
%TO.C,D40*%
X288375000Y-80068750D03*
X288375000Y-76768750D03*
%TD*%
D38*
%TO.C,C3*%
X204849999Y-44901083D03*
X204849999Y-45861083D03*
%TD*%
D15*
%TO.C,D13*%
X345525000Y-46731250D03*
X345525000Y-43431250D03*
%TD*%
%TO.C,D12*%
X326475000Y-41968750D03*
X326475000Y-38668750D03*
%TD*%
%TO.C,D2*%
X50250000Y-46731250D03*
X50250000Y-43431250D03*
%TD*%
%TO.C,D58*%
X326475000Y-99118750D03*
X326475000Y-95818750D03*
%TD*%
%TO.C,D64*%
X88350000Y-115787500D03*
X88350000Y-112487500D03*
%TD*%
D21*
%TO.C,D53*%
X232600000Y-114935192D03*
X230950000Y-112077308D03*
%TD*%
D32*
%TO.C,D51*%
X141968058Y-136417350D03*
X144825942Y-138067350D03*
%TD*%
D31*
%TO.C,C5*%
X210044580Y-45849951D03*
X210044580Y-44889951D03*
%TD*%
D15*
%TO.C,D8*%
X250275000Y-44350000D03*
X250275000Y-41050000D03*
%TD*%
D17*
%TO.C,C15*%
X196531767Y-55434505D03*
X197210589Y-54755683D03*
%TD*%
D23*
%TO.C,R5*%
X195125000Y-50375000D03*
X195125000Y-52025000D03*
%TD*%
D33*
%TO.C,D68*%
X178562500Y-127635192D03*
X180212500Y-124777308D03*
%TD*%
D15*
%TO.C,D22*%
X250275000Y-63400000D03*
X250275000Y-60100000D03*
%TD*%
D34*
%TO.C,R7*%
X196250000Y-29610000D03*
X196250000Y-28590000D03*
%TD*%
D16*
%TO.C,LED7*%
X25468800Y-22956200D03*
X25468800Y-26256200D03*
X20568800Y-26256200D03*
X20568800Y-22956200D03*
%TD*%
D39*
%TO.C,R8*%
X222550000Y-50999999D03*
X222550000Y-52019999D03*
%TD*%
D15*
%TO.C,D72*%
X288375000Y-118168750D03*
X288375000Y-114868750D03*
%TD*%
%TO.C,D25*%
X307425000Y-58637500D03*
X307425000Y-55337500D03*
%TD*%
%TO.C,D19*%
X107400000Y-61018750D03*
X107400000Y-57718750D03*
%TD*%
D25*
%TO.C,D54*%
X244905692Y-131178600D03*
X242047808Y-132828600D03*
%TD*%
D15*
%TO.C,D28*%
X369337500Y-65781250D03*
X369337500Y-62481250D03*
%TD*%
%TO.C,D34*%
X126450000Y-82450000D03*
X126450000Y-79150000D03*
%TD*%
%TO.C,D48*%
X88350000Y-96737500D03*
X88350000Y-93437500D03*
%TD*%
D39*
%TO.C,R10*%
X222550000Y-49100001D03*
X222550000Y-50120001D03*
%TD*%
D40*
%TO.C,U4*%
X195425000Y-33166219D03*
X195425000Y-34116219D03*
X195425000Y-35066219D03*
X193075000Y-35066219D03*
X193075000Y-34116219D03*
X193075000Y-33166219D03*
%TD*%
D16*
%TO.C,LED3*%
X310425000Y-123762500D03*
X310425000Y-127062500D03*
X305525000Y-127062500D03*
X305525000Y-123762500D03*
%TD*%
D33*
%TO.C,D67*%
X169037500Y-144303942D03*
X170687500Y-141446058D03*
%TD*%
D26*
%TO.C,C11*%
X200350000Y-62200000D03*
X201310000Y-62200000D03*
%TD*%
D15*
%TO.C,D14*%
X369337500Y-46731250D03*
X369337500Y-43431250D03*
%TD*%
%TO.C,D41*%
X307425000Y-77687500D03*
X307425000Y-74387500D03*
%TD*%
%TO.C,D39*%
X269325000Y-82450000D03*
X269325000Y-79150000D03*
%TD*%
D39*
%TO.C,R1*%
X222350000Y-57590000D03*
X222350000Y-58610000D03*
%TD*%
D15*
%TO.C,D46*%
X50250000Y-103881250D03*
X50250000Y-100581250D03*
%TD*%
%TO.C,D26*%
X326475000Y-61018750D03*
X326475000Y-57718750D03*
%TD*%
D16*
%TO.C,LED6*%
X83412500Y-123762500D03*
X83412500Y-127062500D03*
X78512500Y-127062500D03*
X78512500Y-123762500D03*
%TD*%
D15*
%TO.C,D74*%
X326475000Y-118168750D03*
X326475000Y-114868750D03*
%TD*%
D41*
%TO.C,J1*%
X191225000Y-26885000D03*
X192025000Y-26885000D03*
D42*
X193225000Y-26885000D03*
X194225000Y-26885000D03*
X194725000Y-26885000D03*
X195725000Y-26885000D03*
D41*
X196925000Y-26885000D03*
X197725000Y-26885000D03*
X197725000Y-26885000D03*
X196925000Y-26885000D03*
D42*
X196225000Y-26885000D03*
X195225000Y-26885000D03*
X193725000Y-26885000D03*
X192725000Y-26885000D03*
D41*
X192025000Y-26885000D03*
X191225000Y-26885000D03*
%TD*%
D20*
%TO.C,C13*%
X189528822Y-58078822D03*
X188850000Y-57400000D03*
%TD*%
D15*
%TO.C,D45*%
X26437500Y-103881250D03*
X26437500Y-100581250D03*
%TD*%
%TO.C,D15*%
X26437500Y-65781250D03*
X26437500Y-62481250D03*
%TD*%
%TO.C,D57*%
X307425000Y-96737500D03*
X307425000Y-93437500D03*
%TD*%
%TO.C,D33*%
X107400000Y-80068750D03*
X107400000Y-76768750D03*
%TD*%
D43*
%TO.C,U1*%
X208587500Y-43950000D03*
X208587500Y-45850000D03*
X206312500Y-44900000D03*
%TD*%
D44*
%TO.C,F1*%
X198950000Y-30000000D03*
X198950000Y-32800000D03*
%TD*%
D15*
%TO.C,D4*%
X88350000Y-39587500D03*
X88350000Y-36287500D03*
%TD*%
%TO.C,D73*%
X307425000Y-115787500D03*
X307425000Y-112487500D03*
%TD*%
%TO.C,D6*%
X126450000Y-44350000D03*
X126450000Y-41050000D03*
%TD*%
D33*
%TO.C,D66*%
X159512500Y-160972692D03*
X161162500Y-158114808D03*
%TD*%
D15*
%TO.C,D42*%
X326475000Y-80068750D03*
X326475000Y-76768750D03*
%TD*%
D21*
%TO.C,D70*%
X225456250Y-141128942D03*
X223806250Y-138271058D03*
%TD*%
M02*
