M48
; DRILL file {KiCad 7.0.2} date Tue Jun  6 03:29:56 2023
; FORMAT={-:-/ absolute / inch / decimal}
; #@! TF.CreationDate,2023-06-06T03:29:56-04:00
; #@! TF.GenerationSoftware,Kicad,Pcbnew,7.0.2
; #@! TF.FileFunction,Plated,1,2,PTH
FMAT,2
INCH
; #@! TA.AperFunction,Plated,PTH,ViaDrill
T1C0.0138
; #@! TA.AperFunction,Plated,PTH,ComponentDrill
T2C0.0138
; #@! TA.AperFunction,Plated,PTH,ComponentDrill
T3C0.0236
; #@! TA.AperFunction,Plated,PTH,ComponentDrill
T4C0.0433
; #@! TA.AperFunction,Plated,PTH,ComponentDrill
T5C0.0866
%
G90
G05
T1
X1.4429Y-2.0946
X1.4429Y-2.8446
X1.4429Y-3.5946
X1.4429Y-4.3446
X1.6304Y-5.0946
X1.8071Y-1.5949
X2.3804Y-2.0946
X2.3804Y-2.8446
X2.3804Y-3.5946
X2.3804Y-4.3446
X2.4117Y-5.0946
X3.1617Y-1.9384
X3.1617Y-2.6884
X3.1617Y-3.4384
X3.1617Y-4.1884
X3.1617Y-4.9071
X3.9117Y-1.8134
X3.9117Y-2.5634
X3.9117Y-3.3134
X3.9117Y-4.0634
X3.9117Y-4.8134
X4.0866Y-5.5634
X4.6617Y-1.9071
X4.6617Y-2.6571
X4.6617Y-3.4071
X4.6617Y-4.1571
X4.6617Y-4.9071
X5.4117Y-2.0009
X5.4117Y-2.7509
X5.4117Y-3.5009
X5.4117Y-4.2509
X5.9766Y-4.5966
X6.1617Y-2.0009
X6.1617Y-2.7509
X6.1617Y-3.5009
X6.6617Y-3.0658
X6.8839Y-2.3193
X6.9117Y-3.8759
X6.9429Y-6.3759
X6.9646Y-1.5988
X7.2835Y-5.2622
X7.3189Y-1.4689
X7.5033Y-5.4151
X7.6496Y-7.2839
X7.9213Y-3.0634
X8.0384Y-3.2031
X8.1732Y-2.8587
X8.2027Y-2.8587
X8.2322Y-2.8587
X8.2618Y-2.8587
X8.2756Y-1.6181
X8.2913Y-2.8587
X8.3208Y-2.8587
X8.3386Y-2.9961
X8.3503Y-2.8587
X8.3858Y-2.7602
X8.425Y-3.1656
X8.454Y-3.1725
X8.4591Y-3.0752
X8.4606Y-3.1312
X8.4943Y-1.8783
X8.5118Y-2.7445
X8.5394Y-3.2835
X8.6246Y-3.1368
X8.6557Y-2.8626
X8.685Y-1.8783
X8.7031Y-3.1399
X8.7126Y-1.7957
X8.7441Y-1.6539
X8.7626Y-2.665
X8.7677Y-3.1575
X8.7848Y-3.1015
X8.79Y-3.1781
X8.8215Y-3.179
X8.8228Y-2.8154
X8.827Y-2.3689
X8.8425Y-3.1343
X8.8563Y-3.1943
X8.8799Y-2.835
X8.8851Y-3.3038
X8.9035Y-3.0122
X8.9094Y-2.835
X8.9173Y-5.3252
X8.939Y-2.835
X8.9685Y-2.835
X8.998Y-2.835
X9.0039Y-5.8882
X9.0275Y-2.8349
X9.057Y-2.8352
X9.0865Y-2.8348
X9.1048Y-4.7253
X9.3661Y-2.6126
X9.378Y-6.1362
X9.4646Y-7.2839
X9.5551Y-4.9315
X9.563Y-2.2307
X9.6693Y-6.6205
X9.7795Y-1.6131
X10.0442Y-5.1371
X10.0748Y-1.6185
X10.313Y-3.5476
X10.3219Y-1.9443
X10.3902Y-2.68
X10.4134Y-6.2701
X11.0699Y-1.9364
X11.139Y-2.6717
X11.139Y-3.4236
X11.139Y-4.1638
X11.5679Y-3.9384
X11.7554Y-4.7509
X11.7992Y-1.9164
X11.889Y-2.5811
X11.889Y-3.3331
X11.889Y-4.089
X11.889Y-4.8409
X12.565Y-1.7484
X12.639Y-2.4866
X12.639Y-3.2346
X12.639Y-3.9866
X12.639Y-4.7189
X13.0197Y-5.5634
X13.3168Y-1.906
X13.389Y-2.585
X13.389Y-3.3291
X13.389Y-4.0693
X13.389Y-4.8252
X14.1093Y-2.027
X14.139Y-2.7661
X14.139Y-3.5181
X14.139Y-4.2701
X14.139Y-5.0142
X14.9913Y-5.0015
X15.0765Y-2.022
X15.0765Y-2.7661
X15.0765Y-3.5181
X15.0765Y-4.2504
X15.3031Y-1.5971
T2
X8.5927Y-2.9132
X8.5927Y-2.9634
X8.5927Y-3.0136
X8.6429Y-2.9132
X8.6429Y-2.9634
X8.6429Y-3.0136
X8.6931Y-2.9132
X8.6931Y-2.9634
X8.6931Y-3.0136
T4
X7.3386Y-3.1126
X7.3386Y-3.3685
X7.5157Y-3.1126
X7.5157Y-3.3685
X9.6969Y-3.0988
X9.6969Y-3.3547
X9.874Y-3.0988
X9.874Y-3.3547
T5
X1.3819Y-1.4409
X1.3819Y-5.626
X8.126Y-1.4528
X8.6024Y-7.3228
X9.0709Y-1.4567
X15.8248Y-5.6276
X15.8602Y-1.4543
T3
G00X8.4293Y-1.3819
M15
G01X8.4293Y-1.4055
M16
G05
G00X8.4293Y-1.5366
M15
G01X8.4293Y-1.5799
M16
G05
G00X8.7695Y-1.3819
M15
G01X8.7695Y-1.4055
M16
G05
G00X8.7695Y-1.5366
M15
G01X8.7695Y-1.5799
M16
G05
T0
M30
