%TF.GenerationSoftware,KiCad,Pcbnew,7.0.2*%
%TF.CreationDate,2023-06-02T16:23:41-04:00*%
%TF.ProjectId,arisu,61726973-752e-46b6-9963-61645f706362,1.1*%
%TF.SameCoordinates,Original*%
%TF.FileFunction,Legend,Top*%
%TF.FilePolarity,Positive*%
%FSLAX46Y46*%
G04 Gerber Fmt 4.6, Leading zero omitted, Abs format (unit mm)*
G04 Created by KiCad (PCBNEW 7.0.2) date 2023-06-02 16:23:41*
%MOMM*%
%LPD*%
G01*
G04 APERTURE LIST*
%ADD10C,0.300000*%
%ADD11C,0.120000*%
%ADD12C,2.374910*%
%ADD13C,0.990610*%
%ADD14C,1.750000*%
%ADD15C,3.050000*%
%ADD16C,4.000000*%
%ADD17C,3.048000*%
%ADD18C,3.987800*%
%ADD19C,2.102000*%
%ADD20C,4.502000*%
%ADD21C,2.476910*%
%ADD22C,1.092610*%
%ADD23C,0.889400*%
%ADD24C,0.650000*%
%ADD25O,1.102000X1.702000*%
%ADD26O,1.102000X2.202000*%
G04 APERTURE END LIST*
D10*
X162571428Y-62843928D02*
X162071428Y-62129642D01*
X161714285Y-62843928D02*
X161714285Y-61343928D01*
X161714285Y-61343928D02*
X162285714Y-61343928D01*
X162285714Y-61343928D02*
X162428571Y-61415357D01*
X162428571Y-61415357D02*
X162500000Y-61486785D01*
X162500000Y-61486785D02*
X162571428Y-61629642D01*
X162571428Y-61629642D02*
X162571428Y-61843928D01*
X162571428Y-61843928D02*
X162500000Y-61986785D01*
X162500000Y-61986785D02*
X162428571Y-62058214D01*
X162428571Y-62058214D02*
X162285714Y-62129642D01*
X162285714Y-62129642D02*
X161714285Y-62129642D01*
X163214285Y-62058214D02*
X163714285Y-62058214D01*
X163928571Y-62843928D02*
X163214285Y-62843928D01*
X163214285Y-62843928D02*
X163214285Y-61343928D01*
X163214285Y-61343928D02*
X163928571Y-61343928D01*
X164500000Y-62772500D02*
X164714286Y-62843928D01*
X164714286Y-62843928D02*
X165071428Y-62843928D01*
X165071428Y-62843928D02*
X165214286Y-62772500D01*
X165214286Y-62772500D02*
X165285714Y-62701071D01*
X165285714Y-62701071D02*
X165357143Y-62558214D01*
X165357143Y-62558214D02*
X165357143Y-62415357D01*
X165357143Y-62415357D02*
X165285714Y-62272500D01*
X165285714Y-62272500D02*
X165214286Y-62201071D01*
X165214286Y-62201071D02*
X165071428Y-62129642D01*
X165071428Y-62129642D02*
X164785714Y-62058214D01*
X164785714Y-62058214D02*
X164642857Y-61986785D01*
X164642857Y-61986785D02*
X164571428Y-61915357D01*
X164571428Y-61915357D02*
X164500000Y-61772500D01*
X164500000Y-61772500D02*
X164500000Y-61629642D01*
X164500000Y-61629642D02*
X164571428Y-61486785D01*
X164571428Y-61486785D02*
X164642857Y-61415357D01*
X164642857Y-61415357D02*
X164785714Y-61343928D01*
X164785714Y-61343928D02*
X165142857Y-61343928D01*
X165142857Y-61343928D02*
X165357143Y-61415357D01*
X165999999Y-62058214D02*
X166499999Y-62058214D01*
X166714285Y-62843928D02*
X165999999Y-62843928D01*
X165999999Y-62843928D02*
X165999999Y-61343928D01*
X165999999Y-61343928D02*
X166714285Y-61343928D01*
X167142857Y-61343928D02*
X168000000Y-61343928D01*
X167571428Y-62843928D02*
X167571428Y-61343928D01*
X222614285Y-61708214D02*
X222828571Y-61779642D01*
X222828571Y-61779642D02*
X222900000Y-61851071D01*
X222900000Y-61851071D02*
X222971428Y-61993928D01*
X222971428Y-61993928D02*
X222971428Y-62208214D01*
X222971428Y-62208214D02*
X222900000Y-62351071D01*
X222900000Y-62351071D02*
X222828571Y-62422500D01*
X222828571Y-62422500D02*
X222685714Y-62493928D01*
X222685714Y-62493928D02*
X222114285Y-62493928D01*
X222114285Y-62493928D02*
X222114285Y-60993928D01*
X222114285Y-60993928D02*
X222614285Y-60993928D01*
X222614285Y-60993928D02*
X222757143Y-61065357D01*
X222757143Y-61065357D02*
X222828571Y-61136785D01*
X222828571Y-61136785D02*
X222900000Y-61279642D01*
X222900000Y-61279642D02*
X222900000Y-61422500D01*
X222900000Y-61422500D02*
X222828571Y-61565357D01*
X222828571Y-61565357D02*
X222757143Y-61636785D01*
X222757143Y-61636785D02*
X222614285Y-61708214D01*
X222614285Y-61708214D02*
X222114285Y-61708214D01*
X223900000Y-60993928D02*
X224185714Y-60993928D01*
X224185714Y-60993928D02*
X224328571Y-61065357D01*
X224328571Y-61065357D02*
X224471428Y-61208214D01*
X224471428Y-61208214D02*
X224542857Y-61493928D01*
X224542857Y-61493928D02*
X224542857Y-61993928D01*
X224542857Y-61993928D02*
X224471428Y-62279642D01*
X224471428Y-62279642D02*
X224328571Y-62422500D01*
X224328571Y-62422500D02*
X224185714Y-62493928D01*
X224185714Y-62493928D02*
X223900000Y-62493928D01*
X223900000Y-62493928D02*
X223757143Y-62422500D01*
X223757143Y-62422500D02*
X223614285Y-62279642D01*
X223614285Y-62279642D02*
X223542857Y-61993928D01*
X223542857Y-61993928D02*
X223542857Y-61493928D01*
X223542857Y-61493928D02*
X223614285Y-61208214D01*
X223614285Y-61208214D02*
X223757143Y-61065357D01*
X223757143Y-61065357D02*
X223900000Y-60993928D01*
X225471429Y-60993928D02*
X225757143Y-60993928D01*
X225757143Y-60993928D02*
X225900000Y-61065357D01*
X225900000Y-61065357D02*
X226042857Y-61208214D01*
X226042857Y-61208214D02*
X226114286Y-61493928D01*
X226114286Y-61493928D02*
X226114286Y-61993928D01*
X226114286Y-61993928D02*
X226042857Y-62279642D01*
X226042857Y-62279642D02*
X225900000Y-62422500D01*
X225900000Y-62422500D02*
X225757143Y-62493928D01*
X225757143Y-62493928D02*
X225471429Y-62493928D01*
X225471429Y-62493928D02*
X225328572Y-62422500D01*
X225328572Y-62422500D02*
X225185714Y-62279642D01*
X225185714Y-62279642D02*
X225114286Y-61993928D01*
X225114286Y-61993928D02*
X225114286Y-61493928D01*
X225114286Y-61493928D02*
X225185714Y-61208214D01*
X225185714Y-61208214D02*
X225328572Y-61065357D01*
X225328572Y-61065357D02*
X225471429Y-60993928D01*
X226542858Y-60993928D02*
X227400001Y-60993928D01*
X226971429Y-62493928D02*
X226971429Y-60993928D01*
D11*
%TO.C,SW18*%
X77990000Y-46475000D02*
X77990000Y-60675000D01*
X77990000Y-60675000D02*
X92190000Y-60675000D01*
X92190000Y-46475000D02*
X77990000Y-46475000D01*
X92190000Y-60675000D02*
X92190000Y-46475000D01*
%TO.C,SW35*%
X135140000Y-70287500D02*
X135140000Y-84487500D01*
X135140000Y-84487500D02*
X149340000Y-84487500D01*
X149340000Y-70287500D02*
X135140000Y-70287500D01*
X149340000Y-84487500D02*
X149340000Y-70287500D01*
%TO.C,SW54*%
X238719520Y-146446580D02*
X251017080Y-139346580D01*
X251017080Y-139346580D02*
X243917080Y-127049020D01*
X231619520Y-134149020D02*
X238719520Y-146446580D01*
X243917080Y-127049020D02*
X231619520Y-134149020D01*
%TO.C,SW29*%
X16077500Y-72668700D02*
X16077500Y-86868700D01*
X16077500Y-86868700D02*
X30277500Y-86868700D01*
X30277500Y-72668700D02*
X16077500Y-72668700D01*
X30277500Y-86868700D02*
X30277500Y-72668700D01*
%TO.C,SW11*%
X297065000Y-27425000D02*
X297065000Y-41625000D01*
X297065000Y-41625000D02*
X311265000Y-41625000D01*
X311265000Y-27425000D02*
X297065000Y-27425000D01*
X311265000Y-41625000D02*
X311265000Y-27425000D01*
%TO.C,SW76*%
X354215000Y-110768700D02*
X354215000Y-124968700D01*
X354215000Y-124968700D02*
X368415000Y-124968700D01*
X368415000Y-110768700D02*
X354215000Y-110768700D01*
X368415000Y-124968700D02*
X368415000Y-110768700D01*
%TO.C,SW57*%
X297065000Y-84575000D02*
X297065000Y-98775000D01*
X297065000Y-98775000D02*
X311265000Y-98775000D01*
X311265000Y-84575000D02*
X297065000Y-84575000D01*
X311265000Y-98775000D02*
X311265000Y-84575000D01*
%TO.C,SW48*%
X77990000Y-84575000D02*
X77990000Y-98775000D01*
X77990000Y-98775000D02*
X92190000Y-98775000D01*
X92190000Y-84575000D02*
X77990000Y-84575000D01*
X92190000Y-98775000D02*
X92190000Y-84575000D01*
%TO.C,SW46*%
X39890000Y-91718700D02*
X39890000Y-105918700D01*
X39890000Y-105918700D02*
X54090000Y-105918700D01*
X54090000Y-91718700D02*
X39890000Y-91718700D01*
X54090000Y-105918700D02*
X54090000Y-91718700D01*
%TO.C,SW66*%
X157073220Y-144822920D02*
X149973220Y-157120480D01*
X149973220Y-157120480D02*
X162270780Y-164220480D01*
X169370780Y-151922920D02*
X157073220Y-144822920D01*
X162270780Y-164220480D02*
X169370780Y-151922920D01*
%TO.C,SW25*%
X297065000Y-46475000D02*
X297065000Y-60675000D01*
X297065000Y-60675000D02*
X311265000Y-60675000D01*
X311265000Y-46475000D02*
X297065000Y-46475000D01*
X311265000Y-60675000D02*
X311265000Y-46475000D01*
%TO.C,SW58*%
X316115000Y-86956200D02*
X316115000Y-101156200D01*
X316115000Y-101156200D02*
X330315000Y-101156200D01*
X330315000Y-86956200D02*
X316115000Y-86956200D01*
X330315000Y-101156200D02*
X330315000Y-86956200D01*
%TO.C,SW68*%
X176123220Y-111827320D02*
X169023220Y-124124880D01*
X169023220Y-124124880D02*
X181320780Y-131224880D01*
X188420780Y-118927320D02*
X176123220Y-111827320D01*
X181320780Y-131224880D02*
X188420780Y-118927320D01*
%TO.C,SW70*%
X210359220Y-135425120D02*
X217459220Y-147722680D01*
X217459220Y-147722680D02*
X229756780Y-140622680D01*
X222656780Y-128325120D02*
X210359220Y-135425120D01*
X229756780Y-140622680D02*
X222656780Y-128325120D01*
%TO.C,SW27*%
X335165000Y-53618700D02*
X335165000Y-67818700D01*
X335165000Y-67818700D02*
X349365000Y-67818700D01*
X349365000Y-53618700D02*
X335165000Y-53618700D01*
X349365000Y-67818700D02*
X349365000Y-53618700D01*
%TO.C,SW19*%
X97040000Y-48856200D02*
X97040000Y-63056200D01*
X97040000Y-63056200D02*
X111240000Y-63056200D01*
X111240000Y-48856200D02*
X97040000Y-48856200D01*
X111240000Y-63056200D02*
X111240000Y-48856200D01*
%TO.C,SW37*%
X255217320Y-136921580D02*
X267514880Y-129821580D01*
X267514880Y-129821580D02*
X260414880Y-117524020D01*
X248117320Y-124624020D02*
X255217320Y-136921580D01*
X260414880Y-117524020D02*
X248117320Y-124624020D01*
%TO.C,SW49*%
X97040000Y-86956200D02*
X97040000Y-101156200D01*
X97040000Y-101156200D02*
X111240000Y-101156200D01*
X111240000Y-86956200D02*
X97040000Y-86956200D01*
X111240000Y-101156200D02*
X111240000Y-86956200D01*
%TO.C,RST1*%
X163950000Y-71500000D02*
X165450000Y-71500000D01*
X167950000Y-70250000D02*
X167950000Y-65750000D01*
X161450000Y-65750000D02*
X161450000Y-70250000D01*
X165450000Y-64500000D02*
X163950000Y-64500000D01*
%TO.C,SW51*%
X157635480Y-134149020D02*
X145337920Y-127049020D01*
X145337920Y-127049020D02*
X138237920Y-139346580D01*
X150535480Y-146446580D02*
X157635480Y-134149020D01*
X138237920Y-139346580D02*
X150535480Y-146446580D01*
%TO.C,SW32*%
X77990000Y-65525000D02*
X77990000Y-79725000D01*
X77990000Y-79725000D02*
X92190000Y-79725000D01*
X92190000Y-65525000D02*
X77990000Y-65525000D01*
X92190000Y-79725000D02*
X92190000Y-65525000D01*
%TO.C,SW33*%
X97040000Y-67906200D02*
X97040000Y-82106200D01*
X97040000Y-82106200D02*
X111240000Y-82106200D01*
X111240000Y-67906200D02*
X97040000Y-67906200D01*
X111240000Y-82106200D02*
X111240000Y-67906200D01*
%TO.C,SW2*%
X39890000Y-34568700D02*
X39890000Y-48768700D01*
X39890000Y-48768700D02*
X54090000Y-48768700D01*
X54090000Y-34568700D02*
X39890000Y-34568700D01*
X54090000Y-48768700D02*
X54090000Y-34568700D01*
%TO.C,SW45*%
X16077500Y-91718700D02*
X16077500Y-105918700D01*
X16077500Y-105918700D02*
X30277500Y-105918700D01*
X30277500Y-91718700D02*
X16077500Y-91718700D01*
X30277500Y-105918700D02*
X30277500Y-91718700D01*
%TO.C,SW21*%
X135140000Y-51237500D02*
X135140000Y-65437500D01*
X135140000Y-65437500D02*
X149340000Y-65437500D01*
X149340000Y-51237500D02*
X135140000Y-51237500D01*
X149340000Y-65437500D02*
X149340000Y-51237500D01*
%TO.C,SW26*%
X316115000Y-48856200D02*
X316115000Y-63056200D01*
X316115000Y-63056200D02*
X330315000Y-63056200D01*
X330315000Y-48856200D02*
X316115000Y-48856200D01*
X330315000Y-63056200D02*
X330315000Y-48856200D01*
%TO.C,SW40*%
X278015000Y-67906200D02*
X278015000Y-82106200D01*
X278015000Y-82106200D02*
X292215000Y-82106200D01*
X292215000Y-67906200D02*
X278015000Y-67906200D01*
X292215000Y-82106200D02*
X292215000Y-67906200D01*
%TO.C,SW14*%
X358977500Y-34568700D02*
X358977500Y-48768700D01*
X358977500Y-48768700D02*
X373177500Y-48768700D01*
X373177500Y-34568700D02*
X358977500Y-34568700D01*
X373177500Y-48768700D02*
X373177500Y-34568700D01*
%TO.C,SW20*%
X116090000Y-51237500D02*
X116090000Y-65437500D01*
X116090000Y-65437500D02*
X130290000Y-65437500D01*
X130290000Y-51237500D02*
X116090000Y-51237500D01*
X130290000Y-65437500D02*
X130290000Y-51237500D01*
%TO.C,SW75*%
X335165000Y-110768700D02*
X335165000Y-124968700D01*
X335165000Y-124968700D02*
X349365000Y-124968700D01*
X349365000Y-110768700D02*
X335165000Y-110768700D01*
X349365000Y-124968700D02*
X349365000Y-110768700D01*
%TO.C,SW13*%
X335165000Y-34568700D02*
X335165000Y-48768700D01*
X335165000Y-48768700D02*
X349365000Y-48768700D01*
X349365000Y-34568700D02*
X335165000Y-34568700D01*
X349365000Y-48768700D02*
X349365000Y-34568700D01*
%TO.C,SW60*%
X358977500Y-91718700D02*
X358977500Y-105918700D01*
X358977500Y-105918700D02*
X373177500Y-105918700D01*
X373177500Y-91718700D02*
X358977500Y-91718700D01*
X373177500Y-105918700D02*
X373177500Y-91718700D01*
%TO.C,SW43*%
X335165000Y-72668700D02*
X335165000Y-86868700D01*
X335165000Y-86868700D02*
X349365000Y-86868700D01*
X349365000Y-72668700D02*
X335165000Y-72668700D01*
X349365000Y-86868700D02*
X349365000Y-72668700D01*
%TO.C,SW6*%
X116090000Y-32187500D02*
X116090000Y-46387500D01*
X116090000Y-46387500D02*
X130290000Y-46387500D01*
X130290000Y-32187500D02*
X116090000Y-32187500D01*
X130290000Y-46387500D02*
X130290000Y-32187500D01*
%TO.C,SW53*%
X217332020Y-109402320D02*
X224432020Y-121699880D01*
X224432020Y-121699880D02*
X236729580Y-114599880D01*
X229629580Y-102302320D02*
X217332020Y-109402320D01*
X236729580Y-114599880D02*
X229629580Y-102302320D01*
%TO.C,SW42*%
X316115000Y-67906200D02*
X316115000Y-82106200D01*
X316115000Y-82106200D02*
X330315000Y-82106200D01*
X330315000Y-67906200D02*
X316115000Y-67906200D01*
X330315000Y-82106200D02*
X330315000Y-67906200D01*
%TO.C,SW4*%
X77990000Y-27425000D02*
X77990000Y-41625000D01*
X77990000Y-41625000D02*
X92190000Y-41625000D01*
X92190000Y-27425000D02*
X77990000Y-27425000D01*
X92190000Y-41625000D02*
X92190000Y-27425000D01*
%TO.C,SW41*%
X297065000Y-65525000D02*
X297065000Y-79725000D01*
X297065000Y-79725000D02*
X311265000Y-79725000D01*
X311265000Y-65525000D02*
X297065000Y-65525000D01*
X311265000Y-79725000D02*
X311265000Y-65525000D01*
%TO.C,SW39*%
X258965000Y-70287500D02*
X258965000Y-84487500D01*
X258965000Y-84487500D02*
X273165000Y-84487500D01*
X273165000Y-70287500D02*
X258965000Y-70287500D01*
X273165000Y-84487500D02*
X273165000Y-70287500D01*
%TO.C,SW10*%
X278015000Y-29806200D02*
X278015000Y-44006200D01*
X278015000Y-44006200D02*
X292215000Y-44006200D01*
X292215000Y-29806200D02*
X278015000Y-29806200D01*
X292215000Y-44006200D02*
X292215000Y-29806200D01*
%TO.C,SW61*%
X20840000Y-110768700D02*
X20840000Y-124968700D01*
X20840000Y-124968700D02*
X35040000Y-124968700D01*
X35040000Y-110768700D02*
X20840000Y-110768700D01*
X35040000Y-124968700D02*
X35040000Y-110768700D01*
%TO.C,SW74*%
X316115000Y-106006200D02*
X316115000Y-120206200D01*
X316115000Y-120206200D02*
X330315000Y-120206200D01*
X330315000Y-106006200D02*
X316115000Y-106006200D01*
X330315000Y-120206200D02*
X330315000Y-106006200D01*
%TO.C,SW64*%
X77990000Y-103625000D02*
X77990000Y-117825000D01*
X77990000Y-117825000D02*
X92190000Y-117825000D01*
X92190000Y-103625000D02*
X77990000Y-103625000D01*
X92190000Y-117825000D02*
X92190000Y-103625000D01*
%TO.C,SW28*%
X358977500Y-53618700D02*
X358977500Y-67818700D01*
X358977500Y-67818700D02*
X373177500Y-67818700D01*
X373177500Y-53618700D02*
X358977500Y-53618700D01*
X373177500Y-67818700D02*
X373177500Y-53618700D01*
%TO.C,SW31*%
X58940000Y-67906200D02*
X58940000Y-82106200D01*
X58940000Y-82106200D02*
X73140000Y-82106200D01*
X73140000Y-67906200D02*
X58940000Y-67906200D01*
X73140000Y-82106200D02*
X73140000Y-67906200D01*
%TO.C,SW36*%
X141137680Y-124624020D02*
X128840120Y-117524020D01*
X128840120Y-117524020D02*
X121740120Y-129821580D01*
X134037680Y-136921580D02*
X141137680Y-124624020D01*
X121740120Y-129821580D02*
X134037680Y-136921580D01*
%TO.C,SW23*%
X258965000Y-51237500D02*
X258965000Y-65437500D01*
X258965000Y-65437500D02*
X273165000Y-65437500D01*
X273165000Y-51237500D02*
X258965000Y-51237500D01*
X273165000Y-65437500D02*
X273165000Y-51237500D01*
%TO.C,SW12*%
X316115000Y-29806200D02*
X316115000Y-44006200D01*
X316115000Y-44006200D02*
X330315000Y-44006200D01*
X330315000Y-29806200D02*
X316115000Y-29806200D01*
X330315000Y-44006200D02*
X330315000Y-29806200D01*
%TO.C,BOOT1*%
X225350000Y-64150000D02*
X223850000Y-64150000D01*
X221350000Y-65400000D02*
X221350000Y-69900000D01*
X227850000Y-69900000D02*
X227850000Y-65400000D01*
X223850000Y-71150000D02*
X225350000Y-71150000D01*
%TO.C,SW9*%
X258965000Y-32187500D02*
X258965000Y-46387500D01*
X258965000Y-46387500D02*
X273165000Y-46387500D01*
X273165000Y-32187500D02*
X258965000Y-32187500D01*
X273165000Y-46387500D02*
X273165000Y-32187500D01*
%TO.C,SW30*%
X39890000Y-72668700D02*
X39890000Y-86868700D01*
X39890000Y-86868700D02*
X54090000Y-86868700D01*
X54090000Y-72668700D02*
X39890000Y-72668700D01*
X54090000Y-86868700D02*
X54090000Y-72668700D01*
%TO.C,SW52*%
X159625420Y-102302320D02*
X152525420Y-114599880D01*
X152525420Y-114599880D02*
X164822980Y-121699880D01*
X171922980Y-109402320D02*
X159625420Y-102302320D01*
X164822980Y-121699880D02*
X171922980Y-109402320D01*
%TO.C,SW8*%
X239915000Y-32187500D02*
X239915000Y-46387500D01*
X239915000Y-46387500D02*
X254115000Y-46387500D01*
X254115000Y-32187500D02*
X239915000Y-32187500D01*
X254115000Y-46387500D02*
X254115000Y-32187500D01*
%TO.C,SW16*%
X39890000Y-53618700D02*
X39890000Y-67818700D01*
X39890000Y-67818700D02*
X54090000Y-67818700D01*
X54090000Y-53618700D02*
X39890000Y-53618700D01*
X54090000Y-67818700D02*
X54090000Y-53618700D01*
%TO.C,SW44*%
X358977500Y-72668700D02*
X358977500Y-86868700D01*
X358977500Y-86868700D02*
X373177500Y-86868700D01*
X373177500Y-72668700D02*
X358977500Y-72668700D01*
X373177500Y-86868700D02*
X373177500Y-72668700D01*
%TO.C,SW1*%
X16077500Y-34568700D02*
X16077500Y-48768700D01*
X16077500Y-48768700D02*
X30277500Y-48768700D01*
X30277500Y-34568700D02*
X16077500Y-34568700D01*
X30277500Y-48768700D02*
X30277500Y-34568700D01*
%TO.C,SW47*%
X58940000Y-86956200D02*
X58940000Y-101156200D01*
X58940000Y-101156200D02*
X73140000Y-101156200D01*
X73140000Y-86956200D02*
X58940000Y-86956200D01*
X73140000Y-101156200D02*
X73140000Y-86956200D01*
%TO.C,SW22*%
X239915000Y-51237500D02*
X239915000Y-65437500D01*
X239915000Y-65437500D02*
X254115000Y-65437500D01*
X254115000Y-51237500D02*
X239915000Y-51237500D01*
X254115000Y-65437500D02*
X254115000Y-51237500D01*
%TO.C,SW59*%
X335165000Y-91718700D02*
X335165000Y-105918700D01*
X335165000Y-105918700D02*
X349365000Y-105918700D01*
X349365000Y-91718700D02*
X335165000Y-91718700D01*
X349365000Y-105918700D02*
X349365000Y-91718700D01*
%TO.C,SW5*%
X97040000Y-29806200D02*
X97040000Y-44006200D01*
X97040000Y-44006200D02*
X111240000Y-44006200D01*
X111240000Y-29806200D02*
X97040000Y-29806200D01*
X111240000Y-44006200D02*
X111240000Y-29806200D01*
%TO.C,SW69*%
X200834220Y-118927320D02*
X207934220Y-131224880D01*
X207934220Y-131224880D02*
X220231780Y-124124880D01*
X213131780Y-111827320D02*
X200834220Y-118927320D01*
X220231780Y-124124880D02*
X213131780Y-111827320D01*
%TO.C,SW3*%
X58940000Y-29806200D02*
X58940000Y-44006200D01*
X58940000Y-44006200D02*
X73140000Y-44006200D01*
X73140000Y-29806200D02*
X58940000Y-29806200D01*
X73140000Y-44006200D02*
X73140000Y-29806200D01*
%TO.C,SW17*%
X58940000Y-48856200D02*
X58940000Y-63056200D01*
X58940000Y-63056200D02*
X73140000Y-63056200D01*
X73140000Y-48856200D02*
X58940000Y-48856200D01*
X73140000Y-63056200D02*
X73140000Y-48856200D01*
%TO.C,SW71*%
X219884220Y-151922920D02*
X226984220Y-164220480D01*
X226984220Y-164220480D02*
X239281780Y-157120480D01*
X232181780Y-144822920D02*
X219884220Y-151922920D01*
X239281780Y-157120480D02*
X232181780Y-144822920D01*
%TO.C,SW24*%
X278015000Y-48856200D02*
X278015000Y-63056200D01*
X278015000Y-63056200D02*
X292215000Y-63056200D01*
X292215000Y-48856200D02*
X278015000Y-48856200D01*
X292215000Y-63056200D02*
X292215000Y-48856200D01*
%TO.C,SW63*%
X58940000Y-106006200D02*
X58940000Y-120206200D01*
X58940000Y-120206200D02*
X73140000Y-120206200D01*
X73140000Y-106006200D02*
X58940000Y-106006200D01*
X73140000Y-120206200D02*
X73140000Y-106006200D01*
%TO.C,SW67*%
X166598220Y-128325120D02*
X159498220Y-140622680D01*
X159498220Y-140622680D02*
X171795780Y-147722680D01*
X178895780Y-135425120D02*
X166598220Y-128325120D01*
X171795780Y-147722680D02*
X178895780Y-135425120D01*
%TO.C,SW65*%
X97040000Y-106006200D02*
X97040000Y-120206200D01*
X97040000Y-120206200D02*
X111240000Y-120206200D01*
X111240000Y-106006200D02*
X97040000Y-106006200D01*
X111240000Y-120206200D02*
X111240000Y-106006200D01*
%TO.C,SW72*%
X278015000Y-106006200D02*
X278015000Y-120206200D01*
X278015000Y-120206200D02*
X292215000Y-120206200D01*
X292215000Y-106006200D02*
X278015000Y-106006200D01*
X292215000Y-120206200D02*
X292215000Y-106006200D01*
%TO.C,SW62*%
X39890000Y-110768700D02*
X39890000Y-124968700D01*
X39890000Y-124968700D02*
X54090000Y-124968700D01*
X54090000Y-110768700D02*
X39890000Y-110768700D01*
X54090000Y-124968700D02*
X54090000Y-110768700D01*
%TO.C,SW73*%
X297065000Y-103625000D02*
X297065000Y-117825000D01*
X297065000Y-117825000D02*
X311265000Y-117825000D01*
X311265000Y-103625000D02*
X297065000Y-103625000D01*
X311265000Y-117825000D02*
X311265000Y-103625000D01*
%TO.C,SW15*%
X16077500Y-53618700D02*
X16077500Y-67818700D01*
X16077500Y-67818700D02*
X30277500Y-67818700D01*
X30277500Y-53618700D02*
X16077500Y-53618700D01*
X30277500Y-67818700D02*
X30277500Y-53618700D01*
%TO.C,SW7*%
X135140000Y-32187500D02*
X135140000Y-46387500D01*
X135140000Y-46387500D02*
X149340000Y-46387500D01*
X149340000Y-32187500D02*
X135140000Y-32187500D01*
X149340000Y-46387500D02*
X149340000Y-32187500D01*
%TO.C,SW34*%
X116090000Y-70287500D02*
X116090000Y-84487500D01*
X116090000Y-84487500D02*
X130290000Y-84487500D01*
X130290000Y-70287500D02*
X116090000Y-70287500D01*
X130290000Y-84487500D02*
X130290000Y-70287500D01*
%TO.C,SW55*%
X258965000Y-89337500D02*
X258965000Y-103537500D01*
X258965000Y-103537500D02*
X273165000Y-103537500D01*
X273165000Y-89337500D02*
X258965000Y-89337500D01*
X273165000Y-103537500D02*
X273165000Y-89337500D01*
%TO.C,SW50*%
X116090000Y-89337500D02*
X116090000Y-103537500D01*
X116090000Y-103537500D02*
X130290000Y-103537500D01*
X130290000Y-89337500D02*
X116090000Y-89337500D01*
X130290000Y-103537500D02*
X130290000Y-89337500D01*
%TO.C,SW38*%
X239915000Y-70287500D02*
X239915000Y-84487500D01*
X239915000Y-84487500D02*
X254115000Y-84487500D01*
X254115000Y-70287500D02*
X239915000Y-70287500D01*
X254115000Y-84487500D02*
X254115000Y-70287500D01*
%TO.C,SW56*%
X278015000Y-86956200D02*
X278015000Y-101156200D01*
X278015000Y-101156200D02*
X292215000Y-101156200D01*
X292215000Y-86956200D02*
X278015000Y-86956200D01*
X292215000Y-101156200D02*
X292215000Y-86956200D01*
%TD*%
D12*
%TO.C,P1*%
X172995000Y-65450000D03*
D13*
X175535000Y-65450000D03*
D12*
X178075000Y-65450000D03*
X172995000Y-59735000D03*
X178075000Y-59735000D03*
D13*
X174519000Y-57830000D03*
X176551000Y-57830000D03*
%TD*%
%LPC*%
D14*
%TO.C,SW18*%
X80010000Y-53575000D03*
D15*
X81280000Y-51035000D03*
D16*
X85090000Y-53575000D03*
D15*
X87630000Y-48495000D03*
D14*
X90170000Y-53575000D03*
%TD*%
%TO.C,SW35*%
X137160000Y-77387500D03*
D15*
X138430000Y-74847500D03*
D16*
X142240000Y-77387500D03*
D15*
X144780000Y-72307500D03*
D14*
X147320000Y-77387500D03*
%TD*%
%TO.C,SW54*%
X243858300Y-141147209D03*
D15*
X241023595Y-141317357D03*
D16*
X241318300Y-136747800D03*
D15*
X235648891Y-137088095D03*
D14*
X238778300Y-132348391D03*
%TD*%
%TO.C,SW29*%
X18097500Y-79768700D03*
D15*
X19367500Y-77228700D03*
D16*
X23177500Y-79768700D03*
D15*
X25717500Y-74688700D03*
D14*
X28257500Y-79768700D03*
%TD*%
%TO.C,SW11*%
X299085000Y-34525000D03*
D15*
X300355000Y-31985000D03*
D16*
X304165000Y-34525000D03*
D15*
X306705000Y-29445000D03*
D14*
X309245000Y-34525000D03*
%TD*%
D17*
%TO.C,REF\u002A\u002A*%
X241398487Y-122916689D03*
D18*
X228226241Y-130521689D03*
D17*
X253336487Y-143593911D03*
D18*
X240164241Y-151198911D03*
%TD*%
D14*
%TO.C,SW76*%
X356235000Y-117868700D03*
D15*
X357505000Y-115328700D03*
D16*
X361315000Y-117868700D03*
D15*
X363855000Y-112788700D03*
D14*
X366395000Y-117868700D03*
%TD*%
%TO.C,SW57*%
X299085000Y-91675000D03*
D15*
X300355000Y-89135000D03*
D16*
X304165000Y-91675000D03*
D15*
X306705000Y-86595000D03*
D14*
X309245000Y-91675000D03*
%TD*%
%TO.C,SW48*%
X80010000Y-91675000D03*
D15*
X81280000Y-89135000D03*
D16*
X85090000Y-91675000D03*
D15*
X87630000Y-86595000D03*
D14*
X90170000Y-91675000D03*
%TD*%
%TO.C,SW46*%
X41910000Y-98818700D03*
D15*
X43180000Y-96278700D03*
D16*
X46990000Y-98818700D03*
D15*
X49530000Y-93738700D03*
D14*
X52070000Y-98818700D03*
%TD*%
%TO.C,SW66*%
X155272591Y-151981700D03*
D15*
X157642443Y-150416995D03*
D16*
X159672000Y-154521700D03*
D15*
X164411705Y-151392291D03*
D14*
X164071409Y-157061700D03*
%TD*%
%TO.C,SW25*%
X299085000Y-53575000D03*
D15*
X300355000Y-51035000D03*
D16*
X304165000Y-53575000D03*
D15*
X306705000Y-48495000D03*
D14*
X309245000Y-53575000D03*
%TD*%
%TO.C,SW58*%
X318135000Y-94056200D03*
D15*
X319405000Y-91516200D03*
D16*
X323215000Y-94056200D03*
D15*
X325755000Y-88976200D03*
D14*
X328295000Y-94056200D03*
%TD*%
%TO.C,SW68*%
X174322591Y-118986100D03*
D15*
X176692443Y-117421395D03*
D16*
X178722000Y-121526100D03*
D15*
X183461705Y-118396691D03*
D14*
X183121409Y-124066100D03*
%TD*%
D17*
%TO.C,REF\u002A\u002A*%
X143457087Y-120376689D03*
D18*
X130284841Y-112771689D03*
D17*
X131519087Y-141053911D03*
D18*
X118346841Y-133448911D03*
%TD*%
D14*
%TO.C,SW70*%
X215658591Y-140563900D03*
D15*
X215488443Y-137729195D03*
D16*
X220058000Y-138023900D03*
D15*
X219717705Y-132354491D03*
D14*
X224457409Y-135483900D03*
%TD*%
%TO.C,SW27*%
X337185000Y-60718700D03*
D15*
X338455000Y-58178700D03*
D16*
X342265000Y-60718700D03*
D15*
X344805000Y-55638700D03*
D14*
X347345000Y-60718700D03*
%TD*%
%TO.C,SW19*%
X99060000Y-55956200D03*
D15*
X100330000Y-53416200D03*
D16*
X104140000Y-55956200D03*
D15*
X106680000Y-50876200D03*
D14*
X109220000Y-55956200D03*
%TD*%
%TO.C,SW37*%
X260356100Y-131622209D03*
D15*
X257521395Y-131792357D03*
D16*
X257816100Y-127222800D03*
D15*
X252146691Y-127563095D03*
D14*
X255276100Y-122823391D03*
%TD*%
%TO.C,SW49*%
X99060000Y-94056200D03*
D15*
X100330000Y-91516200D03*
D16*
X104140000Y-94056200D03*
D15*
X106680000Y-88976200D03*
D14*
X109220000Y-94056200D03*
%TD*%
D19*
%TO.C,RST1*%
X162450000Y-71250000D03*
X162450000Y-64750000D03*
X166950000Y-71250000D03*
X166950000Y-64750000D03*
%TD*%
D14*
%TO.C,SW51*%
X150476700Y-132348391D03*
D15*
X152041405Y-134718243D03*
D16*
X147936700Y-136747800D03*
D15*
X151066109Y-141487505D03*
D14*
X145396700Y-141147209D03*
%TD*%
D20*
%TO.C,H7*%
X206450000Y-23550000D03*
%TD*%
D14*
%TO.C,SW32*%
X80010000Y-72625000D03*
D15*
X81280000Y-70085000D03*
D16*
X85090000Y-72625000D03*
D15*
X87630000Y-67545000D03*
D14*
X90170000Y-72625000D03*
%TD*%
%TO.C,SW33*%
X99060000Y-75006200D03*
D15*
X100330000Y-72466200D03*
D16*
X104140000Y-75006200D03*
D15*
X106680000Y-69926200D03*
D14*
X109220000Y-75006200D03*
%TD*%
%TO.C,SW2*%
X41910000Y-41668700D03*
D15*
X43180000Y-39128700D03*
D16*
X46990000Y-41668700D03*
D15*
X49530000Y-36588700D03*
D14*
X52070000Y-41668700D03*
%TD*%
%TO.C,SW45*%
X18097500Y-98818700D03*
D15*
X19367500Y-96278700D03*
D16*
X23177500Y-98818700D03*
D15*
X25717500Y-93738700D03*
D14*
X28257500Y-98818700D03*
%TD*%
%TO.C,SW21*%
X137160000Y-58337500D03*
D15*
X138430000Y-55797500D03*
D16*
X142240000Y-58337500D03*
D15*
X144780000Y-53257500D03*
D14*
X147320000Y-58337500D03*
%TD*%
%TO.C,SW26*%
X318135000Y-55956200D03*
D15*
X319405000Y-53416200D03*
D16*
X323215000Y-55956200D03*
D15*
X325755000Y-50876200D03*
D14*
X328295000Y-55956200D03*
%TD*%
%TO.C,SW40*%
X280035000Y-75006200D03*
D15*
X281305000Y-72466200D03*
D16*
X285115000Y-75006200D03*
D15*
X287655000Y-69926200D03*
D14*
X290195000Y-75006200D03*
%TD*%
%TO.C,SW14*%
X360997500Y-41668700D03*
D15*
X362267500Y-39128700D03*
D16*
X366077500Y-41668700D03*
D15*
X368617500Y-36588700D03*
D14*
X371157500Y-41668700D03*
%TD*%
%TO.C,SW20*%
X118110000Y-58337500D03*
D15*
X119380000Y-55797500D03*
D16*
X123190000Y-58337500D03*
D15*
X125730000Y-53257500D03*
D14*
X128270000Y-58337500D03*
%TD*%
%TO.C,SW75*%
X337185000Y-117868700D03*
D15*
X338455000Y-115328700D03*
D16*
X342265000Y-117868700D03*
D15*
X344805000Y-112788700D03*
D14*
X347345000Y-117868700D03*
%TD*%
%TO.C,SW13*%
X337185000Y-41668700D03*
D15*
X338455000Y-39128700D03*
D16*
X342265000Y-41668700D03*
D15*
X344805000Y-36588700D03*
D14*
X347345000Y-41668700D03*
%TD*%
%TO.C,SW60*%
X360997500Y-98818700D03*
D15*
X362267500Y-96278700D03*
D16*
X366077500Y-98818700D03*
D15*
X368617500Y-93738700D03*
D14*
X371157500Y-98818700D03*
%TD*%
%TO.C,SW43*%
X337185000Y-79768700D03*
D15*
X338455000Y-77228700D03*
D16*
X342265000Y-79768700D03*
D15*
X344805000Y-74688700D03*
D14*
X347345000Y-79768700D03*
%TD*%
%TO.C,SW6*%
X118110000Y-39287500D03*
D15*
X119380000Y-36747500D03*
D16*
X123190000Y-39287500D03*
D15*
X125730000Y-34207500D03*
D14*
X128270000Y-39287500D03*
%TD*%
%TO.C,SW53*%
X222631391Y-114541100D03*
D15*
X222461243Y-111706395D03*
D16*
X227030800Y-112001100D03*
D15*
X226690505Y-106331691D03*
D14*
X231430209Y-109461100D03*
%TD*%
%TO.C,SW42*%
X318135000Y-75006200D03*
D15*
X319405000Y-72466200D03*
D16*
X323215000Y-75006200D03*
D15*
X325755000Y-69926200D03*
D14*
X328295000Y-75006200D03*
%TD*%
%TO.C,SW4*%
X80010000Y-34525000D03*
D15*
X81280000Y-31985000D03*
D16*
X85090000Y-34525000D03*
D15*
X87630000Y-29445000D03*
D14*
X90170000Y-34525000D03*
%TD*%
%TO.C,SW41*%
X299085000Y-72625000D03*
D15*
X300355000Y-70085000D03*
D16*
X304165000Y-72625000D03*
D15*
X306705000Y-67545000D03*
D14*
X309245000Y-72625000D03*
%TD*%
%TO.C,SW39*%
X260985000Y-77387500D03*
D15*
X262255000Y-74847500D03*
D16*
X266065000Y-77387500D03*
D15*
X268605000Y-72307500D03*
D14*
X271145000Y-77387500D03*
%TD*%
%TO.C,SW10*%
X280035000Y-36906200D03*
D15*
X281305000Y-34366200D03*
D16*
X285115000Y-36906200D03*
D15*
X287655000Y-31826200D03*
D14*
X290195000Y-36906200D03*
%TD*%
%TO.C,SW61*%
X22860000Y-117868700D03*
D15*
X24130000Y-115328700D03*
D16*
X27940000Y-117868700D03*
D15*
X30480000Y-112788700D03*
D14*
X33020000Y-117868700D03*
%TD*%
%TO.C,SW74*%
X318135000Y-113106200D03*
D15*
X319405000Y-110566200D03*
D16*
X323215000Y-113106200D03*
D15*
X325755000Y-108026200D03*
D14*
X328295000Y-113106200D03*
%TD*%
%TO.C,SW64*%
X80010000Y-110725000D03*
D15*
X81280000Y-108185000D03*
D16*
X85090000Y-110725000D03*
D15*
X87630000Y-105645000D03*
D14*
X90170000Y-110725000D03*
%TD*%
%TO.C,SW28*%
X360997500Y-60718700D03*
D15*
X362267500Y-58178700D03*
D16*
X366077500Y-60718700D03*
D15*
X368617500Y-55638700D03*
D14*
X371157500Y-60718700D03*
%TD*%
%TO.C,SW31*%
X60960000Y-75006200D03*
D15*
X62230000Y-72466200D03*
D16*
X66040000Y-75006200D03*
D15*
X68580000Y-69926200D03*
D14*
X71120000Y-75006200D03*
%TD*%
%TO.C,SW36*%
X133978900Y-122823391D03*
D15*
X135543605Y-125193243D03*
D16*
X131438900Y-127222800D03*
D15*
X134568309Y-131962505D03*
D14*
X128898900Y-131622209D03*
%TD*%
%TO.C,SW23*%
X260985000Y-58337500D03*
D15*
X262255000Y-55797500D03*
D16*
X266065000Y-58337500D03*
D15*
X268605000Y-53257500D03*
D14*
X271145000Y-58337500D03*
%TD*%
%TO.C,SW12*%
X318135000Y-36906200D03*
D15*
X319405000Y-34366200D03*
D16*
X323215000Y-36906200D03*
D15*
X325755000Y-31826200D03*
D14*
X328295000Y-36906200D03*
%TD*%
D19*
%TO.C,BOOT1*%
X226850000Y-64400000D03*
X226850000Y-70900000D03*
X222350000Y-64400000D03*
X222350000Y-70900000D03*
%TD*%
D14*
%TO.C,SW9*%
X260985000Y-39287500D03*
D15*
X262255000Y-36747500D03*
D16*
X266065000Y-39287500D03*
D15*
X268605000Y-34207500D03*
D14*
X271145000Y-39287500D03*
%TD*%
%TO.C,SW30*%
X41910000Y-79768700D03*
D15*
X43180000Y-77228700D03*
D16*
X46990000Y-79768700D03*
D15*
X49530000Y-74688700D03*
D14*
X52070000Y-79768700D03*
%TD*%
%TO.C,SW52*%
X157824791Y-109461100D03*
D15*
X160194643Y-107896395D03*
D16*
X162224200Y-112001100D03*
D15*
X166963905Y-108871691D03*
D14*
X166623609Y-114541100D03*
%TD*%
%TO.C,SW8*%
X241935000Y-39287500D03*
D15*
X243205000Y-36747500D03*
D16*
X247015000Y-39287500D03*
D15*
X249555000Y-34207500D03*
D14*
X252095000Y-39287500D03*
%TD*%
D20*
%TO.C,H1*%
X182450000Y-23450000D03*
%TD*%
D14*
%TO.C,SW16*%
X41910000Y-60718700D03*
D15*
X43180000Y-58178700D03*
D16*
X46990000Y-60718700D03*
D15*
X49530000Y-55638700D03*
D14*
X52070000Y-60718700D03*
%TD*%
%TO.C,SW44*%
X360997500Y-79768700D03*
D15*
X362267500Y-77228700D03*
D16*
X366077500Y-79768700D03*
D15*
X368617500Y-74688700D03*
D14*
X371157500Y-79768700D03*
%TD*%
%TO.C,SW1*%
X18097500Y-41668700D03*
D15*
X19367500Y-39128700D03*
D16*
X23177500Y-41668700D03*
D15*
X25717500Y-36588700D03*
D14*
X28257500Y-41668700D03*
%TD*%
D20*
%TO.C,H3*%
X376450000Y-128050000D03*
%TD*%
D14*
%TO.C,SW47*%
X60960000Y-94056200D03*
D15*
X62230000Y-91516200D03*
D16*
X66040000Y-94056200D03*
D15*
X68580000Y-88976200D03*
D14*
X71120000Y-94056200D03*
%TD*%
D20*
%TO.C,H5*%
X376450000Y-23550000D03*
%TD*%
D14*
%TO.C,SW22*%
X241935000Y-58337500D03*
D15*
X243205000Y-55797500D03*
D16*
X247015000Y-58337500D03*
D15*
X249555000Y-53257500D03*
D14*
X252095000Y-58337500D03*
%TD*%
D21*
%TO.C,P1*%
X172995000Y-65450000D03*
D22*
X175535000Y-65450000D03*
D21*
X178075000Y-65450000D03*
X172995000Y-59735000D03*
X178075000Y-59735000D03*
D22*
X174519000Y-57830000D03*
X176551000Y-57830000D03*
D23*
X176170000Y-64180000D03*
X176170000Y-62910000D03*
X176170000Y-61640000D03*
X176170000Y-60370000D03*
X176170000Y-59100000D03*
X174900000Y-59100000D03*
X174900000Y-60370000D03*
X174900000Y-61640000D03*
X174900000Y-62910000D03*
X174900000Y-64180000D03*
%TD*%
D14*
%TO.C,SW59*%
X337185000Y-98818700D03*
D15*
X338455000Y-96278700D03*
D16*
X342265000Y-98818700D03*
D15*
X344805000Y-93738700D03*
D14*
X347345000Y-98818700D03*
%TD*%
%TO.C,SW5*%
X99060000Y-36906200D03*
D15*
X100330000Y-34366200D03*
D16*
X104140000Y-36906200D03*
D15*
X106680000Y-31826200D03*
D14*
X109220000Y-36906200D03*
%TD*%
%TO.C,SW69*%
X206133591Y-124066100D03*
D15*
X205963443Y-121231395D03*
D16*
X210533000Y-121526100D03*
D15*
X210192705Y-115856691D03*
D14*
X214932409Y-118986100D03*
%TD*%
%TO.C,SW3*%
X60960000Y-36906200D03*
D15*
X62230000Y-34366200D03*
D16*
X66040000Y-36906200D03*
D15*
X68580000Y-31826200D03*
D14*
X71120000Y-36906200D03*
%TD*%
%TO.C,SW17*%
X60960000Y-55956200D03*
D15*
X62230000Y-53416200D03*
D16*
X66040000Y-55956200D03*
D15*
X68580000Y-50876200D03*
D14*
X71120000Y-55956200D03*
%TD*%
%TO.C,SW71*%
X225183591Y-157061700D03*
D15*
X225013443Y-154226995D03*
D16*
X229583000Y-154521700D03*
D15*
X229242705Y-148852291D03*
D14*
X233982409Y-151981700D03*
%TD*%
%TO.C,SW24*%
X280035000Y-55956200D03*
D15*
X281305000Y-53416200D03*
D16*
X285115000Y-55956200D03*
D15*
X287655000Y-50876200D03*
D14*
X290195000Y-55956200D03*
%TD*%
%TO.C,SW63*%
X60960000Y-113106200D03*
D15*
X62230000Y-110566200D03*
D16*
X66040000Y-113106200D03*
D15*
X68580000Y-108026200D03*
D14*
X71120000Y-113106200D03*
%TD*%
D20*
%TO.C,H6*%
X13950000Y-23050000D03*
%TD*%
D14*
%TO.C,SW67*%
X164797591Y-135483900D03*
D15*
X167167443Y-133919195D03*
D16*
X169197000Y-138023900D03*
D15*
X173936705Y-134894491D03*
D14*
X173596409Y-140563900D03*
%TD*%
%TO.C,SW65*%
X99060000Y-113106200D03*
D15*
X100330000Y-110566200D03*
D16*
X104140000Y-113106200D03*
D15*
X106680000Y-108026200D03*
D14*
X109220000Y-113106200D03*
%TD*%
%TO.C,SW72*%
X280035000Y-113106200D03*
D15*
X281305000Y-110566200D03*
D16*
X285115000Y-113106200D03*
D15*
X287655000Y-108026200D03*
D14*
X290195000Y-113106200D03*
%TD*%
%TO.C,SW62*%
X41910000Y-117868700D03*
D15*
X43180000Y-115328700D03*
D16*
X46990000Y-117868700D03*
D15*
X49530000Y-112788700D03*
D14*
X52070000Y-117868700D03*
%TD*%
%TO.C,SW73*%
X299085000Y-110725000D03*
D15*
X300355000Y-108185000D03*
D16*
X304165000Y-110725000D03*
D15*
X306705000Y-105645000D03*
D14*
X309245000Y-110725000D03*
%TD*%
D17*
%TO.C,REF\u002A\u002A*%
X256964027Y-141363911D03*
D18*
X270136273Y-133758911D03*
D17*
X245026027Y-120686689D03*
D18*
X258198273Y-113081689D03*
%TD*%
D14*
%TO.C,SW15*%
X18097500Y-60718700D03*
D15*
X19367500Y-58178700D03*
D16*
X23177500Y-60718700D03*
D15*
X25717500Y-55638700D03*
D14*
X28257500Y-60718700D03*
%TD*%
%TO.C,SW7*%
X137160000Y-39287500D03*
D15*
X138430000Y-36747500D03*
D16*
X142240000Y-39287500D03*
D15*
X144780000Y-34207500D03*
D14*
X147320000Y-39287500D03*
%TD*%
D20*
%TO.C,H2*%
X194450000Y-171550000D03*
%TD*%
D14*
%TO.C,SW34*%
X118110000Y-77387500D03*
D15*
X119380000Y-74847500D03*
D16*
X123190000Y-77387500D03*
D15*
X125730000Y-72307500D03*
D14*
X128270000Y-77387500D03*
%TD*%
D17*
%TO.C,REF\u002A\u002A*%
X135608513Y-142822025D03*
D18*
X148780759Y-150427025D03*
D17*
X147546513Y-122144803D03*
D18*
X160718759Y-129749803D03*
%TD*%
D14*
%TO.C,SW55*%
X260985000Y-96437500D03*
D15*
X262255000Y-93897500D03*
D16*
X266065000Y-96437500D03*
D15*
X268605000Y-91357500D03*
D14*
X271145000Y-96437500D03*
%TD*%
%TO.C,SW50*%
X118110000Y-96437500D03*
D15*
X119380000Y-93897500D03*
D16*
X123190000Y-96437500D03*
D15*
X125730000Y-91357500D03*
D14*
X128270000Y-96437500D03*
%TD*%
%TO.C,SW38*%
X241935000Y-77387500D03*
D15*
X243205000Y-74847500D03*
D16*
X247015000Y-77387500D03*
D15*
X249555000Y-72307500D03*
D14*
X252095000Y-77387500D03*
%TD*%
D20*
%TO.C,H4*%
X13950000Y-128050000D03*
%TD*%
D14*
%TO.C,SW56*%
X280035000Y-94056200D03*
D15*
X281305000Y-91516200D03*
D16*
X285115000Y-94056200D03*
D15*
X287655000Y-88976200D03*
D14*
X290195000Y-94056200D03*
%TD*%
D24*
%TO.C,J1*%
X191585000Y-25440000D03*
X197365000Y-25440000D03*
D25*
X190155000Y-21790000D03*
D26*
X190155000Y-25970000D03*
D25*
X198795000Y-21790000D03*
D26*
X198795000Y-25970000D03*
%TD*%
%LPD*%
M02*
