M48
; DRILL file {KiCad 7.0.2} date Fri Jun  2 16:23:41 2023
; FORMAT={-:-/ absolute / inch / decimal}
; #@! TF.CreationDate,2023-06-02T16:23:41-04:00
; #@! TF.GenerationSoftware,Kicad,Pcbnew,7.0.2
; #@! TF.FileFunction,Plated,1,2,PTH
FMAT,2
INCH
; #@! TA.AperFunction,Plated,PTH,ViaDrill
T1C0.0138
; #@! TA.AperFunction,Plated,PTH,ComponentDrill
T2C0.0138
; #@! TA.AperFunction,Plated,PTH,ComponentDrill
T3C0.0236
; #@! TA.AperFunction,Plated,PTH,ComponentDrill
T4C0.0433
; #@! TA.AperFunction,Plated,PTH,ComponentDrill
T5C0.0866
%
G90
G05
T1
X0.5Y-1.5313
X0.5Y-2.2813
X0.5Y-3.0313
X0.5Y-3.7813
X0.6875Y-4.5313
X0.8642Y-1.0315
X1.4375Y-1.5313
X1.4375Y-2.2813
X1.4375Y-3.0313
X1.4375Y-3.7813
X1.4687Y-4.5313
X2.2187Y-1.375
X2.2187Y-2.125
X2.2187Y-2.875
X2.2187Y-3.625
X2.2187Y-4.3437
X2.9687Y-1.25
X2.9687Y-2.0
X2.9687Y-2.75
X2.9687Y-3.5
X2.9687Y-4.25
X3.1437Y-5.0
X3.7187Y-1.3437
X3.7187Y-2.0937
X3.7187Y-2.8437
X3.7187Y-3.5937
X3.7187Y-4.3437
X4.4687Y-1.4375
X4.4687Y-2.1875
X4.4687Y-2.9375
X4.4687Y-3.6875
X4.9688Y-4.0025
X5.2187Y-1.4375
X5.2187Y-2.1875
X5.2187Y-2.9375
X5.7188Y-2.5025
X5.9409Y-1.7559
X5.9688Y-3.3125
X6.0Y-5.8125
X6.0217Y-1.0354
X6.3738Y-4.65
X6.376Y-0.9055
X6.5604Y-4.8517
X6.7067Y-6.7205
X6.9744Y-2.4974
X7.0955Y-2.6398
X7.2303Y-2.2953
X7.2598Y-2.2953
X7.2893Y-2.2953
X7.3188Y-2.2953
X7.3337Y-1.061
X7.3483Y-2.2953
X7.3779Y-2.2953
X7.4074Y-2.2953
X7.4366Y-2.437
X7.4429Y-2.1969
X7.4821Y-2.6022
X7.5111Y-2.6091
X7.5161Y-2.5118
X7.5177Y-2.5678
X7.5285Y-1.0585
X7.5514Y-1.3425
X7.5689Y-2.1811
X7.5955Y-2.7156
X7.606Y-1.0121
X7.6817Y-2.5734
X7.6992Y-1.0042
X7.7128Y-2.2992
X7.7421Y-1.3425
X7.7601Y-2.5765
X7.7697Y-1.2323
X7.8012Y-1.1181
X7.8196Y-2.1016
X7.8248Y-2.5941
X7.8418Y-2.5381
X7.8471Y-2.6148
X7.8786Y-2.6156
X7.8799Y-2.252
X7.884Y-1.8056
X7.8996Y-2.5709
X7.9134Y-2.6309
X7.937Y-2.2717
X7.9469Y-2.7638
X7.9606Y-2.4488
X7.9665Y-2.2717
X7.996Y-2.2717
X7.9971Y-4.8374
X8.0256Y-2.2717
X8.0551Y-2.2717
X8.061Y-5.3248
X8.0846Y-2.2715
X8.1141Y-2.2718
X8.1436Y-2.2714
X8.1619Y-4.1619
X8.3721Y-5.4869
X8.502Y-2.0492
X8.5217Y-6.7205
X8.6343Y-2.1008
X8.6467Y-4.4624
X8.6988Y-1.6673
X8.7471Y-6.1364
X8.7539Y-2.2362
X8.9606Y-1.0512
X9.1319Y-1.0551
X9.1575Y-4.525
X9.4461Y-2.9468
X9.4469Y-1.4488
X9.4469Y-2.1969
X9.5531Y-5.6752
X10.1961Y-1.4468
X10.1961Y-2.1968
X10.1961Y-2.9468
X10.1961Y-3.6968
X10.625Y-3.375
X10.8125Y-4.1875
X10.9461Y-1.353
X10.9461Y-2.103
X10.9461Y-2.853
X10.9461Y-3.603
X10.9461Y-4.353
X11.6961Y-1.2593
X11.6961Y-2.0093
X11.6961Y-2.7593
X11.6961Y-3.5093
X11.6961Y-4.2593
X12.0768Y-5.0
X12.4461Y-1.353
X12.4461Y-2.103
X12.4461Y-2.853
X12.4461Y-3.603
X12.4461Y-4.353
X13.1961Y-1.5405
X13.1961Y-2.2905
X13.1961Y-3.0405
X13.1961Y-3.7905
X13.1961Y-4.5405
X13.9461Y-4.5405
X14.1336Y-1.5405
X14.1336Y-2.2905
X14.1336Y-3.0405
X14.1336Y-3.7905
X14.3602Y-1.0337
T2
X7.6498Y-2.3498
X7.6498Y-2.4
X7.6498Y-2.4502
X7.7Y-2.3498
X7.7Y-2.4
X7.7Y-2.4502
X7.7502Y-2.3498
X7.7502Y-2.4
X7.7502Y-2.4502
T4
X6.3957Y-2.5492
X6.3957Y-2.8051
X6.5728Y-2.5492
X6.5728Y-2.8051
X8.7539Y-2.5354
X8.7539Y-2.7913
X8.9311Y-2.5354
X8.9311Y-2.7913
T5
X0.5492Y-0.9075
X0.5492Y-5.0413
X7.1831Y-0.9232
X7.6555Y-6.7539
X8.128Y-0.9272
X14.8209Y-0.9272
X14.8209Y-5.0413
T3
G00X7.4864Y-0.8461
M15
G01X7.4864Y-0.8697
M16
G05
G00X7.4864Y-1.0008
M15
G01X7.4864Y-1.0441
M16
G05
G00X7.8266Y-0.8461
M15
G01X7.8266Y-0.8697
M16
G05
G00X7.8266Y-1.0008
M15
G01X7.8266Y-1.0441
M16
G05
T0
M30
