%TF.GenerationSoftware,KiCad,Pcbnew,7.0.2*%
%TF.CreationDate,2023-06-06T09:56:26-04:00*%
%TF.ProjectId,arisu,61726973-752e-46b6-9963-61645f706362,1.1*%
%TF.SameCoordinates,Original*%
%TF.FileFunction,Legend,Top*%
%TF.FilePolarity,Positive*%
%FSLAX46Y46*%
G04 Gerber Fmt 4.6, Leading zero omitted, Abs format (unit mm)*
G04 Created by KiCad (PCBNEW 7.0.2) date 2023-06-06 09:56:26*
%MOMM*%
%LPD*%
G01*
G04 APERTURE LIST*
%ADD10C,0.025400*%
%ADD11C,0.300000*%
%ADD12C,0.120000*%
%ADD13C,2.374910*%
%ADD14C,0.990610*%
%ADD15C,3.048000*%
%ADD16C,3.987800*%
%ADD17C,2.102000*%
%ADD18C,4.502000*%
%ADD19C,2.476910*%
%ADD20C,1.092610*%
%ADD21C,0.889400*%
%ADD22C,1.750000*%
%ADD23C,3.050000*%
%ADD24C,4.000000*%
%ADD25C,0.650000*%
%ADD26O,1.102000X1.702000*%
%ADD27O,1.102000X2.202000*%
G04 APERTURE END LIST*
D10*
X221917499Y-107262202D02*
X221917499Y-107277641D01*
X221909782Y-107277638D01*
X221902063Y-107277638D01*
X221814532Y-107182388D01*
X221726998Y-107087138D01*
X221917499Y-107262202D01*
G36*
X221917499Y-107262202D02*
G01*
X221917499Y-107277641D01*
X221909782Y-107277638D01*
X221902063Y-107277638D01*
X221814532Y-107182388D01*
X221726998Y-107087138D01*
X221917499Y-107262202D01*
G37*
X228790182Y-114388565D02*
X228828279Y-114476394D01*
X228981607Y-114648916D01*
X229134937Y-114821438D01*
X229116931Y-114821438D01*
X228961786Y-114662688D01*
X228806638Y-114503938D01*
X228778369Y-114448457D01*
X228750100Y-114392978D01*
X228751091Y-114346856D01*
X228752082Y-114300737D01*
X228790182Y-114388565D01*
G36*
X228790182Y-114388565D02*
G01*
X228828279Y-114476394D01*
X228981607Y-114648916D01*
X229134937Y-114821438D01*
X229116931Y-114821438D01*
X228961786Y-114662688D01*
X228806638Y-114503938D01*
X228778369Y-114448457D01*
X228750100Y-114392978D01*
X228751091Y-114346856D01*
X228752082Y-114300737D01*
X228790182Y-114388565D01*
G37*
X230909099Y-116675637D02*
X230844971Y-116675637D01*
X230048604Y-115818388D01*
X229252237Y-114961139D01*
X229642554Y-115354838D01*
X230032873Y-115748538D01*
X230445586Y-116170777D01*
X230858298Y-116593016D01*
X230858298Y-116307339D01*
X229866823Y-115253238D01*
X228875353Y-114199138D01*
X228812846Y-114143206D01*
X228750342Y-114087275D01*
X228750342Y-92240839D01*
X223543342Y-92240839D01*
X223543342Y-106484707D01*
X223638592Y-106597888D01*
X223733841Y-106711069D01*
X225081680Y-108143703D01*
X226429520Y-109576339D01*
X226614960Y-109779538D01*
X226800397Y-109982739D01*
X226840992Y-110043706D01*
X226881589Y-110104673D01*
X226882488Y-111307356D01*
X226883417Y-112510038D01*
X226798271Y-112510038D01*
X225494759Y-111119389D01*
X224191243Y-109728740D01*
X223405400Y-108890540D01*
X222619557Y-108052340D01*
X222314135Y-107722140D01*
X222008710Y-107391941D01*
X222105921Y-107480841D01*
X222203129Y-107569741D01*
X224898767Y-110439942D01*
X225784670Y-111372750D01*
X226670573Y-112305558D01*
X226741675Y-112356186D01*
X226812778Y-112406813D01*
X226829339Y-112228596D01*
X226845901Y-112050380D01*
X225010947Y-110102156D01*
X223175749Y-108153939D01*
X221714761Y-106605033D01*
X220253774Y-105056128D01*
X217205774Y-101829023D01*
X214157799Y-98601918D01*
X210249204Y-94456178D01*
X206340611Y-90310439D01*
X206420677Y-90310439D01*
X206453867Y-90357240D01*
X206487057Y-90404042D01*
X208964383Y-93030590D01*
X211441705Y-95657138D01*
X216899738Y-101448338D01*
X219872491Y-104597939D01*
X222845244Y-107747538D01*
X224734382Y-109754139D01*
X226623520Y-111760739D01*
X226721637Y-111861966D01*
X226819756Y-111963194D01*
X226819756Y-110102163D01*
X226663116Y-109928151D01*
X226506474Y-109754141D01*
X225031166Y-108183820D01*
X223555855Y-106613500D01*
X223511361Y-106533134D01*
X223466868Y-106452768D01*
X223473261Y-99327754D01*
X223479597Y-92202741D01*
X228788195Y-92202741D01*
X228800893Y-103142450D01*
X228813592Y-114082159D01*
X230794793Y-116173951D01*
X230820061Y-116208897D01*
X230845335Y-116243843D01*
X230851819Y-116243838D01*
X230858298Y-116243838D01*
X230858298Y-90208839D01*
X221620989Y-90208839D01*
X221604171Y-91408989D01*
X221587356Y-92609139D01*
X221587356Y-104424372D01*
X221509188Y-104424372D01*
X220302180Y-103150139D01*
X217979320Y-100672802D01*
X215656457Y-98195466D01*
X214538856Y-97002598D01*
X213421257Y-95809730D01*
X211998857Y-94297837D01*
X210576457Y-92785945D01*
X209500729Y-91630742D01*
X208424999Y-90475539D01*
X208339050Y-90392989D01*
X208253104Y-90310439D01*
X206420677Y-90310439D01*
X206340611Y-90310439D01*
X206089065Y-90310439D01*
X206097534Y-90333538D01*
X206106000Y-90356637D01*
X206536197Y-90822488D01*
X206966397Y-91288339D01*
X211285997Y-95898281D01*
X215605599Y-100508222D01*
X217510601Y-102540380D01*
X219415603Y-104572539D01*
X219923600Y-105119931D01*
X220431598Y-105667325D01*
X220643896Y-105900982D01*
X220856194Y-106134638D01*
X220832775Y-106134638D01*
X220454384Y-105733794D01*
X220075998Y-105332948D01*
X218131468Y-103263644D01*
X216186936Y-101194338D01*
X214423069Y-99314625D01*
X212659199Y-97434911D01*
X210193679Y-94806125D01*
X207728157Y-92177339D01*
X206859929Y-91253700D01*
X205991699Y-90330061D01*
X205991699Y-90265074D01*
X206031877Y-90249656D01*
X206072055Y-90234238D01*
X208203130Y-90234238D01*
X208286050Y-90268885D01*
X208368971Y-90303531D01*
X208441318Y-90389535D01*
X208513665Y-90475538D01*
X209367232Y-91389757D01*
X210220799Y-92303975D01*
X212012085Y-94209157D01*
X213803374Y-96114339D01*
X216825385Y-99340556D01*
X219847398Y-102566774D01*
X220685597Y-103464350D01*
X221523797Y-104361926D01*
X221530193Y-97259982D01*
X221536586Y-90158038D01*
X230909099Y-90158038D01*
X230909099Y-116675637D01*
G36*
X230909099Y-116675637D02*
G01*
X230844971Y-116675637D01*
X230048604Y-115818388D01*
X229252237Y-114961139D01*
X229642554Y-115354838D01*
X230032873Y-115748538D01*
X230445586Y-116170777D01*
X230858298Y-116593016D01*
X230858298Y-116307339D01*
X229866823Y-115253238D01*
X228875353Y-114199138D01*
X228812846Y-114143206D01*
X228750342Y-114087275D01*
X228750342Y-92240839D01*
X223543342Y-92240839D01*
X223543342Y-106484707D01*
X223638592Y-106597888D01*
X223733841Y-106711069D01*
X225081680Y-108143703D01*
X226429520Y-109576339D01*
X226614960Y-109779538D01*
X226800397Y-109982739D01*
X226840992Y-110043706D01*
X226881589Y-110104673D01*
X226882488Y-111307356D01*
X226883417Y-112510038D01*
X226798271Y-112510038D01*
X225494759Y-111119389D01*
X224191243Y-109728740D01*
X223405400Y-108890540D01*
X222619557Y-108052340D01*
X222314135Y-107722140D01*
X222008710Y-107391941D01*
X222105921Y-107480841D01*
X222203129Y-107569741D01*
X224898767Y-110439942D01*
X225784670Y-111372750D01*
X226670573Y-112305558D01*
X226741675Y-112356186D01*
X226812778Y-112406813D01*
X226829339Y-112228596D01*
X226845901Y-112050380D01*
X225010947Y-110102156D01*
X223175749Y-108153939D01*
X221714761Y-106605033D01*
X220253774Y-105056128D01*
X217205774Y-101829023D01*
X214157799Y-98601918D01*
X210249204Y-94456178D01*
X206340611Y-90310439D01*
X206420677Y-90310439D01*
X206453867Y-90357240D01*
X206487057Y-90404042D01*
X208964383Y-93030590D01*
X211441705Y-95657138D01*
X216899738Y-101448338D01*
X219872491Y-104597939D01*
X222845244Y-107747538D01*
X224734382Y-109754139D01*
X226623520Y-111760739D01*
X226721637Y-111861966D01*
X226819756Y-111963194D01*
X226819756Y-110102163D01*
X226663116Y-109928151D01*
X226506474Y-109754141D01*
X225031166Y-108183820D01*
X223555855Y-106613500D01*
X223511361Y-106533134D01*
X223466868Y-106452768D01*
X223473261Y-99327754D01*
X223479597Y-92202741D01*
X228788195Y-92202741D01*
X228800893Y-103142450D01*
X228813592Y-114082159D01*
X230794793Y-116173951D01*
X230820061Y-116208897D01*
X230845335Y-116243843D01*
X230851819Y-116243838D01*
X230858298Y-116243838D01*
X230858298Y-90208839D01*
X221620989Y-90208839D01*
X221604171Y-91408989D01*
X221587356Y-92609139D01*
X221587356Y-104424372D01*
X221509188Y-104424372D01*
X220302180Y-103150139D01*
X217979320Y-100672802D01*
X215656457Y-98195466D01*
X214538856Y-97002598D01*
X213421257Y-95809730D01*
X211998857Y-94297837D01*
X210576457Y-92785945D01*
X209500729Y-91630742D01*
X208424999Y-90475539D01*
X208339050Y-90392989D01*
X208253104Y-90310439D01*
X206420677Y-90310439D01*
X206340611Y-90310439D01*
X206089065Y-90310439D01*
X206097534Y-90333538D01*
X206106000Y-90356637D01*
X206536197Y-90822488D01*
X206966397Y-91288339D01*
X211285997Y-95898281D01*
X215605599Y-100508222D01*
X217510601Y-102540380D01*
X219415603Y-104572539D01*
X219923600Y-105119931D01*
X220431598Y-105667325D01*
X220643896Y-105900982D01*
X220856194Y-106134638D01*
X220832775Y-106134638D01*
X220454384Y-105733794D01*
X220075998Y-105332948D01*
X218131468Y-103263644D01*
X216186936Y-101194338D01*
X214423069Y-99314625D01*
X212659199Y-97434911D01*
X210193679Y-94806125D01*
X207728157Y-92177339D01*
X206859929Y-91253700D01*
X205991699Y-90330061D01*
X205991699Y-90265074D01*
X206031877Y-90249656D01*
X206072055Y-90234238D01*
X208203130Y-90234238D01*
X208286050Y-90268885D01*
X208368971Y-90303531D01*
X208441318Y-90389535D01*
X208513665Y-90475538D01*
X209367232Y-91389757D01*
X210220799Y-92303975D01*
X212012085Y-94209157D01*
X213803374Y-96114339D01*
X216825385Y-99340556D01*
X219847398Y-102566774D01*
X220685597Y-103464350D01*
X221523797Y-104361926D01*
X221530193Y-97259982D01*
X221536586Y-90158038D01*
X230909099Y-90158038D01*
X230909099Y-116675637D01*
G37*
X206900000Y-98700000D02*
X207865932Y-99723563D01*
X207933638Y-99804026D01*
X208001345Y-99884489D01*
X208025222Y-99967745D01*
X208049101Y-100051002D01*
X208049101Y-122365237D01*
X213205302Y-122365237D01*
X213205302Y-108042433D01*
X211469080Y-106198138D01*
X210705241Y-105378045D01*
X209941402Y-104557952D01*
X209910798Y-104489045D01*
X209880193Y-104420138D01*
X209879053Y-103232687D01*
X209878352Y-102502370D01*
X209925783Y-102502370D01*
X209988056Y-102559555D01*
X210050329Y-102616740D01*
X211584111Y-104255040D01*
X213117893Y-105893339D01*
X216888188Y-109919240D01*
X220658485Y-113945141D01*
X223199818Y-116650241D01*
X225741148Y-119355340D01*
X228034357Y-121800089D01*
X230327565Y-124244840D01*
X230480767Y-124244838D01*
X230633967Y-124244838D01*
X230557429Y-124149588D01*
X230480891Y-124054339D01*
X229850442Y-123380385D01*
X229219997Y-122706429D01*
X226742451Y-120052986D01*
X224264906Y-117399538D01*
X221917392Y-114884939D01*
X219569881Y-112370338D01*
X218285824Y-110998738D01*
X217001767Y-109627139D01*
X215542324Y-108065039D01*
X214082883Y-106502938D01*
X212812241Y-105156562D01*
X211541598Y-103810185D01*
X210995498Y-103226853D01*
X210449398Y-102643521D01*
X210195398Y-102380461D01*
X209941398Y-102117400D01*
X209933589Y-102309885D01*
X209925783Y-102502370D01*
X209878352Y-102502370D01*
X209877914Y-102045238D01*
X209948175Y-102045238D01*
X210376902Y-102496088D01*
X210805628Y-102946939D01*
X211162326Y-103327939D01*
X211519023Y-103708939D01*
X212813039Y-105080539D01*
X214107053Y-106452138D01*
X215732635Y-108191534D01*
X217358215Y-109930929D01*
X218679645Y-111341132D01*
X220001077Y-112751337D01*
X221651444Y-114517730D01*
X223301815Y-116284121D01*
X224902015Y-117995974D01*
X226502215Y-119707825D01*
X230731315Y-124231633D01*
X230731315Y-124289714D01*
X230674165Y-124299705D01*
X230617016Y-124309666D01*
X229512125Y-124299945D01*
X228407235Y-124290225D01*
X228176701Y-124054348D01*
X226740369Y-122517649D01*
X225304039Y-120980948D01*
X224099727Y-119697425D01*
X222895417Y-118413894D01*
X221359268Y-116763723D01*
X219823120Y-115113549D01*
X218896031Y-114122948D01*
X217968944Y-113132347D01*
X216517988Y-111582946D01*
X216005909Y-111029480D01*
X215493829Y-110476014D01*
X215204655Y-110146643D01*
X215217940Y-110133359D01*
X215231224Y-110120075D01*
X216040720Y-110990377D01*
X216850217Y-111860680D01*
X218386917Y-113499840D01*
X219923617Y-115139003D01*
X220964938Y-116256573D01*
X222006259Y-117374146D01*
X222945288Y-118377445D01*
X223884312Y-119380746D01*
X225054130Y-120625346D01*
X226223947Y-121869946D01*
X227310078Y-123031556D01*
X228396214Y-124193167D01*
X228445113Y-124219326D01*
X228494013Y-124245485D01*
X229373814Y-124238795D01*
X230253611Y-124232105D01*
X229063826Y-122962104D01*
X227874043Y-121692105D01*
X225373321Y-119025105D01*
X222872600Y-116358105D01*
X216425074Y-109481055D01*
X209977546Y-102604005D01*
X209954116Y-102604005D01*
X209954116Y-104484669D01*
X210728816Y-105331515D01*
X211526917Y-106183910D01*
X212325018Y-107036305D01*
X212721586Y-107455405D01*
X213118156Y-107874505D01*
X213187135Y-107959003D01*
X213256117Y-108043502D01*
X213256117Y-122416037D01*
X207972917Y-122416037D01*
X207971508Y-111436889D01*
X207970098Y-100457740D01*
X207180780Y-99619540D01*
X206391460Y-98781340D01*
X206153690Y-98527340D01*
X205915918Y-98273340D01*
X205915665Y-111335291D01*
X205915411Y-124397241D01*
X215135611Y-124397241D01*
X215137620Y-119298191D01*
X215139630Y-114199141D01*
X215147859Y-114072141D01*
X215156091Y-113945141D01*
X215161551Y-112040142D01*
X215167008Y-110135142D01*
X215186396Y-110211341D01*
X215205785Y-110287541D01*
X215208791Y-117367790D01*
X215211798Y-124448039D01*
X210538146Y-124448039D01*
X210538299Y-124448037D01*
X205864699Y-124448037D01*
X205864699Y-97746851D01*
X205913609Y-97746851D01*
X205920914Y-97988229D01*
X205928219Y-98229606D01*
X206943115Y-99311922D01*
X207958007Y-100394238D01*
X207978164Y-100394238D01*
X207978144Y-100394239D01*
X207998298Y-100394239D01*
X207997188Y-100260889D01*
X207996108Y-100127539D01*
X207975429Y-100020710D01*
X207954751Y-99913880D01*
X207871134Y-99817509D01*
X207787515Y-99721139D01*
X207177122Y-99073439D01*
X206566727Y-98425738D01*
X206240170Y-98086295D01*
X205913609Y-97746851D01*
X205864699Y-97746851D01*
X205864699Y-97676438D01*
X205934069Y-97676438D01*
X206900000Y-98700000D01*
G36*
X206900000Y-98700000D02*
G01*
X207865932Y-99723563D01*
X207933638Y-99804026D01*
X208001345Y-99884489D01*
X208025222Y-99967745D01*
X208049101Y-100051002D01*
X208049101Y-122365237D01*
X213205302Y-122365237D01*
X213205302Y-108042433D01*
X211469080Y-106198138D01*
X210705241Y-105378045D01*
X209941402Y-104557952D01*
X209910798Y-104489045D01*
X209880193Y-104420138D01*
X209879053Y-103232687D01*
X209878352Y-102502370D01*
X209925783Y-102502370D01*
X209988056Y-102559555D01*
X210050329Y-102616740D01*
X211584111Y-104255040D01*
X213117893Y-105893339D01*
X216888188Y-109919240D01*
X220658485Y-113945141D01*
X223199818Y-116650241D01*
X225741148Y-119355340D01*
X228034357Y-121800089D01*
X230327565Y-124244840D01*
X230480767Y-124244838D01*
X230633967Y-124244838D01*
X230557429Y-124149588D01*
X230480891Y-124054339D01*
X229850442Y-123380385D01*
X229219997Y-122706429D01*
X226742451Y-120052986D01*
X224264906Y-117399538D01*
X221917392Y-114884939D01*
X219569881Y-112370338D01*
X218285824Y-110998738D01*
X217001767Y-109627139D01*
X215542324Y-108065039D01*
X214082883Y-106502938D01*
X212812241Y-105156562D01*
X211541598Y-103810185D01*
X210995498Y-103226853D01*
X210449398Y-102643521D01*
X210195398Y-102380461D01*
X209941398Y-102117400D01*
X209933589Y-102309885D01*
X209925783Y-102502370D01*
X209878352Y-102502370D01*
X209877914Y-102045238D01*
X209948175Y-102045238D01*
X210376902Y-102496088D01*
X210805628Y-102946939D01*
X211162326Y-103327939D01*
X211519023Y-103708939D01*
X212813039Y-105080539D01*
X214107053Y-106452138D01*
X215732635Y-108191534D01*
X217358215Y-109930929D01*
X218679645Y-111341132D01*
X220001077Y-112751337D01*
X221651444Y-114517730D01*
X223301815Y-116284121D01*
X224902015Y-117995974D01*
X226502215Y-119707825D01*
X230731315Y-124231633D01*
X230731315Y-124289714D01*
X230674165Y-124299705D01*
X230617016Y-124309666D01*
X229512125Y-124299945D01*
X228407235Y-124290225D01*
X228176701Y-124054348D01*
X226740369Y-122517649D01*
X225304039Y-120980948D01*
X224099727Y-119697425D01*
X222895417Y-118413894D01*
X221359268Y-116763723D01*
X219823120Y-115113549D01*
X218896031Y-114122948D01*
X217968944Y-113132347D01*
X216517988Y-111582946D01*
X216005909Y-111029480D01*
X215493829Y-110476014D01*
X215204655Y-110146643D01*
X215217940Y-110133359D01*
X215231224Y-110120075D01*
X216040720Y-110990377D01*
X216850217Y-111860680D01*
X218386917Y-113499840D01*
X219923617Y-115139003D01*
X220964938Y-116256573D01*
X222006259Y-117374146D01*
X222945288Y-118377445D01*
X223884312Y-119380746D01*
X225054130Y-120625346D01*
X226223947Y-121869946D01*
X227310078Y-123031556D01*
X228396214Y-124193167D01*
X228445113Y-124219326D01*
X228494013Y-124245485D01*
X229373814Y-124238795D01*
X230253611Y-124232105D01*
X229063826Y-122962104D01*
X227874043Y-121692105D01*
X225373321Y-119025105D01*
X222872600Y-116358105D01*
X216425074Y-109481055D01*
X209977546Y-102604005D01*
X209954116Y-102604005D01*
X209954116Y-104484669D01*
X210728816Y-105331515D01*
X211526917Y-106183910D01*
X212325018Y-107036305D01*
X212721586Y-107455405D01*
X213118156Y-107874505D01*
X213187135Y-107959003D01*
X213256117Y-108043502D01*
X213256117Y-122416037D01*
X207972917Y-122416037D01*
X207971508Y-111436889D01*
X207970098Y-100457740D01*
X207180780Y-99619540D01*
X206391460Y-98781340D01*
X206153690Y-98527340D01*
X205915918Y-98273340D01*
X205915665Y-111335291D01*
X205915411Y-124397241D01*
X215135611Y-124397241D01*
X215137620Y-119298191D01*
X215139630Y-114199141D01*
X215147859Y-114072141D01*
X215156091Y-113945141D01*
X215161551Y-112040142D01*
X215167008Y-110135142D01*
X215186396Y-110211341D01*
X215205785Y-110287541D01*
X215208791Y-117367790D01*
X215211798Y-124448039D01*
X210538146Y-124448039D01*
X210538299Y-124448037D01*
X205864699Y-124448037D01*
X205864699Y-97746851D01*
X205913609Y-97746851D01*
X205920914Y-97988229D01*
X205928219Y-98229606D01*
X206943115Y-99311922D01*
X207958007Y-100394238D01*
X207978164Y-100394238D01*
X207978144Y-100394239D01*
X207998298Y-100394239D01*
X207997188Y-100260889D01*
X207996108Y-100127539D01*
X207975429Y-100020710D01*
X207954751Y-99913880D01*
X207871134Y-99817509D01*
X207787515Y-99721139D01*
X207177122Y-99073439D01*
X206566727Y-98425738D01*
X206240170Y-98086295D01*
X205913609Y-97746851D01*
X205864699Y-97746851D01*
X205864699Y-97676438D01*
X205934069Y-97676438D01*
X206900000Y-98700000D01*
G37*
D11*
X186521428Y-77153928D02*
X186021428Y-76439642D01*
X185664285Y-77153928D02*
X185664285Y-75653928D01*
X185664285Y-75653928D02*
X186235714Y-75653928D01*
X186235714Y-75653928D02*
X186378571Y-75725357D01*
X186378571Y-75725357D02*
X186450000Y-75796785D01*
X186450000Y-75796785D02*
X186521428Y-75939642D01*
X186521428Y-75939642D02*
X186521428Y-76153928D01*
X186521428Y-76153928D02*
X186450000Y-76296785D01*
X186450000Y-76296785D02*
X186378571Y-76368214D01*
X186378571Y-76368214D02*
X186235714Y-76439642D01*
X186235714Y-76439642D02*
X185664285Y-76439642D01*
X187164285Y-76368214D02*
X187664285Y-76368214D01*
X187878571Y-77153928D02*
X187164285Y-77153928D01*
X187164285Y-77153928D02*
X187164285Y-75653928D01*
X187164285Y-75653928D02*
X187878571Y-75653928D01*
X188450000Y-77082500D02*
X188664286Y-77153928D01*
X188664286Y-77153928D02*
X189021428Y-77153928D01*
X189021428Y-77153928D02*
X189164286Y-77082500D01*
X189164286Y-77082500D02*
X189235714Y-77011071D01*
X189235714Y-77011071D02*
X189307143Y-76868214D01*
X189307143Y-76868214D02*
X189307143Y-76725357D01*
X189307143Y-76725357D02*
X189235714Y-76582500D01*
X189235714Y-76582500D02*
X189164286Y-76511071D01*
X189164286Y-76511071D02*
X189021428Y-76439642D01*
X189021428Y-76439642D02*
X188735714Y-76368214D01*
X188735714Y-76368214D02*
X188592857Y-76296785D01*
X188592857Y-76296785D02*
X188521428Y-76225357D01*
X188521428Y-76225357D02*
X188450000Y-76082500D01*
X188450000Y-76082500D02*
X188450000Y-75939642D01*
X188450000Y-75939642D02*
X188521428Y-75796785D01*
X188521428Y-75796785D02*
X188592857Y-75725357D01*
X188592857Y-75725357D02*
X188735714Y-75653928D01*
X188735714Y-75653928D02*
X189092857Y-75653928D01*
X189092857Y-75653928D02*
X189307143Y-75725357D01*
X189949999Y-76368214D02*
X190449999Y-76368214D01*
X190664285Y-77153928D02*
X189949999Y-77153928D01*
X189949999Y-77153928D02*
X189949999Y-75653928D01*
X189949999Y-75653928D02*
X190664285Y-75653928D01*
X191092857Y-75653928D02*
X191950000Y-75653928D01*
X191521428Y-77153928D02*
X191521428Y-75653928D01*
X246564285Y-76018214D02*
X246778571Y-76089642D01*
X246778571Y-76089642D02*
X246850000Y-76161071D01*
X246850000Y-76161071D02*
X246921428Y-76303928D01*
X246921428Y-76303928D02*
X246921428Y-76518214D01*
X246921428Y-76518214D02*
X246850000Y-76661071D01*
X246850000Y-76661071D02*
X246778571Y-76732500D01*
X246778571Y-76732500D02*
X246635714Y-76803928D01*
X246635714Y-76803928D02*
X246064285Y-76803928D01*
X246064285Y-76803928D02*
X246064285Y-75303928D01*
X246064285Y-75303928D02*
X246564285Y-75303928D01*
X246564285Y-75303928D02*
X246707143Y-75375357D01*
X246707143Y-75375357D02*
X246778571Y-75446785D01*
X246778571Y-75446785D02*
X246850000Y-75589642D01*
X246850000Y-75589642D02*
X246850000Y-75732500D01*
X246850000Y-75732500D02*
X246778571Y-75875357D01*
X246778571Y-75875357D02*
X246707143Y-75946785D01*
X246707143Y-75946785D02*
X246564285Y-76018214D01*
X246564285Y-76018214D02*
X246064285Y-76018214D01*
X247850000Y-75303928D02*
X248135714Y-75303928D01*
X248135714Y-75303928D02*
X248278571Y-75375357D01*
X248278571Y-75375357D02*
X248421428Y-75518214D01*
X248421428Y-75518214D02*
X248492857Y-75803928D01*
X248492857Y-75803928D02*
X248492857Y-76303928D01*
X248492857Y-76303928D02*
X248421428Y-76589642D01*
X248421428Y-76589642D02*
X248278571Y-76732500D01*
X248278571Y-76732500D02*
X248135714Y-76803928D01*
X248135714Y-76803928D02*
X247850000Y-76803928D01*
X247850000Y-76803928D02*
X247707143Y-76732500D01*
X247707143Y-76732500D02*
X247564285Y-76589642D01*
X247564285Y-76589642D02*
X247492857Y-76303928D01*
X247492857Y-76303928D02*
X247492857Y-75803928D01*
X247492857Y-75803928D02*
X247564285Y-75518214D01*
X247564285Y-75518214D02*
X247707143Y-75375357D01*
X247707143Y-75375357D02*
X247850000Y-75303928D01*
X249421429Y-75303928D02*
X249707143Y-75303928D01*
X249707143Y-75303928D02*
X249850000Y-75375357D01*
X249850000Y-75375357D02*
X249992857Y-75518214D01*
X249992857Y-75518214D02*
X250064286Y-75803928D01*
X250064286Y-75803928D02*
X250064286Y-76303928D01*
X250064286Y-76303928D02*
X249992857Y-76589642D01*
X249992857Y-76589642D02*
X249850000Y-76732500D01*
X249850000Y-76732500D02*
X249707143Y-76803928D01*
X249707143Y-76803928D02*
X249421429Y-76803928D01*
X249421429Y-76803928D02*
X249278572Y-76732500D01*
X249278572Y-76732500D02*
X249135714Y-76589642D01*
X249135714Y-76589642D02*
X249064286Y-76303928D01*
X249064286Y-76303928D02*
X249064286Y-75803928D01*
X249064286Y-75803928D02*
X249135714Y-75518214D01*
X249135714Y-75518214D02*
X249278572Y-75375357D01*
X249278572Y-75375357D02*
X249421429Y-75303928D01*
X250492858Y-75303928D02*
X251350001Y-75303928D01*
X250921429Y-76803928D02*
X250921429Y-75303928D01*
D12*
%TO.C,RST1*%
X187900000Y-85810000D02*
X189400000Y-85810000D01*
X191900000Y-84560000D02*
X191900000Y-80060000D01*
X185400000Y-80060000D02*
X185400000Y-84560000D01*
X189400000Y-78810000D02*
X187900000Y-78810000D01*
%TO.C,BOOT1*%
X249300000Y-78460000D02*
X247800000Y-78460000D01*
X245300000Y-79710000D02*
X245300000Y-84210000D01*
X251800000Y-84210000D02*
X251800000Y-79710000D01*
X247800000Y-85460000D02*
X249300000Y-85460000D01*
%TO.C,SW18*%
X116140000Y-74985000D02*
X116140000Y-60785000D01*
X116140000Y-60785000D02*
X101940000Y-60785000D01*
X101940000Y-74985000D02*
X116140000Y-74985000D01*
X101940000Y-60785000D02*
X101940000Y-74985000D01*
%TO.C,SW35*%
X173290000Y-98797500D02*
X173290000Y-84597500D01*
X173290000Y-84597500D02*
X159090000Y-84597500D01*
X159090000Y-98797500D02*
X173290000Y-98797500D01*
X159090000Y-84597500D02*
X159090000Y-98797500D01*
%TO.C,SW54*%
X267867080Y-141359020D02*
X255569520Y-148459020D01*
X255569520Y-148459020D02*
X262669520Y-160756580D01*
X274967080Y-153656580D02*
X267867080Y-141359020D01*
X262669520Y-160756580D02*
X274967080Y-153656580D01*
%TO.C,SW29*%
X54227500Y-101178700D02*
X54227500Y-86978700D01*
X54227500Y-86978700D02*
X40027500Y-86978700D01*
X40027500Y-101178700D02*
X54227500Y-101178700D01*
X40027500Y-86978700D02*
X40027500Y-101178700D01*
%TO.C,SW11*%
X335215000Y-55935000D02*
X335215000Y-41735000D01*
X335215000Y-41735000D02*
X321015000Y-41735000D01*
X321015000Y-55935000D02*
X335215000Y-55935000D01*
X321015000Y-41735000D02*
X321015000Y-55935000D01*
%TO.C,SW76*%
X392365000Y-139278700D02*
X392365000Y-125078700D01*
X392365000Y-125078700D02*
X378165000Y-125078700D01*
X378165000Y-139278700D02*
X392365000Y-139278700D01*
X378165000Y-125078700D02*
X378165000Y-139278700D01*
%TO.C,SW57*%
X335215000Y-113085000D02*
X335215000Y-98885000D01*
X335215000Y-98885000D02*
X321015000Y-98885000D01*
X321015000Y-113085000D02*
X335215000Y-113085000D01*
X321015000Y-98885000D02*
X321015000Y-113085000D01*
%TO.C,SW48*%
X116140000Y-113085000D02*
X116140000Y-98885000D01*
X116140000Y-98885000D02*
X101940000Y-98885000D01*
X101940000Y-113085000D02*
X116140000Y-113085000D01*
X101940000Y-98885000D02*
X101940000Y-113085000D01*
%TO.C,SW46*%
X78040000Y-120228700D02*
X78040000Y-106028700D01*
X78040000Y-106028700D02*
X63840000Y-106028700D01*
X63840000Y-120228700D02*
X78040000Y-120228700D01*
X63840000Y-106028700D02*
X63840000Y-120228700D01*
%TO.C,SW66*%
X186220780Y-178530480D02*
X193320780Y-166232920D01*
X193320780Y-166232920D02*
X181023220Y-159132920D01*
X173923220Y-171430480D02*
X186220780Y-178530480D01*
X181023220Y-159132920D02*
X173923220Y-171430480D01*
%TO.C,SW25*%
X335215000Y-74985000D02*
X335215000Y-60785000D01*
X335215000Y-60785000D02*
X321015000Y-60785000D01*
X321015000Y-74985000D02*
X335215000Y-74985000D01*
X321015000Y-60785000D02*
X321015000Y-74985000D01*
%TO.C,SW58*%
X354265000Y-115466200D02*
X354265000Y-101266200D01*
X354265000Y-101266200D02*
X340065000Y-101266200D01*
X340065000Y-115466200D02*
X354265000Y-115466200D01*
X340065000Y-101266200D02*
X340065000Y-115466200D01*
%TO.C,SW68*%
X205270780Y-145534880D02*
X212370780Y-133237320D01*
X212370780Y-133237320D02*
X200073220Y-126137320D01*
X192973220Y-138434880D02*
X205270780Y-145534880D01*
X200073220Y-126137320D02*
X192973220Y-138434880D01*
%TO.C,SW70*%
X253706780Y-154932680D02*
X246606780Y-142635120D01*
X246606780Y-142635120D02*
X234309220Y-149735120D01*
X241409220Y-162032680D02*
X253706780Y-154932680D01*
X234309220Y-149735120D02*
X241409220Y-162032680D01*
%TO.C,SW27*%
X373315000Y-82128700D02*
X373315000Y-67928700D01*
X373315000Y-67928700D02*
X359115000Y-67928700D01*
X359115000Y-82128700D02*
X373315000Y-82128700D01*
X359115000Y-67928700D02*
X359115000Y-82128700D01*
%TO.C,SW19*%
X135190000Y-77366200D02*
X135190000Y-63166200D01*
X135190000Y-63166200D02*
X120990000Y-63166200D01*
X120990000Y-77366200D02*
X135190000Y-77366200D01*
X120990000Y-63166200D02*
X120990000Y-77366200D01*
%TO.C,SW37*%
X284364880Y-131834020D02*
X272067320Y-138934020D01*
X272067320Y-138934020D02*
X279167320Y-151231580D01*
X291464880Y-144131580D02*
X284364880Y-131834020D01*
X279167320Y-151231580D02*
X291464880Y-144131580D01*
%TO.C,SW49*%
X135190000Y-115466200D02*
X135190000Y-101266200D01*
X135190000Y-101266200D02*
X120990000Y-101266200D01*
X120990000Y-115466200D02*
X135190000Y-115466200D01*
X120990000Y-101266200D02*
X120990000Y-115466200D01*
%TO.C,SW51*%
X162187920Y-153656580D02*
X174485480Y-160756580D01*
X174485480Y-160756580D02*
X181585480Y-148459020D01*
X169287920Y-141359020D02*
X162187920Y-153656580D01*
X181585480Y-148459020D02*
X169287920Y-141359020D01*
%TO.C,SW32*%
X116140000Y-94035000D02*
X116140000Y-79835000D01*
X116140000Y-79835000D02*
X101940000Y-79835000D01*
X101940000Y-94035000D02*
X116140000Y-94035000D01*
X101940000Y-79835000D02*
X101940000Y-94035000D01*
%TO.C,SW33*%
X135190000Y-96416200D02*
X135190000Y-82216200D01*
X135190000Y-82216200D02*
X120990000Y-82216200D01*
X120990000Y-96416200D02*
X135190000Y-96416200D01*
X120990000Y-82216200D02*
X120990000Y-96416200D01*
%TO.C,SW2*%
X78040000Y-63078700D02*
X78040000Y-48878700D01*
X78040000Y-48878700D02*
X63840000Y-48878700D01*
X63840000Y-63078700D02*
X78040000Y-63078700D01*
X63840000Y-48878700D02*
X63840000Y-63078700D01*
%TO.C,SW45*%
X54227500Y-120228700D02*
X54227500Y-106028700D01*
X54227500Y-106028700D02*
X40027500Y-106028700D01*
X40027500Y-120228700D02*
X54227500Y-120228700D01*
X40027500Y-106028700D02*
X40027500Y-120228700D01*
%TO.C,SW21*%
X173290000Y-79747500D02*
X173290000Y-65547500D01*
X173290000Y-65547500D02*
X159090000Y-65547500D01*
X159090000Y-79747500D02*
X173290000Y-79747500D01*
X159090000Y-65547500D02*
X159090000Y-79747500D01*
%TO.C,SW26*%
X354265000Y-77366200D02*
X354265000Y-63166200D01*
X354265000Y-63166200D02*
X340065000Y-63166200D01*
X340065000Y-77366200D02*
X354265000Y-77366200D01*
X340065000Y-63166200D02*
X340065000Y-77366200D01*
%TO.C,SW40*%
X316165000Y-96416200D02*
X316165000Y-82216200D01*
X316165000Y-82216200D02*
X301965000Y-82216200D01*
X301965000Y-96416200D02*
X316165000Y-96416200D01*
X301965000Y-82216200D02*
X301965000Y-96416200D01*
%TO.C,SW14*%
X397127500Y-63078700D02*
X397127500Y-48878700D01*
X397127500Y-48878700D02*
X382927500Y-48878700D01*
X382927500Y-63078700D02*
X397127500Y-63078700D01*
X382927500Y-48878700D02*
X382927500Y-63078700D01*
%TO.C,SW20*%
X154240000Y-79747500D02*
X154240000Y-65547500D01*
X154240000Y-65547500D02*
X140040000Y-65547500D01*
X140040000Y-79747500D02*
X154240000Y-79747500D01*
X140040000Y-65547500D02*
X140040000Y-79747500D01*
%TO.C,SW75*%
X373315000Y-139278700D02*
X373315000Y-125078700D01*
X373315000Y-125078700D02*
X359115000Y-125078700D01*
X359115000Y-139278700D02*
X373315000Y-139278700D01*
X359115000Y-125078700D02*
X359115000Y-139278700D01*
%TO.C,SW13*%
X373315000Y-63078700D02*
X373315000Y-48878700D01*
X373315000Y-48878700D02*
X359115000Y-48878700D01*
X359115000Y-63078700D02*
X373315000Y-63078700D01*
X359115000Y-48878700D02*
X359115000Y-63078700D01*
%TO.C,SW60*%
X397127500Y-120228700D02*
X397127500Y-106028700D01*
X397127500Y-106028700D02*
X382927500Y-106028700D01*
X382927500Y-120228700D02*
X397127500Y-120228700D01*
X382927500Y-106028700D02*
X382927500Y-120228700D01*
%TO.C,SW43*%
X373315000Y-101178700D02*
X373315000Y-86978700D01*
X373315000Y-86978700D02*
X359115000Y-86978700D01*
X359115000Y-101178700D02*
X373315000Y-101178700D01*
X359115000Y-86978700D02*
X359115000Y-101178700D01*
%TO.C,SW6*%
X154240000Y-60697500D02*
X154240000Y-46497500D01*
X154240000Y-46497500D02*
X140040000Y-46497500D01*
X140040000Y-60697500D02*
X154240000Y-60697500D01*
X140040000Y-46497500D02*
X140040000Y-60697500D01*
%TO.C,SW53*%
X260679580Y-128909880D02*
X253579580Y-116612320D01*
X253579580Y-116612320D02*
X241282020Y-123712320D01*
X248382020Y-136009880D02*
X260679580Y-128909880D01*
X241282020Y-123712320D02*
X248382020Y-136009880D01*
%TO.C,SW42*%
X354265000Y-96416200D02*
X354265000Y-82216200D01*
X354265000Y-82216200D02*
X340065000Y-82216200D01*
X340065000Y-96416200D02*
X354265000Y-96416200D01*
X340065000Y-82216200D02*
X340065000Y-96416200D01*
%TO.C,SW4*%
X116140000Y-55935000D02*
X116140000Y-41735000D01*
X116140000Y-41735000D02*
X101940000Y-41735000D01*
X101940000Y-55935000D02*
X116140000Y-55935000D01*
X101940000Y-41735000D02*
X101940000Y-55935000D01*
%TO.C,SW41*%
X335215000Y-94035000D02*
X335215000Y-79835000D01*
X335215000Y-79835000D02*
X321015000Y-79835000D01*
X321015000Y-94035000D02*
X335215000Y-94035000D01*
X321015000Y-79835000D02*
X321015000Y-94035000D01*
%TO.C,SW39*%
X297115000Y-98797500D02*
X297115000Y-84597500D01*
X297115000Y-84597500D02*
X282915000Y-84597500D01*
X282915000Y-98797500D02*
X297115000Y-98797500D01*
X282915000Y-84597500D02*
X282915000Y-98797500D01*
%TO.C,SW10*%
X316165000Y-58316200D02*
X316165000Y-44116200D01*
X316165000Y-44116200D02*
X301965000Y-44116200D01*
X301965000Y-58316200D02*
X316165000Y-58316200D01*
X301965000Y-44116200D02*
X301965000Y-58316200D01*
%TO.C,SW61*%
X58990000Y-139278700D02*
X58990000Y-125078700D01*
X58990000Y-125078700D02*
X44790000Y-125078700D01*
X44790000Y-139278700D02*
X58990000Y-139278700D01*
X44790000Y-125078700D02*
X44790000Y-139278700D01*
%TO.C,SW74*%
X354265000Y-134516200D02*
X354265000Y-120316200D01*
X354265000Y-120316200D02*
X340065000Y-120316200D01*
X340065000Y-134516200D02*
X354265000Y-134516200D01*
X340065000Y-120316200D02*
X340065000Y-134516200D01*
%TO.C,SW64*%
X116140000Y-132135000D02*
X116140000Y-117935000D01*
X116140000Y-117935000D02*
X101940000Y-117935000D01*
X101940000Y-132135000D02*
X116140000Y-132135000D01*
X101940000Y-117935000D02*
X101940000Y-132135000D01*
%TO.C,SW28*%
X397127500Y-82128700D02*
X397127500Y-67928700D01*
X397127500Y-67928700D02*
X382927500Y-67928700D01*
X382927500Y-82128700D02*
X397127500Y-82128700D01*
X382927500Y-67928700D02*
X382927500Y-82128700D01*
%TO.C,SW31*%
X97090000Y-96416200D02*
X97090000Y-82216200D01*
X97090000Y-82216200D02*
X82890000Y-82216200D01*
X82890000Y-96416200D02*
X97090000Y-96416200D01*
X82890000Y-82216200D02*
X82890000Y-96416200D01*
%TO.C,SW36*%
X145690120Y-144131580D02*
X157987680Y-151231580D01*
X157987680Y-151231580D02*
X165087680Y-138934020D01*
X152790120Y-131834020D02*
X145690120Y-144131580D01*
X165087680Y-138934020D02*
X152790120Y-131834020D01*
%TO.C,SW23*%
X297115000Y-79747500D02*
X297115000Y-65547500D01*
X297115000Y-65547500D02*
X282915000Y-65547500D01*
X282915000Y-79747500D02*
X297115000Y-79747500D01*
X282915000Y-65547500D02*
X282915000Y-79747500D01*
%TO.C,SW12*%
X354265000Y-58316200D02*
X354265000Y-44116200D01*
X354265000Y-44116200D02*
X340065000Y-44116200D01*
X340065000Y-58316200D02*
X354265000Y-58316200D01*
X340065000Y-44116200D02*
X340065000Y-58316200D01*
%TO.C,SW9*%
X297115000Y-60697500D02*
X297115000Y-46497500D01*
X297115000Y-46497500D02*
X282915000Y-46497500D01*
X282915000Y-60697500D02*
X297115000Y-60697500D01*
X282915000Y-46497500D02*
X282915000Y-60697500D01*
%TO.C,SW30*%
X78040000Y-101178700D02*
X78040000Y-86978700D01*
X78040000Y-86978700D02*
X63840000Y-86978700D01*
X63840000Y-101178700D02*
X78040000Y-101178700D01*
X63840000Y-86978700D02*
X63840000Y-101178700D01*
%TO.C,SW52*%
X188772980Y-136009880D02*
X195872980Y-123712320D01*
X195872980Y-123712320D02*
X183575420Y-116612320D01*
X176475420Y-128909880D02*
X188772980Y-136009880D01*
X183575420Y-116612320D02*
X176475420Y-128909880D01*
%TO.C,SW8*%
X278065000Y-60697500D02*
X278065000Y-46497500D01*
X278065000Y-46497500D02*
X263865000Y-46497500D01*
X263865000Y-60697500D02*
X278065000Y-60697500D01*
X263865000Y-46497500D02*
X263865000Y-60697500D01*
%TO.C,SW16*%
X78040000Y-82128700D02*
X78040000Y-67928700D01*
X78040000Y-67928700D02*
X63840000Y-67928700D01*
X63840000Y-82128700D02*
X78040000Y-82128700D01*
X63840000Y-67928700D02*
X63840000Y-82128700D01*
%TO.C,SW44*%
X397127500Y-101178700D02*
X397127500Y-86978700D01*
X397127500Y-86978700D02*
X382927500Y-86978700D01*
X382927500Y-101178700D02*
X397127500Y-101178700D01*
X382927500Y-86978700D02*
X382927500Y-101178700D01*
%TO.C,SW1*%
X54227500Y-63078700D02*
X54227500Y-48878700D01*
X54227500Y-48878700D02*
X40027500Y-48878700D01*
X40027500Y-63078700D02*
X54227500Y-63078700D01*
X40027500Y-48878700D02*
X40027500Y-63078700D01*
%TO.C,SW47*%
X97090000Y-115466200D02*
X97090000Y-101266200D01*
X97090000Y-101266200D02*
X82890000Y-101266200D01*
X82890000Y-115466200D02*
X97090000Y-115466200D01*
X82890000Y-101266200D02*
X82890000Y-115466200D01*
%TO.C,SW22*%
X278065000Y-79747500D02*
X278065000Y-65547500D01*
X278065000Y-65547500D02*
X263865000Y-65547500D01*
X263865000Y-79747500D02*
X278065000Y-79747500D01*
X263865000Y-65547500D02*
X263865000Y-79747500D01*
%TO.C,SW59*%
X373315000Y-120228700D02*
X373315000Y-106028700D01*
X373315000Y-106028700D02*
X359115000Y-106028700D01*
X359115000Y-120228700D02*
X373315000Y-120228700D01*
X359115000Y-106028700D02*
X359115000Y-120228700D01*
%TO.C,SW5*%
X135190000Y-58316200D02*
X135190000Y-44116200D01*
X135190000Y-44116200D02*
X120990000Y-44116200D01*
X120990000Y-58316200D02*
X135190000Y-58316200D01*
X120990000Y-44116200D02*
X120990000Y-58316200D01*
%TO.C,SW69*%
X244181780Y-138434880D02*
X237081780Y-126137320D01*
X237081780Y-126137320D02*
X224784220Y-133237320D01*
X231884220Y-145534880D02*
X244181780Y-138434880D01*
X224784220Y-133237320D02*
X231884220Y-145534880D01*
%TO.C,SW3*%
X97090000Y-58316200D02*
X97090000Y-44116200D01*
X97090000Y-44116200D02*
X82890000Y-44116200D01*
X82890000Y-58316200D02*
X97090000Y-58316200D01*
X82890000Y-44116200D02*
X82890000Y-58316200D01*
%TO.C,SW17*%
X97090000Y-77366200D02*
X97090000Y-63166200D01*
X97090000Y-63166200D02*
X82890000Y-63166200D01*
X82890000Y-77366200D02*
X97090000Y-77366200D01*
X82890000Y-63166200D02*
X82890000Y-77366200D01*
%TO.C,SW71*%
X263231780Y-171430480D02*
X256131780Y-159132920D01*
X256131780Y-159132920D02*
X243834220Y-166232920D01*
X250934220Y-178530480D02*
X263231780Y-171430480D01*
X243834220Y-166232920D02*
X250934220Y-178530480D01*
%TO.C,SW24*%
X316165000Y-77366200D02*
X316165000Y-63166200D01*
X316165000Y-63166200D02*
X301965000Y-63166200D01*
X301965000Y-77366200D02*
X316165000Y-77366200D01*
X301965000Y-63166200D02*
X301965000Y-77366200D01*
%TO.C,SW63*%
X97090000Y-134516200D02*
X97090000Y-120316200D01*
X97090000Y-120316200D02*
X82890000Y-120316200D01*
X82890000Y-134516200D02*
X97090000Y-134516200D01*
X82890000Y-120316200D02*
X82890000Y-134516200D01*
%TO.C,SW67*%
X195745780Y-162032680D02*
X202845780Y-149735120D01*
X202845780Y-149735120D02*
X190548220Y-142635120D01*
X183448220Y-154932680D02*
X195745780Y-162032680D01*
X190548220Y-142635120D02*
X183448220Y-154932680D01*
%TO.C,SW65*%
X135190000Y-134516200D02*
X135190000Y-120316200D01*
X135190000Y-120316200D02*
X120990000Y-120316200D01*
X120990000Y-134516200D02*
X135190000Y-134516200D01*
X120990000Y-120316200D02*
X120990000Y-134516200D01*
%TO.C,SW72*%
X316165000Y-134516200D02*
X316165000Y-120316200D01*
X316165000Y-120316200D02*
X301965000Y-120316200D01*
X301965000Y-134516200D02*
X316165000Y-134516200D01*
X301965000Y-120316200D02*
X301965000Y-134516200D01*
%TO.C,SW62*%
X78040000Y-139278700D02*
X78040000Y-125078700D01*
X78040000Y-125078700D02*
X63840000Y-125078700D01*
X63840000Y-139278700D02*
X78040000Y-139278700D01*
X63840000Y-125078700D02*
X63840000Y-139278700D01*
%TO.C,SW73*%
X335215000Y-132135000D02*
X335215000Y-117935000D01*
X335215000Y-117935000D02*
X321015000Y-117935000D01*
X321015000Y-132135000D02*
X335215000Y-132135000D01*
X321015000Y-117935000D02*
X321015000Y-132135000D01*
%TO.C,SW15*%
X54227500Y-82128700D02*
X54227500Y-67928700D01*
X54227500Y-67928700D02*
X40027500Y-67928700D01*
X40027500Y-82128700D02*
X54227500Y-82128700D01*
X40027500Y-67928700D02*
X40027500Y-82128700D01*
%TO.C,SW7*%
X173290000Y-60697500D02*
X173290000Y-46497500D01*
X173290000Y-46497500D02*
X159090000Y-46497500D01*
X159090000Y-60697500D02*
X173290000Y-60697500D01*
X159090000Y-46497500D02*
X159090000Y-60697500D01*
%TO.C,SW34*%
X154240000Y-98797500D02*
X154240000Y-84597500D01*
X154240000Y-84597500D02*
X140040000Y-84597500D01*
X140040000Y-98797500D02*
X154240000Y-98797500D01*
X140040000Y-84597500D02*
X140040000Y-98797500D01*
%TO.C,SW55*%
X297115000Y-117847500D02*
X297115000Y-103647500D01*
X297115000Y-103647500D02*
X282915000Y-103647500D01*
X282915000Y-117847500D02*
X297115000Y-117847500D01*
X282915000Y-103647500D02*
X282915000Y-117847500D01*
%TO.C,SW50*%
X154240000Y-117847500D02*
X154240000Y-103647500D01*
X154240000Y-103647500D02*
X140040000Y-103647500D01*
X140040000Y-117847500D02*
X154240000Y-117847500D01*
X140040000Y-103647500D02*
X140040000Y-117847500D01*
%TO.C,SW38*%
X278065000Y-98797500D02*
X278065000Y-84597500D01*
X278065000Y-84597500D02*
X263865000Y-84597500D01*
X263865000Y-98797500D02*
X278065000Y-98797500D01*
X263865000Y-84597500D02*
X263865000Y-98797500D01*
%TO.C,SW56*%
X316165000Y-115466200D02*
X316165000Y-101266200D01*
X316165000Y-101266200D02*
X301965000Y-101266200D01*
X301965000Y-115466200D02*
X316165000Y-115466200D01*
X301965000Y-101266200D02*
X301965000Y-115466200D01*
%TD*%
D13*
%TO.C,P1*%
X196945000Y-79760000D03*
D14*
X199485000Y-79760000D03*
D13*
X202025000Y-79760000D03*
X196945000Y-74045000D03*
X202025000Y-74045000D03*
D14*
X198469000Y-72140000D03*
X200501000Y-72140000D03*
%TD*%
%LPC*%
D15*
%TO.C,REF\u002A\u002A*%
X265348487Y-137226689D03*
D16*
X252176241Y-144831689D03*
D15*
X277286487Y-157903911D03*
D16*
X264114241Y-165508911D03*
%TD*%
D15*
%TO.C,REF\u002A\u002A*%
X167407087Y-134686689D03*
D16*
X154234841Y-127081689D03*
D15*
X155469087Y-155363911D03*
D16*
X142296841Y-147758911D03*
%TD*%
D17*
%TO.C,RST1*%
X186400000Y-85560000D03*
X186400000Y-79060000D03*
X190900000Y-85560000D03*
X190900000Y-79060000D03*
%TD*%
D18*
%TO.C,H7*%
X230400000Y-37000000D03*
%TD*%
D17*
%TO.C,BOOT1*%
X250800000Y-78710000D03*
X250800000Y-85210000D03*
X246300000Y-78710000D03*
X246300000Y-85210000D03*
%TD*%
D18*
%TO.C,H1*%
X206400000Y-36900000D03*
%TD*%
%TO.C,H3*%
X401950000Y-142940000D03*
%TD*%
%TO.C,H5*%
X402850000Y-36940000D03*
%TD*%
D19*
%TO.C,P1*%
X196945000Y-79760000D03*
D20*
X199485000Y-79760000D03*
D19*
X202025000Y-79760000D03*
X196945000Y-74045000D03*
X202025000Y-74045000D03*
D20*
X198469000Y-72140000D03*
X200501000Y-72140000D03*
D21*
X200120000Y-78490000D03*
X200120000Y-77220000D03*
X200120000Y-75950000D03*
X200120000Y-74680000D03*
X200120000Y-73410000D03*
X198850000Y-73410000D03*
X198850000Y-74680000D03*
X198850000Y-75950000D03*
X198850000Y-77220000D03*
X198850000Y-78490000D03*
%TD*%
D18*
%TO.C,H6*%
X35100000Y-36600000D03*
%TD*%
D15*
%TO.C,REF\u002A\u002A*%
X280914027Y-155673911D03*
D16*
X294086273Y-148068911D03*
D15*
X268976027Y-134996689D03*
D16*
X282148273Y-127391689D03*
%TD*%
D18*
%TO.C,H2*%
X218500000Y-186000000D03*
%TD*%
D15*
%TO.C,REF\u002A\u002A*%
X159558513Y-157132025D03*
D16*
X172730759Y-164737025D03*
D15*
X171496513Y-136454803D03*
D16*
X184668759Y-144059803D03*
%TD*%
D18*
%TO.C,H4*%
X35100000Y-142900000D03*
%TD*%
D22*
%TO.C,SW18*%
X114120000Y-67885000D03*
D23*
X111580000Y-62805000D03*
D24*
X109040000Y-67885000D03*
D23*
X105230000Y-65345000D03*
D22*
X103960000Y-67885000D03*
%TD*%
%TO.C,SW35*%
X171270000Y-91697500D03*
D23*
X168730000Y-86617500D03*
D24*
X166190000Y-91697500D03*
D23*
X162380000Y-89157500D03*
D22*
X161110000Y-91697500D03*
%TD*%
%TO.C,SW54*%
X262728300Y-146658391D03*
D23*
X259598891Y-151398095D03*
D24*
X265268300Y-151057800D03*
D23*
X264973595Y-155627357D03*
D22*
X267808300Y-155457209D03*
%TD*%
%TO.C,SW29*%
X52207500Y-94078700D03*
D23*
X49667500Y-88998700D03*
D24*
X47127500Y-94078700D03*
D23*
X43317500Y-91538700D03*
D22*
X42047500Y-94078700D03*
%TD*%
%TO.C,SW11*%
X333195000Y-48835000D03*
D23*
X330655000Y-43755000D03*
D24*
X328115000Y-48835000D03*
D23*
X324305000Y-46295000D03*
D22*
X323035000Y-48835000D03*
%TD*%
%TO.C,SW76*%
X390345000Y-132178700D03*
D23*
X387805000Y-127098700D03*
D24*
X385265000Y-132178700D03*
D23*
X381455000Y-129638700D03*
D22*
X380185000Y-132178700D03*
%TD*%
%TO.C,SW57*%
X333195000Y-105985000D03*
D23*
X330655000Y-100905000D03*
D24*
X328115000Y-105985000D03*
D23*
X324305000Y-103445000D03*
D22*
X323035000Y-105985000D03*
%TD*%
%TO.C,SW48*%
X114120000Y-105985000D03*
D23*
X111580000Y-100905000D03*
D24*
X109040000Y-105985000D03*
D23*
X105230000Y-103445000D03*
D22*
X103960000Y-105985000D03*
%TD*%
%TO.C,SW46*%
X76020000Y-113128700D03*
D23*
X73480000Y-108048700D03*
D24*
X70940000Y-113128700D03*
D23*
X67130000Y-110588700D03*
D22*
X65860000Y-113128700D03*
%TD*%
%TO.C,SW66*%
X188021409Y-171371700D03*
D23*
X188361705Y-165702291D03*
D24*
X183622000Y-168831700D03*
D23*
X181592443Y-164726995D03*
D22*
X179222591Y-166291700D03*
%TD*%
%TO.C,SW25*%
X333195000Y-67885000D03*
D23*
X330655000Y-62805000D03*
D24*
X328115000Y-67885000D03*
D23*
X324305000Y-65345000D03*
D22*
X323035000Y-67885000D03*
%TD*%
%TO.C,SW58*%
X352245000Y-108366200D03*
D23*
X349705000Y-103286200D03*
D24*
X347165000Y-108366200D03*
D23*
X343355000Y-105826200D03*
D22*
X342085000Y-108366200D03*
%TD*%
%TO.C,SW68*%
X207071409Y-138376100D03*
D23*
X207411705Y-132706691D03*
D24*
X202672000Y-135836100D03*
D23*
X200642443Y-131731395D03*
D22*
X198272591Y-133296100D03*
%TD*%
%TO.C,SW70*%
X248407409Y-149793900D03*
D23*
X243667705Y-146664491D03*
D24*
X244008000Y-152333900D03*
D23*
X239438443Y-152039195D03*
D22*
X239608591Y-154873900D03*
%TD*%
%TO.C,SW27*%
X371295000Y-75028700D03*
D23*
X368755000Y-69948700D03*
D24*
X366215000Y-75028700D03*
D23*
X362405000Y-72488700D03*
D22*
X361135000Y-75028700D03*
%TD*%
%TO.C,SW19*%
X133170000Y-70266200D03*
D23*
X130630000Y-65186200D03*
D24*
X128090000Y-70266200D03*
D23*
X124280000Y-67726200D03*
D22*
X123010000Y-70266200D03*
%TD*%
%TO.C,SW37*%
X279226100Y-137133391D03*
D23*
X276096691Y-141873095D03*
D24*
X281766100Y-141532800D03*
D23*
X281471395Y-146102357D03*
D22*
X284306100Y-145932209D03*
%TD*%
%TO.C,SW49*%
X133170000Y-108366200D03*
D23*
X130630000Y-103286200D03*
D24*
X128090000Y-108366200D03*
D23*
X124280000Y-105826200D03*
D22*
X123010000Y-108366200D03*
%TD*%
%TO.C,SW51*%
X169346700Y-155457209D03*
D23*
X175016109Y-155797505D03*
D24*
X171886700Y-151057800D03*
D23*
X175991405Y-149028243D03*
D22*
X174426700Y-146658391D03*
%TD*%
%TO.C,SW32*%
X114120000Y-86935000D03*
D23*
X111580000Y-81855000D03*
D24*
X109040000Y-86935000D03*
D23*
X105230000Y-84395000D03*
D22*
X103960000Y-86935000D03*
%TD*%
%TO.C,SW33*%
X133170000Y-89316200D03*
D23*
X130630000Y-84236200D03*
D24*
X128090000Y-89316200D03*
D23*
X124280000Y-86776200D03*
D22*
X123010000Y-89316200D03*
%TD*%
%TO.C,SW2*%
X76020000Y-55978700D03*
D23*
X73480000Y-50898700D03*
D24*
X70940000Y-55978700D03*
D23*
X67130000Y-53438700D03*
D22*
X65860000Y-55978700D03*
%TD*%
%TO.C,SW45*%
X52207500Y-113128700D03*
D23*
X49667500Y-108048700D03*
D24*
X47127500Y-113128700D03*
D23*
X43317500Y-110588700D03*
D22*
X42047500Y-113128700D03*
%TD*%
%TO.C,SW21*%
X171270000Y-72647500D03*
D23*
X168730000Y-67567500D03*
D24*
X166190000Y-72647500D03*
D23*
X162380000Y-70107500D03*
D22*
X161110000Y-72647500D03*
%TD*%
%TO.C,SW26*%
X352245000Y-70266200D03*
D23*
X349705000Y-65186200D03*
D24*
X347165000Y-70266200D03*
D23*
X343355000Y-67726200D03*
D22*
X342085000Y-70266200D03*
%TD*%
%TO.C,SW40*%
X314145000Y-89316200D03*
D23*
X311605000Y-84236200D03*
D24*
X309065000Y-89316200D03*
D23*
X305255000Y-86776200D03*
D22*
X303985000Y-89316200D03*
%TD*%
%TO.C,SW14*%
X395107500Y-55978700D03*
D23*
X392567500Y-50898700D03*
D24*
X390027500Y-55978700D03*
D23*
X386217500Y-53438700D03*
D22*
X384947500Y-55978700D03*
%TD*%
%TO.C,SW20*%
X152220000Y-72647500D03*
D23*
X149680000Y-67567500D03*
D24*
X147140000Y-72647500D03*
D23*
X143330000Y-70107500D03*
D22*
X142060000Y-72647500D03*
%TD*%
%TO.C,SW75*%
X371295000Y-132178700D03*
D23*
X368755000Y-127098700D03*
D24*
X366215000Y-132178700D03*
D23*
X362405000Y-129638700D03*
D22*
X361135000Y-132178700D03*
%TD*%
%TO.C,SW13*%
X371295000Y-55978700D03*
D23*
X368755000Y-50898700D03*
D24*
X366215000Y-55978700D03*
D23*
X362405000Y-53438700D03*
D22*
X361135000Y-55978700D03*
%TD*%
%TO.C,SW60*%
X395107500Y-113128700D03*
D23*
X392567500Y-108048700D03*
D24*
X390027500Y-113128700D03*
D23*
X386217500Y-110588700D03*
D22*
X384947500Y-113128700D03*
%TD*%
%TO.C,SW43*%
X371295000Y-94078700D03*
D23*
X368755000Y-88998700D03*
D24*
X366215000Y-94078700D03*
D23*
X362405000Y-91538700D03*
D22*
X361135000Y-94078700D03*
%TD*%
%TO.C,SW6*%
X152220000Y-53597500D03*
D23*
X149680000Y-48517500D03*
D24*
X147140000Y-53597500D03*
D23*
X143330000Y-51057500D03*
D22*
X142060000Y-53597500D03*
%TD*%
%TO.C,SW53*%
X255380209Y-123771100D03*
D23*
X250640505Y-120641691D03*
D24*
X250980800Y-126311100D03*
D23*
X246411243Y-126016395D03*
D22*
X246581391Y-128851100D03*
%TD*%
%TO.C,SW42*%
X352245000Y-89316200D03*
D23*
X349705000Y-84236200D03*
D24*
X347165000Y-89316200D03*
D23*
X343355000Y-86776200D03*
D22*
X342085000Y-89316200D03*
%TD*%
%TO.C,SW4*%
X114120000Y-48835000D03*
D23*
X111580000Y-43755000D03*
D24*
X109040000Y-48835000D03*
D23*
X105230000Y-46295000D03*
D22*
X103960000Y-48835000D03*
%TD*%
%TO.C,SW41*%
X333195000Y-86935000D03*
D23*
X330655000Y-81855000D03*
D24*
X328115000Y-86935000D03*
D23*
X324305000Y-84395000D03*
D22*
X323035000Y-86935000D03*
%TD*%
%TO.C,SW39*%
X295095000Y-91697500D03*
D23*
X292555000Y-86617500D03*
D24*
X290015000Y-91697500D03*
D23*
X286205000Y-89157500D03*
D22*
X284935000Y-91697500D03*
%TD*%
%TO.C,SW10*%
X314145000Y-51216200D03*
D23*
X311605000Y-46136200D03*
D24*
X309065000Y-51216200D03*
D23*
X305255000Y-48676200D03*
D22*
X303985000Y-51216200D03*
%TD*%
%TO.C,SW61*%
X56970000Y-132178700D03*
D23*
X54430000Y-127098700D03*
D24*
X51890000Y-132178700D03*
D23*
X48080000Y-129638700D03*
D22*
X46810000Y-132178700D03*
%TD*%
%TO.C,SW74*%
X352245000Y-127416200D03*
D23*
X349705000Y-122336200D03*
D24*
X347165000Y-127416200D03*
D23*
X343355000Y-124876200D03*
D22*
X342085000Y-127416200D03*
%TD*%
%TO.C,SW64*%
X114120000Y-125035000D03*
D23*
X111580000Y-119955000D03*
D24*
X109040000Y-125035000D03*
D23*
X105230000Y-122495000D03*
D22*
X103960000Y-125035000D03*
%TD*%
%TO.C,SW28*%
X395107500Y-75028700D03*
D23*
X392567500Y-69948700D03*
D24*
X390027500Y-75028700D03*
D23*
X386217500Y-72488700D03*
D22*
X384947500Y-75028700D03*
%TD*%
%TO.C,SW31*%
X95070000Y-89316200D03*
D23*
X92530000Y-84236200D03*
D24*
X89990000Y-89316200D03*
D23*
X86180000Y-86776200D03*
D22*
X84910000Y-89316200D03*
%TD*%
%TO.C,SW36*%
X152848900Y-145932209D03*
D23*
X158518309Y-146272505D03*
D24*
X155388900Y-141532800D03*
D23*
X159493605Y-139503243D03*
D22*
X157928900Y-137133391D03*
%TD*%
%TO.C,SW23*%
X295095000Y-72647500D03*
D23*
X292555000Y-67567500D03*
D24*
X290015000Y-72647500D03*
D23*
X286205000Y-70107500D03*
D22*
X284935000Y-72647500D03*
%TD*%
%TO.C,SW12*%
X352245000Y-51216200D03*
D23*
X349705000Y-46136200D03*
D24*
X347165000Y-51216200D03*
D23*
X343355000Y-48676200D03*
D22*
X342085000Y-51216200D03*
%TD*%
%TO.C,SW9*%
X295095000Y-53597500D03*
D23*
X292555000Y-48517500D03*
D24*
X290015000Y-53597500D03*
D23*
X286205000Y-51057500D03*
D22*
X284935000Y-53597500D03*
%TD*%
%TO.C,SW30*%
X76020000Y-94078700D03*
D23*
X73480000Y-88998700D03*
D24*
X70940000Y-94078700D03*
D23*
X67130000Y-91538700D03*
D22*
X65860000Y-94078700D03*
%TD*%
%TO.C,SW52*%
X190573609Y-128851100D03*
D23*
X190913905Y-123181691D03*
D24*
X186174200Y-126311100D03*
D23*
X184144643Y-122206395D03*
D22*
X181774791Y-123771100D03*
%TD*%
%TO.C,SW8*%
X276045000Y-53597500D03*
D23*
X273505000Y-48517500D03*
D24*
X270965000Y-53597500D03*
D23*
X267155000Y-51057500D03*
D22*
X265885000Y-53597500D03*
%TD*%
%TO.C,SW16*%
X76020000Y-75028700D03*
D23*
X73480000Y-69948700D03*
D24*
X70940000Y-75028700D03*
D23*
X67130000Y-72488700D03*
D22*
X65860000Y-75028700D03*
%TD*%
%TO.C,SW44*%
X395107500Y-94078700D03*
D23*
X392567500Y-88998700D03*
D24*
X390027500Y-94078700D03*
D23*
X386217500Y-91538700D03*
D22*
X384947500Y-94078700D03*
%TD*%
%TO.C,SW1*%
X52207500Y-55978700D03*
D23*
X49667500Y-50898700D03*
D24*
X47127500Y-55978700D03*
D23*
X43317500Y-53438700D03*
D22*
X42047500Y-55978700D03*
%TD*%
%TO.C,SW47*%
X95070000Y-108366200D03*
D23*
X92530000Y-103286200D03*
D24*
X89990000Y-108366200D03*
D23*
X86180000Y-105826200D03*
D22*
X84910000Y-108366200D03*
%TD*%
%TO.C,SW22*%
X276045000Y-72647500D03*
D23*
X273505000Y-67567500D03*
D24*
X270965000Y-72647500D03*
D23*
X267155000Y-70107500D03*
D22*
X265885000Y-72647500D03*
%TD*%
%TO.C,SW59*%
X371295000Y-113128700D03*
D23*
X368755000Y-108048700D03*
D24*
X366215000Y-113128700D03*
D23*
X362405000Y-110588700D03*
D22*
X361135000Y-113128700D03*
%TD*%
%TO.C,SW5*%
X133170000Y-51216200D03*
D23*
X130630000Y-46136200D03*
D24*
X128090000Y-51216200D03*
D23*
X124280000Y-48676200D03*
D22*
X123010000Y-51216200D03*
%TD*%
%TO.C,SW69*%
X238882409Y-133296100D03*
D23*
X234142705Y-130166691D03*
D24*
X234483000Y-135836100D03*
D23*
X229913443Y-135541395D03*
D22*
X230083591Y-138376100D03*
%TD*%
%TO.C,SW3*%
X95070000Y-51216200D03*
D23*
X92530000Y-46136200D03*
D24*
X89990000Y-51216200D03*
D23*
X86180000Y-48676200D03*
D22*
X84910000Y-51216200D03*
%TD*%
%TO.C,SW17*%
X95070000Y-70266200D03*
D23*
X92530000Y-65186200D03*
D24*
X89990000Y-70266200D03*
D23*
X86180000Y-67726200D03*
D22*
X84910000Y-70266200D03*
%TD*%
%TO.C,SW71*%
X257932409Y-166291700D03*
D23*
X253192705Y-163162291D03*
D24*
X253533000Y-168831700D03*
D23*
X248963443Y-168536995D03*
D22*
X249133591Y-171371700D03*
%TD*%
%TO.C,SW24*%
X314145000Y-70266200D03*
D23*
X311605000Y-65186200D03*
D24*
X309065000Y-70266200D03*
D23*
X305255000Y-67726200D03*
D22*
X303985000Y-70266200D03*
%TD*%
%TO.C,SW63*%
X95070000Y-127416200D03*
D23*
X92530000Y-122336200D03*
D24*
X89990000Y-127416200D03*
D23*
X86180000Y-124876200D03*
D22*
X84910000Y-127416200D03*
%TD*%
D25*
%TO.C,J1*%
X215535000Y-39050000D03*
X221315000Y-39050000D03*
D26*
X214105000Y-35400000D03*
D27*
X214105000Y-39580000D03*
D26*
X222745000Y-35400000D03*
D27*
X222745000Y-39580000D03*
%TD*%
D22*
%TO.C,SW67*%
X197546409Y-154873900D03*
D23*
X197886705Y-149204491D03*
D24*
X193147000Y-152333900D03*
D23*
X191117443Y-148229195D03*
D22*
X188747591Y-149793900D03*
%TD*%
%TO.C,SW65*%
X133170000Y-127416200D03*
D23*
X130630000Y-122336200D03*
D24*
X128090000Y-127416200D03*
D23*
X124280000Y-124876200D03*
D22*
X123010000Y-127416200D03*
%TD*%
%TO.C,SW72*%
X314145000Y-127416200D03*
D23*
X311605000Y-122336200D03*
D24*
X309065000Y-127416200D03*
D23*
X305255000Y-124876200D03*
D22*
X303985000Y-127416200D03*
%TD*%
%TO.C,SW62*%
X76020000Y-132178700D03*
D23*
X73480000Y-127098700D03*
D24*
X70940000Y-132178700D03*
D23*
X67130000Y-129638700D03*
D22*
X65860000Y-132178700D03*
%TD*%
%TO.C,SW73*%
X333195000Y-125035000D03*
D23*
X330655000Y-119955000D03*
D24*
X328115000Y-125035000D03*
D23*
X324305000Y-122495000D03*
D22*
X323035000Y-125035000D03*
%TD*%
%TO.C,SW15*%
X52207500Y-75028700D03*
D23*
X49667500Y-69948700D03*
D24*
X47127500Y-75028700D03*
D23*
X43317500Y-72488700D03*
D22*
X42047500Y-75028700D03*
%TD*%
%TO.C,SW7*%
X171270000Y-53597500D03*
D23*
X168730000Y-48517500D03*
D24*
X166190000Y-53597500D03*
D23*
X162380000Y-51057500D03*
D22*
X161110000Y-53597500D03*
%TD*%
%TO.C,SW34*%
X152220000Y-91697500D03*
D23*
X149680000Y-86617500D03*
D24*
X147140000Y-91697500D03*
D23*
X143330000Y-89157500D03*
D22*
X142060000Y-91697500D03*
%TD*%
%TO.C,SW55*%
X295095000Y-110747500D03*
D23*
X292555000Y-105667500D03*
D24*
X290015000Y-110747500D03*
D23*
X286205000Y-108207500D03*
D22*
X284935000Y-110747500D03*
%TD*%
%TO.C,SW50*%
X152220000Y-110747500D03*
D23*
X149680000Y-105667500D03*
D24*
X147140000Y-110747500D03*
D23*
X143330000Y-108207500D03*
D22*
X142060000Y-110747500D03*
%TD*%
%TO.C,SW38*%
X276045000Y-91697500D03*
D23*
X273505000Y-86617500D03*
D24*
X270965000Y-91697500D03*
D23*
X267155000Y-89157500D03*
D22*
X265885000Y-91697500D03*
%TD*%
%TO.C,SW56*%
X314145000Y-108366200D03*
D23*
X311605000Y-103286200D03*
D24*
X309065000Y-108366200D03*
D23*
X305255000Y-105826200D03*
D22*
X303985000Y-108366200D03*
%TD*%
%LPD*%
M02*
