M48
; DRILL file {KiCad 7.0.2} date Thu Jun  1 14:22:50 2023
; FORMAT={-:-/ absolute / inch / decimal}
; #@! TF.CreationDate,2023-06-01T14:22:50-04:00
; #@! TF.GenerationSoftware,Kicad,Pcbnew,7.0.2
; #@! TF.FileFunction,Plated,1,2,PTH
FMAT,2
INCH
; #@! TA.AperFunction,Plated,PTH,ViaDrill
T1C0.0138
; #@! TA.AperFunction,Plated,PTH,ComponentDrill
T2C0.0138
; #@! TA.AperFunction,Plated,PTH,ComponentDrill
T3C0.0236
; #@! TA.AperFunction,Plated,PTH,ComponentDrill
T4C0.0433
; #@! TA.AperFunction,Plated,PTH,ComponentDrill
T5C0.0866
%
G90
G05
T1
X0.5Y-1.5313
X0.5Y-2.2813
X0.5Y-3.0313
X0.5Y-3.7813
X0.6875Y-4.5313
X0.8098Y-1.0337
X1.4375Y-1.5313
X1.4375Y-2.2813
X1.4375Y-3.0313
X1.4375Y-3.7813
X1.4687Y-4.5313
X2.2187Y-1.375
X2.2187Y-2.125
X2.2187Y-2.875
X2.2187Y-3.625
X2.2187Y-4.3437
X2.9687Y-1.25
X2.9687Y-2.0
X2.9687Y-2.75
X2.9687Y-3.5
X2.9687Y-4.25
X3.0906Y-5.002
X3.7187Y-1.3437
X3.7187Y-2.0937
X3.7187Y-2.8437
X3.7187Y-3.5937
X3.7187Y-4.3437
X4.4687Y-1.4375
X4.4687Y-2.1875
X4.4687Y-2.9375
X4.4687Y-3.6875
X4.9688Y-4.0025
X5.2187Y-1.4375
X5.2187Y-2.1875
X5.2187Y-2.9375
X5.7188Y-2.5025
X5.9409Y-1.7559
X5.9665Y-1.1476
X5.9688Y-3.3125
X6.0Y-5.8125
X6.3738Y-4.65
X6.5207Y-1.1112
X6.5604Y-4.8517
X6.6535Y-6.7212
X6.6979Y-3.1831
X6.8888Y-3.2197
X6.9388Y-3.2197
X7.0382Y-3.176
X7.1588Y-3.0722
X7.317Y-2.2953
X7.344Y-1.061
X7.3466Y-2.2953
X7.3761Y-2.2953
X7.4056Y-2.2953
X7.4331Y-2.6201
X7.4351Y-2.2953
X7.4512Y-2.8382
X7.4646Y-2.2953
X7.4941Y-2.2953
X7.5197Y-2.4409
X7.5591Y-2.1575
X7.6083Y-1.1673
X7.625Y-2.2195
X7.6405Y-1.0762
X7.6476Y-3.5465
X7.6744Y-1.1519
X7.7Y-2.2244
X7.713Y-2.6946
X7.7315Y-2.6496
X7.7424Y-2.6971
X7.7736Y-2.6988
X7.7815Y-1.0256
X7.7933Y-1.7148
X7.8024Y-2.7106
X7.823Y-2.5965
X7.8671Y-2.6457
X7.8671Y-2.6772
X7.8671Y-2.7067
X7.8671Y-2.7362
X7.937Y-2.2717
X7.9665Y-2.2717
X7.9882Y-2.4528
X7.9882Y-2.5094
X7.9882Y-2.5669
X7.9882Y-2.624
X7.996Y-2.2717
X7.9971Y-4.8374
X8.0256Y-2.2717
X8.0551Y-2.2717
X8.061Y-5.3248
X8.0846Y-2.2715
X8.1008Y-2.4528
X8.1008Y-2.5098
X8.1008Y-2.5669
X8.1008Y-2.624
X8.1141Y-2.2718
X8.2106Y-1.624
X8.2106Y-2.0295
X8.2343Y-1.1791
X8.3721Y-5.4869
X8.4547Y-2.2126
X8.466Y-6.7212
X8.502Y-2.0492
X8.5256Y-1.0984
X8.6467Y-4.4624
X8.6988Y-1.6673
X8.7Y-2.048
X8.7471Y-6.1364
X8.7539Y-2.2657
X9.0394Y-1.1161
X9.1575Y-4.525
X9.4461Y-2.9468
X9.4469Y-1.4488
X9.4469Y-2.1969
X9.5531Y-5.6752
X10.1961Y-1.4468
X10.1961Y-2.1968
X10.1961Y-2.9468
X10.1961Y-3.6968
X10.625Y-3.375
X10.8125Y-4.1875
X10.9461Y-1.353
X10.9461Y-2.103
X10.9461Y-2.853
X10.9461Y-3.603
X10.9461Y-4.353
X11.6961Y-1.2593
X11.6961Y-2.0093
X11.6961Y-2.7593
X11.6961Y-3.5093
X11.6961Y-4.2593
X12.0285Y-5.0025
X12.4461Y-1.353
X12.4461Y-2.103
X12.4461Y-2.853
X12.4461Y-3.603
X12.4461Y-4.353
X13.1961Y-1.5405
X13.1961Y-2.2905
X13.1961Y-3.0405
X13.1961Y-3.7905
X13.1961Y-4.5405
X13.9461Y-4.5405
X14.1336Y-1.5405
X14.1336Y-2.2905
X14.1336Y-3.0405
X14.1336Y-3.7905
X14.3098Y-1.0337
T2
X7.6498Y-2.3498
X7.6498Y-2.4
X7.6498Y-2.4502
X7.7Y-2.3498
X7.7Y-2.4
X7.7Y-2.4502
X7.7502Y-2.3498
X7.7502Y-2.4
X7.7502Y-2.4502
T4
X6.3957Y-2.5492
X6.3957Y-2.8051
X6.5728Y-2.5492
X6.5728Y-2.8051
X8.7539Y-2.5354
X8.7539Y-2.7913
X8.9311Y-2.5354
X8.9311Y-2.7913
T5
X0.5492Y-0.9075
X0.5492Y-5.0413
X7.1831Y-0.9232
X7.6555Y-6.7539
X8.128Y-0.9272
X14.8209Y-0.9272
X14.8209Y-5.0413
T3
G00X7.4862Y-0.8195
M15
G01X7.4862Y-0.8785
M16
G05
G00X7.4862Y-1.0404
M15
G01X7.4862Y-1.0797
M16
G05
G00X7.8264Y-0.8195
M15
G01X7.8264Y-0.8785
M16
G05
G00X7.8264Y-1.0404
M15
G01X7.8264Y-1.0797
M16
G05
T0
M30
