M48
; DRILL file {KiCad 7.0.2} date Fri Jun  2 16:23:41 2023
; FORMAT={-:-/ absolute / inch / decimal}
; #@! TF.CreationDate,2023-06-02T16:23:41-04:00
; #@! TF.GenerationSoftware,Kicad,Pcbnew,7.0.2
; #@! TF.FileFunction,NonPlated,1,2,NPTH
FMAT,2
INCH
; #@! TA.AperFunction,NonPlated,NPTH,ComponentDrill
T1C0.0256
; #@! TA.AperFunction,NonPlated,NPTH,ComponentDrill
T2C0.0390
; #@! TA.AperFunction,NonPlated,NPTH,ComponentDrill
T3C0.0689
; #@! TA.AperFunction,NonPlated,NPTH,ComponentDrill
T4C0.0935
; #@! TA.AperFunction,NonPlated,NPTH,ComponentDrill
T5C0.1200
; #@! TA.AperFunction,NonPlated,NPTH,ComponentDrill
T6C0.1201
; #@! TA.AperFunction,NonPlated,NPTH,ComponentDrill
T7C0.1570
; #@! TA.AperFunction,NonPlated,NPTH,ComponentDrill
T8C0.1575
%
G90
G05
T1
X7.5427Y-1.0016
X7.7703Y-1.0016
T2
X6.8708Y-2.2768
X6.9108Y-2.5768
X6.9508Y-2.2768
T3
X0.7125Y-1.6405
X0.7125Y-2.3905
X0.7125Y-3.1405
X0.7125Y-3.8905
X0.9Y-4.6405
X1.1125Y-1.6405
X1.1125Y-2.3905
X1.1125Y-3.1405
X1.1125Y-3.8905
X1.3Y-4.6405
X1.65Y-1.6405
X1.65Y-2.3905
X1.65Y-3.1405
X1.65Y-3.8905
X1.65Y-4.6405
X2.05Y-1.6405
X2.05Y-2.3905
X2.05Y-3.1405
X2.05Y-3.8905
X2.05Y-4.6405
X2.4Y-1.453
X2.4Y-2.203
X2.4Y-2.953
X2.4Y-3.703
X2.4Y-4.453
X2.8Y-1.453
X2.8Y-2.203
X2.8Y-2.953
X2.8Y-3.703
X2.8Y-4.453
X3.15Y-1.3593
X3.15Y-2.1093
X3.15Y-2.8593
X3.15Y-3.6093
X3.15Y-4.3593
X3.55Y-1.3593
X3.55Y-2.1093
X3.55Y-2.8593
X3.55Y-3.6093
X3.55Y-4.3593
X3.9Y-1.453
X3.9Y-2.203
X3.9Y-2.953
X3.9Y-3.703
X3.9Y-4.453
X4.3Y-1.453
X4.3Y-2.203
X4.3Y-2.953
X4.3Y-3.703
X4.3Y-4.453
X4.65Y-1.5468
X4.65Y-2.2968
X4.65Y-3.0468
X4.65Y-3.7968
X5.05Y-1.5468
X5.05Y-2.2968
X5.05Y-3.0468
X5.05Y-3.7968
X5.0748Y-5.182
X5.2748Y-4.8356
X5.4Y-1.5468
X5.4Y-2.2968
X5.4Y-3.0468
X5.7243Y-5.557
X5.8Y-1.5468
X5.8Y-2.2968
X5.8Y-3.0468
X5.9243Y-5.2106
X6.1131Y-5.9835
X6.2136Y-4.3095
X6.4595Y-6.1835
X6.4881Y-5.334
X6.56Y-4.5095
X6.8345Y-5.534
X6.8631Y-4.6845
X7.2095Y-4.8845
X8.1155Y-4.8845
X8.4619Y-4.6845
X8.4905Y-5.534
X8.765Y-4.5095
X8.8369Y-5.334
X8.8655Y-6.1835
X9.1114Y-4.3095
X9.2119Y-5.9835
X9.4007Y-5.2106
X9.525Y-1.5468
X9.525Y-2.2968
X9.525Y-3.0468
X9.6007Y-5.557
X9.925Y-1.5468
X9.925Y-2.2968
X9.925Y-3.0468
X10.0502Y-4.8356
X10.2502Y-5.182
X10.275Y-1.5468
X10.275Y-2.2968
X10.275Y-3.0468
X10.275Y-3.7968
X10.675Y-1.5468
X10.675Y-2.2968
X10.675Y-3.0468
X10.675Y-3.7968
X11.025Y-1.453
X11.025Y-2.203
X11.025Y-2.953
X11.025Y-3.703
X11.025Y-4.453
X11.425Y-1.453
X11.425Y-2.203
X11.425Y-2.953
X11.425Y-3.703
X11.425Y-4.453
X11.775Y-1.3593
X11.775Y-2.1093
X11.775Y-2.8593
X11.775Y-3.6093
X11.775Y-4.3593
X12.175Y-1.3593
X12.175Y-2.1093
X12.175Y-2.8593
X12.175Y-3.6093
X12.175Y-4.3593
X12.525Y-1.453
X12.525Y-2.203
X12.525Y-2.953
X12.525Y-3.703
X12.525Y-4.453
X12.925Y-1.453
X12.925Y-2.203
X12.925Y-2.953
X12.925Y-3.703
X12.925Y-4.453
X13.275Y-1.6405
X13.275Y-2.3905
X13.275Y-3.1405
X13.275Y-3.8905
X13.275Y-4.6405
X13.675Y-1.6405
X13.675Y-2.3905
X13.675Y-3.1405
X13.675Y-3.8905
X13.675Y-4.6405
X14.025Y-4.6405
X14.2125Y-1.6405
X14.2125Y-2.3905
X14.2125Y-3.1405
X14.2125Y-3.8905
X14.425Y-4.6405
X14.6125Y-1.6405
X14.6125Y-2.3905
X14.6125Y-3.1405
X14.6125Y-3.8905
T4
X6.8108Y-2.3518
X6.8108Y-2.5768
X7.0108Y-2.3518
X7.0108Y-2.5768
T5
X5.1779Y-5.5533
X5.3389Y-5.6229
X5.6479Y-4.7392
X5.8089Y-4.8089
X9.5039Y-4.8392
X9.6467Y-4.7514
X9.9739Y-5.6533
X10.1167Y-5.5655
T6
X0.7625Y-1.5405
X0.7625Y-2.2905
X0.7625Y-3.0405
X0.7625Y-3.7905
X0.95Y-4.5405
X1.0125Y-1.4405
X1.0125Y-2.1905
X1.0125Y-2.9405
X1.0125Y-3.6905
X1.2Y-4.4405
X1.7Y-1.5405
X1.7Y-2.2905
X1.7Y-3.0405
X1.7Y-3.7905
X1.7Y-4.5405
X1.95Y-1.4405
X1.95Y-2.1905
X1.95Y-2.9405
X1.95Y-3.6905
X1.95Y-4.4405
X2.45Y-1.353
X2.45Y-2.103
X2.45Y-2.853
X2.45Y-3.603
X2.45Y-4.353
X2.7Y-1.253
X2.7Y-2.003
X2.7Y-2.753
X2.7Y-3.503
X2.7Y-4.253
X3.2Y-1.2593
X3.2Y-2.0093
X3.2Y-2.7593
X3.2Y-3.5093
X3.2Y-4.2593
X3.45Y-1.1593
X3.45Y-1.9093
X3.45Y-2.6593
X3.45Y-3.4093
X3.45Y-4.1593
X3.95Y-1.353
X3.95Y-2.103
X3.95Y-2.853
X3.95Y-3.603
X3.95Y-4.353
X4.2Y-1.253
X4.2Y-2.003
X4.2Y-2.753
X4.2Y-3.503
X4.2Y-4.253
X4.7Y-1.4468
X4.7Y-2.1968
X4.7Y-2.9468
X4.7Y-3.6968
X4.95Y-1.3468
X4.95Y-2.0968
X4.95Y-2.8468
X4.95Y-3.5968
X5.298Y-5.1954
X5.3364Y-4.9289
X5.45Y-1.4468
X5.45Y-2.1968
X5.45Y-2.9468
X5.7Y-1.3468
X5.7Y-2.0968
X5.7Y-2.8468
X5.9475Y-5.5704
X5.9859Y-5.3039
X6.2064Y-5.9219
X6.3069Y-4.2479
X6.4729Y-5.9603
X6.5734Y-4.2863
X6.5814Y-5.2724
X6.8479Y-5.3108
X6.9564Y-4.6229
X7.2229Y-4.6613
X8.1088Y-4.7729
X8.2753Y-4.5613
X8.4838Y-5.4224
X8.6503Y-5.2108
X8.7583Y-4.3979
X8.8588Y-6.0719
X8.9248Y-4.1863
X9.0253Y-5.8603
X9.2775Y-5.3972
X9.4891Y-5.5637
X9.575Y-1.4468
X9.575Y-2.1968
X9.575Y-2.9468
X9.825Y-1.3468
X9.825Y-2.0968
X9.825Y-2.8468
X9.927Y-5.0222
X10.1386Y-5.1887
X10.325Y-1.4468
X10.325Y-2.1968
X10.325Y-2.9468
X10.325Y-3.6968
X10.575Y-1.3468
X10.575Y-2.0968
X10.575Y-2.8468
X10.575Y-3.5968
X11.075Y-1.353
X11.075Y-2.103
X11.075Y-2.853
X11.075Y-3.603
X11.075Y-4.353
X11.325Y-1.253
X11.325Y-2.003
X11.325Y-2.753
X11.325Y-3.503
X11.325Y-4.253
X11.825Y-1.2593
X11.825Y-2.0093
X11.825Y-2.7593
X11.825Y-3.5093
X11.825Y-4.2593
X12.075Y-1.1593
X12.075Y-1.9093
X12.075Y-2.6593
X12.075Y-3.4093
X12.075Y-4.1593
X12.575Y-1.353
X12.575Y-2.103
X12.575Y-2.853
X12.575Y-3.603
X12.575Y-4.353
X12.825Y-1.253
X12.825Y-2.003
X12.825Y-2.753
X12.825Y-3.503
X12.825Y-4.253
X13.325Y-1.5405
X13.325Y-2.2905
X13.325Y-3.0405
X13.325Y-3.7905
X13.325Y-4.5405
X13.575Y-1.4405
X13.575Y-2.1905
X13.575Y-2.9405
X13.575Y-3.6905
X13.575Y-4.4405
X14.075Y-4.5405
X14.2625Y-1.5405
X14.2625Y-2.2905
X14.2625Y-3.0405
X14.2625Y-3.7905
X14.325Y-4.4405
X14.5125Y-1.4405
X14.5125Y-2.1905
X14.5125Y-2.9405
X14.5125Y-3.6905
T7
X4.6593Y-5.2539
X5.1293Y-4.4398
X5.8575Y-5.9223
X6.3275Y-5.1083
X8.9853Y-5.1386
X9.4553Y-5.9527
X10.1653Y-4.452
X10.6353Y-5.2661
T8
X0.9125Y-1.6405
X0.9125Y-2.3905
X0.9125Y-3.1405
X0.9125Y-3.8905
X1.1Y-4.6405
X1.85Y-1.6405
X1.85Y-2.3905
X1.85Y-3.1405
X1.85Y-3.8905
X1.85Y-4.6405
X2.6Y-1.453
X2.6Y-2.203
X2.6Y-2.953
X2.6Y-3.703
X2.6Y-4.453
X3.35Y-1.3593
X3.35Y-2.1093
X3.35Y-2.8593
X3.35Y-3.6093
X3.35Y-4.3593
X4.1Y-1.453
X4.1Y-2.203
X4.1Y-2.953
X4.1Y-3.703
X4.1Y-4.453
X4.85Y-1.5468
X4.85Y-2.2968
X4.85Y-3.0468
X4.85Y-3.7968
X5.1748Y-5.0088
X5.6Y-1.5468
X5.6Y-2.2968
X5.6Y-3.0468
X5.8243Y-5.3838
X6.2863Y-6.0835
X6.3868Y-4.4095
X6.6613Y-5.434
X7.0363Y-4.7845
X8.2887Y-4.7845
X8.6637Y-5.434
X8.9382Y-4.4095
X9.0387Y-6.0835
X9.5007Y-5.3838
X9.725Y-1.5468
X9.725Y-2.2968
X9.725Y-3.0468
X10.1502Y-5.0088
X10.475Y-1.5468
X10.475Y-2.2968
X10.475Y-3.0468
X10.475Y-3.7968
X11.225Y-1.453
X11.225Y-2.203
X11.225Y-2.953
X11.225Y-3.703
X11.225Y-4.453
X11.975Y-1.3593
X11.975Y-2.1093
X11.975Y-2.8593
X11.975Y-3.6093
X11.975Y-4.3593
X12.725Y-1.453
X12.725Y-2.203
X12.725Y-2.953
X12.725Y-3.703
X12.725Y-4.453
X13.475Y-1.6405
X13.475Y-2.3905
X13.475Y-3.1405
X13.475Y-3.8905
X13.475Y-4.6405
X14.225Y-4.6405
X14.4125Y-1.6405
X14.4125Y-2.3905
X14.4125Y-3.1405
X14.4125Y-3.8905
T0
M30
