%TF.GenerationSoftware,KiCad,Pcbnew,7.0.2*%
%TF.CreationDate,2023-06-05T16:46:38-04:00*%
%TF.ProjectId,arisu,61726973-752e-46b6-9963-61645f706362,1.1*%
%TF.SameCoordinates,Original*%
%TF.FileFunction,Legend,Bot*%
%TF.FilePolarity,Positive*%
%FSLAX46Y46*%
G04 Gerber Fmt 4.6, Leading zero omitted, Abs format (unit mm)*
G04 Created by KiCad (PCBNEW 7.0.2) date 2023-06-05 16:46:38*
%MOMM*%
%LPD*%
G01*
G04 APERTURE LIST*
G04 Aperture macros list*
%AMRoundRect*
0 Rectangle with rounded corners*
0 $1 Rounding radius*
0 $2 $3 $4 $5 $6 $7 $8 $9 X,Y pos of 4 corners*
0 Add a 4 corners polygon primitive as box body*
4,1,4,$2,$3,$4,$5,$6,$7,$8,$9,$2,$3,0*
0 Add four circle primitives for the rounded corners*
1,1,$1+$1,$2,$3*
1,1,$1+$1,$4,$5*
1,1,$1+$1,$6,$7*
1,1,$1+$1,$8,$9*
0 Add four rect primitives between the rounded corners*
20,1,$1+$1,$2,$3,$4,$5,0*
20,1,$1+$1,$4,$5,$6,$7,0*
20,1,$1+$1,$6,$7,$8,$9,0*
20,1,$1+$1,$8,$9,$2,$3,0*%
G04 Aperture macros list end*
%ADD10C,0.150000*%
%ADD11C,0.120000*%
%ADD12C,1.750000*%
%ADD13C,3.050000*%
%ADD14C,4.000000*%
%ADD15RoundRect,0.301000X1.025000X1.000000X-1.025000X1.000000X-1.025000X-1.000000X1.025000X-1.000000X0*%
%ADD16RoundRect,0.301000X-1.378525X0.387676X-0.353525X-1.387676X1.378525X-0.387676X0.353525X1.387676X0*%
%ADD17C,3.048000*%
%ADD18C,3.987800*%
%ADD19RoundRect,0.301000X1.387676X0.353525X-0.387676X1.378525X-1.387676X-0.353525X0.387676X-1.378525X0*%
%ADD20RoundRect,0.301000X0.387676X1.378525X-1.387676X0.353525X-0.387676X-1.378525X1.387676X-0.353525X0*%
%ADD21C,2.102000*%
%ADD22RoundRect,0.301000X0.353525X-1.387676X1.378525X0.387676X-0.353525X1.387676X-1.378525X-0.387676X0*%
%ADD23C,4.502000*%
%ADD24C,2.476910*%
%ADD25C,1.092610*%
%ADD26RoundRect,0.276000X0.375000X-0.225000X0.375000X0.225000X-0.375000X0.225000X-0.375000X-0.225000X0*%
%ADD27RoundRect,0.051000X0.750000X0.450000X-0.750000X0.450000X-0.750000X-0.450000X0.750000X-0.450000X0*%
%ADD28RoundRect,0.191000X0.021213X-0.219203X0.219203X-0.021213X-0.021213X0.219203X-0.219203X0.021213X0*%
%ADD29RoundRect,0.186000X-0.135000X-0.185000X0.135000X-0.185000X0.135000X0.185000X-0.135000X0.185000X0*%
%ADD30RoundRect,0.201000X0.150000X-0.650000X0.150000X0.650000X-0.150000X0.650000X-0.150000X-0.650000X0*%
%ADD31RoundRect,0.191000X0.219203X0.021213X0.021213X0.219203X-0.219203X-0.021213X-0.021213X-0.219203X0*%
%ADD32RoundRect,0.276000X0.437260X-0.007356X0.212260X0.382356X-0.437260X0.007356X-0.212260X-0.382356X0*%
%ADD33RoundRect,0.191000X0.140000X0.170000X-0.140000X0.170000X-0.140000X-0.170000X0.140000X-0.170000X0*%
%ADD34RoundRect,0.251000X-0.275000X0.200000X-0.275000X-0.200000X0.275000X-0.200000X0.275000X0.200000X0*%
%ADD35RoundRect,0.191000X-0.219203X-0.021213X-0.021213X-0.219203X0.219203X0.021213X0.021213X0.219203X0*%
%ADD36RoundRect,0.276000X0.007356X0.437260X-0.382356X0.212260X-0.007356X-0.437260X0.382356X-0.212260X0*%
%ADD37RoundRect,0.191000X-0.140000X-0.170000X0.140000X-0.170000X0.140000X0.170000X-0.140000X0.170000X0*%
%ADD38RoundRect,0.191000X-0.021213X0.219203X-0.219203X0.021213X0.021213X-0.219203X0.219203X-0.021213X0*%
%ADD39RoundRect,0.191000X0.170000X-0.140000X0.170000X0.140000X-0.170000X0.140000X-0.170000X-0.140000X0*%
%ADD40RoundRect,0.276000X-0.382356X-0.212260X0.007356X-0.437260X0.382356X0.212260X-0.007356X0.437260X0*%
%ADD41RoundRect,0.276000X0.212260X-0.382356X0.437260X0.007356X-0.212260X0.382356X-0.437260X-0.007356X0*%
%ADD42RoundRect,0.186000X0.185000X-0.135000X0.185000X0.135000X-0.185000X0.135000X-0.185000X-0.135000X0*%
%ADD43RoundRect,0.051000X-0.070711X-0.919239X0.919239X0.070711X0.070711X0.919239X-0.919239X-0.070711X0*%
%ADD44RoundRect,0.276000X-0.335876X-0.017678X-0.017678X-0.335876X0.335876X0.017678X0.017678X0.335876X0*%
%ADD45RoundRect,0.186000X-0.035355X0.226274X-0.226274X0.035355X0.035355X-0.226274X0.226274X-0.035355X0*%
%ADD46RoundRect,0.191000X-0.170000X0.140000X-0.170000X-0.140000X0.170000X-0.140000X0.170000X0.140000X0*%
%ADD47RoundRect,0.186000X-0.185000X0.135000X-0.185000X-0.135000X0.185000X-0.135000X0.185000X0.135000X0*%
%ADD48RoundRect,0.201000X0.475000X0.150000X-0.475000X0.150000X-0.475000X-0.150000X0.475000X-0.150000X0*%
%ADD49C,0.650000*%
%ADD50RoundRect,0.051000X-0.300000X-0.725000X0.300000X-0.725000X0.300000X0.725000X-0.300000X0.725000X0*%
%ADD51RoundRect,0.051000X-0.150000X-0.725000X0.150000X-0.725000X0.150000X0.725000X-0.150000X0.725000X0*%
%ADD52O,1.102000X1.702000*%
%ADD53O,1.102000X2.202000*%
%ADD54RoundRect,0.201000X0.512500X0.150000X-0.512500X0.150000X-0.512500X-0.150000X0.512500X-0.150000X0*%
%ADD55RoundRect,0.301000X-0.625000X0.375000X-0.625000X-0.375000X0.625000X-0.375000X0.625000X0.375000X0*%
%ADD56RoundRect,0.101000X0.387500X0.050000X-0.387500X0.050000X-0.387500X-0.050000X0.387500X-0.050000X0*%
%ADD57RoundRect,0.101000X0.050000X0.387500X-0.050000X0.387500X-0.050000X-0.387500X0.050000X-0.387500X0*%
%ADD58RoundRect,0.195000X1.456000X1.456000X-1.456000X1.456000X-1.456000X-1.456000X1.456000X-1.456000X0*%
G04 APERTURE END LIST*
D10*
%TO.C,LED1*%
X260383085Y-37778819D02*
X260954513Y-37778819D01*
X260668799Y-37778819D02*
X260668799Y-36778819D01*
X260668799Y-36778819D02*
X260764037Y-36921676D01*
X260764037Y-36921676D02*
X260859275Y-37016914D01*
X260859275Y-37016914D02*
X260954513Y-37064533D01*
%TO.C,LED8*%
X185764285Y-37822619D02*
X186335713Y-37822619D01*
X186049999Y-37822619D02*
X186049999Y-36822619D01*
X186049999Y-36822619D02*
X186145237Y-36965476D01*
X186145237Y-36965476D02*
X186240475Y-37060714D01*
X186240475Y-37060714D02*
X186335713Y-37108333D01*
%TO.C,LED2*%
X393733085Y-37778819D02*
X394304513Y-37778819D01*
X394018799Y-37778819D02*
X394018799Y-36778819D01*
X394018799Y-36778819D02*
X394114037Y-36921676D01*
X394114037Y-36921676D02*
X394209275Y-37016914D01*
X394209275Y-37016914D02*
X394304513Y-37064533D01*
%TO.C,LED5*%
X199264285Y-182241319D02*
X199835713Y-182241319D01*
X199549999Y-182241319D02*
X199549999Y-181241319D01*
X199549999Y-181241319D02*
X199645237Y-181384176D01*
X199645237Y-181384176D02*
X199740475Y-181479414D01*
X199740475Y-181479414D02*
X199835713Y-181527033D01*
%TO.C,LED4*%
X245301785Y-182241319D02*
X245873213Y-182241319D01*
X245587499Y-182241319D02*
X245587499Y-181241319D01*
X245587499Y-181241319D02*
X245682737Y-181384176D01*
X245682737Y-181384176D02*
X245777975Y-181479414D01*
X245777975Y-181479414D02*
X245873213Y-181527033D01*
%TO.C,LED7*%
X50833085Y-37778819D02*
X51404513Y-37778819D01*
X51118799Y-37778819D02*
X51118799Y-36778819D01*
X51118799Y-36778819D02*
X51214037Y-36921676D01*
X51214037Y-36921676D02*
X51309275Y-37016914D01*
X51309275Y-37016914D02*
X51404513Y-37064533D01*
%TO.C,LED3*%
X335789285Y-138585119D02*
X336360713Y-138585119D01*
X336074999Y-138585119D02*
X336074999Y-137585119D01*
X336074999Y-137585119D02*
X336170237Y-137727976D01*
X336170237Y-137727976D02*
X336265475Y-137823214D01*
X336265475Y-137823214D02*
X336360713Y-137870833D01*
%TO.C,LED6*%
X108776785Y-138585119D02*
X109348213Y-138585119D01*
X109062499Y-138585119D02*
X109062499Y-137585119D01*
X109062499Y-137585119D02*
X109157737Y-137727976D01*
X109157737Y-137727976D02*
X109252975Y-137823214D01*
X109252975Y-137823214D02*
X109348213Y-137870833D01*
D11*
%TO.C,SW18*%
X108840000Y-65185000D02*
X113940000Y-65185000D01*
X104940000Y-60985000D02*
X110040000Y-60985000D01*
X108840000Y-65185000D02*
G75*
G03*
X106840000Y-67185000I-1J-1999999D01*
G01*
X104940000Y-60985000D02*
G75*
G03*
X102940000Y-62985000I0J-2000000D01*
G01*
%TO.C,SW35*%
X165990000Y-88997500D02*
X171090000Y-88997500D01*
X162090000Y-84797500D02*
X167190000Y-84797500D01*
X165990000Y-88997500D02*
G75*
G03*
X163990000Y-90997500I-1J-1999999D01*
G01*
X162090000Y-84797500D02*
G75*
G03*
X160090000Y-86797500I0J-2000000D01*
G01*
%TO.C,SW54*%
X263030031Y-152581005D02*
X260480031Y-148164276D01*
X261342725Y-158058504D02*
X258792725Y-153641775D01*
X263030032Y-152581005D02*
G75*
G03*
X265762082Y-153313056I1732050J999999D01*
G01*
X261342725Y-158058504D02*
G75*
G03*
X264074776Y-158790555I1732051J1000000D01*
G01*
%TO.C,SW29*%
X46927500Y-91378700D02*
X52027500Y-91378700D01*
X43027500Y-87178700D02*
X48127500Y-87178700D01*
X46927500Y-91378700D02*
G75*
G03*
X44927500Y-93378700I-1J-1999999D01*
G01*
X43027500Y-87178700D02*
G75*
G03*
X41027500Y-89178700I0J-2000000D01*
G01*
%TO.C,SW11*%
X327915000Y-46135000D02*
X333015000Y-46135000D01*
X324015000Y-41935000D02*
X329115000Y-41935000D01*
X327915000Y-46135000D02*
G75*
G03*
X325915000Y-48135000I-1J-1999999D01*
G01*
X324015000Y-41935000D02*
G75*
G03*
X322015000Y-43935000I0J-2000000D01*
G01*
%TO.C,SW76*%
X385065000Y-129478700D02*
X390165000Y-129478700D01*
X381165000Y-125278700D02*
X386265000Y-125278700D01*
X385065000Y-129478700D02*
G75*
G03*
X383065000Y-131478700I-1J-1999999D01*
G01*
X381165000Y-125278700D02*
G75*
G03*
X379165000Y-127278700I0J-2000000D01*
G01*
%TO.C,SW57*%
X327915000Y-103285000D02*
X333015000Y-103285000D01*
X324015000Y-99085000D02*
X329115000Y-99085000D01*
X327915000Y-103285000D02*
G75*
G03*
X325915000Y-105285000I-1J-1999999D01*
G01*
X324015000Y-99085000D02*
G75*
G03*
X322015000Y-101085000I0J-2000000D01*
G01*
%TO.C,SW48*%
X108840000Y-103285000D02*
X113940000Y-103285000D01*
X104940000Y-99085000D02*
X110040000Y-99085000D01*
X108840000Y-103285000D02*
G75*
G03*
X106840000Y-105285000I-1J-1999999D01*
G01*
X104940000Y-99085000D02*
G75*
G03*
X102940000Y-101085000I0J-2000000D01*
G01*
%TO.C,SW46*%
X70740000Y-110428700D02*
X75840000Y-110428700D01*
X66840000Y-106228700D02*
X71940000Y-106228700D01*
X70740000Y-110428700D02*
G75*
G03*
X68740000Y-112428700I-1J-1999999D01*
G01*
X66840000Y-106228700D02*
G75*
G03*
X64840000Y-108228700I0J-2000000D01*
G01*
%TO.C,SW66*%
X184798795Y-166393431D02*
X189215524Y-168943431D01*
X183521296Y-160806125D02*
X187938025Y-163356125D01*
X184798795Y-166393431D02*
G75*
G03*
X182066745Y-167125482I-1000000J-1732050D01*
G01*
X183521296Y-160806125D02*
G75*
G03*
X180789245Y-161538176I-1000000J-1732051D01*
G01*
%TO.C,SW25*%
X327915000Y-65185000D02*
X333015000Y-65185000D01*
X324015000Y-60985000D02*
X329115000Y-60985000D01*
X327915000Y-65185000D02*
G75*
G03*
X325915000Y-67185000I-1J-1999999D01*
G01*
X324015000Y-60985000D02*
G75*
G03*
X322015000Y-62985000I0J-2000000D01*
G01*
%TO.C,SW58*%
X346965000Y-105666200D02*
X352065000Y-105666200D01*
X343065000Y-101466200D02*
X348165000Y-101466200D01*
X346965000Y-105666200D02*
G75*
G03*
X344965000Y-107666200I-1J-1999999D01*
G01*
X343065000Y-101466200D02*
G75*
G03*
X341065000Y-103466200I0J-2000000D01*
G01*
%TO.C,SW68*%
X203848795Y-133397831D02*
X208265524Y-135947831D01*
X202571296Y-127810525D02*
X206988025Y-130360525D01*
X203848795Y-133397831D02*
G75*
G03*
X201116745Y-134129882I-1000000J-1732050D01*
G01*
X202571296Y-127810525D02*
G75*
G03*
X199839245Y-128542576I-1000000J-1732051D01*
G01*
%TO.C,SW70*%
X242484795Y-150095631D02*
X246901524Y-147545631D01*
X237007296Y-148408325D02*
X241424025Y-145858325D01*
X242484795Y-150095632D02*
G75*
G03*
X241752744Y-152827682I999999J-1732050D01*
G01*
X237007296Y-148408325D02*
G75*
G03*
X236275245Y-151140376I1000000J-1732051D01*
G01*
%TO.C,SW27*%
X366015000Y-72328700D02*
X371115000Y-72328700D01*
X362115000Y-68128700D02*
X367215000Y-68128700D01*
X366015000Y-72328700D02*
G75*
G03*
X364015000Y-74328700I-1J-1999999D01*
G01*
X362115000Y-68128700D02*
G75*
G03*
X360115000Y-70128700I0J-2000000D01*
G01*
%TO.C,SW19*%
X127890000Y-67566200D02*
X132990000Y-67566200D01*
X123990000Y-63366200D02*
X129090000Y-63366200D01*
X127890000Y-67566200D02*
G75*
G03*
X125890000Y-69566200I-1J-1999999D01*
G01*
X123990000Y-63366200D02*
G75*
G03*
X121990000Y-65366200I0J-2000000D01*
G01*
%TO.C,SW37*%
X279527831Y-143056005D02*
X276977831Y-138639276D01*
X277840525Y-148533504D02*
X275290525Y-144116775D01*
X279527832Y-143056005D02*
G75*
G03*
X282259882Y-143788056I1732050J999999D01*
G01*
X277840525Y-148533504D02*
G75*
G03*
X280572576Y-149265555I1732051J1000000D01*
G01*
%TO.C,SW49*%
X127890000Y-105666200D02*
X132990000Y-105666200D01*
X123990000Y-101466200D02*
X129090000Y-101466200D01*
X127890000Y-105666200D02*
G75*
G03*
X125890000Y-107666200I-1J-1999999D01*
G01*
X123990000Y-101466200D02*
G75*
G03*
X121990000Y-103466200I0J-2000000D01*
G01*
%TO.C,SW51*%
X174324969Y-152234595D02*
X171774969Y-156651324D01*
X179912275Y-150957096D02*
X177362275Y-155373825D01*
X174324969Y-152234595D02*
G75*
G03*
X173592918Y-149502545I-1732050J1000000D01*
G01*
X179912275Y-150957096D02*
G75*
G03*
X179180224Y-148225045I-1732051J1000000D01*
G01*
%TO.C,SW32*%
X108840000Y-84235000D02*
X113940000Y-84235000D01*
X104940000Y-80035000D02*
X110040000Y-80035000D01*
X108840000Y-84235000D02*
G75*
G03*
X106840000Y-86235000I-1J-1999999D01*
G01*
X104940000Y-80035000D02*
G75*
G03*
X102940000Y-82035000I0J-2000000D01*
G01*
%TO.C,SW33*%
X127890000Y-86616200D02*
X132990000Y-86616200D01*
X123990000Y-82416200D02*
X129090000Y-82416200D01*
X127890000Y-86616200D02*
G75*
G03*
X125890000Y-88616200I-1J-1999999D01*
G01*
X123990000Y-82416200D02*
G75*
G03*
X121990000Y-84416200I0J-2000000D01*
G01*
%TO.C,SW2*%
X70740000Y-53278700D02*
X75840000Y-53278700D01*
X66840000Y-49078700D02*
X71940000Y-49078700D01*
X70740000Y-53278700D02*
G75*
G03*
X68740000Y-55278700I-1J-1999999D01*
G01*
X66840000Y-49078700D02*
G75*
G03*
X64840000Y-51078700I0J-2000000D01*
G01*
%TO.C,SW45*%
X46927500Y-110428700D02*
X52027500Y-110428700D01*
X43027500Y-106228700D02*
X48127500Y-106228700D01*
X46927500Y-110428700D02*
G75*
G03*
X44927500Y-112428700I-1J-1999999D01*
G01*
X43027500Y-106228700D02*
G75*
G03*
X41027500Y-108228700I0J-2000000D01*
G01*
%TO.C,SW21*%
X165990000Y-69947500D02*
X171090000Y-69947500D01*
X162090000Y-65747500D02*
X167190000Y-65747500D01*
X165990000Y-69947500D02*
G75*
G03*
X163990000Y-71947500I-1J-1999999D01*
G01*
X162090000Y-65747500D02*
G75*
G03*
X160090000Y-67747500I0J-2000000D01*
G01*
%TO.C,SW26*%
X346965000Y-67566200D02*
X352065000Y-67566200D01*
X343065000Y-63366200D02*
X348165000Y-63366200D01*
X346965000Y-67566200D02*
G75*
G03*
X344965000Y-69566200I-1J-1999999D01*
G01*
X343065000Y-63366200D02*
G75*
G03*
X341065000Y-65366200I0J-2000000D01*
G01*
%TO.C,SW40*%
X308865000Y-86616200D02*
X313965000Y-86616200D01*
X304965000Y-82416200D02*
X310065000Y-82416200D01*
X308865000Y-86616200D02*
G75*
G03*
X306865000Y-88616200I-1J-1999999D01*
G01*
X304965000Y-82416200D02*
G75*
G03*
X302965000Y-84416200I0J-2000000D01*
G01*
%TO.C,SW14*%
X389827500Y-53278700D02*
X394927500Y-53278700D01*
X385927500Y-49078700D02*
X391027500Y-49078700D01*
X389827500Y-53278700D02*
G75*
G03*
X387827500Y-55278700I-1J-1999999D01*
G01*
X385927500Y-49078700D02*
G75*
G03*
X383927500Y-51078700I0J-2000000D01*
G01*
%TO.C,SW20*%
X146940000Y-69947500D02*
X152040000Y-69947500D01*
X143040000Y-65747500D02*
X148140000Y-65747500D01*
X146940000Y-69947500D02*
G75*
G03*
X144940000Y-71947500I-1J-1999999D01*
G01*
X143040000Y-65747500D02*
G75*
G03*
X141040000Y-67747500I0J-2000000D01*
G01*
%TO.C,SW75*%
X366015000Y-129478700D02*
X371115000Y-129478700D01*
X362115000Y-125278700D02*
X367215000Y-125278700D01*
X366015000Y-129478700D02*
G75*
G03*
X364015000Y-131478700I-1J-1999999D01*
G01*
X362115000Y-125278700D02*
G75*
G03*
X360115000Y-127278700I0J-2000000D01*
G01*
%TO.C,SW13*%
X366015000Y-53278700D02*
X371115000Y-53278700D01*
X362115000Y-49078700D02*
X367215000Y-49078700D01*
X366015000Y-53278700D02*
G75*
G03*
X364015000Y-55278700I-1J-1999999D01*
G01*
X362115000Y-49078700D02*
G75*
G03*
X360115000Y-51078700I0J-2000000D01*
G01*
%TO.C,SW60*%
X389827500Y-110428700D02*
X394927500Y-110428700D01*
X385927500Y-106228700D02*
X391027500Y-106228700D01*
X389827500Y-110428700D02*
G75*
G03*
X387827500Y-112428700I-1J-1999999D01*
G01*
X385927500Y-106228700D02*
G75*
G03*
X383927500Y-108228700I0J-2000000D01*
G01*
%TO.C,SW43*%
X366015000Y-91378700D02*
X371115000Y-91378700D01*
X362115000Y-87178700D02*
X367215000Y-87178700D01*
X366015000Y-91378700D02*
G75*
G03*
X364015000Y-93378700I-1J-1999999D01*
G01*
X362115000Y-87178700D02*
G75*
G03*
X360115000Y-89178700I0J-2000000D01*
G01*
%TO.C,SW6*%
X146940000Y-50897500D02*
X152040000Y-50897500D01*
X143040000Y-46697500D02*
X148140000Y-46697500D01*
X146940000Y-50897500D02*
G75*
G03*
X144940000Y-52897500I-1J-1999999D01*
G01*
X143040000Y-46697500D02*
G75*
G03*
X141040000Y-48697500I0J-2000000D01*
G01*
%TO.C,SW53*%
X249457595Y-124072831D02*
X253874324Y-121522831D01*
X243980096Y-122385525D02*
X248396825Y-119835525D01*
X249457595Y-124072832D02*
G75*
G03*
X248725544Y-126804882I999999J-1732050D01*
G01*
X243980096Y-122385525D02*
G75*
G03*
X243248045Y-125117576I1000000J-1732051D01*
G01*
%TO.C,SW42*%
X346965000Y-86616200D02*
X352065000Y-86616200D01*
X343065000Y-82416200D02*
X348165000Y-82416200D01*
X346965000Y-86616200D02*
G75*
G03*
X344965000Y-88616200I-1J-1999999D01*
G01*
X343065000Y-82416200D02*
G75*
G03*
X341065000Y-84416200I0J-2000000D01*
G01*
%TO.C,SW4*%
X108840000Y-46135000D02*
X113940000Y-46135000D01*
X104940000Y-41935000D02*
X110040000Y-41935000D01*
X108840000Y-46135000D02*
G75*
G03*
X106840000Y-48135000I-1J-1999999D01*
G01*
X104940000Y-41935000D02*
G75*
G03*
X102940000Y-43935000I0J-2000000D01*
G01*
%TO.C,SW41*%
X327915000Y-84235000D02*
X333015000Y-84235000D01*
X324015000Y-80035000D02*
X329115000Y-80035000D01*
X327915000Y-84235000D02*
G75*
G03*
X325915000Y-86235000I-1J-1999999D01*
G01*
X324015000Y-80035000D02*
G75*
G03*
X322015000Y-82035000I0J-2000000D01*
G01*
%TO.C,SW39*%
X289815000Y-88997500D02*
X294915000Y-88997500D01*
X285915000Y-84797500D02*
X291015000Y-84797500D01*
X289815000Y-88997500D02*
G75*
G03*
X287815000Y-90997500I-1J-1999999D01*
G01*
X285915000Y-84797500D02*
G75*
G03*
X283915000Y-86797500I0J-2000000D01*
G01*
%TO.C,SW10*%
X308865000Y-48516200D02*
X313965000Y-48516200D01*
X304965000Y-44316200D02*
X310065000Y-44316200D01*
X308865000Y-48516200D02*
G75*
G03*
X306865000Y-50516200I-1J-1999999D01*
G01*
X304965000Y-44316200D02*
G75*
G03*
X302965000Y-46316200I0J-2000000D01*
G01*
%TO.C,SW61*%
X51690000Y-129478700D02*
X56790000Y-129478700D01*
X47790000Y-125278700D02*
X52890000Y-125278700D01*
X51690000Y-129478700D02*
G75*
G03*
X49690000Y-131478700I-1J-1999999D01*
G01*
X47790000Y-125278700D02*
G75*
G03*
X45790000Y-127278700I0J-2000000D01*
G01*
%TO.C,SW74*%
X346965000Y-124716200D02*
X352065000Y-124716200D01*
X343065000Y-120516200D02*
X348165000Y-120516200D01*
X346965000Y-124716200D02*
G75*
G03*
X344965000Y-126716200I-1J-1999999D01*
G01*
X343065000Y-120516200D02*
G75*
G03*
X341065000Y-122516200I0J-2000000D01*
G01*
%TO.C,SW64*%
X108840000Y-122335000D02*
X113940000Y-122335000D01*
X104940000Y-118135000D02*
X110040000Y-118135000D01*
X108840000Y-122335000D02*
G75*
G03*
X106840000Y-124335000I-1J-1999999D01*
G01*
X104940000Y-118135000D02*
G75*
G03*
X102940000Y-120135000I0J-2000000D01*
G01*
%TO.C,SW28*%
X389827500Y-72328700D02*
X394927500Y-72328700D01*
X385927500Y-68128700D02*
X391027500Y-68128700D01*
X389827500Y-72328700D02*
G75*
G03*
X387827500Y-74328700I-1J-1999999D01*
G01*
X385927500Y-68128700D02*
G75*
G03*
X383927500Y-70128700I0J-2000000D01*
G01*
%TO.C,SW31*%
X89790000Y-86616200D02*
X94890000Y-86616200D01*
X85890000Y-82416200D02*
X90990000Y-82416200D01*
X89790000Y-86616200D02*
G75*
G03*
X87790000Y-88616200I-1J-1999999D01*
G01*
X85890000Y-82416200D02*
G75*
G03*
X83890000Y-84416200I0J-2000000D01*
G01*
%TO.C,SW36*%
X157827169Y-142709595D02*
X155277169Y-147126324D01*
X163414475Y-141432096D02*
X160864475Y-145848825D01*
X157827169Y-142709595D02*
G75*
G03*
X157095118Y-139977545I-1732050J1000000D01*
G01*
X163414475Y-141432096D02*
G75*
G03*
X162682424Y-138700045I-1732051J1000000D01*
G01*
%TO.C,SW23*%
X289815000Y-69947500D02*
X294915000Y-69947500D01*
X285915000Y-65747500D02*
X291015000Y-65747500D01*
X289815000Y-69947500D02*
G75*
G03*
X287815000Y-71947500I-1J-1999999D01*
G01*
X285915000Y-65747500D02*
G75*
G03*
X283915000Y-67747500I0J-2000000D01*
G01*
%TO.C,SW12*%
X346965000Y-48516200D02*
X352065000Y-48516200D01*
X343065000Y-44316200D02*
X348165000Y-44316200D01*
X346965000Y-48516200D02*
G75*
G03*
X344965000Y-50516200I-1J-1999999D01*
G01*
X343065000Y-44316200D02*
G75*
G03*
X341065000Y-46316200I0J-2000000D01*
G01*
%TO.C,SW9*%
X289815000Y-50897500D02*
X294915000Y-50897500D01*
X285915000Y-46697500D02*
X291015000Y-46697500D01*
X289815000Y-50897500D02*
G75*
G03*
X287815000Y-52897500I-1J-1999999D01*
G01*
X285915000Y-46697500D02*
G75*
G03*
X283915000Y-48697500I0J-2000000D01*
G01*
%TO.C,SW30*%
X70740000Y-91378700D02*
X75840000Y-91378700D01*
X66840000Y-87178700D02*
X71940000Y-87178700D01*
X70740000Y-91378700D02*
G75*
G03*
X68740000Y-93378700I-1J-1999999D01*
G01*
X66840000Y-87178700D02*
G75*
G03*
X64840000Y-89178700I0J-2000000D01*
G01*
%TO.C,SW52*%
X187350995Y-123872831D02*
X191767724Y-126422831D01*
X186073496Y-118285525D02*
X190490225Y-120835525D01*
X187350995Y-123872831D02*
G75*
G03*
X184618945Y-124604882I-1000000J-1732050D01*
G01*
X186073496Y-118285525D02*
G75*
G03*
X183341445Y-119017576I-1000000J-1732051D01*
G01*
%TO.C,SW8*%
X270765000Y-50897500D02*
X275865000Y-50897500D01*
X266865000Y-46697500D02*
X271965000Y-46697500D01*
X270765000Y-50897500D02*
G75*
G03*
X268765000Y-52897500I-1J-1999999D01*
G01*
X266865000Y-46697500D02*
G75*
G03*
X264865000Y-48697500I0J-2000000D01*
G01*
%TO.C,SW16*%
X70740000Y-72328700D02*
X75840000Y-72328700D01*
X66840000Y-68128700D02*
X71940000Y-68128700D01*
X70740000Y-72328700D02*
G75*
G03*
X68740000Y-74328700I-1J-1999999D01*
G01*
X66840000Y-68128700D02*
G75*
G03*
X64840000Y-70128700I0J-2000000D01*
G01*
%TO.C,SW44*%
X389827500Y-91378700D02*
X394927500Y-91378700D01*
X385927500Y-87178700D02*
X391027500Y-87178700D01*
X389827500Y-91378700D02*
G75*
G03*
X387827500Y-93378700I-1J-1999999D01*
G01*
X385927500Y-87178700D02*
G75*
G03*
X383927500Y-89178700I0J-2000000D01*
G01*
%TO.C,SW1*%
X46927500Y-53278700D02*
X52027500Y-53278700D01*
X43027500Y-49078700D02*
X48127500Y-49078700D01*
X46927500Y-53278700D02*
G75*
G03*
X44927500Y-55278700I-1J-1999999D01*
G01*
X43027500Y-49078700D02*
G75*
G03*
X41027500Y-51078700I0J-2000000D01*
G01*
%TO.C,SW47*%
X89790000Y-105666200D02*
X94890000Y-105666200D01*
X85890000Y-101466200D02*
X90990000Y-101466200D01*
X89790000Y-105666200D02*
G75*
G03*
X87790000Y-107666200I-1J-1999999D01*
G01*
X85890000Y-101466200D02*
G75*
G03*
X83890000Y-103466200I0J-2000000D01*
G01*
%TO.C,SW22*%
X270765000Y-69947500D02*
X275865000Y-69947500D01*
X266865000Y-65747500D02*
X271965000Y-65747500D01*
X270765000Y-69947500D02*
G75*
G03*
X268765000Y-71947500I-1J-1999999D01*
G01*
X266865000Y-65747500D02*
G75*
G03*
X264865000Y-67747500I0J-2000000D01*
G01*
%TO.C,SW59*%
X366015000Y-110428700D02*
X371115000Y-110428700D01*
X362115000Y-106228700D02*
X367215000Y-106228700D01*
X366015000Y-110428700D02*
G75*
G03*
X364015000Y-112428700I-1J-1999999D01*
G01*
X362115000Y-106228700D02*
G75*
G03*
X360115000Y-108228700I0J-2000000D01*
G01*
%TO.C,SW5*%
X127890000Y-48516200D02*
X132990000Y-48516200D01*
X123990000Y-44316200D02*
X129090000Y-44316200D01*
X127890000Y-48516200D02*
G75*
G03*
X125890000Y-50516200I-1J-1999999D01*
G01*
X123990000Y-44316200D02*
G75*
G03*
X121990000Y-46316200I0J-2000000D01*
G01*
%TO.C,SW69*%
X232959795Y-133597831D02*
X237376524Y-131047831D01*
X227482296Y-131910525D02*
X231899025Y-129360525D01*
X232959795Y-133597832D02*
G75*
G03*
X232227744Y-136329882I999999J-1732050D01*
G01*
X227482296Y-131910525D02*
G75*
G03*
X226750245Y-134642576I1000000J-1732051D01*
G01*
%TO.C,SW3*%
X89790000Y-48516200D02*
X94890000Y-48516200D01*
X85890000Y-44316200D02*
X90990000Y-44316200D01*
X89790000Y-48516200D02*
G75*
G03*
X87790000Y-50516200I-1J-1999999D01*
G01*
X85890000Y-44316200D02*
G75*
G03*
X83890000Y-46316200I0J-2000000D01*
G01*
%TO.C,SW17*%
X89790000Y-67566200D02*
X94890000Y-67566200D01*
X85890000Y-63366200D02*
X90990000Y-63366200D01*
X89790000Y-67566200D02*
G75*
G03*
X87790000Y-69566200I-1J-1999999D01*
G01*
X85890000Y-63366200D02*
G75*
G03*
X83890000Y-65366200I0J-2000000D01*
G01*
%TO.C,SW71*%
X252009795Y-166593431D02*
X256426524Y-164043431D01*
X246532296Y-164906125D02*
X250949025Y-162356125D01*
X252009795Y-166593432D02*
G75*
G03*
X251277744Y-169325482I999999J-1732050D01*
G01*
X246532296Y-164906125D02*
G75*
G03*
X245800245Y-167638176I1000000J-1732051D01*
G01*
%TO.C,SW24*%
X308865000Y-67566200D02*
X313965000Y-67566200D01*
X304965000Y-63366200D02*
X310065000Y-63366200D01*
X308865000Y-67566200D02*
G75*
G03*
X306865000Y-69566200I-1J-1999999D01*
G01*
X304965000Y-63366200D02*
G75*
G03*
X302965000Y-65366200I0J-2000000D01*
G01*
%TO.C,SW63*%
X89790000Y-124716200D02*
X94890000Y-124716200D01*
X85890000Y-120516200D02*
X90990000Y-120516200D01*
X89790000Y-124716200D02*
G75*
G03*
X87790000Y-126716200I-1J-1999999D01*
G01*
X85890000Y-120516200D02*
G75*
G03*
X83890000Y-122516200I0J-2000000D01*
G01*
%TO.C,SW67*%
X194323795Y-149895631D02*
X198740524Y-152445631D01*
X193046296Y-144308325D02*
X197463025Y-146858325D01*
X194323795Y-149895631D02*
G75*
G03*
X191591745Y-150627682I-1000000J-1732050D01*
G01*
X193046296Y-144308325D02*
G75*
G03*
X190314245Y-145040376I-1000000J-1732051D01*
G01*
%TO.C,SW65*%
X127890000Y-124716200D02*
X132990000Y-124716200D01*
X123990000Y-120516200D02*
X129090000Y-120516200D01*
X127890000Y-124716200D02*
G75*
G03*
X125890000Y-126716200I-1J-1999999D01*
G01*
X123990000Y-120516200D02*
G75*
G03*
X121990000Y-122516200I0J-2000000D01*
G01*
%TO.C,SW72*%
X308865000Y-124716200D02*
X313965000Y-124716200D01*
X304965000Y-120516200D02*
X310065000Y-120516200D01*
X308865000Y-124716200D02*
G75*
G03*
X306865000Y-126716200I-1J-1999999D01*
G01*
X304965000Y-120516200D02*
G75*
G03*
X302965000Y-122516200I0J-2000000D01*
G01*
%TO.C,SW62*%
X70740000Y-129478700D02*
X75840000Y-129478700D01*
X66840000Y-125278700D02*
X71940000Y-125278700D01*
X70740000Y-129478700D02*
G75*
G03*
X68740000Y-131478700I-1J-1999999D01*
G01*
X66840000Y-125278700D02*
G75*
G03*
X64840000Y-127278700I0J-2000000D01*
G01*
%TO.C,SW73*%
X327915000Y-122335000D02*
X333015000Y-122335000D01*
X324015000Y-118135000D02*
X329115000Y-118135000D01*
X327915000Y-122335000D02*
G75*
G03*
X325915000Y-124335000I-1J-1999999D01*
G01*
X324015000Y-118135000D02*
G75*
G03*
X322015000Y-120135000I0J-2000000D01*
G01*
%TO.C,SW15*%
X46927500Y-72328700D02*
X52027500Y-72328700D01*
X43027500Y-68128700D02*
X48127500Y-68128700D01*
X46927500Y-72328700D02*
G75*
G03*
X44927500Y-74328700I-1J-1999999D01*
G01*
X43027500Y-68128700D02*
G75*
G03*
X41027500Y-70128700I0J-2000000D01*
G01*
%TO.C,SW7*%
X165990000Y-50897500D02*
X171090000Y-50897500D01*
X162090000Y-46697500D02*
X167190000Y-46697500D01*
X165990000Y-50897500D02*
G75*
G03*
X163990000Y-52897500I-1J-1999999D01*
G01*
X162090000Y-46697500D02*
G75*
G03*
X160090000Y-48697500I0J-2000000D01*
G01*
%TO.C,SW34*%
X146940000Y-88997500D02*
X152040000Y-88997500D01*
X143040000Y-84797500D02*
X148140000Y-84797500D01*
X146940000Y-88997500D02*
G75*
G03*
X144940000Y-90997500I-1J-1999999D01*
G01*
X143040000Y-84797500D02*
G75*
G03*
X141040000Y-86797500I0J-2000000D01*
G01*
%TO.C,SW55*%
X289815000Y-108047500D02*
X294915000Y-108047500D01*
X285915000Y-103847500D02*
X291015000Y-103847500D01*
X289815000Y-108047500D02*
G75*
G03*
X287815000Y-110047500I-1J-1999999D01*
G01*
X285915000Y-103847500D02*
G75*
G03*
X283915000Y-105847500I0J-2000000D01*
G01*
%TO.C,SW50*%
X146940000Y-108047500D02*
X152040000Y-108047500D01*
X143040000Y-103847500D02*
X148140000Y-103847500D01*
X146940000Y-108047500D02*
G75*
G03*
X144940000Y-110047500I-1J-1999999D01*
G01*
X143040000Y-103847500D02*
G75*
G03*
X141040000Y-105847500I0J-2000000D01*
G01*
%TO.C,SW38*%
X270765000Y-88997500D02*
X275865000Y-88997500D01*
X266865000Y-84797500D02*
X271965000Y-84797500D01*
X270765000Y-88997500D02*
G75*
G03*
X268765000Y-90997500I-1J-1999999D01*
G01*
X266865000Y-84797500D02*
G75*
G03*
X264865000Y-86797500I0J-2000000D01*
G01*
%TO.C,SW56*%
X308865000Y-105666200D02*
X313965000Y-105666200D01*
X304965000Y-101466200D02*
X310065000Y-101466200D01*
X308865000Y-105666200D02*
G75*
G03*
X306865000Y-107666200I-1J-1999999D01*
G01*
X304965000Y-101466200D02*
G75*
G03*
X302965000Y-103466200I0J-2000000D01*
G01*
%TO.C,D10*%
X311325000Y-56988750D02*
X311325000Y-52978750D01*
X313325000Y-56988750D02*
X313325000Y-52978750D01*
X313325000Y-56988750D02*
X311325000Y-56988750D01*
%TO.C,D21*%
X168450000Y-78420000D02*
X168450000Y-74410000D01*
X170450000Y-78420000D02*
X170450000Y-74410000D01*
X170450000Y-78420000D02*
X168450000Y-78420000D01*
%TO.C,LED1*%
X260168800Y-36166200D02*
X252868800Y-36166200D01*
X260168800Y-41666200D02*
X252868800Y-41666200D01*
X252868800Y-41666200D02*
X252868800Y-40516200D01*
%TO.C,D16*%
X73200000Y-80801250D02*
X73200000Y-76791250D01*
X75200000Y-80801250D02*
X75200000Y-76791250D01*
X75200000Y-80801250D02*
X73200000Y-80801250D01*
%TO.C,D60*%
X392287500Y-118901250D02*
X392287500Y-114891250D01*
X394287500Y-118901250D02*
X394287500Y-114891250D01*
X394287500Y-118901250D02*
X392287500Y-118901250D01*
%TO.C,C7*%
X213676297Y-68988800D02*
X213828800Y-68836297D01*
X214185414Y-69497917D02*
X214337917Y-69345414D01*
%TO.C,D11*%
X330375000Y-54607500D02*
X330375000Y-50597500D01*
X332375000Y-54607500D02*
X332375000Y-50597500D01*
X332375000Y-54607500D02*
X330375000Y-54607500D01*
%TO.C,R101*%
X251896359Y-37640000D02*
X252203641Y-37640000D01*
X251896359Y-36880000D02*
X252203641Y-36880000D01*
%TO.C,U2*%
X240300000Y-65453750D02*
X240560000Y-65453750D01*
X245490000Y-65453750D02*
X245490000Y-67128750D01*
X245750000Y-62728750D02*
X245750000Y-65453750D01*
X245750000Y-65453750D02*
X245490000Y-65453750D01*
X240300000Y-60003750D02*
X240560000Y-60003750D01*
X240300000Y-62728750D02*
X240300000Y-60003750D01*
X240300000Y-62728750D02*
X240300000Y-65453750D01*
X245750000Y-60003750D02*
X245490000Y-60003750D01*
X245750000Y-62728750D02*
X245750000Y-60003750D01*
%TO.C,C9*%
X213721693Y-71640810D02*
X213569190Y-71488307D01*
X214230810Y-71131693D02*
X214078307Y-70979190D01*
%TO.C,D69*%
X239370225Y-139885070D02*
X237365225Y-136412308D01*
X241102275Y-138885070D02*
X239097275Y-135412308D01*
X241102275Y-138885070D02*
X239370225Y-139885070D01*
%TO.C,D38*%
X273225000Y-97470000D02*
X273225000Y-93460000D01*
X275225000Y-97470000D02*
X275225000Y-93460000D01*
X275225000Y-97470000D02*
X273225000Y-97470000D01*
%TO.C,D59*%
X368475000Y-118901250D02*
X368475000Y-114891250D01*
X370475000Y-118901250D02*
X370475000Y-114891250D01*
X370475000Y-118901250D02*
X368475000Y-118901250D01*
%TO.C,D3*%
X92250000Y-56988750D02*
X92250000Y-52978750D01*
X94250000Y-56988750D02*
X94250000Y-52978750D01*
X94250000Y-56988750D02*
X92250000Y-56988750D01*
%TO.C,D18*%
X111300000Y-73657500D02*
X111300000Y-69647500D01*
X113300000Y-73657500D02*
X113300000Y-69647500D01*
X113300000Y-73657500D02*
X111300000Y-73657500D01*
%TO.C,LED8*%
X185550000Y-36210000D02*
X178250000Y-36210000D01*
X185550000Y-41710000D02*
X178250000Y-41710000D01*
X178250000Y-41710000D02*
X178250000Y-40560000D01*
%TO.C,C10*%
X213427836Y-76570000D02*
X213212164Y-76570000D01*
X213427836Y-75850000D02*
X213212164Y-75850000D01*
%TO.C,D29*%
X49387500Y-99851250D02*
X49387500Y-95841250D01*
X51387500Y-99851250D02*
X51387500Y-95841250D01*
X51387500Y-99851250D02*
X49387500Y-99851250D01*
%TO.C,D23*%
X292275000Y-78420000D02*
X292275000Y-74410000D01*
X294275000Y-78420000D02*
X294275000Y-74410000D01*
X294275000Y-78420000D02*
X292275000Y-78420000D01*
%TO.C,D65*%
X130350000Y-133188750D02*
X130350000Y-129178750D01*
X132350000Y-133188750D02*
X132350000Y-129178750D01*
X132350000Y-133188750D02*
X130350000Y-133188750D01*
%TO.C,R6*%
X217997500Y-65272742D02*
X217997500Y-65747258D01*
X216952500Y-65272742D02*
X216952500Y-65747258D01*
%TO.C,D27*%
X368475000Y-80801250D02*
X368475000Y-76791250D01*
X370475000Y-80801250D02*
X370475000Y-76791250D01*
X370475000Y-80801250D02*
X368475000Y-80801250D01*
%TO.C,D9*%
X292275000Y-59370000D02*
X292275000Y-55360000D01*
X294275000Y-59370000D02*
X294275000Y-55360000D01*
X294275000Y-59370000D02*
X292275000Y-59370000D01*
%TO.C,D76*%
X387525000Y-137951250D02*
X387525000Y-133941250D01*
X389525000Y-137951250D02*
X389525000Y-133941250D01*
X389525000Y-137951250D02*
X387525000Y-137951250D01*
%TO.C,C14*%
X221738896Y-67734873D02*
X221891399Y-67887376D01*
X221229779Y-68243990D02*
X221382282Y-68396493D01*
%TO.C,C12*%
X214507282Y-70855221D02*
X214354779Y-70702718D01*
X215016399Y-70346104D02*
X214863896Y-70193601D01*
%TO.C,D24*%
X311325000Y-76038750D02*
X311325000Y-72028750D01*
X313325000Y-76038750D02*
X313325000Y-72028750D01*
X313325000Y-76038750D02*
X311325000Y-76038750D01*
%TO.C,D1*%
X49387500Y-61751250D02*
X49387500Y-57741250D01*
X51387500Y-61751250D02*
X51387500Y-57741250D01*
X51387500Y-61751250D02*
X49387500Y-61751250D01*
%TO.C,LED2*%
X393518800Y-36166200D02*
X386218800Y-36166200D01*
X393518800Y-41666200D02*
X386218800Y-41666200D01*
X386218800Y-41666200D02*
X386218800Y-40516200D01*
%TO.C,D61*%
X54150000Y-137951250D02*
X54150000Y-133941250D01*
X56150000Y-137951250D02*
X56150000Y-133941250D01*
X56150000Y-137951250D02*
X54150000Y-137951250D01*
%TO.C,D37*%
X286468370Y-136303675D02*
X282995608Y-138308675D01*
X285468370Y-134571625D02*
X281995608Y-136576625D01*
X285468370Y-134571625D02*
X286468370Y-136303675D01*
%TO.C,D56*%
X311325000Y-114138750D02*
X311325000Y-110128750D01*
X313325000Y-114138750D02*
X313325000Y-110128750D01*
X313325000Y-114138750D02*
X311325000Y-114138750D01*
%TO.C,D71*%
X258420225Y-172428820D02*
X256415225Y-168956058D01*
X260152275Y-171428820D02*
X258147275Y-167956058D01*
X260152275Y-171428820D02*
X258420225Y-172428820D01*
%TO.C,C18*%
X211317164Y-40890000D02*
X211532836Y-40890000D01*
X211317164Y-41610000D02*
X211532836Y-41610000D01*
%TO.C,D32*%
X111300000Y-92707500D02*
X111300000Y-88697500D01*
X113300000Y-92707500D02*
X113300000Y-88697500D01*
X113300000Y-92707500D02*
X111300000Y-92707500D01*
%TO.C,LED5*%
X199050000Y-180628700D02*
X191750000Y-180628700D01*
X199050000Y-186128700D02*
X191750000Y-186128700D01*
X191750000Y-186128700D02*
X191750000Y-184978700D01*
%TO.C,R9*%
X211271359Y-40330000D02*
X211578641Y-40330000D01*
X211271359Y-39570000D02*
X211578641Y-39570000D01*
%TO.C,D20*%
X149400000Y-78420000D02*
X149400000Y-74410000D01*
X151400000Y-78420000D02*
X151400000Y-74410000D01*
X151400000Y-78420000D02*
X149400000Y-78420000D01*
%TO.C,C2*%
X216930810Y-82338307D02*
X216778307Y-82490810D01*
X216421693Y-81829190D02*
X216269190Y-81981693D01*
%TO.C,D5*%
X130350000Y-56988750D02*
X130350000Y-52978750D01*
X132350000Y-56988750D02*
X132350000Y-52978750D01*
X132350000Y-56988750D02*
X130350000Y-56988750D01*
%TO.C,D47*%
X92250000Y-114138750D02*
X92250000Y-110128750D01*
X94250000Y-114138750D02*
X94250000Y-110128750D01*
X94250000Y-114138750D02*
X92250000Y-114138750D01*
%TO.C,D7*%
X168450000Y-59370000D02*
X168450000Y-55360000D01*
X170450000Y-59370000D02*
X170450000Y-55360000D01*
X170450000Y-59370000D02*
X168450000Y-59370000D01*
%TO.C,D43*%
X368475000Y-99851250D02*
X368475000Y-95841250D01*
X370475000Y-99851250D02*
X370475000Y-95841250D01*
X370475000Y-99851250D02*
X368475000Y-99851250D01*
%TO.C,D63*%
X92250000Y-133188750D02*
X92250000Y-129178750D01*
X94250000Y-133188750D02*
X94250000Y-129178750D01*
X94250000Y-133188750D02*
X92250000Y-133188750D01*
%TO.C,C4*%
X244540000Y-57247836D02*
X244540000Y-57032164D01*
X245260000Y-57247836D02*
X245260000Y-57032164D01*
%TO.C,C6*%
X212969190Y-68281693D02*
X213121693Y-68129190D01*
X213478307Y-68790810D02*
X213630810Y-68638307D01*
%TO.C,R4*%
X212246359Y-77690000D02*
X212553641Y-77690000D01*
X212246359Y-76930000D02*
X212553641Y-76930000D01*
%TO.C,C16*%
X224730810Y-70388307D02*
X224578307Y-70540810D01*
X224221693Y-69879190D02*
X224069190Y-70031693D01*
%TO.C,D36*%
X149305380Y-140604125D02*
X152778142Y-142609125D01*
X148305380Y-142336175D02*
X151778142Y-144341175D01*
X148305380Y-142336175D02*
X149305380Y-140604125D01*
%TO.C,D31*%
X92250000Y-95088750D02*
X92250000Y-91078750D01*
X94250000Y-95088750D02*
X94250000Y-91078750D01*
X94250000Y-95088750D02*
X92250000Y-95088750D01*
%TO.C,D50*%
X149400000Y-116520000D02*
X149400000Y-112510000D01*
X151400000Y-116520000D02*
X151400000Y-112510000D01*
X151400000Y-116520000D02*
X149400000Y-116520000D01*
%TO.C,D49*%
X130350000Y-114138750D02*
X130350000Y-110128750D01*
X132350000Y-114138750D02*
X132350000Y-110128750D01*
X132350000Y-114138750D02*
X130350000Y-114138750D01*
%TO.C,D75*%
X368475000Y-137951250D02*
X368475000Y-133941250D01*
X370475000Y-137951250D02*
X370475000Y-133941250D01*
X370475000Y-137951250D02*
X368475000Y-137951250D01*
%TO.C,D52*%
X184622725Y-132535070D02*
X186627725Y-129062308D01*
X186354775Y-133535070D02*
X188359775Y-130062308D01*
X186354775Y-133535070D02*
X184622725Y-132535070D01*
%TO.C,R2*%
X217580000Y-42863641D02*
X217580000Y-42556359D01*
X216820000Y-42863641D02*
X216820000Y-42556359D01*
%TO.C,D44*%
X392287500Y-99851250D02*
X392287500Y-95841250D01*
X394287500Y-99851250D02*
X394287500Y-95841250D01*
X394287500Y-99851250D02*
X392287500Y-99851250D01*
%TO.C,D17*%
X92250000Y-76038750D02*
X92250000Y-72028750D01*
X94250000Y-76038750D02*
X94250000Y-72028750D01*
X94250000Y-76038750D02*
X92250000Y-76038750D01*
%TO.C,D30*%
X73200000Y-99851250D02*
X73200000Y-95841250D01*
X75200000Y-99851250D02*
X75200000Y-95841250D01*
X75200000Y-99851250D02*
X73200000Y-99851250D01*
%TO.C,D55*%
X292275000Y-116520000D02*
X292275000Y-112510000D01*
X294275000Y-116520000D02*
X294275000Y-112510000D01*
X294275000Y-116520000D02*
X292275000Y-116520000D01*
%TO.C,R11*%
X214146359Y-77690000D02*
X214453641Y-77690000D01*
X214146359Y-76930000D02*
X214453641Y-76930000D01*
%TO.C,D62*%
X73200000Y-137951250D02*
X73200000Y-133941250D01*
X75200000Y-137951250D02*
X75200000Y-133941250D01*
X75200000Y-137951250D02*
X73200000Y-137951250D01*
%TO.C,Y1*%
X219215147Y-84969798D02*
X216881694Y-82636345D01*
X216881694Y-82636345D02*
X219710121Y-79807918D01*
%TO.C,D35*%
X168450000Y-97470000D02*
X168450000Y-93460000D01*
X170450000Y-97470000D02*
X170450000Y-93460000D01*
X170450000Y-97470000D02*
X168450000Y-97470000D01*
%TO.C,C1*%
X221630810Y-83827718D02*
X221478307Y-83980221D01*
X221121693Y-83318601D02*
X220969190Y-83471104D01*
%TO.C,C17*%
X226061219Y-57949970D02*
X226260030Y-58148781D01*
X225339970Y-58671219D02*
X225538781Y-58870030D01*
%TO.C,C8*%
X215161104Y-70180221D02*
X215008601Y-70027718D01*
X215670221Y-69671104D02*
X215517718Y-69518601D01*
%TO.C,R3*%
X217779316Y-80443283D02*
X217562035Y-80660564D01*
X218316717Y-80980684D02*
X218099436Y-81197965D01*
%TO.C,LED4*%
X245087500Y-180628700D02*
X237787500Y-180628700D01*
X245087500Y-186128700D02*
X237787500Y-186128700D01*
X237787500Y-186128700D02*
X237787500Y-184978700D01*
%TO.C,D40*%
X311325000Y-95088750D02*
X311325000Y-91078750D01*
X313325000Y-95088750D02*
X313325000Y-91078750D01*
X313325000Y-95088750D02*
X311325000Y-95088750D01*
%TO.C,C3*%
X229159999Y-59583247D02*
X229159999Y-59798919D01*
X228439999Y-59583247D02*
X228439999Y-59798919D01*
%TO.C,D13*%
X368475000Y-61751250D02*
X368475000Y-57741250D01*
X370475000Y-61751250D02*
X370475000Y-57741250D01*
X370475000Y-61751250D02*
X368475000Y-61751250D01*
%TO.C,D12*%
X349425000Y-56988750D02*
X349425000Y-52978750D01*
X351425000Y-56988750D02*
X351425000Y-52978750D01*
X351425000Y-56988750D02*
X349425000Y-56988750D01*
%TO.C,D2*%
X73200000Y-61751250D02*
X73200000Y-57741250D01*
X75200000Y-61751250D02*
X75200000Y-57741250D01*
X75200000Y-61751250D02*
X73200000Y-61751250D01*
%TO.C,D58*%
X349425000Y-114138750D02*
X349425000Y-110128750D01*
X351425000Y-114138750D02*
X351425000Y-110128750D01*
X351425000Y-114138750D02*
X349425000Y-114138750D01*
%TO.C,D64*%
X111300000Y-130807500D02*
X111300000Y-126797500D01*
X113300000Y-130807500D02*
X113300000Y-126797500D01*
X113300000Y-130807500D02*
X111300000Y-130807500D01*
%TO.C,D53*%
X256038975Y-130360070D02*
X254033975Y-126887308D01*
X257771025Y-129360070D02*
X255766025Y-125887308D01*
X257771025Y-129360070D02*
X256038975Y-130360070D01*
%TO.C,D51*%
X165803180Y-149506325D02*
X169275942Y-151511325D01*
X164803180Y-151238375D02*
X168275942Y-153243375D01*
X164803180Y-151238375D02*
X165803180Y-149506325D01*
%TO.C,C5*%
X233634580Y-59787787D02*
X233634580Y-59572115D01*
X234354580Y-59787787D02*
X234354580Y-59572115D01*
%TO.C,D8*%
X273225000Y-59370000D02*
X273225000Y-55360000D01*
X275225000Y-59370000D02*
X275225000Y-55360000D01*
X275225000Y-59370000D02*
X273225000Y-59370000D01*
%TO.C,C15*%
X220490368Y-69226787D02*
X220642871Y-69074284D01*
X220999485Y-69735904D02*
X221151988Y-69583401D01*
%TO.C,R5*%
X219597500Y-65272742D02*
X219597500Y-65747258D01*
X218552500Y-65272742D02*
X218552500Y-65747258D01*
%TO.C,D68*%
X201291475Y-142060070D02*
X203296475Y-138587308D01*
X203023525Y-143060070D02*
X205028525Y-139587308D01*
X203023525Y-143060070D02*
X201291475Y-142060070D01*
%TO.C,D22*%
X273225000Y-78420000D02*
X273225000Y-74410000D01*
X275225000Y-78420000D02*
X275225000Y-74410000D01*
X275225000Y-78420000D02*
X273225000Y-78420000D01*
%TO.C,R7*%
X220580000Y-42863641D02*
X220580000Y-42556359D01*
X219820000Y-42863641D02*
X219820000Y-42556359D01*
%TO.C,LED7*%
X50618800Y-36166200D02*
X43318800Y-36166200D01*
X50618800Y-41666200D02*
X43318800Y-41666200D01*
X43318800Y-41666200D02*
X43318800Y-40516200D01*
%TO.C,R8*%
X246120000Y-65666358D02*
X246120000Y-65973640D01*
X246880000Y-65666358D02*
X246880000Y-65973640D01*
%TO.C,D72*%
X311325000Y-133188750D02*
X311325000Y-129178750D01*
X313325000Y-133188750D02*
X313325000Y-129178750D01*
X313325000Y-133188750D02*
X311325000Y-133188750D01*
%TO.C,D25*%
X330375000Y-73657500D02*
X330375000Y-69647500D01*
X332375000Y-73657500D02*
X332375000Y-69647500D01*
X332375000Y-73657500D02*
X330375000Y-73657500D01*
%TO.C,D19*%
X130350000Y-76038750D02*
X130350000Y-72028750D01*
X132350000Y-76038750D02*
X132350000Y-72028750D01*
X132350000Y-76038750D02*
X130350000Y-76038750D01*
%TO.C,D54*%
X269970570Y-145999625D02*
X266497808Y-148004625D01*
X268970570Y-144267575D02*
X265497808Y-146272575D01*
X268970570Y-144267575D02*
X269970570Y-145999625D01*
%TO.C,D28*%
X392287500Y-80801250D02*
X392287500Y-76791250D01*
X394287500Y-80801250D02*
X394287500Y-76791250D01*
X394287500Y-80801250D02*
X392287500Y-80801250D01*
%TO.C,D34*%
X149400000Y-97470000D02*
X149400000Y-93460000D01*
X151400000Y-97470000D02*
X151400000Y-93460000D01*
X151400000Y-97470000D02*
X149400000Y-97470000D01*
%TO.C,D48*%
X111300000Y-111757500D02*
X111300000Y-107747500D01*
X113300000Y-111757500D02*
X113300000Y-107747500D01*
X113300000Y-111757500D02*
X111300000Y-111757500D01*
%TO.C,R10*%
X246120000Y-63766360D02*
X246120000Y-64073642D01*
X246880000Y-63766360D02*
X246880000Y-64073642D01*
%TO.C,U4*%
X220300000Y-46166219D02*
X217400000Y-46166219D01*
X220300000Y-46776219D02*
X220300000Y-46166219D01*
X218200000Y-49286219D02*
X219000000Y-49286219D01*
X218200000Y-49286219D02*
X217400000Y-49286219D01*
%TO.C,LED3*%
X335575000Y-136972500D02*
X328275000Y-136972500D01*
X335575000Y-142472500D02*
X328275000Y-142472500D01*
X328275000Y-142472500D02*
X328275000Y-141322500D01*
%TO.C,D67*%
X191766475Y-158728820D02*
X193771475Y-155256058D01*
X193498525Y-159728820D02*
X195503525Y-156256058D01*
X193498525Y-159728820D02*
X191766475Y-158728820D01*
%TO.C,C11*%
X224672164Y-76150000D02*
X224887836Y-76150000D01*
X224672164Y-76870000D02*
X224887836Y-76870000D01*
%TO.C,D14*%
X392287500Y-61751250D02*
X392287500Y-57741250D01*
X394287500Y-61751250D02*
X394287500Y-57741250D01*
X394287500Y-61751250D02*
X392287500Y-61751250D01*
%TO.C,D41*%
X330375000Y-92707500D02*
X330375000Y-88697500D01*
X332375000Y-92707500D02*
X332375000Y-88697500D01*
X332375000Y-92707500D02*
X330375000Y-92707500D01*
%TO.C,D39*%
X292275000Y-97470000D02*
X292275000Y-93460000D01*
X294275000Y-97470000D02*
X294275000Y-93460000D01*
X294275000Y-97470000D02*
X292275000Y-97470000D01*
%TO.C,R1*%
X245920000Y-72256359D02*
X245920000Y-72563641D01*
X246680000Y-72256359D02*
X246680000Y-72563641D01*
%TO.C,D46*%
X73200000Y-118901250D02*
X73200000Y-114891250D01*
X75200000Y-118901250D02*
X75200000Y-114891250D01*
X75200000Y-118901250D02*
X73200000Y-118901250D01*
%TO.C,D26*%
X349425000Y-76038750D02*
X349425000Y-72028750D01*
X351425000Y-76038750D02*
X351425000Y-72028750D01*
X351425000Y-76038750D02*
X349425000Y-76038750D01*
%TO.C,LED6*%
X108562500Y-136972500D02*
X101262500Y-136972500D01*
X108562500Y-142472500D02*
X101262500Y-142472500D01*
X101262500Y-142472500D02*
X101262500Y-141322500D01*
%TO.C,D74*%
X349425000Y-133188750D02*
X349425000Y-129178750D01*
X351425000Y-133188750D02*
X351425000Y-129178750D01*
X351425000Y-133188750D02*
X349425000Y-133188750D01*
%TO.C,J1*%
X223125000Y-38350000D02*
X223125000Y-36350000D01*
X213725000Y-34450000D02*
X213725000Y-32550000D01*
X213725000Y-38350000D02*
X213725000Y-36350000D01*
X223125000Y-34450000D02*
X223125000Y-32550000D01*
X213725000Y-32550000D02*
X223125000Y-32550000D01*
%TO.C,C13*%
X212961104Y-72380221D02*
X212808601Y-72227718D01*
X213470221Y-71871104D02*
X213317718Y-71718601D01*
%TO.C,D45*%
X49387500Y-118901250D02*
X49387500Y-114891250D01*
X51387500Y-118901250D02*
X51387500Y-114891250D01*
X51387500Y-118901250D02*
X49387500Y-118901250D01*
%TO.C,D15*%
X49387500Y-80801250D02*
X49387500Y-76791250D01*
X51387500Y-80801250D02*
X51387500Y-76791250D01*
X51387500Y-80801250D02*
X49387500Y-80801250D01*
%TO.C,D57*%
X330375000Y-111757500D02*
X330375000Y-107747500D01*
X332375000Y-111757500D02*
X332375000Y-107747500D01*
X332375000Y-111757500D02*
X330375000Y-111757500D01*
%TO.C,D33*%
X130350000Y-95088750D02*
X130350000Y-91078750D01*
X132350000Y-95088750D02*
X132350000Y-91078750D01*
X132350000Y-95088750D02*
X130350000Y-95088750D01*
%TO.C,U1*%
X231400000Y-60770000D02*
X230600000Y-60770000D01*
X231400000Y-60770000D02*
X232200000Y-60770000D01*
X231400000Y-57650000D02*
X230600000Y-57650000D01*
X231400000Y-57650000D02*
X233200000Y-57650000D01*
%TO.C,F1*%
X223810000Y-44407936D02*
X223810000Y-45612064D01*
X221990000Y-44407936D02*
X221990000Y-45612064D01*
%TO.C,D4*%
X111300000Y-54607500D02*
X111300000Y-50597500D01*
X113300000Y-54607500D02*
X113300000Y-50597500D01*
X113300000Y-54607500D02*
X111300000Y-54607500D01*
%TO.C,D73*%
X330375000Y-130807500D02*
X330375000Y-126797500D01*
X332375000Y-130807500D02*
X332375000Y-126797500D01*
X332375000Y-130807500D02*
X330375000Y-130807500D01*
%TO.C,D6*%
X149400000Y-59370000D02*
X149400000Y-55360000D01*
X151400000Y-59370000D02*
X151400000Y-55360000D01*
X151400000Y-59370000D02*
X149400000Y-59370000D01*
%TO.C,D66*%
X182241475Y-175397570D02*
X184246475Y-171924808D01*
X183973525Y-176397570D02*
X185978525Y-172924808D01*
X183973525Y-176397570D02*
X182241475Y-175397570D01*
%TO.C,D42*%
X349425000Y-95088750D02*
X349425000Y-91078750D01*
X351425000Y-95088750D02*
X351425000Y-91078750D01*
X351425000Y-95088750D02*
X349425000Y-95088750D01*
%TO.C,D70*%
X248895225Y-156553820D02*
X246890225Y-153081058D01*
X250627275Y-155553820D02*
X248622275Y-152081058D01*
X250627275Y-155553820D02*
X248895225Y-156553820D01*
%TO.C,U3*%
X223140000Y-78880000D02*
X223140000Y-78230000D01*
X222490000Y-78880000D02*
X223140000Y-78880000D01*
X222490000Y-71660000D02*
X223140000Y-71660000D01*
X216570000Y-78880000D02*
X215920000Y-78880000D01*
X216570000Y-71660000D02*
X215920000Y-71660000D01*
X215920000Y-78880000D02*
X215920000Y-78230000D01*
X215920000Y-71660000D02*
X215920000Y-72310000D01*
%TD*%
%LPC*%
D12*
%TO.C,SW18*%
X114120000Y-67885000D03*
D13*
X111580000Y-62805000D03*
D14*
X109040000Y-67885000D03*
D13*
X105230000Y-65345000D03*
D12*
X103960000Y-67885000D03*
D15*
X101955000Y-65345000D03*
X114882000Y-62805000D03*
%TD*%
D12*
%TO.C,SW35*%
X171270000Y-91697500D03*
D13*
X168730000Y-86617500D03*
D14*
X166190000Y-91697500D03*
D13*
X162380000Y-89157500D03*
D12*
X161110000Y-91697500D03*
D15*
X159105000Y-89157500D03*
X172032000Y-86617500D03*
%TD*%
D12*
%TO.C,SW54*%
X262728300Y-146658391D03*
D13*
X259598891Y-151398095D03*
D14*
X265268300Y-151057800D03*
D13*
X264973595Y-155627357D03*
D12*
X267808300Y-155457209D03*
D16*
X266611095Y-158463590D03*
X257947891Y-148538480D03*
%TD*%
D12*
%TO.C,SW29*%
X52207500Y-94078700D03*
D13*
X49667500Y-88998700D03*
D14*
X47127500Y-94078700D03*
D13*
X43317500Y-91538700D03*
D12*
X42047500Y-94078700D03*
D15*
X40042500Y-91538700D03*
X52969500Y-88998700D03*
%TD*%
D12*
%TO.C,SW11*%
X333195000Y-48835000D03*
D13*
X330655000Y-43755000D03*
D14*
X328115000Y-48835000D03*
D13*
X324305000Y-46295000D03*
D12*
X323035000Y-48835000D03*
D15*
X321030000Y-46295000D03*
X333957000Y-43755000D03*
%TD*%
D17*
%TO.C,REF\u002A\u002A*%
X265348487Y-137226689D03*
X277286487Y-157903911D03*
D18*
X252176241Y-144831689D03*
X264114241Y-165508911D03*
%TD*%
D12*
%TO.C,SW76*%
X390345000Y-132178700D03*
D13*
X387805000Y-127098700D03*
D14*
X385265000Y-132178700D03*
D13*
X381455000Y-129638700D03*
D12*
X380185000Y-132178700D03*
D15*
X378180000Y-129638700D03*
X391107000Y-127098700D03*
%TD*%
D12*
%TO.C,SW57*%
X333195000Y-105985000D03*
D13*
X330655000Y-100905000D03*
D14*
X328115000Y-105985000D03*
D13*
X324305000Y-103445000D03*
D12*
X323035000Y-105985000D03*
D15*
X321030000Y-103445000D03*
X333957000Y-100905000D03*
%TD*%
D12*
%TO.C,SW48*%
X114120000Y-105985000D03*
D13*
X111580000Y-100905000D03*
D14*
X109040000Y-105985000D03*
D13*
X105230000Y-103445000D03*
D12*
X103960000Y-105985000D03*
D15*
X101955000Y-103445000D03*
X114882000Y-100905000D03*
%TD*%
D12*
%TO.C,SW46*%
X76020000Y-113128700D03*
D13*
X73480000Y-108048700D03*
D14*
X70940000Y-113128700D03*
D13*
X67130000Y-110588700D03*
D12*
X65860000Y-113128700D03*
D15*
X63855000Y-110588700D03*
X76782000Y-108048700D03*
%TD*%
D12*
%TO.C,SW66*%
X188021409Y-171371700D03*
D13*
X188361705Y-165702291D03*
D14*
X183622000Y-168831700D03*
D13*
X181592443Y-164726995D03*
D12*
X179222591Y-166291700D03*
D19*
X178756210Y-163089495D03*
X191221320Y-167353291D03*
%TD*%
D12*
%TO.C,SW25*%
X333195000Y-67885000D03*
D13*
X330655000Y-62805000D03*
D14*
X328115000Y-67885000D03*
D13*
X324305000Y-65345000D03*
D12*
X323035000Y-67885000D03*
D15*
X321030000Y-65345000D03*
X333957000Y-62805000D03*
%TD*%
D12*
%TO.C,SW58*%
X352245000Y-108366200D03*
D13*
X349705000Y-103286200D03*
D14*
X347165000Y-108366200D03*
D13*
X343355000Y-105826200D03*
D12*
X342085000Y-108366200D03*
D15*
X340080000Y-105826200D03*
X353007000Y-103286200D03*
%TD*%
D12*
%TO.C,SW68*%
X207071409Y-138376100D03*
D13*
X207411705Y-132706691D03*
D14*
X202672000Y-135836100D03*
D13*
X200642443Y-131731395D03*
D12*
X198272591Y-133296100D03*
D19*
X197806210Y-130093895D03*
X210271320Y-134357691D03*
%TD*%
D17*
%TO.C,REF\u002A\u002A*%
X167407087Y-134686689D03*
X155469087Y-155363911D03*
D18*
X154234841Y-127081689D03*
X142296841Y-147758911D03*
%TD*%
D12*
%TO.C,SW70*%
X248407409Y-149793900D03*
D13*
X243667705Y-146664491D03*
D14*
X244008000Y-152333900D03*
D13*
X239438443Y-152039195D03*
D12*
X239608591Y-154873900D03*
D20*
X236602210Y-153676695D03*
X246527320Y-145013491D03*
%TD*%
D12*
%TO.C,SW27*%
X371295000Y-75028700D03*
D13*
X368755000Y-69948700D03*
D14*
X366215000Y-75028700D03*
D13*
X362405000Y-72488700D03*
D12*
X361135000Y-75028700D03*
D15*
X359130000Y-72488700D03*
X372057000Y-69948700D03*
%TD*%
D12*
%TO.C,SW19*%
X133170000Y-70266200D03*
D13*
X130630000Y-65186200D03*
D14*
X128090000Y-70266200D03*
D13*
X124280000Y-67726200D03*
D12*
X123010000Y-70266200D03*
D15*
X121005000Y-67726200D03*
X133932000Y-65186200D03*
%TD*%
D12*
%TO.C,SW37*%
X279226100Y-137133391D03*
D13*
X276096691Y-141873095D03*
D14*
X281766100Y-141532800D03*
D13*
X281471395Y-146102357D03*
D12*
X284306100Y-145932209D03*
D16*
X283108895Y-148938590D03*
X274445691Y-139013480D03*
%TD*%
D12*
%TO.C,SW49*%
X133170000Y-108366200D03*
D13*
X130630000Y-103286200D03*
D14*
X128090000Y-108366200D03*
D13*
X124280000Y-105826200D03*
D12*
X123010000Y-108366200D03*
D15*
X121005000Y-105826200D03*
X133932000Y-103286200D03*
%TD*%
D21*
%TO.C,RST1*%
X186400000Y-79060000D03*
X186400000Y-85560000D03*
X190900000Y-79060000D03*
X190900000Y-85560000D03*
%TD*%
D12*
%TO.C,SW51*%
X169346700Y-155457209D03*
D13*
X175016109Y-155797505D03*
D14*
X171886700Y-151057800D03*
D13*
X175991405Y-149028243D03*
D12*
X174426700Y-146658391D03*
D22*
X177628905Y-146192010D03*
X173365109Y-158657120D03*
%TD*%
D23*
%TO.C,H7*%
X230400000Y-37000000D03*
%TD*%
D12*
%TO.C,SW32*%
X114120000Y-86935000D03*
D13*
X111580000Y-81855000D03*
D14*
X109040000Y-86935000D03*
D13*
X105230000Y-84395000D03*
D12*
X103960000Y-86935000D03*
D15*
X101955000Y-84395000D03*
X114882000Y-81855000D03*
%TD*%
D12*
%TO.C,SW33*%
X133170000Y-89316200D03*
D13*
X130630000Y-84236200D03*
D14*
X128090000Y-89316200D03*
D13*
X124280000Y-86776200D03*
D12*
X123010000Y-89316200D03*
D15*
X121005000Y-86776200D03*
X133932000Y-84236200D03*
%TD*%
D12*
%TO.C,SW2*%
X76020000Y-55978700D03*
D13*
X73480000Y-50898700D03*
D14*
X70940000Y-55978700D03*
D13*
X67130000Y-53438700D03*
D12*
X65860000Y-55978700D03*
D15*
X63855000Y-53438700D03*
X76782000Y-50898700D03*
%TD*%
D12*
%TO.C,SW45*%
X52207500Y-113128700D03*
D13*
X49667500Y-108048700D03*
D14*
X47127500Y-113128700D03*
D13*
X43317500Y-110588700D03*
D12*
X42047500Y-113128700D03*
D15*
X40042500Y-110588700D03*
X52969500Y-108048700D03*
%TD*%
D12*
%TO.C,SW21*%
X171270000Y-72647500D03*
D13*
X168730000Y-67567500D03*
D14*
X166190000Y-72647500D03*
D13*
X162380000Y-70107500D03*
D12*
X161110000Y-72647500D03*
D15*
X159105000Y-70107500D03*
X172032000Y-67567500D03*
%TD*%
D12*
%TO.C,SW26*%
X352245000Y-70266200D03*
D13*
X349705000Y-65186200D03*
D14*
X347165000Y-70266200D03*
D13*
X343355000Y-67726200D03*
D12*
X342085000Y-70266200D03*
D15*
X340080000Y-67726200D03*
X353007000Y-65186200D03*
%TD*%
D12*
%TO.C,SW40*%
X314145000Y-89316200D03*
D13*
X311605000Y-84236200D03*
D14*
X309065000Y-89316200D03*
D13*
X305255000Y-86776200D03*
D12*
X303985000Y-89316200D03*
D15*
X301980000Y-86776200D03*
X314907000Y-84236200D03*
%TD*%
D12*
%TO.C,SW14*%
X395107500Y-55978700D03*
D13*
X392567500Y-50898700D03*
D14*
X390027500Y-55978700D03*
D13*
X386217500Y-53438700D03*
D12*
X384947500Y-55978700D03*
D15*
X382942500Y-53438700D03*
X395869500Y-50898700D03*
%TD*%
D12*
%TO.C,SW20*%
X152220000Y-72647500D03*
D13*
X149680000Y-67567500D03*
D14*
X147140000Y-72647500D03*
D13*
X143330000Y-70107500D03*
D12*
X142060000Y-72647500D03*
D15*
X140055000Y-70107500D03*
X152982000Y-67567500D03*
%TD*%
D12*
%TO.C,SW75*%
X371295000Y-132178700D03*
D13*
X368755000Y-127098700D03*
D14*
X366215000Y-132178700D03*
D13*
X362405000Y-129638700D03*
D12*
X361135000Y-132178700D03*
D15*
X359130000Y-129638700D03*
X372057000Y-127098700D03*
%TD*%
D12*
%TO.C,SW13*%
X371295000Y-55978700D03*
D13*
X368755000Y-50898700D03*
D14*
X366215000Y-55978700D03*
D13*
X362405000Y-53438700D03*
D12*
X361135000Y-55978700D03*
D15*
X359130000Y-53438700D03*
X372057000Y-50898700D03*
%TD*%
D12*
%TO.C,SW60*%
X395107500Y-113128700D03*
D13*
X392567500Y-108048700D03*
D14*
X390027500Y-113128700D03*
D13*
X386217500Y-110588700D03*
D12*
X384947500Y-113128700D03*
D15*
X382942500Y-110588700D03*
X395869500Y-108048700D03*
%TD*%
D12*
%TO.C,SW43*%
X371295000Y-94078700D03*
D13*
X368755000Y-88998700D03*
D14*
X366215000Y-94078700D03*
D13*
X362405000Y-91538700D03*
D12*
X361135000Y-94078700D03*
D15*
X359130000Y-91538700D03*
X372057000Y-88998700D03*
%TD*%
D12*
%TO.C,SW6*%
X152220000Y-53597500D03*
D13*
X149680000Y-48517500D03*
D14*
X147140000Y-53597500D03*
D13*
X143330000Y-51057500D03*
D12*
X142060000Y-53597500D03*
D15*
X140055000Y-51057500D03*
X152982000Y-48517500D03*
%TD*%
D12*
%TO.C,SW53*%
X255380209Y-123771100D03*
D13*
X250640505Y-120641691D03*
D14*
X250980800Y-126311100D03*
D13*
X246411243Y-126016395D03*
D12*
X246581391Y-128851100D03*
D20*
X243575010Y-127653895D03*
X253500120Y-118990691D03*
%TD*%
D12*
%TO.C,SW42*%
X352245000Y-89316200D03*
D13*
X349705000Y-84236200D03*
D14*
X347165000Y-89316200D03*
D13*
X343355000Y-86776200D03*
D12*
X342085000Y-89316200D03*
D15*
X340080000Y-86776200D03*
X353007000Y-84236200D03*
%TD*%
D12*
%TO.C,SW4*%
X114120000Y-48835000D03*
D13*
X111580000Y-43755000D03*
D14*
X109040000Y-48835000D03*
D13*
X105230000Y-46295000D03*
D12*
X103960000Y-48835000D03*
D15*
X101955000Y-46295000D03*
X114882000Y-43755000D03*
%TD*%
D12*
%TO.C,SW41*%
X333195000Y-86935000D03*
D13*
X330655000Y-81855000D03*
D14*
X328115000Y-86935000D03*
D13*
X324305000Y-84395000D03*
D12*
X323035000Y-86935000D03*
D15*
X321030000Y-84395000D03*
X333957000Y-81855000D03*
%TD*%
D12*
%TO.C,SW39*%
X295095000Y-91697500D03*
D13*
X292555000Y-86617500D03*
D14*
X290015000Y-91697500D03*
D13*
X286205000Y-89157500D03*
D12*
X284935000Y-91697500D03*
D15*
X282930000Y-89157500D03*
X295857000Y-86617500D03*
%TD*%
D12*
%TO.C,SW10*%
X314145000Y-51216200D03*
D13*
X311605000Y-46136200D03*
D14*
X309065000Y-51216200D03*
D13*
X305255000Y-48676200D03*
D12*
X303985000Y-51216200D03*
D15*
X301980000Y-48676200D03*
X314907000Y-46136200D03*
%TD*%
D12*
%TO.C,SW61*%
X56970000Y-132178700D03*
D13*
X54430000Y-127098700D03*
D14*
X51890000Y-132178700D03*
D13*
X48080000Y-129638700D03*
D12*
X46810000Y-132178700D03*
D15*
X44805000Y-129638700D03*
X57732000Y-127098700D03*
%TD*%
D12*
%TO.C,SW74*%
X352245000Y-127416200D03*
D13*
X349705000Y-122336200D03*
D14*
X347165000Y-127416200D03*
D13*
X343355000Y-124876200D03*
D12*
X342085000Y-127416200D03*
D15*
X340080000Y-124876200D03*
X353007000Y-122336200D03*
%TD*%
D12*
%TO.C,SW64*%
X114120000Y-125035000D03*
D13*
X111580000Y-119955000D03*
D14*
X109040000Y-125035000D03*
D13*
X105230000Y-122495000D03*
D12*
X103960000Y-125035000D03*
D15*
X101955000Y-122495000D03*
X114882000Y-119955000D03*
%TD*%
D12*
%TO.C,SW28*%
X395107500Y-75028700D03*
D13*
X392567500Y-69948700D03*
D14*
X390027500Y-75028700D03*
D13*
X386217500Y-72488700D03*
D12*
X384947500Y-75028700D03*
D15*
X382942500Y-72488700D03*
X395869500Y-69948700D03*
%TD*%
D12*
%TO.C,SW31*%
X95070000Y-89316200D03*
D13*
X92530000Y-84236200D03*
D14*
X89990000Y-89316200D03*
D13*
X86180000Y-86776200D03*
D12*
X84910000Y-89316200D03*
D15*
X82905000Y-86776200D03*
X95832000Y-84236200D03*
%TD*%
D12*
%TO.C,SW36*%
X152848900Y-145932209D03*
D13*
X158518309Y-146272505D03*
D14*
X155388900Y-141532800D03*
D13*
X159493605Y-139503243D03*
D12*
X157928900Y-137133391D03*
D22*
X161131105Y-136667010D03*
X156867309Y-149132120D03*
%TD*%
D12*
%TO.C,SW23*%
X295095000Y-72647500D03*
D13*
X292555000Y-67567500D03*
D14*
X290015000Y-72647500D03*
D13*
X286205000Y-70107500D03*
D12*
X284935000Y-72647500D03*
D15*
X282930000Y-70107500D03*
X295857000Y-67567500D03*
%TD*%
D12*
%TO.C,SW12*%
X352245000Y-51216200D03*
D13*
X349705000Y-46136200D03*
D14*
X347165000Y-51216200D03*
D13*
X343355000Y-48676200D03*
D12*
X342085000Y-51216200D03*
D15*
X340080000Y-48676200D03*
X353007000Y-46136200D03*
%TD*%
D21*
%TO.C,BOOT1*%
X250800000Y-85210000D03*
X250800000Y-78710000D03*
X246300000Y-85210000D03*
X246300000Y-78710000D03*
%TD*%
D12*
%TO.C,SW9*%
X295095000Y-53597500D03*
D13*
X292555000Y-48517500D03*
D14*
X290015000Y-53597500D03*
D13*
X286205000Y-51057500D03*
D12*
X284935000Y-53597500D03*
D15*
X282930000Y-51057500D03*
X295857000Y-48517500D03*
%TD*%
D12*
%TO.C,SW30*%
X76020000Y-94078700D03*
D13*
X73480000Y-88998700D03*
D14*
X70940000Y-94078700D03*
D13*
X67130000Y-91538700D03*
D12*
X65860000Y-94078700D03*
D15*
X63855000Y-91538700D03*
X76782000Y-88998700D03*
%TD*%
D12*
%TO.C,SW52*%
X190573609Y-128851100D03*
D13*
X190913905Y-123181691D03*
D14*
X186174200Y-126311100D03*
D13*
X184144643Y-122206395D03*
D12*
X181774791Y-123771100D03*
D19*
X181308410Y-120568895D03*
X193773520Y-124832691D03*
%TD*%
D12*
%TO.C,SW8*%
X276045000Y-53597500D03*
D13*
X273505000Y-48517500D03*
D14*
X270965000Y-53597500D03*
D13*
X267155000Y-51057500D03*
D12*
X265885000Y-53597500D03*
D15*
X263880000Y-51057500D03*
X276807000Y-48517500D03*
%TD*%
D23*
%TO.C,H1*%
X206400000Y-36900000D03*
%TD*%
D12*
%TO.C,SW16*%
X76020000Y-75028700D03*
D13*
X73480000Y-69948700D03*
D14*
X70940000Y-75028700D03*
D13*
X67130000Y-72488700D03*
D12*
X65860000Y-75028700D03*
D15*
X63855000Y-72488700D03*
X76782000Y-69948700D03*
%TD*%
D12*
%TO.C,SW44*%
X395107500Y-94078700D03*
D13*
X392567500Y-88998700D03*
D14*
X390027500Y-94078700D03*
D13*
X386217500Y-91538700D03*
D12*
X384947500Y-94078700D03*
D15*
X382942500Y-91538700D03*
X395869500Y-88998700D03*
%TD*%
D12*
%TO.C,SW1*%
X52207500Y-55978700D03*
D13*
X49667500Y-50898700D03*
D14*
X47127500Y-55978700D03*
D13*
X43317500Y-53438700D03*
D12*
X42047500Y-55978700D03*
D15*
X40042500Y-53438700D03*
X52969500Y-50898700D03*
%TD*%
D23*
%TO.C,H3*%
X401950000Y-142940000D03*
%TD*%
D12*
%TO.C,SW47*%
X95070000Y-108366200D03*
D13*
X92530000Y-103286200D03*
D14*
X89990000Y-108366200D03*
D13*
X86180000Y-105826200D03*
D12*
X84910000Y-108366200D03*
D15*
X82905000Y-105826200D03*
X95832000Y-103286200D03*
%TD*%
D23*
%TO.C,H5*%
X402850000Y-36940000D03*
%TD*%
D12*
%TO.C,SW22*%
X276045000Y-72647500D03*
D13*
X273505000Y-67567500D03*
D14*
X270965000Y-72647500D03*
D13*
X267155000Y-70107500D03*
D12*
X265885000Y-72647500D03*
D15*
X263880000Y-70107500D03*
X276807000Y-67567500D03*
%TD*%
D24*
%TO.C,P1*%
X196945000Y-79760000D03*
D25*
X199485000Y-79760000D03*
D24*
X202025000Y-79760000D03*
X196945000Y-74045000D03*
X202025000Y-74045000D03*
D25*
X198469000Y-72140000D03*
X200501000Y-72140000D03*
%TD*%
D12*
%TO.C,SW59*%
X371295000Y-113128700D03*
D13*
X368755000Y-108048700D03*
D14*
X366215000Y-113128700D03*
D13*
X362405000Y-110588700D03*
D12*
X361135000Y-113128700D03*
D15*
X359130000Y-110588700D03*
X372057000Y-108048700D03*
%TD*%
D12*
%TO.C,SW5*%
X133170000Y-51216200D03*
D13*
X130630000Y-46136200D03*
D14*
X128090000Y-51216200D03*
D13*
X124280000Y-48676200D03*
D12*
X123010000Y-51216200D03*
D15*
X121005000Y-48676200D03*
X133932000Y-46136200D03*
%TD*%
D12*
%TO.C,SW69*%
X238882409Y-133296100D03*
D13*
X234142705Y-130166691D03*
D14*
X234483000Y-135836100D03*
D13*
X229913443Y-135541395D03*
D12*
X230083591Y-138376100D03*
D20*
X227077210Y-137178895D03*
X237002320Y-128515691D03*
%TD*%
D12*
%TO.C,SW3*%
X95070000Y-51216200D03*
D13*
X92530000Y-46136200D03*
D14*
X89990000Y-51216200D03*
D13*
X86180000Y-48676200D03*
D12*
X84910000Y-51216200D03*
D15*
X82905000Y-48676200D03*
X95832000Y-46136200D03*
%TD*%
D12*
%TO.C,SW17*%
X95070000Y-70266200D03*
D13*
X92530000Y-65186200D03*
D14*
X89990000Y-70266200D03*
D13*
X86180000Y-67726200D03*
D12*
X84910000Y-70266200D03*
D15*
X82905000Y-67726200D03*
X95832000Y-65186200D03*
%TD*%
D12*
%TO.C,SW71*%
X257932409Y-166291700D03*
D13*
X253192705Y-163162291D03*
D14*
X253533000Y-168831700D03*
D13*
X248963443Y-168536995D03*
D12*
X249133591Y-171371700D03*
D20*
X246127210Y-170174495D03*
X256052320Y-161511291D03*
%TD*%
D12*
%TO.C,SW24*%
X314145000Y-70266200D03*
D13*
X311605000Y-65186200D03*
D14*
X309065000Y-70266200D03*
D13*
X305255000Y-67726200D03*
D12*
X303985000Y-70266200D03*
D15*
X301980000Y-67726200D03*
X314907000Y-65186200D03*
%TD*%
D12*
%TO.C,SW63*%
X95070000Y-127416200D03*
D13*
X92530000Y-122336200D03*
D14*
X89990000Y-127416200D03*
D13*
X86180000Y-124876200D03*
D12*
X84910000Y-127416200D03*
D15*
X82905000Y-124876200D03*
X95832000Y-122336200D03*
%TD*%
D23*
%TO.C,H6*%
X35100000Y-36600000D03*
%TD*%
D12*
%TO.C,SW67*%
X197546409Y-154873900D03*
D13*
X197886705Y-149204491D03*
D14*
X193147000Y-152333900D03*
D13*
X191117443Y-148229195D03*
D12*
X188747591Y-149793900D03*
D19*
X188281210Y-146591695D03*
X200746320Y-150855491D03*
%TD*%
D12*
%TO.C,SW65*%
X133170000Y-127416200D03*
D13*
X130630000Y-122336200D03*
D14*
X128090000Y-127416200D03*
D13*
X124280000Y-124876200D03*
D12*
X123010000Y-127416200D03*
D15*
X121005000Y-124876200D03*
X133932000Y-122336200D03*
%TD*%
D12*
%TO.C,SW72*%
X314145000Y-127416200D03*
D13*
X311605000Y-122336200D03*
D14*
X309065000Y-127416200D03*
D13*
X305255000Y-124876200D03*
D12*
X303985000Y-127416200D03*
D15*
X301980000Y-124876200D03*
X314907000Y-122336200D03*
%TD*%
D12*
%TO.C,SW62*%
X76020000Y-132178700D03*
D13*
X73480000Y-127098700D03*
D14*
X70940000Y-132178700D03*
D13*
X67130000Y-129638700D03*
D12*
X65860000Y-132178700D03*
D15*
X63855000Y-129638700D03*
X76782000Y-127098700D03*
%TD*%
D12*
%TO.C,SW73*%
X333195000Y-125035000D03*
D13*
X330655000Y-119955000D03*
D14*
X328115000Y-125035000D03*
D13*
X324305000Y-122495000D03*
D12*
X323035000Y-125035000D03*
D15*
X321030000Y-122495000D03*
X333957000Y-119955000D03*
%TD*%
D17*
%TO.C,REF\u002A\u002A*%
X280914027Y-155673911D03*
X268976027Y-134996689D03*
D18*
X294086273Y-148068911D03*
X282148273Y-127391689D03*
%TD*%
D12*
%TO.C,SW15*%
X52207500Y-75028700D03*
D13*
X49667500Y-69948700D03*
D14*
X47127500Y-75028700D03*
D13*
X43317500Y-72488700D03*
D12*
X42047500Y-75028700D03*
D15*
X40042500Y-72488700D03*
X52969500Y-69948700D03*
%TD*%
D12*
%TO.C,SW7*%
X171270000Y-53597500D03*
D13*
X168730000Y-48517500D03*
D14*
X166190000Y-53597500D03*
D13*
X162380000Y-51057500D03*
D12*
X161110000Y-53597500D03*
D15*
X159105000Y-51057500D03*
X172032000Y-48517500D03*
%TD*%
D23*
%TO.C,H2*%
X218500000Y-186000000D03*
%TD*%
D12*
%TO.C,SW34*%
X152220000Y-91697500D03*
D13*
X149680000Y-86617500D03*
D14*
X147140000Y-91697500D03*
D13*
X143330000Y-89157500D03*
D12*
X142060000Y-91697500D03*
D15*
X140055000Y-89157500D03*
X152982000Y-86617500D03*
%TD*%
D17*
%TO.C,REF\u002A\u002A*%
X159558513Y-157132025D03*
X171496513Y-136454803D03*
D18*
X172730759Y-164737025D03*
X184668759Y-144059803D03*
%TD*%
D12*
%TO.C,SW55*%
X295095000Y-110747500D03*
D13*
X292555000Y-105667500D03*
D14*
X290015000Y-110747500D03*
D13*
X286205000Y-108207500D03*
D12*
X284935000Y-110747500D03*
D15*
X282930000Y-108207500D03*
X295857000Y-105667500D03*
%TD*%
D12*
%TO.C,SW50*%
X152220000Y-110747500D03*
D13*
X149680000Y-105667500D03*
D14*
X147140000Y-110747500D03*
D13*
X143330000Y-108207500D03*
D12*
X142060000Y-110747500D03*
D15*
X140055000Y-108207500D03*
X152982000Y-105667500D03*
%TD*%
D12*
%TO.C,SW38*%
X276045000Y-91697500D03*
D13*
X273505000Y-86617500D03*
D14*
X270965000Y-91697500D03*
D13*
X267155000Y-89157500D03*
D12*
X265885000Y-91697500D03*
D15*
X263880000Y-89157500D03*
X276807000Y-86617500D03*
%TD*%
D23*
%TO.C,H4*%
X35100000Y-142900000D03*
%TD*%
D12*
%TO.C,SW56*%
X314145000Y-108366200D03*
D13*
X311605000Y-103286200D03*
D14*
X309065000Y-108366200D03*
D13*
X305255000Y-105826200D03*
D12*
X303985000Y-108366200D03*
D15*
X301980000Y-105826200D03*
X314907000Y-103286200D03*
%TD*%
D26*
%TO.C,D10*%
X312325000Y-56278750D03*
X312325000Y-52978750D03*
%TD*%
%TO.C,D21*%
X169450000Y-77710000D03*
X169450000Y-74410000D03*
%TD*%
D27*
%TO.C,LED1*%
X258968800Y-37266200D03*
X258968800Y-40566200D03*
X254068800Y-40566200D03*
X254068800Y-37266200D03*
%TD*%
D26*
%TO.C,D16*%
X74200000Y-80091250D03*
X74200000Y-76791250D03*
%TD*%
%TO.C,D60*%
X393287500Y-118191250D03*
X393287500Y-114891250D03*
%TD*%
D28*
%TO.C,C7*%
X213667696Y-69506518D03*
X214346518Y-68827696D03*
%TD*%
D26*
%TO.C,D11*%
X331375000Y-53897500D03*
X331375000Y-50597500D03*
%TD*%
D29*
%TO.C,R101*%
X251540000Y-37260000D03*
X252560000Y-37260000D03*
%TD*%
D30*
%TO.C,U2*%
X244930000Y-66328750D03*
X243660000Y-66328750D03*
X242390000Y-66328750D03*
X241120000Y-66328750D03*
X241120000Y-59128750D03*
X242390000Y-59128750D03*
X243660000Y-59128750D03*
X244930000Y-59128750D03*
%TD*%
D31*
%TO.C,C9*%
X214239411Y-71649411D03*
X213560589Y-70970589D03*
%TD*%
D32*
%TO.C,D69*%
X239881250Y-138770192D03*
X238231250Y-135912308D03*
%TD*%
D26*
%TO.C,D38*%
X274225000Y-96760000D03*
X274225000Y-93460000D03*
%TD*%
%TO.C,D59*%
X369475000Y-118191250D03*
X369475000Y-114891250D03*
%TD*%
%TO.C,D3*%
X93250000Y-56278750D03*
X93250000Y-52978750D03*
%TD*%
%TO.C,D18*%
X112300000Y-72947500D03*
X112300000Y-69647500D03*
%TD*%
D27*
%TO.C,LED8*%
X184350000Y-37310000D03*
X184350000Y-40610000D03*
X179450000Y-40610000D03*
X179450000Y-37310000D03*
%TD*%
D33*
%TO.C,C10*%
X213800000Y-76210000D03*
X212840000Y-76210000D03*
%TD*%
D26*
%TO.C,D29*%
X50387500Y-99141250D03*
X50387500Y-95841250D03*
%TD*%
%TO.C,D23*%
X293275000Y-77710000D03*
X293275000Y-74410000D03*
%TD*%
%TO.C,D65*%
X131350000Y-132478750D03*
X131350000Y-129178750D03*
%TD*%
D34*
%TO.C,R6*%
X217475000Y-64685000D03*
X217475000Y-66335000D03*
%TD*%
D26*
%TO.C,D27*%
X369475000Y-80091250D03*
X369475000Y-76791250D03*
%TD*%
%TO.C,D9*%
X293275000Y-58660000D03*
X293275000Y-55360000D03*
%TD*%
%TO.C,D76*%
X388525000Y-137241250D03*
X388525000Y-133941250D03*
%TD*%
D35*
%TO.C,C14*%
X221221178Y-67726272D03*
X221900000Y-68405094D03*
%TD*%
D31*
%TO.C,C12*%
X215025000Y-70863822D03*
X214346178Y-70185000D03*
%TD*%
D26*
%TO.C,D24*%
X312325000Y-75328750D03*
X312325000Y-72028750D03*
%TD*%
%TO.C,D1*%
X50387500Y-61041250D03*
X50387500Y-57741250D03*
%TD*%
D27*
%TO.C,LED2*%
X392318800Y-37266200D03*
X392318800Y-40566200D03*
X387418800Y-40566200D03*
X387418800Y-37266200D03*
%TD*%
D26*
%TO.C,D61*%
X55150000Y-137241250D03*
X55150000Y-133941250D03*
%TD*%
D36*
%TO.C,D37*%
X285353492Y-135792650D03*
X282495608Y-137442650D03*
%TD*%
D26*
%TO.C,D56*%
X312325000Y-113428750D03*
X312325000Y-110128750D03*
%TD*%
D32*
%TO.C,D71*%
X258931250Y-171313942D03*
X257281250Y-168456058D03*
%TD*%
D37*
%TO.C,C18*%
X210945000Y-41250000D03*
X211905000Y-41250000D03*
%TD*%
D26*
%TO.C,D32*%
X112300000Y-91997500D03*
X112300000Y-88697500D03*
%TD*%
D27*
%TO.C,LED5*%
X197850000Y-181728700D03*
X197850000Y-185028700D03*
X192950000Y-185028700D03*
X192950000Y-181728700D03*
%TD*%
D29*
%TO.C,R9*%
X210915000Y-39950000D03*
X211935000Y-39950000D03*
%TD*%
D26*
%TO.C,D20*%
X150400000Y-77710000D03*
X150400000Y-74410000D03*
%TD*%
D38*
%TO.C,C2*%
X216939411Y-81820589D03*
X216260589Y-82499411D03*
%TD*%
D26*
%TO.C,D5*%
X131350000Y-56278750D03*
X131350000Y-52978750D03*
%TD*%
%TO.C,D47*%
X93250000Y-113428750D03*
X93250000Y-110128750D03*
%TD*%
%TO.C,D7*%
X169450000Y-58660000D03*
X169450000Y-55360000D03*
%TD*%
%TO.C,D43*%
X369475000Y-99141250D03*
X369475000Y-95841250D03*
%TD*%
%TO.C,D63*%
X93250000Y-132478750D03*
X93250000Y-129178750D03*
%TD*%
D39*
%TO.C,C4*%
X244900000Y-57620000D03*
X244900000Y-56660000D03*
%TD*%
D28*
%TO.C,C6*%
X212960589Y-68799411D03*
X213639411Y-68120589D03*
%TD*%
D29*
%TO.C,R4*%
X211890000Y-77310000D03*
X212910000Y-77310000D03*
%TD*%
D38*
%TO.C,C16*%
X224739411Y-69870589D03*
X224060589Y-70549411D03*
%TD*%
D40*
%TO.C,D36*%
X149420258Y-141825150D03*
X152278142Y-143475150D03*
%TD*%
D26*
%TO.C,D31*%
X93250000Y-94378750D03*
X93250000Y-91078750D03*
%TD*%
%TO.C,D50*%
X150400000Y-115810000D03*
X150400000Y-112510000D03*
%TD*%
%TO.C,D49*%
X131350000Y-113428750D03*
X131350000Y-110128750D03*
%TD*%
%TO.C,D75*%
X369475000Y-137241250D03*
X369475000Y-133941250D03*
%TD*%
D41*
%TO.C,D52*%
X185843750Y-132420192D03*
X187493750Y-129562308D03*
%TD*%
D42*
%TO.C,R2*%
X217200000Y-43220000D03*
X217200000Y-42200000D03*
%TD*%
D26*
%TO.C,D44*%
X393287500Y-99141250D03*
X393287500Y-95841250D03*
%TD*%
%TO.C,D17*%
X93250000Y-75328750D03*
X93250000Y-72028750D03*
%TD*%
%TO.C,D30*%
X74200000Y-99141250D03*
X74200000Y-95841250D03*
%TD*%
%TO.C,D55*%
X293275000Y-115810000D03*
X293275000Y-112510000D03*
%TD*%
D29*
%TO.C,R11*%
X213790000Y-77310000D03*
X214810000Y-77310000D03*
%TD*%
D26*
%TO.C,D62*%
X74200000Y-137241250D03*
X74200000Y-133941250D03*
%TD*%
D43*
%TO.C,Y1*%
X218083776Y-82565635D03*
X219639411Y-81010000D03*
X220841492Y-82212081D03*
X219285857Y-83767716D03*
%TD*%
D26*
%TO.C,D35*%
X169450000Y-96760000D03*
X169450000Y-93460000D03*
%TD*%
D38*
%TO.C,C1*%
X221639411Y-83310000D03*
X220960589Y-83988822D03*
%TD*%
D44*
%TO.C,C17*%
X225251992Y-57861992D03*
X226348008Y-58958008D03*
%TD*%
D31*
%TO.C,C8*%
X215678822Y-70188822D03*
X215000000Y-69510000D03*
%TD*%
D45*
%TO.C,R3*%
X218300000Y-80460000D03*
X217578752Y-81181248D03*
%TD*%
D27*
%TO.C,LED4*%
X243887500Y-181728700D03*
X243887500Y-185028700D03*
X238987500Y-185028700D03*
X238987500Y-181728700D03*
%TD*%
D26*
%TO.C,D40*%
X312325000Y-94378750D03*
X312325000Y-91078750D03*
%TD*%
D46*
%TO.C,C3*%
X228799999Y-59211083D03*
X228799999Y-60171083D03*
%TD*%
D26*
%TO.C,D13*%
X369475000Y-61041250D03*
X369475000Y-57741250D03*
%TD*%
%TO.C,D12*%
X350425000Y-56278750D03*
X350425000Y-52978750D03*
%TD*%
%TO.C,D2*%
X74200000Y-61041250D03*
X74200000Y-57741250D03*
%TD*%
%TO.C,D58*%
X350425000Y-113428750D03*
X350425000Y-110128750D03*
%TD*%
%TO.C,D64*%
X112300000Y-130097500D03*
X112300000Y-126797500D03*
%TD*%
D32*
%TO.C,D53*%
X256550000Y-129245192D03*
X254900000Y-126387308D03*
%TD*%
D40*
%TO.C,D51*%
X165918058Y-150727350D03*
X168775942Y-152377350D03*
%TD*%
D39*
%TO.C,C5*%
X233994580Y-60159951D03*
X233994580Y-59199951D03*
%TD*%
D26*
%TO.C,D8*%
X274225000Y-58660000D03*
X274225000Y-55360000D03*
%TD*%
D28*
%TO.C,C15*%
X220481767Y-69744505D03*
X221160589Y-69065683D03*
%TD*%
D34*
%TO.C,R5*%
X219075000Y-64685000D03*
X219075000Y-66335000D03*
%TD*%
D41*
%TO.C,D68*%
X202512500Y-141945192D03*
X204162500Y-139087308D03*
%TD*%
D26*
%TO.C,D22*%
X274225000Y-77710000D03*
X274225000Y-74410000D03*
%TD*%
D42*
%TO.C,R7*%
X220200000Y-43220000D03*
X220200000Y-42200000D03*
%TD*%
D27*
%TO.C,LED7*%
X49418800Y-37266200D03*
X49418800Y-40566200D03*
X44518800Y-40566200D03*
X44518800Y-37266200D03*
%TD*%
D47*
%TO.C,R8*%
X246500000Y-65309999D03*
X246500000Y-66329999D03*
%TD*%
D26*
%TO.C,D72*%
X312325000Y-132478750D03*
X312325000Y-129178750D03*
%TD*%
%TO.C,D25*%
X331375000Y-72947500D03*
X331375000Y-69647500D03*
%TD*%
%TO.C,D19*%
X131350000Y-75328750D03*
X131350000Y-72028750D03*
%TD*%
D36*
%TO.C,D54*%
X268855692Y-145488600D03*
X265997808Y-147138600D03*
%TD*%
D26*
%TO.C,D28*%
X393287500Y-80091250D03*
X393287500Y-76791250D03*
%TD*%
%TO.C,D34*%
X150400000Y-96760000D03*
X150400000Y-93460000D03*
%TD*%
%TO.C,D48*%
X112300000Y-111047500D03*
X112300000Y-107747500D03*
%TD*%
D47*
%TO.C,R10*%
X246500000Y-63410001D03*
X246500000Y-64430001D03*
%TD*%
D48*
%TO.C,U4*%
X219375000Y-46776219D03*
X219375000Y-47726219D03*
X219375000Y-48676219D03*
X217025000Y-48676219D03*
X217025000Y-47726219D03*
X217025000Y-46776219D03*
%TD*%
D27*
%TO.C,LED3*%
X334375000Y-138072500D03*
X334375000Y-141372500D03*
X329475000Y-141372500D03*
X329475000Y-138072500D03*
%TD*%
D41*
%TO.C,D67*%
X192987500Y-158613942D03*
X194637500Y-155756058D03*
%TD*%
D37*
%TO.C,C11*%
X224300000Y-76510000D03*
X225260000Y-76510000D03*
%TD*%
D26*
%TO.C,D14*%
X393287500Y-61041250D03*
X393287500Y-57741250D03*
%TD*%
%TO.C,D41*%
X331375000Y-91997500D03*
X331375000Y-88697500D03*
%TD*%
%TO.C,D39*%
X293275000Y-96760000D03*
X293275000Y-93460000D03*
%TD*%
D47*
%TO.C,R1*%
X246300000Y-71900000D03*
X246300000Y-72920000D03*
%TD*%
D26*
%TO.C,D46*%
X74200000Y-118191250D03*
X74200000Y-114891250D03*
%TD*%
%TO.C,D26*%
X350425000Y-75328750D03*
X350425000Y-72028750D03*
%TD*%
D27*
%TO.C,LED6*%
X107362500Y-138072500D03*
X107362500Y-141372500D03*
X102462500Y-141372500D03*
X102462500Y-138072500D03*
%TD*%
D26*
%TO.C,D74*%
X350425000Y-132478750D03*
X350425000Y-129178750D03*
%TD*%
D49*
%TO.C,J1*%
X221315000Y-39050000D03*
X215535000Y-39050000D03*
D50*
X215175000Y-40495000D03*
X215975000Y-40495000D03*
D51*
X217175000Y-40495000D03*
X218175000Y-40495000D03*
X218675000Y-40495000D03*
X219675000Y-40495000D03*
D50*
X220875000Y-40495000D03*
X221675000Y-40495000D03*
X221675000Y-40495000D03*
X220875000Y-40495000D03*
D51*
X220175000Y-40495000D03*
X219175000Y-40495000D03*
X217675000Y-40495000D03*
X216675000Y-40495000D03*
D50*
X215975000Y-40495000D03*
X215175000Y-40495000D03*
D52*
X214105000Y-35400000D03*
D53*
X214105000Y-39580000D03*
X222745000Y-39580000D03*
D52*
X222745000Y-35400000D03*
%TD*%
D31*
%TO.C,C13*%
X213478822Y-72388822D03*
X212800000Y-71710000D03*
%TD*%
D26*
%TO.C,D45*%
X50387500Y-118191250D03*
X50387500Y-114891250D03*
%TD*%
%TO.C,D15*%
X50387500Y-80091250D03*
X50387500Y-76791250D03*
%TD*%
%TO.C,D57*%
X331375000Y-111047500D03*
X331375000Y-107747500D03*
%TD*%
%TO.C,D33*%
X131350000Y-94378750D03*
X131350000Y-91078750D03*
%TD*%
D54*
%TO.C,U1*%
X232537500Y-58260000D03*
X232537500Y-60160000D03*
X230262500Y-59210000D03*
%TD*%
D55*
%TO.C,F1*%
X222900000Y-43610000D03*
X222900000Y-46410000D03*
%TD*%
D26*
%TO.C,D4*%
X112300000Y-53897500D03*
X112300000Y-50597500D03*
%TD*%
%TO.C,D73*%
X331375000Y-130097500D03*
X331375000Y-126797500D03*
%TD*%
%TO.C,D6*%
X150400000Y-58660000D03*
X150400000Y-55360000D03*
%TD*%
D41*
%TO.C,D66*%
X183462500Y-175282692D03*
X185112500Y-172424808D03*
%TD*%
D26*
%TO.C,D42*%
X350425000Y-94378750D03*
X350425000Y-91078750D03*
%TD*%
D32*
%TO.C,D70*%
X249406250Y-155438942D03*
X247756250Y-152581058D03*
%TD*%
D56*
%TO.C,U3*%
X222967500Y-72670000D03*
X222967500Y-73070000D03*
X222967500Y-73470000D03*
X222967500Y-73870000D03*
X222967500Y-74270000D03*
X222967500Y-74670000D03*
X222967500Y-75070000D03*
X222967500Y-75470000D03*
X222967500Y-75870000D03*
X222967500Y-76270000D03*
X222967500Y-76670000D03*
X222967500Y-77070000D03*
X222967500Y-77470000D03*
X222967500Y-77870000D03*
D57*
X222130000Y-78707500D03*
X221730000Y-78707500D03*
X221330000Y-78707500D03*
X220930000Y-78707500D03*
X220530000Y-78707500D03*
X220130000Y-78707500D03*
X219730000Y-78707500D03*
X219330000Y-78707500D03*
X218930000Y-78707500D03*
X218530000Y-78707500D03*
X218130000Y-78707500D03*
X217730000Y-78707500D03*
X217330000Y-78707500D03*
X216930000Y-78707500D03*
D56*
X216092500Y-77870000D03*
X216092500Y-77470000D03*
X216092500Y-77070000D03*
X216092500Y-76670000D03*
X216092500Y-76270000D03*
X216092500Y-75870000D03*
X216092500Y-75470000D03*
X216092500Y-75070000D03*
X216092500Y-74670000D03*
X216092500Y-74270000D03*
X216092500Y-73870000D03*
X216092500Y-73470000D03*
X216092500Y-73070000D03*
X216092500Y-72670000D03*
D57*
X216930000Y-71832500D03*
X217330000Y-71832500D03*
X217730000Y-71832500D03*
X218130000Y-71832500D03*
X218530000Y-71832500D03*
X218930000Y-71832500D03*
X219330000Y-71832500D03*
X219730000Y-71832500D03*
X220130000Y-71832500D03*
X220530000Y-71832500D03*
X220930000Y-71832500D03*
X221330000Y-71832500D03*
X221730000Y-71832500D03*
X222130000Y-71832500D03*
D58*
X219530000Y-75270000D03*
%TD*%
%LPD*%
M02*
