M48
; DRILL file {KiCad 7.0.2} date Tue Jun  6 03:29:56 2023
; FORMAT={-:-/ absolute / inch / decimal}
; #@! TF.CreationDate,2023-06-06T03:29:56-04:00
; #@! TF.GenerationSoftware,Kicad,Pcbnew,7.0.2
; #@! TF.FileFunction,NonPlated,1,2,NPTH
FMAT,2
INCH
; #@! TA.AperFunction,NonPlated,NPTH,ComponentDrill
T1C0.0256
; #@! TA.AperFunction,NonPlated,NPTH,ComponentDrill
T2C0.0390
; #@! TA.AperFunction,NonPlated,NPTH,ComponentDrill
T3C0.0689
; #@! TA.AperFunction,NonPlated,NPTH,ComponentDrill
T4C0.0935
; #@! TA.AperFunction,NonPlated,NPTH,ComponentDrill
T5C0.1200
; #@! TA.AperFunction,NonPlated,NPTH,ComponentDrill
T6C0.1201
; #@! TA.AperFunction,NonPlated,NPTH,ComponentDrill
T7C0.1570
; #@! TA.AperFunction,NonPlated,NPTH,ComponentDrill
T8C0.1575
%
G90
G05
T1
X8.4856Y-1.5374
X8.7132Y-1.5374
T2
X7.8137Y-2.8402
X7.8537Y-3.1402
X7.8937Y-2.8402
T3
X1.6554Y-2.2039
X1.6554Y-2.9539
X1.6554Y-3.7039
X1.6554Y-4.4539
X1.8429Y-5.2039
X2.0554Y-2.2039
X2.0554Y-2.9539
X2.0554Y-3.7039
X2.0554Y-4.4539
X2.2429Y-5.2039
X2.5929Y-2.2039
X2.5929Y-2.9539
X2.5929Y-3.7039
X2.5929Y-4.4539
X2.5929Y-5.2039
X2.9929Y-2.2039
X2.9929Y-2.9539
X2.9929Y-3.7039
X2.9929Y-4.4539
X2.9929Y-5.2039
X3.3429Y-2.0164
X3.3429Y-2.7664
X3.3429Y-3.5164
X3.3429Y-4.2664
X3.3429Y-5.0164
X3.7429Y-2.0164
X3.7429Y-2.7664
X3.7429Y-3.5164
X3.7429Y-4.2664
X3.7429Y-5.0164
X4.0929Y-1.9226
X4.0929Y-2.6726
X4.0929Y-3.4226
X4.0929Y-4.1726
X4.0929Y-4.9226
X4.4929Y-1.9226
X4.4929Y-2.6726
X4.4929Y-3.4226
X4.4929Y-4.1726
X4.4929Y-4.9226
X4.8429Y-2.0164
X4.8429Y-2.7664
X4.8429Y-3.5164
X4.8429Y-4.2664
X4.8429Y-5.0164
X5.2429Y-2.0164
X5.2429Y-2.7664
X5.2429Y-3.5164
X5.2429Y-4.2664
X5.2429Y-5.0164
X5.5929Y-2.1101
X5.5929Y-2.8601
X5.5929Y-3.6101
X5.5929Y-4.3601
X5.9929Y-2.1101
X5.9929Y-2.8601
X5.9929Y-3.6101
X5.9929Y-4.3601
X6.0177Y-5.7454
X6.2177Y-5.399
X6.3429Y-2.1101
X6.3429Y-2.8601
X6.3429Y-3.6101
X6.6672Y-6.1204
X6.7429Y-2.1101
X6.7429Y-2.8601
X6.7429Y-3.6101
X6.8672Y-5.774
X7.056Y-6.5469
X7.1565Y-4.8729
X7.4024Y-6.7469
X7.431Y-5.8974
X7.5029Y-5.0729
X7.7774Y-6.0974
X7.806Y-5.2479
X8.1524Y-5.4479
X9.0584Y-5.4479
X9.4048Y-5.2479
X9.4334Y-6.0974
X9.7079Y-5.0729
X9.7798Y-5.8974
X9.8084Y-6.7469
X10.0543Y-4.8729
X10.1548Y-6.5469
X10.3436Y-5.774
X10.4679Y-2.1101
X10.4679Y-2.8601
X10.4679Y-3.6101
X10.5436Y-6.1204
X10.8679Y-2.1101
X10.8679Y-2.8601
X10.8679Y-3.6101
X10.9932Y-5.399
X11.1932Y-5.7454
X11.2179Y-2.1101
X11.2179Y-2.8601
X11.2179Y-3.6101
X11.2179Y-4.3601
X11.6179Y-2.1101
X11.6179Y-2.8601
X11.6179Y-3.6101
X11.6179Y-4.3601
X11.9679Y-2.0164
X11.9679Y-2.7664
X11.9679Y-3.5164
X11.9679Y-4.2664
X11.9679Y-5.0164
X12.3679Y-2.0164
X12.3679Y-2.7664
X12.3679Y-3.5164
X12.3679Y-4.2664
X12.3679Y-5.0164
X12.7179Y-1.9226
X12.7179Y-2.6726
X12.7179Y-3.4226
X12.7179Y-4.1726
X12.7179Y-4.9226
X13.1179Y-1.9226
X13.1179Y-2.6726
X13.1179Y-3.4226
X13.1179Y-4.1726
X13.1179Y-4.9226
X13.4679Y-2.0164
X13.4679Y-2.7664
X13.4679Y-3.5164
X13.4679Y-4.2664
X13.4679Y-5.0164
X13.8679Y-2.0164
X13.8679Y-2.7664
X13.8679Y-3.5164
X13.8679Y-4.2664
X13.8679Y-5.0164
X14.2179Y-2.2039
X14.2179Y-2.9539
X14.2179Y-3.7039
X14.2179Y-4.4539
X14.2179Y-5.2039
X14.6179Y-2.2039
X14.6179Y-2.9539
X14.6179Y-3.7039
X14.6179Y-4.4539
X14.6179Y-5.2039
X14.9679Y-5.2039
X15.1554Y-2.2039
X15.1554Y-2.9539
X15.1554Y-3.7039
X15.1554Y-4.4539
X15.3679Y-5.2039
X15.5554Y-2.2039
X15.5554Y-2.9539
X15.5554Y-3.7039
X15.5554Y-4.4539
T4
X7.7537Y-2.9152
X7.7537Y-3.1402
X7.9537Y-2.9152
X7.9537Y-3.1402
T5
X6.1208Y-6.1167
X6.2818Y-6.1863
X6.5908Y-5.3026
X6.7518Y-5.3722
X10.4468Y-5.4026
X10.5896Y-5.3148
X10.9168Y-6.2167
X11.0596Y-6.1289
T6
X1.7054Y-2.1039
X1.7054Y-2.8539
X1.7054Y-3.6039
X1.7054Y-4.3539
X1.8929Y-5.1039
X1.9554Y-2.0039
X1.9554Y-2.7539
X1.9554Y-3.5039
X1.9554Y-4.2539
X2.1429Y-5.0039
X2.6429Y-2.1039
X2.6429Y-2.8539
X2.6429Y-3.6039
X2.6429Y-4.3539
X2.6429Y-5.1039
X2.8929Y-2.0039
X2.8929Y-2.7539
X2.8929Y-3.5039
X2.8929Y-4.2539
X2.8929Y-5.0039
X3.3929Y-1.9164
X3.3929Y-2.6664
X3.3929Y-3.4164
X3.3929Y-4.1664
X3.3929Y-4.9164
X3.6429Y-1.8164
X3.6429Y-2.5664
X3.6429Y-3.3164
X3.6429Y-4.0664
X3.6429Y-4.8164
X4.1429Y-1.8226
X4.1429Y-2.5726
X4.1429Y-3.3226
X4.1429Y-4.0726
X4.1429Y-4.8226
X4.3929Y-1.7226
X4.3929Y-2.4726
X4.3929Y-3.2226
X4.3929Y-3.9726
X4.3929Y-4.7226
X4.8929Y-1.9164
X4.8929Y-2.6664
X4.8929Y-3.4164
X4.8929Y-4.1664
X4.8929Y-4.9164
X5.1429Y-1.8164
X5.1429Y-2.5664
X5.1429Y-3.3164
X5.1429Y-4.0664
X5.1429Y-4.8164
X5.6429Y-2.0101
X5.6429Y-2.7601
X5.6429Y-3.5101
X5.6429Y-4.2601
X5.8929Y-1.9101
X5.8929Y-2.6601
X5.8929Y-3.4101
X5.8929Y-4.1601
X6.2409Y-5.7588
X6.2793Y-5.4923
X6.3929Y-2.0101
X6.3929Y-2.7601
X6.3929Y-3.5101
X6.6429Y-1.9101
X6.6429Y-2.6601
X6.6429Y-3.4101
X6.8904Y-6.1338
X6.9288Y-5.8673
X7.1493Y-6.4853
X7.2498Y-4.8113
X7.4158Y-6.5237
X7.5163Y-4.8497
X7.5243Y-5.8358
X7.7908Y-5.8742
X7.8993Y-5.1863
X8.1658Y-5.2247
X9.0517Y-5.3363
X9.2182Y-5.1247
X9.4267Y-5.9858
X9.5932Y-5.7742
X9.7012Y-4.9613
X9.8017Y-6.6353
X9.8677Y-4.7497
X9.9682Y-6.4237
X10.2204Y-5.9606
X10.432Y-6.1271
X10.5179Y-2.0101
X10.5179Y-2.7601
X10.5179Y-3.5101
X10.7679Y-1.9101
X10.7679Y-2.6601
X10.7679Y-3.4101
X10.8699Y-5.5856
X11.0816Y-5.7521
X11.2679Y-2.0101
X11.2679Y-2.7601
X11.2679Y-3.5101
X11.2679Y-4.2601
X11.5179Y-1.9101
X11.5179Y-2.6601
X11.5179Y-3.4101
X11.5179Y-4.1601
X12.0179Y-1.9164
X12.0179Y-2.6664
X12.0179Y-3.4164
X12.0179Y-4.1664
X12.0179Y-4.9164
X12.2679Y-1.8164
X12.2679Y-2.5664
X12.2679Y-3.3164
X12.2679Y-4.0664
X12.2679Y-4.8164
X12.7679Y-1.8226
X12.7679Y-2.5726
X12.7679Y-3.3226
X12.7679Y-4.0726
X12.7679Y-4.8226
X13.0179Y-1.7226
X13.0179Y-2.4726
X13.0179Y-3.2226
X13.0179Y-3.9726
X13.0179Y-4.7226
X13.5179Y-1.9164
X13.5179Y-2.6664
X13.5179Y-3.4164
X13.5179Y-4.1664
X13.5179Y-4.9164
X13.7679Y-1.8164
X13.7679Y-2.5664
X13.7679Y-3.3164
X13.7679Y-4.0664
X13.7679Y-4.8164
X14.2679Y-2.1039
X14.2679Y-2.8539
X14.2679Y-3.6039
X14.2679Y-4.3539
X14.2679Y-5.1039
X14.5179Y-2.0039
X14.5179Y-2.7539
X14.5179Y-3.5039
X14.5179Y-4.2539
X14.5179Y-5.0039
X15.0179Y-5.1039
X15.2054Y-2.1039
X15.2054Y-2.8539
X15.2054Y-3.6039
X15.2054Y-4.3539
X15.2679Y-5.0039
X15.4554Y-2.0039
X15.4554Y-2.7539
X15.4554Y-3.5039
X15.4554Y-4.2539
T7
X5.6022Y-5.8173
X6.0722Y-5.0032
X6.8004Y-6.4857
X7.2704Y-5.6716
X9.9282Y-5.702
X10.3982Y-6.5161
X11.1082Y-5.0154
X11.5782Y-5.8295
T8
X1.8554Y-2.2039
X1.8554Y-2.9539
X1.8554Y-3.7039
X1.8554Y-4.4539
X2.0429Y-5.2039
X2.7929Y-2.2039
X2.7929Y-2.9539
X2.7929Y-3.7039
X2.7929Y-4.4539
X2.7929Y-5.2039
X3.5429Y-2.0164
X3.5429Y-2.7664
X3.5429Y-3.5164
X3.5429Y-4.2664
X3.5429Y-5.0164
X4.2929Y-1.9226
X4.2929Y-2.6726
X4.2929Y-3.4226
X4.2929Y-4.1726
X4.2929Y-4.9226
X5.0429Y-2.0164
X5.0429Y-2.7664
X5.0429Y-3.5164
X5.0429Y-4.2664
X5.0429Y-5.0164
X5.7929Y-2.1101
X5.7929Y-2.8601
X5.7929Y-3.6101
X5.7929Y-4.3601
X6.1177Y-5.5722
X6.5429Y-2.1101
X6.5429Y-2.8601
X6.5429Y-3.6101
X6.7672Y-5.9472
X7.2292Y-6.6469
X7.3297Y-4.9729
X7.6042Y-5.9974
X7.9792Y-5.3479
X9.2316Y-5.3479
X9.6066Y-5.9974
X9.8811Y-4.9729
X9.9816Y-6.6469
X10.4436Y-5.9472
X10.6679Y-2.1101
X10.6679Y-2.8601
X10.6679Y-3.6101
X11.0932Y-5.5722
X11.4179Y-2.1101
X11.4179Y-2.8601
X11.4179Y-3.6101
X11.4179Y-4.3601
X12.1679Y-2.0164
X12.1679Y-2.7664
X12.1679Y-3.5164
X12.1679Y-4.2664
X12.1679Y-5.0164
X12.9179Y-1.9226
X12.9179Y-2.6726
X12.9179Y-3.4226
X12.9179Y-4.1726
X12.9179Y-4.9226
X13.6679Y-2.0164
X13.6679Y-2.7664
X13.6679Y-3.5164
X13.6679Y-4.2664
X13.6679Y-5.0164
X14.4179Y-2.2039
X14.4179Y-2.9539
X14.4179Y-3.7039
X14.4179Y-4.4539
X14.4179Y-5.2039
X15.1679Y-5.2039
X15.3554Y-2.2039
X15.3554Y-2.9539
X15.3554Y-3.7039
X15.3554Y-4.4539
T0
M30
